<svg xmlns="http://www.w3.org/2000/svg" xmlns:xlink="http://www.w3.org/1999/xlink" width="200" zoomAndPan="magnify" viewBox="0 0 150 149.999998" height="200" preserveAspectRatio="xMidYMid meet" version="1.0"><defs><clipPath id="95e053d730"><path d="M 42.183594 42 L 107.808594 42 L 107.808594 109 L 42.183594 109 Z M 42.183594 42 " clip-rule="nonzero"/></clipPath><clipPath id="c77c1c76d6"><path d="M 42.183594 56 L 67 56 L 67 76 L 42.183594 76 Z M 42.183594 56 " clip-rule="nonzero"/></clipPath><clipPath id="1d4473d5eb"><path d="M 42.183594 42 L 107.808594 42 L 107.808594 109 L 42.183594 109 Z M 42.183594 42 " clip-rule="nonzero"/></clipPath></defs><g clip-path="url(#95e053d730)"><path fill="#000000" d="M 43.039062 58.328125 C 43.945312 56.640625 46.523438 56.183594 48.523438 56.097656 C 49.597656 56.050781 50.8125 56.09375 52.140625 56.230469 C 54.394531 56.464844 57.1875 57.296875 60.441406 58.695312 C 61.933594 59.335938 63.527344 60.101562 65.179688 60.96875 C 64.628906 59.574219 64.402344 56.871094 65.691406 55.667969 C 64.429688 53.972656 61.136719 46.851562 62.167969 43.769531 C 62.398438 43.085938 62.855469 42.664062 63.523438 42.511719 C 65.710938 42.027344 70.203125 44.769531 74.4375 49.1875 C 75.511719 50.304688 76.78125 52.578125 78.207031 55.945312 C 79.726562 59.535156 81.113281 63.625 82.027344 66.46875 C 84.109375 66.535156 85.996094 67.238281 87.636719 68.5625 C 88.253906 67.191406 89.347656 66.273438 90.820312 65.902344 C 92.5 65.476562 94.015625 65.585938 95.324219 66.222656 C 95.402344 66.039062 95.464844 65.972656 95.515625 65.929688 C 95.855469 65.667969 97.699219 62.933594 98.34375 61.484375 C 98.367188 61.429688 98.414062 61.386719 98.472656 61.371094 C 98.53125 61.355469 98.59375 61.367188 98.644531 61.402344 C 98.902344 61.589844 99.042969 61.871094 99.054688 62.246094 C 99.109375 63.574219 97.550781 65.820312 96.390625 66.890625 C 97.730469 67.941406 98.542969 69.441406 99.019531 70.671875 L 100.90625 66.707031 C 100.929688 66.660156 100.96875 66.621094 101.015625 66.605469 C 102.414062 66.085938 107.023438 64.414062 107.652344 64.769531 C 107.730469 64.8125 107.78125 64.886719 107.796875 64.96875 C 107.796875 64.984375 107.800781 64.996094 107.800781 65.007812 C 107.800781 66.613281 102.898438 67.277344 101.8125 67.363281 C 101.519531 69.542969 100.148438 71.574219 99.457031 72.113281 C 99.675781 73.195312 99.722656 74.632812 99.582031 75.996094 C 99.5 76.828125 99.273438 78.25 98.730469 78.730469 C 98.585938 80.550781 96.308594 82.667969 96.207031 82.757812 C 96.171875 82.792969 96.121094 82.8125 96.074219 82.8125 C 96.054688 82.8125 96.039062 82.808594 96.019531 82.804688 C 95.953125 82.789062 95.902344 82.738281 95.882812 82.671875 L 95.84375 82.546875 C 95.613281 81.816406 95.265625 80.707031 94.992188 80.707031 C 94.980469 80.707031 94.964844 80.703125 94.953125 80.703125 C 94.925781 80.695312 94.285156 80.566406 93.742188 80.347656 C 93.488281 80.242188 93.199219 80.097656 92.882812 79.910156 C 92.828125 80.480469 92.730469 81.03125 92.585938 81.558594 C 93.964844 82.5625 94.28125 83.828125 93.878906 84.578125 C 94.207031 86.925781 93.128906 87.800781 92.773438 88.09375 C 92.765625 88.097656 92.757812 88.101562 92.753906 88.105469 C 92.792969 88.382812 92.855469 89.019531 92.90625 89.558594 C 92.914062 89.648438 92.863281 89.730469 92.777344 89.761719 C 92.753906 89.773438 92.730469 89.777344 92.707031 89.777344 C 92.644531 89.777344 92.585938 89.746094 92.546875 89.695312 L 91.71875 88.582031 L 90.71875 88.550781 C 90.632812 88.546875 90.554688 88.488281 90.53125 88.402344 C 90.511719 88.316406 90.546875 88.226562 90.621094 88.179688 L 91.933594 87.382812 C 92.082031 87.21875 93.117188 86.023438 92.960938 85.011719 C 92.957031 85.011719 92.953125 85.011719 92.945312 85.011719 C 92.21875 85.011719 91.652344 84.839844 91.199219 84.480469 C 90.738281 85.117188 90.179688 85.707031 89.535156 86.242188 C 89.164062 87.820312 88.339844 89.5 87.367188 89.632812 C 86.46875 90.808594 84.746094 93.535156 84.730469 93.5625 C 84.691406 93.625 84.628906 93.65625 84.5625 93.65625 C 84.546875 93.65625 84.53125 93.65625 84.519531 93.652344 C 84.433594 93.636719 84.375 93.570312 84.363281 93.484375 C 84.316406 93.164062 84.226562 92.484375 84.195312 92.207031 C 84.03125 92.140625 83.589844 92.03125 83.214844 91.949219 C 83.121094 91.929688 83.054688 91.84375 83.058594 91.75 C 83.0625 91.652344 83.132812 91.570312 83.230469 91.558594 C 83.628906 91.507812 85.480469 90.644531 86.332031 89.171875 C 86.160156 88.976562 86.019531 88.691406 85.917969 88.339844 C 84.886719 88.722656 83.347656 89.058594 81.640625 89.058594 C 81.324219 89.058594 81.003906 89.046875 80.675781 89.023438 C 80.878906 90.082031 80.746094 90.867188 80.289062 91.257812 C 80.582031 93.179688 79.382812 94.941406 79.242188 95.140625 C 78.871094 95.664062 78.800781 96.632812 78.800781 96.640625 C 78.792969 96.738281 78.714844 96.816406 78.617188 96.828125 C 78.609375 96.828125 78.605469 96.828125 78.601562 96.828125 C 78.507812 96.828125 78.425781 96.761719 78.40625 96.671875 L 78.15625 95.554688 L 77.339844 95.285156 C 77.25 95.253906 77.195312 95.171875 77.203125 95.082031 C 77.210938 94.988281 77.277344 94.914062 77.367188 94.898438 C 78.15625 94.757812 79.28125 93.574219 79.25 91.476562 C 78.253906 90.988281 77.101562 89.832031 76.675781 87.980469 C 76.480469 87.886719 76.289062 87.789062 76.097656 87.683594 C 75.949219 88.152344 75.644531 88.851562 75.234375 89.667969 C 74.996094 90.140625 74.734375 90.625 74.457031 91.109375 C 76.050781 92.210938 76.089844 93.746094 75.695312 94.632812 C 77.4375 95.890625 77.773438 97.964844 77.070312 99.289062 C 76.382812 100.589844 75.890625 101.742188 76.894531 102.617188 C 76.960938 102.679688 76.980469 102.777344 76.9375 102.855469 C 76.898438 102.9375 76.808594 102.980469 76.71875 102.960938 C 76.394531 102.898438 76.054688 102.707031 75.832031 102.566406 L 75.636719 103.480469 C 75.621094 103.558594 75.558594 103.617188 75.480469 103.632812 C 75.46875 103.636719 75.453125 103.636719 75.4375 103.636719 C 75.375 103.636719 75.316406 103.609375 75.277344 103.554688 C 75.238281 103.5 74.296875 102.195312 74.832031 101.285156 C 74.921875 101.128906 75.027344 100.972656 75.136719 100.804688 C 75.59375 100.109375 76.066406 99.390625 75.785156 98.664062 C 75.457031 97.824219 74.269531 96.222656 73.945312 95.796875 C 73.199219 95.953125 72.277344 95.382812 71.796875 94.925781 C 71.457031 95.292969 71.136719 95.585938 70.835938 95.800781 C 71.59375 96.4375 73.164062 97.863281 73.265625 99.371094 C 73.308594 99.980469 73.109375 100.546875 72.671875 101.046875 C 73.015625 105 71.253906 106.144531 70.085938 106.902344 C 69.890625 107.027344 69.710938 107.144531 69.5625 107.257812 C 69.117188 107.609375 68.996094 108.054688 69.210938 108.582031 L 69.414062 108.953125 C 69.464844 109.042969 69.4375 109.15625 69.351562 109.214844 C 69.316406 109.238281 69.277344 109.246094 69.242188 109.246094 C 69.179688 109.246094 69.121094 109.21875 69.082031 109.167969 C 69.074219 109.164062 68.953125 109 68.847656 108.753906 L 68.453125 108.039062 L 67.574219 108.800781 C 67.539062 108.835938 67.492188 108.851562 67.441406 108.851562 C 67.429688 108.851562 67.417969 108.851562 67.40625 108.847656 C 67.347656 108.839844 67.296875 108.800781 67.265625 108.75 C 67.253906 108.726562 66.941406 108.140625 67.195312 107.488281 C 67.402344 106.960938 67.910156 106.554688 68.707031 106.28125 C 71.171875 105.4375 70.683594 102.6875 70.410156 101.683594 C 68.660156 101.347656 67.515625 99.957031 67.222656 97.828125 C 67 98.03125 66.710938 98.289062 66.371094 98.59375 C 65.847656 99.054688 65.320312 99.511719 64.800781 99.949219 C 64.058594 100.578125 63.316406 101.183594 62.601562 101.75 C 61.945312 102.269531 61.289062 102.765625 60.652344 103.234375 C 59.777344 103.875 58.9375 104.453125 58.148438 104.949219 C 57.375 105.441406 56.644531 105.859375 55.984375 106.199219 C 54.535156 106.933594 53.335938 107.300781 52.410156 107.300781 C 52.1875 107.300781 51.980469 107.28125 51.789062 107.238281 C 51.757812 107.230469 51.730469 107.21875 51.707031 107.199219 C 50.332031 106.109375 49.273438 104.878906 48.550781 103.535156 C 48.152344 102.796875 47.847656 102.007812 47.648438 101.191406 C 47.351562 99.96875 47.28125 98.652344 47.4375 97.28125 C 47.558594 96.191406 47.824219 95.046875 48.230469 93.875 C 48.609375 92.78125 49.113281 91.644531 49.730469 90.492188 C 50.296875 89.4375 50.96875 88.351562 51.726562 87.269531 C 53.027344 85.417969 54.324219 83.929688 55.183594 83.007812 C 56.292969 81.820312 57.195312 81.007812 57.597656 80.730469 C 57.882812 80.535156 58.238281 80.316406 58.625 80.101562 C 59.667969 79.515625 60.902344 78.949219 62.09375 78.507812 C 63.65625 77.933594 65.140625 77.566406 66.511719 77.414062 C 67.671875 77.289062 68.734375 77.324219 69.679688 77.515625 C 69.621094 76.363281 69.777344 75.226562 70.140625 74.136719 C 68.136719 74.476562 66.0625 74.792969 64.257812 75.039062 C 62.351562 75.300781 59.851562 75.605469 58.535156 75.605469 C 58.480469 75.605469 58.425781 75.605469 58.371094 75.601562 C 56.742188 75.566406 55.078125 74.835938 53.808594 73.605469 C 52.507812 72.34375 51.761719 70.710938 51.695312 69.003906 C 50.382812 68.242188 44.699219 63.527344 43.25 61.148438 C 42.660156 60.175781 42.585938 59.175781 43.039062 58.328125 Z M 43.039062 58.328125 " fill-opacity="1" fill-rule="nonzero"/></g><g clip-path="url(#c77c1c76d6)"><path fill="#e5deca" d="M 63.128906 70.789062 L 65.742188 68.40625 C 64.933594 68.1875 64.417969 68.050781 64.417969 68.050781 L 59.472656 68.230469 L 57.289062 62.589844 L 53.058594 63.078125 C 53.058594 63.078125 54.96875 60.164062 55.332031 60.164062 L 48.773438 59.585938 L 46.640625 58.136719 L 48.53125 56.296875 C 43.179688 56.527344 42.1875 59.019531 43.421875 61.042969 C 44.898438 63.460938 50.863281 68.367188 51.894531 68.882812 C 51.96875 72.46875 55.140625 75.328125 58.378906 75.402344 C 59.460938 75.425781 61.691406 75.191406 64.234375 74.839844 L 66.085938 71.890625 L 61.769531 72.027344 Z M 63.128906 70.789062 " fill-opacity="1" fill-rule="nonzero"/></g><path fill="#e5deca" d="M 46.640625 58.136719 L 48.773438 59.585938 L 55.332031 60.164062 L 59.472656 60.53125 L 60.363281 58.878906 C 57.386719 57.597656 54.527344 56.679688 52.117188 56.429688 C 50.75 56.289062 49.558594 56.25 48.53125 56.296875 Z M 46.640625 58.136719 " fill-opacity="1" fill-rule="nonzero"/><path fill="#f9be06" d="M 48.425781 93.9375 C 48.042969 95.042969 47.765625 96.171875 47.640625 97.300781 C 49.636719 99.632812 56.433594 102.710938 60.539062 103.070312 C 61.207031 102.582031 61.859375 102.082031 62.480469 101.589844 C 58.203125 101.027344 50.359375 98.265625 48.425781 93.9375 Z M 48.425781 93.9375 " fill-opacity="1" fill-rule="nonzero"/><path fill="#f9be06" d="M 47.851562 101.140625 C 48.039062 101.921875 48.328125 102.691406 48.730469 103.441406 L 48.734375 103.4375 C 50.050781 104.238281 53.65625 106.007812 55.894531 106.015625 L 55.894531 106.019531 C 56.589844 105.667969 57.3125 105.246094 58.046875 104.78125 C 54.890625 104.625 50.152344 103.363281 47.851562 101.140625 Z M 47.851562 101.140625 " fill-opacity="1" fill-rule="nonzero"/><path fill="#f9be06" d="M 51.894531 87.382812 C 51.195312 88.378906 50.515625 89.457031 49.914062 90.582031 C 52.488281 95.769531 61.054688 99.03125 64.675781 99.796875 C 65.273438 99.289062 65.804688 98.828125 66.238281 98.441406 C 63.367188 97.578125 53.371094 92.585938 51.894531 87.382812 Z M 51.894531 87.382812 " fill-opacity="1" fill-rule="nonzero"/><path fill="#e5deca" d="M 55.332031 60.164062 C 54.96875 60.164062 53.058594 63.078125 53.058594 63.078125 L 57.289062 62.589844 L 62.234375 64.652344 L 63.609375 64.753906 L 59.472656 60.53125 Z M 55.332031 60.164062 " fill-opacity="1" fill-rule="nonzero"/><path fill="#e5deca" d="M 70.445312 73.882812 C 73.480469 73.363281 76.015625 72.855469 76.578125 72.617188 C 77.191406 72.363281 77.816406 71.910156 78.328125 71.480469 L 78.019531 71.378906 L 68.21875 65.097656 L 63.609375 64.753906 L 62.234375 64.652344 L 57.289062 62.589844 L 59.472656 68.230469 L 64.417969 68.050781 C 64.417969 68.050781 64.933594 68.1875 65.742188 68.40625 L 63.128906 70.789062 L 61.769531 72.027344 L 66.085938 71.890625 L 64.234375 74.839844 C 66.246094 74.566406 68.453125 74.222656 70.445312 73.882812 Z M 70.445312 73.882812 " fill-opacity="1" fill-rule="nonzero"/><path fill="#f9be06" d="M 57.71875 80.890625 C 57.34375 81.148438 56.449219 81.949219 55.335938 83.140625 C 56.9375 88.011719 61.980469 92.058594 65.742188 93.9375 C 65.40625 93.085938 65.292969 92.09375 65.738281 91.164062 C 62.828125 89.070312 59.175781 83.1875 58.730469 80.269531 C 58.324219 80.496094 57.984375 80.710938 57.71875 80.890625 Z M 57.71875 80.890625 " fill-opacity="1" fill-rule="nonzero"/><path fill="#e5deca" d="M 65.652344 61.445312 C 63.898438 60.507812 62.109375 59.628906 60.363281 58.878906 L 59.472656 60.53125 L 63.609375 64.753906 L 68.21875 65.097656 L 67.039062 62.199219 C 66.578125 61.945312 66.117188 61.691406 65.652344 61.445312 Z M 65.652344 61.445312 " fill-opacity="1" fill-rule="nonzero"/><path fill="#f9be06" d="M 62.167969 78.691406 C 62.585938 80.644531 64.125 85.433594 66.664062 87.589844 C 66.992188 86.195312 67.589844 84.746094 68.21875 83.753906 C 67.089844 81.53125 66.695312 78.964844 66.535156 77.609375 C 65.042969 77.773438 63.53125 78.191406 62.167969 78.691406 Z M 62.167969 78.691406 " fill-opacity="1" fill-rule="nonzero"/><path fill="#e5deca" d="M 69.46875 61.410156 L 73.257812 61.566406 C 70.769531 58.996094 67.996094 56.492188 65.96875 55.699219 C 64.347656 56.941406 64.972656 60.523438 65.652344 61.441406 C 66.117188 61.691406 66.578125 61.945312 67.039062 62.199219 C 69.851562 63.765625 72.535156 65.453125 74.789062 66.984375 C 74.710938 66.933594 72.191406 63.445312 72.191406 63.445312 Z M 69.46875 61.410156 " fill-opacity="1" fill-rule="nonzero"/><path fill="#e5deca" d="M 74.789062 66.984375 C 72.535156 65.453125 69.851562 63.765625 67.039062 62.199219 L 68.21875 65.097656 L 78.019531 71.375 L 78.328125 71.480469 C 78.984375 70.929688 79.449219 70.421875 79.449219 70.421875 C 79.007812 70.054688 78.480469 69.640625 77.890625 69.195312 C 76.996094 68.523438 75.949219 67.773438 74.789062 66.984375 Z M 74.789062 66.984375 " fill-opacity="1" fill-rule="nonzero"/><path fill="#e5deca" d="M 68.445312 51.738281 L 68.832031 54.460938 L 71.789062 58.628906 L 75.441406 57.886719 C 74.324219 55.804688 73.480469 54.234375 73.480469 54.234375 L 73.230469 53.003906 Z M 68.445312 51.738281 " fill-opacity="1" fill-rule="nonzero"/><path fill="#e5deca" d="M 76.765625 65.410156 C 76.484375 65.085938 76.183594 64.742188 75.867188 64.386719 C 75.074219 63.492188 74.1875 62.523438 73.257812 61.566406 L 69.46875 61.410156 L 72.191406 63.445312 C 72.191406 63.445312 74.710938 66.933594 74.789062 66.984375 C 75.949219 67.773438 76.996094 68.523438 77.890625 69.195312 C 78.050781 69.300781 82.765625 69.542969 82.765625 69.542969 C 82.765625 69.542969 82.433594 68.40625 81.875 66.664062 C 81.003906 63.933594 79.582031 59.710938 78.019531 56.023438 L 76.457031 59.777344 C 76.972656 60.730469 77.503906 61.71875 78.019531 62.667969 L 78.019531 62.671875 Z M 76.765625 65.410156 " fill-opacity="1" fill-rule="nonzero"/><path fill="#f9be06" d="M 69.632812 85.605469 C 69.660156 87.027344 69.777344 88.480469 69.660156 89.597656 C 70.460938 90.390625 72.78125 91.757812 73.722656 91.949219 L 73.726562 91.949219 C 73.886719 91.6875 74.042969 91.425781 74.191406 91.167969 C 74.511719 90.617188 74.804688 90.074219 75.054688 89.574219 C 73.15625 88.921875 69.632812 85.605469 69.632812 85.605469 Z M 69.632812 85.605469 " fill-opacity="1" fill-rule="nonzero"/><path fill="#f9be06" d="M 92.363281 81.636719 C 92.535156 81.023438 92.65625 80.359375 92.707031 79.632812 L 92.734375 79.585938 C 90.871094 78.421875 88.371094 76.101562 87.703125 74.226562 C 87.226562 72.902344 87.007812 70.695312 87.714844 68.886719 C 85.832031 67.289062 83.8125 66.699219 81.875 66.664062 C 82.433594 68.40625 82.765625 69.542969 82.765625 69.542969 C 82.765625 69.542969 78.050781 69.300781 77.890625 69.195312 C 78.480469 69.640625 79.007812 70.054688 79.449219 70.421875 C 79.449219 70.421875 78.984375 70.933594 78.328125 71.480469 C 77.816406 71.910156 77.191406 72.363281 76.578125 72.617188 C 76.015625 72.855469 73.480469 73.363281 70.445312 73.882812 C 70.011719 75.035156 69.785156 76.332031 69.894531 77.761719 C 70.011719 79.296875 70.519531 80.980469 71.566406 82.796875 C 72.839844 85 74.375 86.457031 75.972656 87.382812 C 76.265625 87.554688 76.558594 87.707031 76.851562 87.839844 C 76.746094 87.328125 76.699219 86.773438 76.730469 86.171875 C 74.894531 84.980469 72.984375 80.179688 74.011719 78.917969 C 75.039062 77.660156 77.78125 79.15625 78.945312 80.484375 C 80.109375 81.8125 79.082031 82.902344 77.609375 82.9375 C 78.089844 83.34375 79.011719 84.808594 78.773438 85.625 C 79.445312 86.199219 80.136719 87.554688 80.429688 88.796875 C 82.863281 89.039062 85 88.5 86.058594 88.070312 C 85.78125 86.804688 86.003906 84.828125 86.992188 83.550781 C 86.992188 83.550781 85.621094 81.097656 85.109375 78.917969 C 84.597656 76.738281 85.074219 74.152344 86.789062 75.109375 C 88.019531 76.714844 89.597656 81.914062 89.390625 83.449219 C 89.644531 84.042969 89.597656 85.082031 89.359375 86.128906 C 90.003906 85.597656 90.632812 84.957031 91.167969 84.183594 C 91.664062 83.457031 92.082031 82.617188 92.363281 81.636719 Z M 92.363281 81.636719 " fill-opacity="1" fill-rule="nonzero"/><path fill="#e5deca" d="M 74.292969 49.328125 L 72.808594 50.949219 L 73.230469 53.003906 L 73.480469 54.238281 C 73.480469 54.238281 74.324219 55.808594 75.441406 57.890625 C 75.761719 58.488281 76.105469 59.125 76.457031 59.777344 L 78.019531 56.027344 C 76.792969 53.128906 75.484375 50.566406 74.292969 49.328125 Z M 74.292969 49.328125 " fill-opacity="1" fill-rule="nonzero"/><path fill="#e5deca" d="M 68.832031 54.460938 L 68.445312 51.738281 L 73.230469 53.003906 L 72.808594 50.949219 L 74.292969 49.324219 C 69.277344 44.097656 63.390625 40.757812 62.359375 43.832031 C 61.324219 46.90625 64.789062 54.304688 65.96875 55.695312 C 67.996094 56.488281 70.769531 58.992188 73.257812 61.5625 C 74.1875 62.523438 75.074219 63.492188 75.867188 64.382812 L 71.789062 58.628906 Z M 68.832031 54.460938 " fill-opacity="1" fill-rule="nonzero"/><path fill="#e5deca" d="M 75.441406 57.890625 L 71.789062 58.632812 L 75.867188 64.386719 C 76.183594 64.742188 76.484375 65.085938 76.765625 65.410156 L 78.019531 62.671875 L 78.019531 62.667969 C 77.503906 61.71875 76.972656 60.730469 76.457031 59.777344 C 76.105469 59.121094 75.761719 58.484375 75.441406 57.890625 Z M 75.441406 57.890625 " fill-opacity="1" fill-rule="nonzero"/><path fill="#e5deca" d="M 90.894531 71.453125 C 89.707031 72.019531 91.140625 74.839844 92.3125 74.214844 C 93.320312 73.699219 92.082031 70.886719 90.894531 71.453125 Z M 90.894531 71.453125 " fill-opacity="1" fill-rule="nonzero"/><path fill="#f9be06" d="M 96.074219 66.902344 C 96.210938 68.851562 95.472656 71.535156 95.117188 70.910156 C 94.824219 70.390625 95.101562 67.59375 95.4375 66.503906 C 94.265625 65.875 92.765625 65.617188 90.871094 66.097656 C 89.1875 66.523438 88.21875 67.605469 87.714844 68.886719 C 87.007812 70.695312 87.226562 72.902344 87.703125 74.230469 C 88.371094 76.101562 90.871094 78.421875 92.734375 79.589844 C 93.132812 79.835938 93.503906 80.035156 93.816406 80.160156 C 94.347656 80.375 94.992188 80.503906 94.992188 80.503906 L 94.996094 80.503906 C 95.6875 78.507812 97.351562 78.195312 98.535156 78.632812 C 99.363281 78.078125 99.734375 74.300781 99.234375 72.023438 C 99.199219 71.871094 99.164062 71.726562 99.121094 71.589844 C 99.085938 71.464844 99.039062 71.328125 98.992188 71.191406 C 98.550781 69.898438 97.664062 68.050781 96.074219 66.902344 Z M 93.703125 76.519531 C 92.066406 77.441406 88.089844 71.804688 90.324219 70.53125 C 92.558594 69.257812 95.28125 75.789062 93.703125 76.519531 Z M 93.703125 76.519531 " fill-opacity="1" fill-rule="nonzero"/><g clip-path="url(#1d4473d5eb)"><path fill="#000000" d="M 43.039062 58.328125 C 43.945312 56.640625 46.523438 56.183594 48.523438 56.097656 C 49.597656 56.050781 50.8125 56.09375 52.140625 56.230469 C 54.394531 56.464844 57.1875 57.296875 60.441406 58.695312 C 61.933594 59.335938 63.527344 60.101562 65.179688 60.96875 C 64.628906 59.574219 64.402344 56.871094 65.691406 55.667969 C 64.429688 53.972656 61.136719 46.851562 62.167969 43.769531 C 62.398438 43.085938 62.855469 42.664062 63.523438 42.511719 C 65.710938 42.027344 70.203125 44.769531 74.4375 49.1875 C 75.511719 50.304688 76.78125 52.578125 78.207031 55.945312 C 79.726562 59.535156 81.113281 63.625 82.027344 66.46875 C 84.109375 66.535156 85.996094 67.238281 87.636719 68.5625 C 88.253906 67.191406 89.347656 66.273438 90.820312 65.902344 C 92.5 65.476562 94.015625 65.585938 95.324219 66.222656 C 95.402344 66.039062 95.464844 65.972656 95.515625 65.929688 C 95.855469 65.667969 97.699219 62.933594 98.34375 61.484375 C 98.367188 61.429688 98.414062 61.386719 98.472656 61.371094 C 98.53125 61.355469 98.59375 61.367188 98.644531 61.402344 C 98.902344 61.589844 99.042969 61.871094 99.054688 62.246094 C 99.109375 63.574219 97.550781 65.820312 96.390625 66.890625 C 97.730469 67.941406 98.542969 69.441406 99.019531 70.671875 L 100.90625 66.707031 C 100.929688 66.660156 100.96875 66.621094 101.015625 66.605469 C 102.414062 66.085938 107.023438 64.414062 107.652344 64.769531 C 107.730469 64.8125 107.78125 64.886719 107.796875 64.96875 C 107.796875 64.984375 107.800781 64.996094 107.800781 65.007812 C 107.800781 66.613281 102.898438 67.277344 101.8125 67.363281 C 101.519531 69.542969 100.148438 71.574219 99.457031 72.113281 C 99.675781 73.195312 99.722656 74.632812 99.582031 75.996094 C 99.5 76.828125 99.273438 78.25 98.730469 78.730469 C 98.585938 80.550781 96.308594 82.667969 96.207031 82.757812 C 96.171875 82.792969 96.121094 82.8125 96.074219 82.8125 C 96.054688 82.8125 96.039062 82.808594 96.019531 82.804688 C 95.953125 82.789062 95.902344 82.738281 95.882812 82.671875 L 95.84375 82.546875 C 95.613281 81.816406 95.265625 80.707031 94.992188 80.707031 C 94.980469 80.707031 94.964844 80.703125 94.953125 80.703125 C 94.925781 80.695312 94.285156 80.566406 93.742188 80.347656 C 93.488281 80.242188 93.199219 80.097656 92.882812 79.910156 C 92.828125 80.480469 92.730469 81.03125 92.585938 81.558594 C 93.964844 82.5625 94.28125 83.828125 93.878906 84.578125 C 94.207031 86.925781 93.128906 87.800781 92.773438 88.09375 C 92.765625 88.097656 92.757812 88.101562 92.753906 88.105469 C 92.792969 88.382812 92.855469 89.019531 92.90625 89.558594 C 92.914062 89.648438 92.863281 89.730469 92.777344 89.761719 C 92.753906 89.773438 92.730469 89.777344 92.707031 89.777344 C 92.644531 89.777344 92.585938 89.746094 92.546875 89.695312 L 91.71875 88.582031 L 90.71875 88.550781 C 90.632812 88.546875 90.554688 88.488281 90.53125 88.402344 C 90.511719 88.316406 90.546875 88.226562 90.621094 88.179688 L 91.933594 87.382812 C 92.082031 87.21875 93.117188 86.023438 92.960938 85.011719 C 92.957031 85.011719 92.953125 85.011719 92.945312 85.011719 C 92.21875 85.011719 91.652344 84.839844 91.199219 84.480469 C 90.738281 85.117188 90.179688 85.707031 89.535156 86.242188 C 89.164062 87.820312 88.339844 89.5 87.367188 89.632812 C 86.46875 90.808594 84.746094 93.535156 84.730469 93.5625 C 84.691406 93.625 84.628906 93.65625 84.5625 93.65625 C 84.546875 93.65625 84.53125 93.65625 84.519531 93.652344 C 84.433594 93.636719 84.375 93.570312 84.363281 93.484375 C 84.316406 93.164062 84.226562 92.484375 84.195312 92.207031 C 84.03125 92.140625 83.589844 92.03125 83.214844 91.949219 C 83.121094 91.929688 83.054688 91.84375 83.058594 91.75 C 83.0625 91.652344 83.132812 91.570312 83.230469 91.558594 C 83.628906 91.507812 85.480469 90.644531 86.332031 89.171875 C 86.160156 88.976562 86.019531 88.691406 85.917969 88.339844 C 84.886719 88.722656 83.347656 89.058594 81.640625 89.058594 C 81.324219 89.058594 81.003906 89.046875 80.675781 89.023438 C 80.878906 90.082031 80.746094 90.867188 80.289062 91.257812 C 80.582031 93.179688 79.382812 94.941406 79.242188 95.140625 C 78.871094 95.664062 78.800781 96.632812 78.800781 96.640625 C 78.792969 96.738281 78.714844 96.816406 78.617188 96.828125 C 78.609375 96.828125 78.605469 96.828125 78.601562 96.828125 C 78.507812 96.828125 78.425781 96.761719 78.40625 96.671875 L 78.15625 95.554688 L 77.339844 95.285156 C 77.25 95.253906 77.195312 95.171875 77.203125 95.082031 C 77.210938 94.988281 77.277344 94.914062 77.367188 94.898438 C 78.15625 94.757812 79.28125 93.574219 79.25 91.476562 C 78.253906 90.988281 77.101562 89.832031 76.675781 87.980469 C 76.480469 87.886719 76.289062 87.789062 76.097656 87.683594 C 75.949219 88.152344 75.644531 88.851562 75.234375 89.667969 C 74.996094 90.140625 74.734375 90.625 74.457031 91.109375 C 76.050781 92.210938 76.089844 93.746094 75.695312 94.632812 C 77.4375 95.890625 77.773438 97.964844 77.070312 99.289062 C 76.382812 100.589844 75.890625 101.742188 76.894531 102.617188 C 76.960938 102.679688 76.980469 102.777344 76.9375 102.855469 C 76.898438 102.9375 76.808594 102.980469 76.71875 102.960938 C 76.394531 102.898438 76.054688 102.707031 75.832031 102.566406 L 75.636719 103.480469 C 75.621094 103.558594 75.558594 103.617188 75.480469 103.632812 C 75.46875 103.636719 75.453125 103.636719 75.4375 103.636719 C 75.375 103.636719 75.316406 103.609375 75.277344 103.554688 C 75.238281 103.5 74.296875 102.195312 74.832031 101.285156 C 74.921875 101.128906 75.027344 100.972656 75.136719 100.804688 C 75.59375 100.109375 76.066406 99.390625 75.785156 98.664062 C 75.457031 97.824219 74.269531 96.222656 73.945312 95.796875 C 73.199219 95.953125 72.277344 95.382812 71.796875 94.925781 C 71.457031 95.292969 71.136719 95.585938 70.835938 95.800781 C 71.59375 96.4375 73.164062 97.863281 73.265625 99.371094 C 73.308594 99.980469 73.109375 100.546875 72.671875 101.046875 C 73.015625 105 71.253906 106.144531 70.085938 106.902344 C 69.890625 107.027344 69.710938 107.144531 69.5625 107.257812 C 69.117188 107.609375 68.996094 108.054688 69.210938 108.582031 L 69.414062 108.953125 C 69.464844 109.042969 69.4375 109.15625 69.351562 109.214844 C 69.316406 109.238281 69.277344 109.246094 69.242188 109.246094 C 69.179688 109.246094 69.121094 109.21875 69.082031 109.167969 C 69.074219 109.164062 68.953125 109 68.847656 108.753906 L 68.453125 108.039062 L 67.574219 108.800781 C 67.539062 108.835938 67.492188 108.851562 67.441406 108.851562 C 67.429688 108.851562 67.417969 108.851562 67.40625 108.847656 C 67.347656 108.839844 67.296875 108.800781 67.265625 108.75 C 67.253906 108.726562 66.941406 108.140625 67.195312 107.488281 C 67.402344 106.960938 67.910156 106.554688 68.707031 106.28125 C 71.171875 105.4375 70.683594 102.6875 70.410156 101.683594 C 68.660156 101.347656 67.515625 99.957031 67.222656 97.828125 C 67 98.03125 66.710938 98.289062 66.371094 98.59375 C 65.847656 99.054688 65.320312 99.511719 64.800781 99.949219 C 64.058594 100.578125 63.316406 101.183594 62.601562 101.75 C 61.945312 102.269531 61.289062 102.765625 60.652344 103.234375 C 59.777344 103.875 58.9375 104.453125 58.148438 104.949219 C 57.375 105.441406 56.644531 105.859375 55.984375 106.199219 C 54.535156 106.933594 53.335938 107.300781 52.410156 107.300781 C 52.1875 107.300781 51.980469 107.28125 51.789062 107.238281 C 51.757812 107.230469 51.730469 107.21875 51.707031 107.199219 C 50.332031 106.109375 49.273438 104.878906 48.550781 103.535156 C 48.152344 102.796875 47.847656 102.007812 47.648438 101.191406 C 47.351562 99.96875 47.28125 98.652344 47.4375 97.28125 C 47.558594 96.191406 47.824219 95.046875 48.230469 93.875 C 48.609375 92.78125 49.113281 91.644531 49.730469 90.492188 C 50.296875 89.4375 50.96875 88.351562 51.726562 87.269531 C 53.027344 85.417969 54.324219 83.929688 55.183594 83.007812 C 56.292969 81.820312 57.195312 81.007812 57.597656 80.730469 C 57.882812 80.535156 58.238281 80.316406 58.625 80.101562 C 59.667969 79.515625 60.902344 78.949219 62.09375 78.507812 C 63.65625 77.933594 65.140625 77.566406 66.511719 77.414062 C 67.671875 77.289062 68.734375 77.324219 69.679688 77.515625 C 69.621094 76.363281 69.777344 75.226562 70.140625 74.136719 C 68.136719 74.476562 66.0625 74.792969 64.257812 75.039062 C 62.351562 75.300781 59.851562 75.605469 58.535156 75.605469 C 58.480469 75.605469 58.425781 75.605469 58.371094 75.601562 C 56.742188 75.566406 55.078125 74.835938 53.808594 73.605469 C 52.507812 72.34375 51.761719 70.710938 51.695312 69.003906 C 50.382812 68.242188 44.699219 63.527344 43.25 61.148438 C 42.660156 60.175781 42.585938 59.175781 43.039062 58.328125 Z M 52.097656 56.628906 C 50.820312 56.496094 49.652344 56.453125 48.613281 56.492188 L 46.957031 58.109375 L 48.839844 59.390625 L 59.359375 60.320312 L 60.082031 58.976562 C 56.953125 57.644531 54.265625 56.851562 52.097656 56.628906 Z M 64.410156 67.851562 C 64.429688 67.851562 64.449219 67.851562 64.46875 67.859375 C 64.46875 67.859375 64.984375 67.996094 65.796875 68.214844 C 71.738281 69.808594 75.433594 70.777344 75.679688 70.804688 L 75.667969 71.003906 L 75.667969 71.203125 C 75.488281 71.203125 72.167969 70.335938 65.796875 68.628906 L 63.265625 70.9375 L 63.128906 70.789062 L 63.128906 70.792969 L 63.265625 70.9375 L 62.304688 71.8125 L 74.710938 71.417969 L 74.722656 71.816406 L 66.203125 72.089844 L 64.632812 74.585938 C 66.433594 74.335938 68.464844 74.019531 70.414062 73.6875 C 73.601562 73.140625 75.992188 72.648438 76.503906 72.433594 C 77.003906 72.226562 77.574219 71.855469 78.203125 71.328125 C 78.628906 70.972656 78.976562 70.628906 79.160156 70.441406 C 78.746094 70.101562 78.277344 69.738281 77.773438 69.355469 C 76.84375 68.65625 75.804688 67.914062 74.679688 67.152344 C 72.363281 65.574219 69.871094 64.027344 67.441406 62.65625 L 68.382812 64.964844 L 78.132812 71.210938 L 77.914062 71.546875 L 68.15625 65.296875 L 62.226562 64.851562 C 62.203125 64.851562 62.183594 64.847656 62.164062 64.839844 L 57.648438 62.957031 L 59.613281 68.027344 Z M 77.90625 69.171875 L 77.886719 69.199219 L 77.894531 69.191406 Z M 65.558594 61.621094 C 63.773438 60.664062 62.054688 59.832031 60.449219 59.132812 L 59.71875 60.496094 L 63.699219 64.5625 L 67.910156 64.875 L 66.878906 62.339844 C 66.433594 62.09375 65.992188 61.851562 65.558594 61.621094 Z M 57.265625 62.394531 C 57.300781 62.390625 57.332031 62.394531 57.367188 62.410156 L 62.28125 64.457031 L 63.097656 64.515625 L 59.382812 60.722656 L 55.351562 60.363281 C 55.113281 60.496094 54.238281 61.671875 53.460938 62.828125 Z M 55.332031 60.363281 Z M 65.792969 61.292969 C 66.230469 61.527344 66.683594 61.773438 67.136719 62.023438 C 69.390625 63.28125 71.714844 64.699219 73.917969 66.160156 C 73.535156 65.636719 72.945312 64.832031 72.046875 63.585938 L 65.964844 59.039062 L 66.203125 58.71875 L 69.539062 61.214844 L 72.765625 61.347656 C 69.898438 58.425781 67.628906 56.605469 66.003906 55.929688 C 64.617188 57.144531 65.203125 60.433594 65.792969 61.292969 Z M 63.609375 42.90625 C 63.078125 43.023438 62.734375 43.347656 62.546875 43.898438 C 61.550781 46.875 64.972656 54.15625 66.089844 55.535156 C 67.835938 56.238281 70.296875 58.21875 73.402344 61.429688 C 73.558594 61.589844 73.714844 61.753906 73.875 61.921875 L 68.703125 54.625 L 65.398438 53.421875 L 65.539062 53.046875 L 68.585938 54.160156 L 68.035156 50.265625 C 67.386719 49.894531 64.332031 48.152344 64.113281 47.992188 L 64.355469 47.671875 C 64.511719 47.789062 66.8125 49.109375 68.320312 49.96875 C 68.371094 50 68.410156 50.050781 68.417969 50.113281 L 68.625 51.582031 L 72.96875 52.730469 L 72.625 51.058594 L 65.335938 44.75 L 65.601562 44.449219 L 72.792969 50.671875 L 74.019531 49.332031 C 69.976562 45.15625 65.617188 42.460938 63.609375 42.90625 Z M 76.714844 65.046875 L 77.796875 62.675781 C 77.296875 61.753906 76.777344 60.796875 76.28125 59.871094 L 76.457031 59.777344 L 76.28125 59.871094 C 76.066406 59.464844 75.851562 59.070312 75.644531 58.6875 L 75.335938 58.113281 L 72.128906 58.765625 L 76.027344 64.261719 C 76.265625 64.53125 76.492188 64.792969 76.714844 65.046875 Z M 73.023438 51.007812 L 73.671875 54.167969 C 73.785156 54.378906 74.582031 55.867188 75.621094 57.796875 L 76 58.5 C 76.140625 58.761719 76.289062 59.035156 76.4375 59.3125 L 77.804688 56.027344 C 76.476562 52.898438 75.296875 50.746094 74.292969 49.621094 Z M 71.875 58.410156 L 75.140625 57.75 C 74.082031 55.785156 73.304688 54.332031 73.304688 54.332031 C 73.296875 54.3125 73.289062 54.296875 73.285156 54.277344 L 73.058594 53.164062 L 68.6875 52.007812 L 69.023438 54.382812 Z M 78.019531 56.542969 L 76.675781 59.765625 C 77.179688 60.695312 77.695312 61.652344 78.195312 62.574219 L 78.019531 62.671875 L 78.195312 62.578125 C 80.601562 67.023438 81.074219 67.832031 81.140625 67.917969 C 81.136719 67.917969 81.125 67.902344 81.101562 67.886719 L 80.878906 68.214844 C 80.808594 68.167969 80.746094 68.125 78.035156 63.121094 L 77.003906 65.375 C 78.117188 66.664062 78.941406 67.671875 79.253906 68.050781 L 79.296875 68.101562 L 78.984375 68.355469 L 78.941406 68.304688 C 78.621094 67.910156 77.773438 66.871094 76.617188 65.539062 C 76.332031 65.214844 76.035156 64.871094 75.71875 64.519531 C 74.835938 63.527344 73.980469 62.597656 73.171875 61.761719 L 70.105469 61.632812 L 72.3125 63.285156 C 72.328125 63.296875 72.34375 63.3125 72.355469 63.328125 C 73.308594 64.644531 74.757812 66.640625 74.921875 66.832031 C 76.035156 67.589844 77.066406 68.324219 77.988281 69.015625 C 78.304688 69.089844 80.792969 69.238281 82.496094 69.328125 C 82.363281 68.890625 82.082031 67.953125 81.6875 66.722656 C 80.8125 64 79.488281 60.070312 78.019531 56.542969 Z M 98.535156 78.632812 Z M 93.894531 79.976562 C 94.242188 80.117188 94.644531 80.222656 94.867188 80.273438 C 95.191406 79.445312 95.71875 78.839844 96.398438 78.519531 C 97.035156 78.21875 97.792969 78.183594 98.492188 78.410156 C 99.136719 77.773438 99.542969 74.359375 99.039062 72.070312 C 99.007812 71.921875 98.972656 71.78125 98.933594 71.648438 C 98.894531 71.523438 98.851562 71.394531 98.804688 71.257812 C 98.46875 70.273438 97.707031 68.515625 96.292969 67.328125 C 96.300781 68.03125 96.21875 68.832031 96.054688 69.59375 C 95.84375 70.574219 95.597656 71.109375 95.324219 71.191406 C 95.308594 71.199219 95.277344 71.203125 95.238281 71.203125 C 95.15625 71.203125 95.039062 71.171875 94.945312 71.011719 C 94.609375 70.414062 94.898438 67.761719 95.203125 66.609375 C 93.964844 65.992188 92.527344 65.886719 90.921875 66.292969 C 89.46875 66.660156 88.457031 67.558594 87.90625 68.960938 C 87.226562 70.6875 87.410156 72.816406 87.894531 74.164062 C 88.511719 75.902344 90.898438 78.203125 92.84375 79.421875 C 93.242188 79.667969 93.59375 79.855469 93.894531 79.976562 Z M 69.84375 86.074219 C 69.851562 86.324219 69.859375 86.578125 69.871094 86.828125 C 69.90625 87.804688 69.9375 88.730469 69.867188 89.519531 C 70.675781 90.277344 72.707031 91.460938 73.628906 91.71875 C 73.769531 91.488281 73.898438 91.273438 74.015625 91.066406 C 74.285156 90.601562 74.539062 90.136719 74.777344 89.679688 C 73.179688 89.019531 70.75 86.890625 69.84375 86.074219 Z M 66.550781 87.21875 C 66.878906 85.976562 67.414062 84.679688 67.988281 83.742188 C 67.203125 82.160156 66.65625 80.171875 66.363281 77.835938 C 65.128906 77.988281 63.796875 78.320312 62.402344 78.824219 C 62.8125 80.605469 64.21875 85.027344 66.550781 87.21875 Z M 65.84375 98.523438 C 62.601562 97.410156 53.617188 92.730469 51.832031 87.828125 C 51.199219 88.753906 50.632812 89.679688 50.140625 90.585938 C 51.550781 93.335938 54.640625 95.410156 57 96.671875 C 59.910156 98.230469 62.898438 99.203125 64.621094 99.578125 C 65.027344 99.238281 65.433594 98.882812 65.84375 98.523438 Z M 48.882812 103.296875 C 50.210938 104.09375 53.707031 105.785156 55.855469 105.816406 C 56.339844 105.570312 56.863281 105.273438 57.417969 104.9375 C 54.398438 104.671875 50.480469 103.527344 48.226562 101.734375 C 48.394531 102.269531 48.617188 102.792969 48.882812 103.296875 Z M 47.851562 97.238281 C 49.890625 99.53125 56.53125 102.488281 60.480469 102.863281 C 60.976562 102.5 61.480469 102.117188 61.992188 101.71875 C 57.519531 101.015625 50.609375 98.351562 48.464844 94.460938 C 48.164062 95.410156 47.957031 96.34375 47.851562 97.238281 Z M 55.566406 83.191406 C 57.054688 87.558594 61.484375 91.464844 65.394531 93.535156 C 65.214844 92.882812 65.148438 92.058594 65.492188 91.230469 C 62.550781 89.023438 59.1875 83.480469 58.582031 80.582031 C 58.300781 80.746094 58.046875 80.910156 57.832031 81.054688 C 57.46875 81.304688 56.613281 82.074219 55.566406 83.191406 Z M 70.097656 77.746094 C 70.21875 79.355469 70.773438 81.019531 71.742188 82.699219 C 72.890625 84.691406 74.351562 86.210938 76.074219 87.210938 C 76.242188 87.308594 76.414062 87.398438 76.585938 87.488281 C 76.53125 87.09375 76.507812 86.683594 76.523438 86.269531 C 75.148438 85.296875 73.882812 82.628906 73.589844 80.777344 C 73.449219 79.867188 73.539062 79.179688 73.859375 78.792969 C 74.144531 78.4375 74.5625 78.253906 75.09375 78.242188 C 75.105469 78.242188 75.121094 78.242188 75.132812 78.242188 C 76.4375 78.242188 78.199219 79.332031 79.097656 80.351562 C 79.621094 80.949219 79.777344 81.574219 79.542969 82.109375 C 79.3125 82.621094 78.753906 82.984375 78.035156 83.097656 C 78.523438 83.695312 79.125 84.792969 78.996094 85.554688 C 79.632812 86.160156 80.28125 87.402344 80.589844 88.609375 C 82.6875 88.792969 84.632812 88.398438 85.832031 87.941406 C 85.601562 86.652344 85.839844 84.796875 86.757812 83.53125 C 86.480469 83.019531 85.375 80.902344 84.917969 78.960938 C 84.5625 77.46875 84.644531 75.542969 85.488281 74.910156 C 85.753906 74.714844 86.210938 74.554688 86.886719 74.933594 C 86.910156 74.949219 86.929688 74.964844 86.949219 74.988281 C 88.167969 76.578125 89.777344 81.714844 89.597656 83.417969 C 89.789062 83.921875 89.8125 84.691406 89.667969 85.59375 C 90.179688 85.125 90.628906 84.613281 91 84.066406 C 91.523438 83.316406 91.914062 82.480469 92.167969 81.582031 C 92.339844 80.980469 92.453125 80.339844 92.503906 79.675781 C 90.550781 78.417969 88.171875 76.140625 87.511719 74.292969 C 87.019531 72.910156 86.828125 70.746094 87.480469 68.949219 C 85.921875 67.664062 84.132812 66.96875 82.152344 66.871094 C 82.652344 68.445312 82.957031 69.472656 82.960938 69.484375 C 82.976562 69.546875 82.964844 69.613281 82.925781 69.664062 C 82.886719 69.710938 82.828125 69.738281 82.765625 69.738281 C 82.761719 69.738281 82.761719 69.738281 82.757812 69.738281 C 80.480469 69.621094 79.257812 69.539062 78.59375 69.480469 C 78.949219 69.753906 79.28125 70.019531 79.578125 70.265625 C 79.621094 70.300781 79.648438 70.351562 79.652344 70.40625 C 79.65625 70.460938 79.636719 70.515625 79.597656 70.554688 C 79.578125 70.574219 79.117188 71.082031 78.457031 71.632812 C 77.796875 72.183594 77.191406 72.578125 76.65625 72.800781 C 76.015625 73.070312 73.128906 73.621094 70.597656 74.058594 C 70.167969 75.242188 69.996094 76.484375 70.097656 77.746094 Z M 43.59375 60.941406 C 45.019531 63.28125 50.960938 68.195312 51.984375 68.703125 C 52.050781 68.738281 52.09375 68.804688 52.097656 68.878906 C 52.128906 70.523438 52.835938 72.101562 54.089844 73.316406 C 55.289062 74.480469 56.855469 75.167969 58.386719 75.203125 C 59.355469 75.226562 61.335938 75.035156 64.113281 74.65625 L 65.714844 72.101562 L 61.777344 72.226562 C 61.773438 72.226562 61.773438 72.226562 61.769531 72.226562 C 61.6875 72.226562 61.617188 72.175781 61.585938 72.101562 C 61.554688 72.023438 61.574219 71.9375 61.632812 71.878906 L 62.539062 71.054688 C 61.839844 71.105469 60.4375 71.160156 57.578125 71.199219 L 55.457031 72.777344 L 55.214844 72.457031 L 57.390625 70.84375 C 57.425781 70.816406 57.46875 70.804688 57.511719 70.800781 C 59.460938 70.777344 62.636719 70.699219 63.023438 70.613281 L 65.339844 68.503906 C 64.832031 68.367188 64.492188 68.273438 64.394531 68.25 L 52.8125 68.667969 L 52.796875 68.269531 L 59.1875 68.039062 L 57.160156 62.804688 L 50.433594 63.574219 C 51.753906 64.382812 53.480469 65.433594 53.652344 65.503906 C 53.648438 65.5 53.640625 65.5 53.636719 65.496094 L 53.796875 65.660156 C 53.824219 65.808594 53.84375 65.914062 51.519531 67.488281 L 51.292969 67.160156 C 52.074219 66.628906 52.925781 66.027344 53.273438 65.746094 C 52.648438 65.398438 51.117188 64.464844 49.792969 63.648438 L 47.585938 63.902344 L 47.539062 63.503906 L 52.941406 62.886719 C 53.398438 62.195312 54.234375 60.929688 54.828125 60.316406 L 48.753906 59.78125 C 48.722656 59.777344 48.6875 59.765625 48.660156 59.746094 L 46.53125 58.296875 C 46.480469 58.265625 46.449219 58.210938 46.445312 58.152344 C 46.4375 58.09375 46.460938 58.035156 46.503906 57.992188 L 48.007812 56.523438 C 45.621094 56.707031 43.988281 57.40625 43.394531 58.511719 C 43.007812 59.234375 43.078125 60.09375 43.59375 60.941406 Z M 43.59375 60.941406 " fill-opacity="1" fill-rule="nonzero"/></g><path fill="#000000" d="M 90.210938 74.152344 C 89.003906 72.046875 89.425781 70.8125 90.222656 70.359375 C 90.71875 70.078125 91.277344 70.109375 91.839844 70.457031 C 93.289062 71.351562 94.460938 74.082031 94.371094 75.609375 C 94.328125 76.300781 94.035156 76.582031 93.792969 76.695312 C 93.660156 76.773438 93.5 76.808594 93.320312 76.808594 C 92.472656 76.808594 91.230469 75.933594 90.210938 74.152344 Z M 91.558594 73.972656 C 91.796875 74.125 92.019531 74.148438 92.21875 74.039062 C 92.21875 74.039062 92.21875 74.039062 92.222656 74.039062 C 92.609375 73.839844 92.523438 73.066406 92.222656 72.464844 C 91.988281 71.988281 91.605469 71.578125 91.21875 71.578125 C 91.140625 71.578125 91.0625 71.597656 90.984375 71.632812 C 90.78125 71.730469 90.671875 71.921875 90.652344 72.199219 C 90.613281 72.8125 91.039062 73.640625 91.558594 73.972656 Z M 91.558594 73.972656 " fill-opacity="1" fill-rule="nonzero"/></svg>