<svg xmlns="http://www.w3.org/2000/svg" xmlns:xlink="http://www.w3.org/1999/xlink" width="200" zoomAndPan="magnify" viewBox="0 0 150 149.999998" height="200" preserveAspectRatio="xMidYMid meet" version="1.0"><defs><clipPath id="57b4a29ea7"><path d="M 42.183594 42 L 108 42 L 108 109 L 42.183594 109 Z M 42.183594 42 " clip-rule="nonzero"/></clipPath><clipPath id="382dbe2b29"><path d="M 42.183594 42 L 108 42 L 108 109 L 42.183594 109 Z M 42.183594 42 " clip-rule="nonzero"/></clipPath></defs><g clip-path="url(#57b4a29ea7)"><path fill="#000000" d="M 106.949219 58.328125 C 106.042969 56.640625 103.46875 56.183594 101.46875 56.097656 C 100.390625 56.050781 99.175781 56.09375 97.851562 56.230469 C 95.59375 56.464844 92.800781 57.296875 89.546875 58.695312 C 88.054688 59.335938 86.464844 60.101562 84.808594 60.96875 C 85.359375 59.574219 85.589844 56.871094 84.296875 55.667969 C 85.558594 53.972656 88.855469 46.851562 87.820312 43.769531 C 87.589844 43.085938 87.136719 42.664062 86.464844 42.511719 C 84.277344 42.027344 79.789062 44.769531 75.550781 49.1875 C 74.476562 50.304688 73.207031 52.578125 71.785156 55.945312 C 70.261719 59.535156 68.875 63.625 67.964844 66.46875 C 65.878906 66.535156 63.992188 67.238281 62.351562 68.5625 C 61.734375 67.191406 60.640625 66.273438 59.167969 65.902344 C 57.488281 65.476562 55.976562 65.585938 54.664062 66.222656 C 54.589844 66.039062 54.523438 65.972656 54.472656 65.929688 C 54.132812 65.667969 52.289062 62.933594 51.644531 61.484375 C 51.621094 61.429688 51.574219 61.386719 51.515625 61.371094 C 51.457031 61.355469 51.394531 61.367188 51.34375 61.402344 C 51.085938 61.589844 50.949219 61.871094 50.933594 62.246094 C 50.878906 63.574219 52.4375 65.820312 53.597656 66.890625 C 52.257812 67.941406 51.445312 69.441406 50.972656 70.671875 L 49.082031 66.707031 C 49.058594 66.660156 49.019531 66.621094 48.972656 66.605469 C 47.574219 66.085938 42.964844 64.414062 42.335938 64.769531 C 42.257812 64.8125 42.207031 64.886719 42.191406 64.96875 C 42.191406 64.984375 42.1875 64.996094 42.1875 65.007812 C 42.1875 66.613281 47.09375 67.277344 48.179688 67.363281 C 48.46875 69.542969 49.839844 71.574219 50.53125 72.113281 C 50.3125 73.195312 50.265625 74.632812 50.40625 75.996094 C 50.492188 76.828125 50.714844 78.25 51.261719 78.730469 C 51.402344 80.550781 53.683594 82.667969 53.78125 82.757812 C 53.816406 82.792969 53.867188 82.8125 53.917969 82.8125 C 53.933594 82.8125 53.953125 82.808594 53.96875 82.804688 C 54.035156 82.789062 54.085938 82.738281 54.109375 82.671875 L 54.148438 82.546875 C 54.375 81.816406 54.722656 80.707031 54.996094 80.707031 C 55.007812 80.707031 55.023438 80.703125 55.035156 80.703125 C 55.0625 80.695312 55.707031 80.566406 56.246094 80.347656 C 56.5 80.242188 56.792969 80.097656 57.109375 79.910156 C 57.160156 80.480469 57.261719 81.03125 57.402344 81.558594 C 56.023438 82.5625 55.707031 83.828125 56.109375 84.578125 C 55.78125 86.925781 56.859375 87.800781 57.21875 88.09375 C 57.222656 88.097656 57.230469 88.101562 57.234375 88.105469 C 57.195312 88.382812 57.132812 89.019531 57.082031 89.558594 C 57.074219 89.648438 57.125 89.730469 57.210938 89.761719 C 57.234375 89.773438 57.257812 89.777344 57.28125 89.777344 C 57.34375 89.777344 57.40625 89.746094 57.441406 89.695312 L 58.269531 88.582031 L 59.269531 88.550781 C 59.355469 88.546875 59.433594 88.488281 59.457031 88.402344 C 59.480469 88.316406 59.441406 88.226562 59.367188 88.179688 L 58.054688 87.382812 C 57.90625 87.21875 56.871094 86.023438 57.027344 85.011719 C 57.03125 85.011719 57.035156 85.011719 57.042969 85.011719 C 57.773438 85.011719 58.335938 84.839844 58.789062 84.480469 C 59.25 85.117188 59.808594 85.707031 60.453125 86.242188 C 60.824219 87.820312 61.648438 89.5 62.625 89.632812 C 63.519531 90.808594 65.242188 93.535156 65.257812 93.5625 C 65.296875 93.625 65.359375 93.65625 65.429688 93.65625 C 65.441406 93.65625 65.457031 93.65625 65.472656 93.652344 C 65.554688 93.636719 65.613281 93.570312 65.628906 93.484375 C 65.671875 93.164062 65.761719 92.484375 65.792969 92.207031 C 65.957031 92.140625 66.398438 92.03125 66.773438 91.949219 C 66.867188 91.929688 66.9375 91.84375 66.933594 91.75 C 66.929688 91.652344 66.855469 91.570312 66.757812 91.558594 C 66.363281 91.507812 64.507812 90.644531 63.660156 89.171875 C 63.832031 88.976562 63.972656 88.691406 64.070312 88.339844 C 65.101562 88.722656 66.640625 89.058594 68.347656 89.058594 C 68.664062 89.058594 68.988281 89.046875 69.3125 89.023438 C 69.109375 90.082031 69.246094 90.867188 69.699219 91.257812 C 69.40625 93.179688 70.605469 94.941406 70.746094 95.140625 C 71.121094 95.664062 71.1875 96.632812 71.1875 96.640625 C 71.195312 96.738281 71.273438 96.816406 71.375 96.828125 C 71.378906 96.828125 71.382812 96.828125 71.386719 96.828125 C 71.480469 96.828125 71.5625 96.761719 71.582031 96.671875 L 71.832031 95.554688 L 72.648438 95.285156 C 72.738281 95.253906 72.792969 95.171875 72.785156 95.082031 C 72.78125 94.988281 72.710938 94.914062 72.621094 94.898438 C 71.832031 94.757812 70.707031 93.574219 70.738281 91.476562 C 71.734375 90.988281 72.890625 89.832031 73.3125 87.980469 C 73.507812 87.886719 73.703125 87.789062 73.890625 87.683594 C 74.039062 88.152344 74.34375 88.851562 74.753906 89.667969 C 74.992188 90.140625 75.253906 90.625 75.53125 91.109375 C 73.9375 92.210938 73.898438 93.746094 74.292969 94.632812 C 72.550781 95.890625 72.21875 97.964844 72.917969 99.289062 C 73.609375 100.589844 74.097656 101.742188 73.097656 102.617188 C 73.027344 102.679688 73.007812 102.777344 73.050781 102.855469 C 73.089844 102.9375 73.179688 102.980469 73.269531 102.960938 C 73.59375 102.898438 73.933594 102.707031 74.15625 102.566406 L 74.351562 103.480469 C 74.371094 103.558594 74.429688 103.617188 74.507812 103.632812 C 74.523438 103.636719 74.535156 103.636719 74.550781 103.636719 C 74.613281 103.636719 74.675781 103.609375 74.710938 103.554688 C 74.75 103.5 75.691406 102.195312 75.15625 101.285156 C 75.066406 101.128906 74.960938 100.972656 74.851562 100.804688 C 74.394531 100.109375 73.921875 99.390625 74.207031 98.664062 C 74.53125 97.824219 75.722656 96.222656 76.042969 95.796875 C 76.789062 95.953125 77.710938 95.382812 78.191406 94.925781 C 78.53125 95.292969 78.851562 95.585938 79.152344 95.800781 C 78.394531 96.4375 76.824219 97.863281 76.722656 99.371094 C 76.679688 99.980469 76.878906 100.546875 77.320312 101.046875 C 76.972656 105 78.734375 106.144531 79.90625 106.902344 C 80.097656 107.027344 80.277344 107.144531 80.425781 107.257812 C 80.875 107.609375 80.992188 108.054688 80.777344 108.582031 L 80.574219 108.953125 C 80.523438 109.042969 80.550781 109.15625 80.640625 109.214844 C 80.671875 109.238281 80.710938 109.246094 80.75 109.246094 C 80.808594 109.246094 80.867188 109.21875 80.90625 109.167969 C 80.914062 109.164062 81.039062 109 81.140625 108.753906 L 81.535156 108.039062 L 82.414062 108.800781 C 82.453125 108.835938 82.5 108.851562 82.546875 108.851562 C 82.558594 108.851562 82.570312 108.851562 82.582031 108.847656 C 82.640625 108.839844 82.695312 108.800781 82.722656 108.75 C 82.734375 108.726562 83.046875 108.140625 82.792969 107.488281 C 82.589844 106.960938 82.078125 106.554688 81.28125 106.28125 C 78.816406 105.4375 79.304688 102.6875 79.578125 101.683594 C 81.328125 101.347656 82.476562 99.957031 82.765625 97.828125 C 82.988281 98.03125 83.277344 98.289062 83.621094 98.59375 C 84.144531 99.054688 84.671875 99.511719 85.1875 99.949219 C 85.929688 100.578125 86.671875 101.183594 87.386719 101.75 C 88.042969 102.269531 88.699219 102.765625 89.335938 103.234375 C 90.210938 103.875 91.050781 104.453125 91.839844 104.949219 C 92.613281 105.441406 93.34375 105.859375 94.007812 106.199219 C 95.457031 106.933594 96.652344 107.300781 97.582031 107.300781 C 97.804688 107.300781 98.011719 107.28125 98.203125 107.238281 C 98.230469 107.230469 98.257812 107.21875 98.28125 107.199219 C 99.65625 106.109375 100.714844 104.878906 101.4375 103.535156 C 101.835938 102.796875 102.140625 102.007812 102.339844 101.191406 C 102.636719 99.96875 102.707031 98.652344 102.554688 97.28125 C 102.429688 96.191406 102.164062 95.046875 101.757812 93.875 C 101.378906 92.78125 100.875 91.644531 100.257812 90.492188 C 99.691406 89.4375 99.019531 88.351562 98.261719 87.269531 C 96.964844 85.417969 95.664062 83.929688 94.804688 83.007812 C 93.695312 81.820312 92.792969 81.007812 92.390625 80.730469 C 92.105469 80.535156 91.75 80.316406 91.363281 80.101562 C 90.320312 79.515625 89.085938 78.949219 87.894531 78.507812 C 86.332031 77.933594 84.847656 77.566406 83.476562 77.414062 C 82.316406 77.289062 81.253906 77.324219 80.308594 77.515625 C 80.367188 76.363281 80.210938 75.226562 79.847656 74.136719 C 81.851562 74.476562 83.929688 74.792969 85.730469 75.039062 C 87.636719 75.300781 90.136719 75.605469 91.453125 75.605469 C 91.507812 75.605469 91.5625 75.605469 91.617188 75.601562 C 93.25 75.566406 94.914062 74.835938 96.183594 73.605469 C 97.480469 72.34375 98.226562 70.710938 98.292969 69.003906 C 99.609375 68.242188 105.292969 63.527344 106.742188 61.148438 C 107.328125 60.175781 107.40625 59.175781 106.949219 58.328125 Z M 106.949219 58.328125 " fill-opacity="1" fill-rule="nonzero"/></g><path fill="#e5deca" d="M 86.859375 70.789062 L 84.246094 68.40625 C 85.054688 68.1875 85.570312 68.050781 85.570312 68.050781 L 90.515625 68.230469 L 92.699219 62.589844 L 96.929688 63.078125 C 96.929688 63.078125 95.019531 60.164062 94.65625 60.164062 L 101.21875 59.585938 L 103.347656 58.136719 L 101.460938 56.296875 C 106.808594 56.527344 107.800781 59.019531 106.566406 61.042969 C 105.09375 63.460938 99.125 68.367188 98.09375 68.882812 C 98.019531 72.46875 94.851562 75.328125 91.609375 75.402344 C 90.527344 75.425781 88.296875 75.191406 85.753906 74.839844 L 83.902344 71.890625 L 88.21875 72.027344 Z M 86.859375 70.789062 " fill-opacity="1" fill-rule="nonzero"/><path fill="#e5deca" d="M 103.347656 58.136719 L 101.21875 59.585938 L 94.65625 60.164062 L 90.515625 60.53125 L 89.628906 58.878906 C 92.601562 57.597656 95.464844 56.679688 97.871094 56.429688 C 99.238281 56.289062 100.429688 56.25 101.460938 56.296875 Z M 103.347656 58.136719 " fill-opacity="1" fill-rule="nonzero"/><path fill="#f9be06" d="M 101.5625 93.9375 C 101.945312 95.042969 102.222656 96.171875 102.347656 97.300781 C 100.351562 99.632812 93.554688 102.710938 89.449219 103.070312 C 88.785156 102.582031 88.128906 102.082031 87.507812 101.589844 C 91.785156 101.027344 99.628906 98.265625 101.5625 93.9375 Z M 101.5625 93.9375 " fill-opacity="1" fill-rule="nonzero"/><path fill="#f9be06" d="M 102.140625 101.140625 C 101.949219 101.921875 101.660156 102.691406 101.257812 103.441406 L 101.257812 103.4375 C 99.9375 104.238281 96.332031 106.007812 94.09375 106.015625 L 94.09375 106.019531 C 93.398438 105.667969 92.675781 105.246094 91.945312 104.78125 C 95.097656 104.625 99.835938 103.363281 102.140625 101.140625 Z M 102.140625 101.140625 " fill-opacity="1" fill-rule="nonzero"/><path fill="#f9be06" d="M 98.09375 87.382812 C 98.792969 88.378906 99.472656 89.457031 100.074219 90.582031 C 97.5 95.769531 88.933594 99.03125 85.3125 99.796875 C 84.714844 99.289062 84.183594 98.828125 83.75 98.441406 C 86.621094 97.578125 96.617188 92.585938 98.09375 87.382812 Z M 98.09375 87.382812 " fill-opacity="1" fill-rule="nonzero"/><path fill="#e5deca" d="M 94.65625 60.164062 C 95.019531 60.164062 96.929688 63.078125 96.929688 63.078125 L 92.699219 62.589844 L 87.753906 64.652344 L 86.378906 64.753906 L 90.515625 60.53125 Z M 94.65625 60.164062 " fill-opacity="1" fill-rule="nonzero"/><path fill="#e5deca" d="M 79.546875 73.882812 C 76.507812 73.363281 73.972656 72.855469 73.410156 72.617188 C 72.796875 72.363281 72.171875 71.910156 71.660156 71.480469 L 71.96875 71.378906 L 81.769531 65.097656 L 86.378906 64.753906 L 87.753906 64.652344 L 92.699219 62.589844 L 90.515625 68.230469 L 85.570312 68.050781 C 85.570312 68.050781 85.054688 68.1875 84.246094 68.40625 L 86.859375 70.789062 L 88.21875 72.027344 L 83.902344 71.890625 L 85.753906 74.839844 C 83.742188 74.566406 81.535156 74.222656 79.546875 73.882812 Z M 79.546875 73.882812 " fill-opacity="1" fill-rule="nonzero"/><path fill="#f9be06" d="M 92.273438 80.890625 C 92.644531 81.148438 93.542969 81.949219 94.652344 83.140625 C 93.050781 88.011719 88.007812 92.058594 84.25 93.9375 C 84.582031 93.085938 84.695312 92.09375 84.25 91.164062 C 87.160156 89.070312 90.8125 83.1875 91.257812 80.269531 C 91.664062 80.496094 92.007812 80.710938 92.273438 80.890625 Z M 92.273438 80.890625 " fill-opacity="1" fill-rule="nonzero"/><path fill="#e5deca" d="M 84.335938 61.445312 C 86.089844 60.507812 87.878906 59.628906 89.628906 58.878906 L 90.515625 60.53125 L 86.378906 64.753906 L 81.769531 65.097656 L 82.953125 62.199219 C 83.410156 61.945312 83.871094 61.691406 84.335938 61.445312 Z M 84.335938 61.445312 " fill-opacity="1" fill-rule="nonzero"/><path fill="#f9be06" d="M 87.820312 78.691406 C 87.402344 80.644531 85.863281 85.433594 83.324219 87.589844 C 82.996094 86.195312 82.402344 84.746094 81.773438 83.753906 C 82.902344 81.53125 83.292969 78.964844 83.453125 77.609375 C 84.945312 77.773438 86.457031 78.191406 87.820312 78.691406 Z M 87.820312 78.691406 " fill-opacity="1" fill-rule="nonzero"/><path fill="#e5deca" d="M 80.519531 61.410156 L 76.730469 61.566406 C 79.21875 58.996094 81.992188 56.492188 84.019531 55.699219 C 85.640625 56.941406 85.019531 60.523438 84.335938 61.441406 C 83.871094 61.691406 83.410156 61.945312 82.953125 62.199219 C 80.136719 63.765625 77.453125 65.453125 75.199219 66.984375 C 75.277344 66.933594 77.796875 63.445312 77.796875 63.445312 Z M 80.519531 61.410156 " fill-opacity="1" fill-rule="nonzero"/><path fill="#e5deca" d="M 75.199219 66.984375 C 77.453125 65.453125 80.136719 63.765625 82.953125 62.199219 L 81.769531 65.097656 L 71.96875 71.375 L 71.660156 71.480469 C 71.003906 70.929688 70.539062 70.421875 70.539062 70.421875 C 70.980469 70.054688 71.507812 69.640625 72.097656 69.195312 C 72.101562 69.195312 72.101562 69.195312 72.101562 69.195312 C 72.992188 68.523438 74.039062 67.773438 75.199219 66.984375 Z M 75.199219 66.984375 " fill-opacity="1" fill-rule="nonzero"/><path fill="#e5deca" d="M 81.546875 51.738281 L 81.160156 54.460938 L 78.203125 58.628906 L 74.546875 57.886719 C 75.667969 55.804688 76.507812 54.234375 76.507812 54.234375 L 76.761719 53.003906 Z M 81.546875 51.738281 " fill-opacity="1" fill-rule="nonzero"/><path fill="#e5deca" d="M 73.222656 65.410156 C 73.503906 65.085938 73.804688 64.742188 74.121094 64.386719 C 74.914062 63.492188 75.800781 62.523438 76.730469 61.566406 L 80.519531 61.410156 L 77.796875 63.445312 C 77.796875 63.445312 75.277344 66.933594 75.199219 66.984375 C 74.039062 67.773438 72.992188 68.523438 72.101562 69.195312 C 72.101562 69.195312 72.101562 69.195312 72.097656 69.195312 C 71.941406 69.300781 67.222656 69.542969 67.222656 69.542969 C 67.222656 69.542969 67.554688 68.40625 68.113281 66.664062 C 68.984375 63.933594 70.410156 59.710938 71.96875 56.023438 L 73.53125 59.777344 C 73.019531 60.730469 72.484375 61.71875 71.96875 62.667969 L 71.96875 62.671875 Z M 73.222656 65.410156 " fill-opacity="1" fill-rule="nonzero"/><path fill="#f9be06" d="M 80.359375 85.605469 C 80.332031 87.027344 80.210938 88.480469 80.332031 89.597656 C 79.53125 90.390625 77.207031 91.757812 76.265625 91.949219 L 76.261719 91.949219 C 76.101562 91.6875 75.945312 91.425781 75.796875 91.167969 C 75.476562 90.617188 75.1875 90.074219 74.933594 89.574219 C 76.832031 88.921875 80.359375 85.605469 80.359375 85.605469 Z M 80.359375 85.605469 " fill-opacity="1" fill-rule="nonzero"/><path fill="#f9be06" d="M 57.628906 81.636719 C 57.453125 81.023438 57.332031 80.359375 57.28125 79.632812 L 57.253906 79.585938 C 59.117188 78.421875 61.621094 76.101562 62.289062 74.226562 C 62.761719 72.902344 62.980469 70.695312 62.273438 68.886719 C 64.15625 67.289062 66.175781 66.699219 68.113281 66.664062 C 67.554688 68.40625 67.222656 69.542969 67.222656 69.542969 C 67.222656 69.542969 71.941406 69.300781 72.097656 69.195312 C 71.507812 69.640625 70.980469 70.054688 70.539062 70.421875 C 70.539062 70.421875 71.003906 70.933594 71.660156 71.480469 C 72.171875 71.910156 72.796875 72.363281 73.410156 72.617188 C 73.972656 72.855469 76.507812 73.363281 79.546875 73.882812 C 79.976562 75.035156 80.203125 76.332031 80.09375 77.761719 C 79.976562 79.296875 79.46875 80.980469 78.421875 82.796875 C 77.148438 85 75.613281 86.457031 74.015625 87.382812 C 73.722656 87.554688 73.433594 87.707031 73.136719 87.839844 C 73.246094 87.328125 73.292969 86.773438 73.257812 86.171875 C 75.097656 84.980469 77.003906 80.179688 75.976562 78.917969 C 74.949219 77.660156 72.210938 79.15625 71.042969 80.484375 C 69.878906 81.8125 70.90625 82.902344 72.378906 82.9375 C 71.902344 83.34375 70.976562 84.808594 71.214844 85.625 C 70.542969 86.199219 69.851562 87.554688 69.5625 88.796875 C 67.125 89.039062 64.988281 88.5 63.929688 88.070312 C 64.207031 86.804688 63.988281 84.828125 62.996094 83.550781 C 62.996094 83.550781 64.367188 81.097656 64.878906 78.917969 C 65.394531 76.738281 64.914062 74.152344 63.203125 75.109375 C 61.96875 76.714844 60.390625 81.914062 60.597656 83.449219 C 60.34375 84.042969 60.390625 85.082031 60.632812 86.128906 C 59.984375 85.597656 59.355469 84.957031 58.824219 84.183594 C 58.324219 83.457031 57.90625 82.617188 57.628906 81.636719 Z M 57.628906 81.636719 " fill-opacity="1" fill-rule="nonzero"/><path fill="#e5deca" d="M 75.695312 49.328125 L 77.179688 50.949219 L 76.761719 53.003906 L 76.507812 54.238281 C 76.507812 54.238281 75.667969 55.808594 74.546875 57.890625 C 74.226562 58.488281 73.882812 59.125 73.53125 59.777344 L 71.96875 56.027344 C 73.195312 53.128906 74.503906 50.566406 75.695312 49.328125 Z M 75.695312 49.328125 " fill-opacity="1" fill-rule="nonzero"/><path fill="#e5deca" d="M 81.160156 54.460938 L 81.546875 51.738281 L 76.761719 53.003906 L 77.179688 50.949219 L 75.695312 49.324219 C 80.710938 44.097656 86.597656 40.757812 87.628906 43.832031 C 88.664062 46.90625 85.199219 54.304688 84.019531 55.695312 C 81.992188 56.488281 79.21875 58.992188 76.730469 61.5625 C 75.800781 62.523438 74.914062 63.492188 74.121094 64.382812 L 78.203125 58.628906 Z M 81.160156 54.460938 " fill-opacity="1" fill-rule="nonzero"/><path fill="#e5deca" d="M 74.546875 57.890625 L 78.203125 58.632812 L 74.121094 64.386719 C 73.804688 64.742188 73.503906 65.085938 73.222656 65.410156 L 71.96875 62.671875 L 71.96875 62.667969 C 72.484375 61.71875 73.019531 60.730469 73.53125 59.777344 C 73.882812 59.121094 74.226562 58.484375 74.546875 57.890625 Z M 74.546875 57.890625 " fill-opacity="1" fill-rule="nonzero"/><path fill="#e5deca" d="M 59.09375 71.453125 C 60.28125 72.019531 58.847656 74.839844 57.675781 74.214844 C 56.667969 73.699219 57.90625 70.886719 59.09375 71.453125 Z M 59.09375 71.453125 " fill-opacity="1" fill-rule="nonzero"/><path fill="#f9be06" d="M 53.914062 66.902344 C 53.777344 68.851562 54.515625 71.535156 54.871094 70.910156 C 55.164062 70.390625 54.886719 67.59375 54.550781 66.503906 C 55.726562 65.875 57.222656 65.617188 59.121094 66.097656 C 60.800781 66.523438 61.769531 67.605469 62.273438 68.886719 C 62.980469 70.695312 62.761719 72.902344 62.289062 74.230469 C 61.621094 76.101562 59.117188 78.421875 57.253906 79.589844 C 56.855469 79.835938 56.488281 80.035156 56.171875 80.160156 C 55.640625 80.375 54.996094 80.503906 54.996094 80.503906 C 54.304688 78.507812 52.636719 78.195312 51.453125 78.632812 C 50.625 78.078125 50.253906 74.300781 50.753906 72.023438 C 50.789062 71.871094 50.824219 71.726562 50.867188 71.589844 C 50.90625 71.464844 50.949219 71.328125 50.996094 71.191406 C 51.4375 69.898438 52.324219 68.050781 53.914062 66.902344 Z M 56.289062 76.519531 C 57.921875 77.441406 61.902344 71.804688 59.664062 70.53125 C 57.429688 69.257812 54.707031 75.789062 56.289062 76.519531 Z M 56.289062 76.519531 " fill-opacity="1" fill-rule="nonzero"/><g clip-path="url(#382dbe2b29)"><path fill="#000000" d="M 106.949219 58.328125 C 106.042969 56.640625 103.46875 56.183594 101.46875 56.097656 C 100.390625 56.050781 99.175781 56.09375 97.851562 56.230469 C 95.59375 56.464844 92.800781 57.296875 89.546875 58.695312 C 88.054688 59.335938 86.464844 60.101562 84.808594 60.96875 C 85.359375 59.574219 85.589844 56.871094 84.296875 55.667969 C 85.558594 53.972656 88.855469 46.851562 87.820312 43.769531 C 87.589844 43.085938 87.136719 42.664062 86.464844 42.511719 C 84.277344 42.027344 79.789062 44.769531 75.550781 49.1875 C 74.476562 50.304688 73.207031 52.578125 71.785156 55.945312 C 70.261719 59.535156 68.875 63.625 67.964844 66.46875 C 65.878906 66.535156 63.992188 67.238281 62.351562 68.5625 C 61.734375 67.191406 60.640625 66.273438 59.167969 65.902344 C 57.488281 65.476562 55.976562 65.585938 54.664062 66.222656 C 54.589844 66.039062 54.523438 65.972656 54.472656 65.929688 C 54.132812 65.667969 52.289062 62.933594 51.644531 61.484375 C 51.621094 61.429688 51.574219 61.386719 51.515625 61.371094 C 51.457031 61.355469 51.394531 61.367188 51.34375 61.402344 C 51.085938 61.589844 50.949219 61.871094 50.933594 62.246094 C 50.878906 63.574219 52.4375 65.820312 53.597656 66.890625 C 52.257812 67.941406 51.445312 69.441406 50.972656 70.671875 L 49.082031 66.707031 C 49.058594 66.660156 49.019531 66.621094 48.972656 66.605469 C 47.574219 66.085938 42.964844 64.414062 42.335938 64.769531 C 42.257812 64.8125 42.207031 64.886719 42.191406 64.96875 C 42.191406 64.984375 42.1875 64.996094 42.1875 65.007812 C 42.1875 66.613281 47.09375 67.277344 48.179688 67.363281 C 48.46875 69.542969 49.839844 71.574219 50.53125 72.113281 C 50.3125 73.195312 50.265625 74.632812 50.40625 75.996094 C 50.492188 76.828125 50.714844 78.25 51.261719 78.730469 C 51.402344 80.550781 53.683594 82.667969 53.78125 82.757812 C 53.816406 82.792969 53.867188 82.8125 53.917969 82.8125 C 53.933594 82.8125 53.953125 82.808594 53.96875 82.804688 C 54.035156 82.789062 54.085938 82.738281 54.109375 82.671875 L 54.148438 82.546875 C 54.375 81.816406 54.722656 80.707031 54.996094 80.707031 C 55.007812 80.707031 55.023438 80.703125 55.035156 80.703125 C 55.0625 80.695312 55.707031 80.566406 56.246094 80.347656 C 56.5 80.242188 56.792969 80.097656 57.109375 79.910156 C 57.160156 80.480469 57.261719 81.03125 57.402344 81.558594 C 56.023438 82.5625 55.707031 83.828125 56.109375 84.578125 C 55.78125 86.925781 56.859375 87.800781 57.21875 88.09375 C 57.222656 88.097656 57.230469 88.101562 57.234375 88.105469 C 57.195312 88.382812 57.132812 89.019531 57.082031 89.558594 C 57.074219 89.648438 57.125 89.730469 57.210938 89.761719 C 57.234375 89.773438 57.257812 89.777344 57.28125 89.777344 C 57.34375 89.777344 57.40625 89.746094 57.441406 89.695312 L 58.269531 88.582031 L 59.269531 88.550781 C 59.355469 88.546875 59.433594 88.488281 59.457031 88.402344 C 59.480469 88.316406 59.441406 88.226562 59.367188 88.179688 L 58.054688 87.382812 C 57.90625 87.21875 56.871094 86.023438 57.027344 85.011719 C 57.03125 85.011719 57.035156 85.011719 57.042969 85.011719 C 57.773438 85.011719 58.335938 84.839844 58.789062 84.480469 C 59.25 85.117188 59.808594 85.707031 60.453125 86.242188 C 60.824219 87.820312 61.648438 89.5 62.625 89.632812 C 63.519531 90.808594 65.242188 93.535156 65.257812 93.5625 C 65.296875 93.625 65.359375 93.65625 65.429688 93.65625 C 65.441406 93.65625 65.457031 93.65625 65.472656 93.652344 C 65.554688 93.636719 65.613281 93.570312 65.628906 93.484375 C 65.671875 93.164062 65.761719 92.484375 65.792969 92.207031 C 65.957031 92.140625 66.398438 92.03125 66.773438 91.949219 C 66.867188 91.929688 66.9375 91.84375 66.933594 91.75 C 66.929688 91.652344 66.855469 91.570312 66.757812 91.558594 C 66.363281 91.507812 64.507812 90.644531 63.660156 89.171875 C 63.832031 88.976562 63.972656 88.691406 64.070312 88.339844 C 65.101562 88.722656 66.640625 89.058594 68.347656 89.058594 C 68.664062 89.058594 68.988281 89.046875 69.3125 89.023438 C 69.109375 90.082031 69.246094 90.867188 69.699219 91.257812 C 69.40625 93.179688 70.605469 94.941406 70.746094 95.140625 C 71.121094 95.664062 71.1875 96.632812 71.1875 96.640625 C 71.195312 96.738281 71.273438 96.816406 71.375 96.828125 C 71.378906 96.828125 71.382812 96.828125 71.386719 96.828125 C 71.480469 96.828125 71.5625 96.761719 71.582031 96.671875 L 71.832031 95.554688 L 72.648438 95.285156 C 72.738281 95.253906 72.792969 95.171875 72.785156 95.082031 C 72.78125 94.988281 72.710938 94.914062 72.621094 94.898438 C 71.832031 94.757812 70.707031 93.574219 70.738281 91.476562 C 71.734375 90.988281 72.890625 89.832031 73.3125 87.980469 C 73.507812 87.886719 73.703125 87.789062 73.890625 87.683594 C 74.039062 88.152344 74.34375 88.851562 74.753906 89.667969 C 74.992188 90.140625 75.253906 90.625 75.53125 91.109375 C 73.9375 92.210938 73.898438 93.746094 74.292969 94.632812 C 72.550781 95.890625 72.21875 97.964844 72.917969 99.289062 C 73.609375 100.589844 74.097656 101.742188 73.097656 102.617188 C 73.027344 102.679688 73.007812 102.777344 73.050781 102.855469 C 73.089844 102.9375 73.179688 102.980469 73.269531 102.960938 C 73.59375 102.898438 73.933594 102.707031 74.15625 102.566406 L 74.351562 103.480469 C 74.371094 103.558594 74.429688 103.617188 74.507812 103.632812 C 74.523438 103.636719 74.535156 103.636719 74.550781 103.636719 C 74.613281 103.636719 74.675781 103.609375 74.710938 103.554688 C 74.75 103.5 75.691406 102.195312 75.15625 101.285156 C 75.066406 101.128906 74.960938 100.972656 74.851562 100.804688 C 74.394531 100.109375 73.921875 99.390625 74.207031 98.664062 C 74.53125 97.824219 75.722656 96.222656 76.042969 95.796875 C 76.789062 95.953125 77.710938 95.382812 78.191406 94.925781 C 78.53125 95.292969 78.851562 95.585938 79.152344 95.800781 C 78.394531 96.4375 76.824219 97.863281 76.722656 99.371094 C 76.679688 99.980469 76.878906 100.546875 77.320312 101.046875 C 76.972656 105 78.734375 106.144531 79.90625 106.902344 C 80.097656 107.027344 80.277344 107.144531 80.425781 107.257812 C 80.875 107.609375 80.992188 108.054688 80.777344 108.582031 L 80.574219 108.953125 C 80.523438 109.042969 80.550781 109.15625 80.640625 109.214844 C 80.671875 109.238281 80.710938 109.246094 80.75 109.246094 C 80.808594 109.246094 80.867188 109.21875 80.90625 109.167969 C 80.914062 109.164062 81.039062 109 81.140625 108.753906 L 81.535156 108.039062 L 82.414062 108.800781 C 82.453125 108.835938 82.5 108.851562 82.546875 108.851562 C 82.558594 108.851562 82.570312 108.851562 82.582031 108.847656 C 82.640625 108.839844 82.695312 108.800781 82.722656 108.75 C 82.734375 108.726562 83.046875 108.140625 82.792969 107.488281 C 82.589844 106.960938 82.078125 106.554688 81.28125 106.28125 C 78.816406 105.4375 79.304688 102.6875 79.578125 101.683594 C 81.328125 101.347656 82.476562 99.957031 82.765625 97.828125 C 82.988281 98.03125 83.277344 98.289062 83.621094 98.59375 C 84.144531 99.054688 84.671875 99.511719 85.1875 99.949219 C 85.929688 100.578125 86.671875 101.183594 87.386719 101.75 C 88.042969 102.269531 88.699219 102.765625 89.335938 103.234375 C 90.210938 103.875 91.050781 104.453125 91.839844 104.949219 C 92.613281 105.441406 93.34375 105.859375 94.007812 106.199219 C 95.457031 106.933594 96.652344 107.300781 97.582031 107.300781 C 97.804688 107.300781 98.011719 107.28125 98.203125 107.238281 C 98.230469 107.230469 98.257812 107.21875 98.28125 107.199219 C 99.65625 106.109375 100.714844 104.878906 101.4375 103.535156 C 101.835938 102.796875 102.140625 102.007812 102.339844 101.191406 C 102.636719 99.96875 102.707031 98.652344 102.554688 97.28125 C 102.429688 96.191406 102.164062 95.046875 101.757812 93.875 C 101.378906 92.78125 100.875 91.644531 100.257812 90.492188 C 99.691406 89.4375 99.019531 88.351562 98.261719 87.269531 C 96.964844 85.417969 95.664062 83.929688 94.804688 83.007812 C 93.695312 81.820312 92.792969 81.007812 92.390625 80.730469 C 92.105469 80.535156 91.75 80.316406 91.363281 80.101562 C 90.320312 79.515625 89.085938 78.949219 87.894531 78.507812 C 86.332031 77.933594 84.847656 77.566406 83.476562 77.414062 C 82.316406 77.289062 81.253906 77.324219 80.308594 77.515625 C 80.367188 76.363281 80.210938 75.226562 79.847656 74.136719 C 81.851562 74.476562 83.929688 74.792969 85.730469 75.039062 C 87.636719 75.300781 90.136719 75.605469 91.453125 75.605469 C 91.507812 75.605469 91.5625 75.605469 91.617188 75.601562 C 93.25 75.566406 94.914062 74.835938 96.183594 73.605469 C 97.480469 72.34375 98.226562 70.710938 98.292969 69.003906 C 99.609375 68.242188 105.292969 63.527344 106.742188 61.148438 C 107.328125 60.175781 107.40625 59.175781 106.949219 58.328125 Z M 97.894531 56.628906 C 99.167969 56.496094 100.339844 56.453125 101.375 56.492188 L 103.03125 58.109375 L 101.148438 59.390625 L 90.628906 60.320312 L 89.90625 58.976562 C 93.039062 57.644531 95.726562 56.851562 97.894531 56.628906 Z M 85.578125 67.851562 C 85.558594 67.851562 85.539062 67.851562 85.519531 67.859375 C 85.519531 67.859375 85.003906 67.996094 84.195312 68.214844 C 78.25 69.808594 74.554688 70.777344 74.308594 70.804688 L 74.320312 71.003906 L 74.324219 71.203125 C 74.5 71.203125 77.824219 70.335938 84.191406 68.628906 L 86.722656 70.9375 L 86.859375 70.789062 L 86.859375 70.792969 L 86.722656 70.9375 L 87.683594 71.8125 L 75.277344 71.417969 L 75.265625 71.816406 L 83.789062 72.089844 L 85.355469 74.585938 C 83.554688 74.335938 81.523438 74.019531 79.574219 73.6875 C 76.386719 73.140625 73.996094 72.648438 73.484375 72.433594 C 72.988281 72.226562 72.414062 71.855469 71.785156 71.328125 C 71.359375 70.972656 71.011719 70.628906 70.828125 70.441406 C 71.242188 70.101562 71.710938 69.738281 72.214844 69.355469 C 72.214844 69.355469 72.21875 69.355469 72.21875 69.355469 C 73.144531 68.65625 74.183594 67.914062 75.308594 67.152344 C 77.628906 65.574219 80.117188 64.027344 82.546875 62.65625 L 81.605469 64.964844 L 71.855469 71.210938 L 72.074219 71.546875 L 81.832031 65.296875 L 87.765625 64.851562 C 87.785156 64.851562 87.808594 64.847656 87.828125 64.839844 L 92.339844 62.957031 L 90.375 68.027344 Z M 72.082031 69.171875 L 72.105469 69.199219 L 72.097656 69.191406 Z M 84.429688 61.621094 C 86.21875 60.664062 87.933594 59.832031 89.539062 59.132812 L 90.269531 60.496094 L 86.289062 64.5625 L 82.078125 64.875 L 83.113281 62.339844 C 83.554688 62.09375 84 61.851562 84.429688 61.621094 Z M 92.722656 62.394531 C 92.691406 62.390625 92.65625 62.394531 92.625 62.410156 L 87.707031 64.457031 L 86.890625 64.515625 L 90.609375 60.722656 L 94.636719 60.363281 C 94.875 60.496094 95.75 61.671875 96.527344 62.828125 Z M 94.65625 60.363281 Z M 84.199219 61.292969 C 83.757812 61.527344 83.304688 61.773438 82.855469 62.023438 C 80.597656 63.28125 78.273438 64.699219 76.070312 66.160156 C 76.457031 65.636719 77.042969 64.832031 77.941406 63.585938 L 84.027344 59.039062 L 83.785156 58.71875 L 80.449219 61.214844 L 77.226562 61.347656 C 80.089844 58.425781 82.359375 56.605469 83.984375 55.929688 C 85.371094 57.144531 84.785156 60.433594 84.199219 61.292969 Z M 86.378906 42.90625 C 86.910156 43.023438 87.257812 43.347656 87.441406 43.898438 C 88.441406 46.875 85.015625 54.15625 83.898438 55.535156 C 82.152344 56.238281 79.691406 58.21875 76.585938 61.429688 C 76.429688 61.589844 76.273438 61.753906 76.113281 61.921875 L 81.285156 54.625 L 84.589844 53.421875 L 84.453125 53.046875 L 81.402344 54.160156 L 81.953125 50.265625 C 82.605469 49.894531 85.65625 48.152344 85.875 47.992188 L 85.632812 47.671875 C 85.476562 47.789062 83.175781 49.109375 81.671875 49.96875 C 81.617188 50 81.578125 50.050781 81.570312 50.113281 L 81.363281 51.582031 L 77.019531 52.730469 L 77.363281 51.058594 L 84.652344 44.75 L 84.390625 44.449219 L 77.195312 50.671875 L 75.96875 49.332031 C 80.015625 45.15625 84.371094 42.460938 86.378906 42.90625 Z M 73.277344 65.046875 L 72.191406 62.675781 C 72.691406 61.753906 73.210938 60.796875 73.707031 59.871094 L 73.53125 59.777344 L 73.535156 59.777344 L 73.707031 59.871094 C 73.925781 59.464844 74.136719 59.070312 74.34375 58.6875 L 74.652344 58.113281 L 77.859375 58.765625 L 73.964844 64.261719 C 73.722656 64.53125 73.496094 64.792969 73.277344 65.046875 Z M 76.964844 51.007812 L 76.316406 54.167969 C 76.203125 54.378906 75.40625 55.867188 74.371094 57.796875 L 73.988281 58.5 C 73.847656 58.761719 73.703125 59.035156 73.554688 59.3125 L 72.183594 56.027344 C 73.511719 52.898438 74.691406 50.746094 75.695312 49.621094 Z M 78.113281 58.410156 L 74.851562 57.75 C 75.90625 55.785156 76.683594 54.332031 76.683594 54.332031 C 76.695312 54.3125 76.699219 54.296875 76.703125 54.277344 L 76.929688 53.164062 L 81.304688 52.007812 L 80.964844 54.382812 Z M 71.96875 56.542969 L 73.3125 59.765625 C 72.8125 60.695312 72.292969 61.652344 71.792969 62.574219 L 71.96875 62.671875 L 71.792969 62.578125 C 69.386719 67.023438 68.914062 67.832031 68.851562 67.917969 C 68.851562 67.917969 68.863281 67.902344 68.886719 67.886719 L 69.113281 68.214844 C 69.179688 68.167969 69.242188 68.125 71.953125 63.121094 L 72.984375 65.375 C 71.871094 66.664062 71.046875 67.671875 70.734375 68.050781 L 70.695312 68.101562 L 71.003906 68.355469 L 71.046875 68.304688 C 71.367188 67.910156 72.21875 66.871094 73.371094 65.539062 C 73.65625 65.214844 73.957031 64.871094 74.269531 64.519531 C 75.152344 63.527344 76.007812 62.597656 76.820312 61.761719 L 79.882812 61.632812 L 77.675781 63.285156 C 77.660156 63.296875 77.644531 63.3125 77.632812 63.328125 C 76.679688 64.644531 75.230469 66.640625 75.066406 66.832031 C 73.953125 67.589844 72.921875 68.324219 72.003906 69.015625 C 71.683594 69.089844 69.199219 69.238281 67.496094 69.328125 C 67.625 68.890625 67.910156 67.953125 68.300781 66.722656 C 69.175781 64 70.503906 60.070312 71.96875 56.542969 Z M 51.453125 78.632812 Z M 56.09375 79.976562 C 55.75 80.117188 55.34375 80.222656 55.121094 80.273438 C 54.796875 79.445312 54.269531 78.839844 53.589844 78.519531 C 52.953125 78.21875 52.199219 78.183594 51.496094 78.410156 C 50.851562 77.773438 50.445312 74.359375 50.949219 72.070312 C 50.980469 71.921875 51.019531 71.78125 51.058594 71.648438 C 51.09375 71.523438 51.136719 71.394531 51.183594 71.257812 C 51.519531 70.273438 52.28125 68.515625 53.695312 67.328125 C 53.6875 68.03125 53.769531 68.832031 53.933594 69.59375 C 54.144531 70.574219 54.390625 71.109375 54.664062 71.191406 C 54.683594 71.199219 54.710938 71.203125 54.75 71.203125 C 54.835938 71.203125 54.953125 71.171875 55.042969 71.011719 C 55.378906 70.414062 55.089844 67.761719 54.789062 66.609375 C 56.023438 65.992188 57.460938 65.886719 59.066406 66.292969 C 60.519531 66.660156 61.53125 67.558594 62.082031 68.960938 C 62.761719 70.6875 62.578125 72.816406 62.09375 74.164062 C 61.476562 75.902344 59.089844 78.203125 57.144531 79.421875 C 56.75 79.667969 56.394531 79.855469 56.09375 79.976562 Z M 80.144531 86.074219 C 80.136719 86.324219 80.128906 86.578125 80.121094 86.828125 C 80.082031 87.804688 80.050781 88.730469 80.125 89.519531 C 79.3125 90.277344 77.28125 91.460938 76.359375 91.71875 C 76.21875 91.488281 76.089844 91.273438 75.972656 91.066406 C 75.703125 90.601562 75.449219 90.136719 75.214844 89.679688 C 76.808594 89.019531 79.242188 86.890625 80.144531 86.074219 Z M 83.4375 87.21875 C 83.109375 85.976562 82.574219 84.679688 82 83.742188 C 82.785156 82.160156 83.332031 80.171875 83.625 77.835938 C 84.859375 77.988281 86.191406 78.320312 87.585938 78.824219 C 87.175781 80.605469 85.769531 85.027344 83.4375 87.21875 Z M 84.144531 98.523438 C 87.390625 97.410156 96.371094 92.730469 98.15625 87.828125 C 98.789062 88.753906 99.359375 89.679688 99.847656 90.585938 C 98.4375 93.335938 95.347656 95.410156 92.992188 96.671875 C 90.082031 98.230469 87.09375 99.203125 85.367188 99.578125 C 84.964844 99.238281 84.554688 98.882812 84.144531 98.523438 Z M 101.105469 103.296875 C 99.777344 104.09375 96.28125 105.785156 94.136719 105.816406 C 93.648438 105.570312 93.125 105.273438 92.570312 104.9375 C 95.589844 104.671875 99.511719 103.527344 101.765625 101.734375 C 101.59375 102.269531 101.371094 102.792969 101.105469 103.296875 Z M 102.140625 97.238281 C 100.097656 99.53125 93.460938 102.488281 89.507812 102.863281 C 89.011719 102.5 88.507812 102.117188 87.996094 101.71875 C 92.46875 101.015625 99.378906 98.351562 101.527344 94.460938 C 101.828125 95.410156 102.03125 96.34375 102.140625 97.238281 Z M 94.421875 83.191406 C 92.933594 87.558594 88.503906 91.464844 84.59375 93.535156 C 84.773438 92.882812 84.839844 92.058594 84.496094 91.230469 C 87.4375 89.023438 90.800781 83.480469 91.40625 80.582031 C 91.6875 80.746094 91.945312 80.910156 92.15625 81.054688 C 92.519531 81.304688 93.375 82.074219 94.421875 83.191406 Z M 79.894531 77.746094 C 79.769531 79.355469 79.214844 81.019531 78.25 82.699219 C 77.097656 84.691406 75.636719 86.210938 73.914062 87.210938 C 73.75 87.308594 73.574219 87.398438 73.402344 87.488281 C 73.457031 87.09375 73.480469 86.683594 73.464844 86.269531 C 74.839844 85.296875 76.105469 82.628906 76.398438 80.777344 C 76.542969 79.867188 76.449219 79.179688 76.132812 78.792969 C 75.84375 78.4375 75.425781 78.253906 74.898438 78.242188 C 74.882812 78.242188 74.867188 78.242188 74.855469 78.242188 C 73.550781 78.242188 71.789062 79.332031 70.890625 80.351562 C 70.367188 80.949219 70.210938 81.574219 70.445312 82.109375 C 70.675781 82.621094 71.234375 82.984375 71.953125 83.097656 C 71.464844 83.695312 70.867188 84.792969 70.992188 85.554688 C 70.355469 86.160156 69.710938 87.402344 69.402344 88.609375 C 67.304688 88.792969 65.355469 88.398438 64.15625 87.941406 C 64.386719 86.652344 64.148438 84.796875 63.230469 83.53125 C 63.511719 83.019531 64.617188 80.902344 65.074219 78.960938 C 65.425781 77.46875 65.34375 75.542969 64.503906 74.910156 C 64.238281 74.714844 63.777344 74.554688 63.101562 74.933594 C 63.078125 74.949219 63.058594 74.964844 63.042969 74.988281 C 61.820312 76.578125 60.210938 81.714844 60.390625 83.417969 C 60.199219 83.921875 60.175781 84.691406 60.324219 85.59375 C 59.808594 85.125 59.359375 84.613281 58.988281 84.066406 C 58.46875 83.316406 58.074219 82.480469 57.820312 81.582031 C 57.648438 80.980469 57.535156 80.339844 57.484375 79.675781 C 59.441406 78.417969 61.816406 76.140625 62.476562 74.292969 C 62.96875 72.910156 63.160156 70.746094 62.507812 68.949219 C 64.066406 67.664062 65.855469 66.96875 67.835938 66.871094 C 67.335938 68.445312 67.035156 69.472656 67.03125 69.484375 C 67.011719 69.546875 67.023438 69.613281 67.0625 69.664062 C 67.101562 69.710938 67.160156 69.738281 67.222656 69.738281 C 67.226562 69.738281 67.230469 69.738281 67.234375 69.738281 C 69.507812 69.621094 70.730469 69.539062 71.394531 69.480469 C 71.039062 69.753906 70.710938 70.019531 70.410156 70.265625 C 70.367188 70.300781 70.34375 70.351562 70.339844 70.40625 C 70.335938 70.460938 70.351562 70.515625 70.390625 70.554688 C 70.410156 70.574219 70.871094 71.082031 71.53125 71.632812 C 72.191406 72.183594 72.796875 72.578125 73.332031 72.800781 C 73.972656 73.070312 76.859375 73.621094 79.394531 74.058594 C 79.820312 75.242188 79.992188 76.484375 79.894531 77.746094 Z M 106.394531 60.941406 C 104.972656 63.28125 99.03125 68.195312 98.003906 68.703125 C 97.9375 68.738281 97.894531 68.804688 97.894531 68.878906 C 97.859375 70.523438 97.152344 72.101562 95.898438 73.316406 C 94.699219 74.480469 93.136719 75.167969 91.605469 75.203125 C 90.632812 75.226562 88.65625 75.035156 85.875 74.65625 L 84.273438 72.101562 L 88.210938 72.226562 C 88.214844 72.226562 88.214844 72.226562 88.21875 72.226562 C 88.300781 72.226562 88.375 72.175781 88.402344 72.101562 C 88.4375 72.023438 88.414062 71.9375 88.355469 71.878906 L 87.449219 71.054688 C 88.148438 71.105469 89.550781 71.160156 92.410156 71.199219 L 94.535156 72.777344 L 94.773438 72.457031 L 92.597656 70.84375 C 92.5625 70.816406 92.523438 70.804688 92.480469 70.800781 C 90.527344 70.777344 87.351562 70.699219 86.964844 70.613281 L 84.652344 68.503906 C 85.15625 68.367188 85.496094 68.273438 85.59375 68.25 L 97.175781 68.667969 L 97.191406 68.269531 L 90.804688 68.039062 L 92.832031 62.804688 L 99.554688 63.574219 C 98.234375 64.382812 96.507812 65.433594 96.335938 65.503906 C 96.34375 65.5 96.347656 65.5 96.351562 65.496094 L 96.191406 65.660156 C 96.164062 65.808594 96.144531 65.914062 98.46875 67.488281 L 98.695312 67.160156 C 97.914062 66.628906 97.066406 66.027344 96.71875 65.746094 C 97.339844 65.398438 98.871094 64.464844 100.195312 63.648438 L 102.402344 63.902344 L 102.449219 63.503906 L 97.046875 62.886719 C 96.59375 62.195312 95.753906 60.929688 95.164062 60.316406 L 101.234375 59.78125 C 101.269531 59.777344 101.300781 59.765625 101.328125 59.746094 L 103.457031 58.296875 C 103.507812 58.265625 103.539062 58.210938 103.542969 58.152344 C 103.550781 58.09375 103.527344 58.035156 103.484375 57.992188 L 101.980469 56.523438 C 104.371094 56.707031 106 57.40625 106.59375 58.511719 C 106.980469 59.234375 106.910156 60.09375 106.394531 60.941406 Z M 106.394531 60.941406 " fill-opacity="1" fill-rule="nonzero"/></g><path fill="#000000" d="M 59.777344 74.152344 C 60.984375 72.046875 60.5625 70.8125 59.765625 70.359375 C 59.269531 70.078125 58.710938 70.109375 58.148438 70.457031 C 56.699219 71.351562 55.527344 74.082031 55.621094 75.609375 C 55.660156 76.300781 55.953125 76.582031 56.195312 76.695312 C 56.332031 76.773438 56.492188 76.808594 56.667969 76.808594 C 57.515625 76.808594 58.757812 75.933594 59.777344 74.152344 Z M 58.429688 73.972656 C 58.195312 74.125 57.972656 74.148438 57.769531 74.039062 C 57.378906 73.839844 57.464844 73.066406 57.765625 72.464844 C 58.003906 71.988281 58.386719 71.578125 58.769531 71.578125 C 58.851562 71.578125 58.929688 71.597656 59.007812 71.632812 C 59.207031 71.730469 59.320312 71.921875 59.335938 72.199219 C 59.375 72.8125 58.949219 73.640625 58.429688 73.972656 Z M 58.429688 73.972656 " fill-opacity="1" fill-rule="nonzero"/></svg>