<svg xmlns="http://www.w3.org/2000/svg" xmlns:xlink="http://www.w3.org/1999/xlink" width="50" zoomAndPan="magnify" viewBox="0 0 37.5 37.499999" height="50" preserveAspectRatio="xMidYMid meet" version="1.0"><defs><clipPath id="496178145b"><path d="M 3.039062 1.144531 L 34 1.144531 L 34 35.933594 L 3.039062 35.933594 Z M 3.039062 1.144531 " clip-rule="nonzero"/></clipPath></defs><g clip-path="url(#496178145b)"><path fill="#000000" d="M 24.941406 10.238281 C 24.910156 10.199219 24.875 10.160156 24.84375 10.125 C 24.730469 10.242188 24.621094 10.359375 24.507812 10.476562 C 24.542969 10.507812 24.574219 10.539062 24.609375 10.570312 C 24.71875 10.460938 24.832031 10.347656 24.941406 10.238281 Z M 24.699219 8.933594 C 24.734375 8.976562 24.769531 9.023438 24.804688 9.070312 C 24.90625 8.960938 25.007812 8.851562 25.113281 8.738281 C 25.085938 8.714844 25.058594 8.6875 25.03125 8.660156 C 24.921875 8.75 24.808594 8.839844 24.699219 8.933594 Z M 27.128906 7.285156 C 27.15625 7.316406 27.183594 7.347656 27.210938 7.378906 C 27.316406 7.28125 27.421875 7.183594 27.527344 7.089844 C 27.503906 7.0625 27.480469 7.039062 27.457031 7.011719 C 27.347656 7.101562 27.238281 7.195312 27.128906 7.285156 Z M 21.492188 16.191406 C 21.535156 16.214844 21.578125 16.242188 21.621094 16.265625 C 21.820312 16.039062 22.023438 15.8125 22.363281 15.429688 C 22.089844 15.539062 22 15.546875 21.957031 15.59375 C 21.792969 15.785156 21.644531 15.992188 21.492188 16.191406 Z M 23.269531 11.550781 C 23.328125 11.609375 23.382812 11.667969 23.441406 11.726562 C 23.699219 11.460938 23.957031 11.195312 24.214844 10.929688 C 24.167969 10.882812 24.121094 10.839844 24.074219 10.792969 C 23.808594 11.046875 23.539062 11.300781 23.269531 11.550781 Z M 7.234375 9.644531 C 7.402344 9.910156 7.570312 10.175781 7.75 10.464844 C 8.140625 10.019531 8.140625 10.019531 7.234375 9.644531 Z M 16.011719 25.914062 C 16.070312 25.972656 16.125 26.035156 16.179688 26.097656 C 16.664062 25.53125 17.144531 24.964844 17.625 24.394531 C 17.570312 24.351562 17.519531 24.304688 17.464844 24.261719 C 16.980469 24.8125 16.496094 25.363281 16.011719 25.914062 Z M 12.167969 15.460938 C 13.015625 16.25 13.808594 17.089844 14.832031 17.636719 C 14.171875 16.628906 13.15625 16.050781 12.167969 15.460938 Z M 27.152344 24.210938 C 26.082031 22.84375 23.050781 20.671875 22.105469 20.53125 C 23.855469 21.808594 25.503906 23.007812 27.152344 24.210938 Z M 8.089844 7.347656 C 9.082031 8.925781 10.484375 10.089844 11.839844 11.300781 C 11.753906 11.046875 11.59375 10.855469 11.425781 10.671875 C 11.003906 10.199219 10.503906 9.78125 10.175781 9.25 C 9.652344 8.40625 8.914062 7.835938 8.089844 7.347656 Z M 25.914062 11.699219 C 26.101562 11.574219 26.285156 11.449219 26.46875 11.328125 C 26.414062 11.273438 26.355469 11.222656 26.300781 11.171875 C 26.175781 11.355469 26.054688 11.539062 25.933594 11.71875 C 25.246094 12.339844 24.546875 12.949219 23.875 13.589844 C 23.667969 13.785156 23.535156 14.058594 23.367188 14.300781 C 23.03125 14.332031 22.890625 14.554688 22.894531 14.902344 C 23.046875 14.695312 23.199219 14.488281 23.351562 14.28125 C 23.957031 13.75 24.585938 13.238281 25.164062 12.679688 C 25.457031 12.394531 25.667969 12.027344 25.914062 11.699219 Z M 29.632812 3.605469 C 30.25 3.28125 30.546875 2.699219 30.875 2.140625 C 30.257812 2.476562 29.660156 2.828125 29.652344 3.632812 C 28.980469 4.078125 28.386719 4.601562 27.925781 5.273438 C 28.710938 4.941406 29.21875 4.328125 29.632812 3.605469 Z M 24.152344 16.84375 C 24.289062 16.695312 24.425781 16.550781 24.5625 16.402344 C 24.507812 16.371094 24.453125 16.335938 24.398438 16.304688 C 24.324219 16.496094 24.25 16.683594 24.175781 16.875 C 23.660156 16.890625 23.46875 17.277344 23.222656 17.601562 C 23.265625 17.644531 23.304688 17.6875 23.347656 17.730469 C 23.617188 17.4375 23.886719 17.140625 24.152344 16.84375 Z M 5.9375 31.859375 C 5.433594 32.28125 4.941406 32.710938 4.425781 33.121094 C 3.925781 33.523438 3.832031 34.324219 3.039062 34.535156 C 3.203125 32.960938 4.472656 32.070312 5.019531 30.75 C 4.515625 31.257812 4.015625 31.765625 3.515625 32.273438 C 3.457031 32.226562 3.398438 32.179688 3.339844 32.128906 C 3.46875 31.445312 4.164062 31.132812 4.511719 30.585938 C 4.882812 30 5.359375 29.480469 5.769531 28.917969 C 6.183594 28.359375 6.5625 27.773438 6.976562 27.214844 C 7.390625 26.652344 7.828125 26.109375 8.261719 25.5625 C 8.695312 25.015625 9.132812 24.476562 9.574219 23.933594 C 10.011719 23.394531 10.457031 22.855469 10.898438 22.316406 C 11.34375 21.78125 11.792969 21.25 12.242188 20.714844 C 12.6875 20.183594 13.136719 19.652344 13.628906 19.066406 C 12.8125 18.347656 12.035156 17.683594 11.273438 17 C 10.210938 16.046875 9.160156 15.085938 8.101562 14.128906 C 6.5625 12.730469 5.417969 11.003906 4.15625 9.378906 C 3.976562 9.152344 3.960938 8.796875 3.832031 8.375 C 4.511719 8.480469 4.722656 9.023438 5.226562 9.171875 C 5.402344 8.9375 5.589844 8.6875 5.839844 8.351562 C 5.957031 8.664062 6.035156 8.878906 6.152344 9.179688 C 6.457031 8.480469 6.921875 8.980469 7.382812 8.992188 C 7.257812 8.46875 6.765625 7.925781 7.585938 7.671875 C 6.878906 6.347656 6.878906 6.347656 7.941406 5.871094 C 8.308594 6.195312 8.683594 6.53125 9.078125 6.878906 C 9.28125 6.109375 8.957031 5.574219 8.460938 5.082031 C 8.207031 4.824219 7.992188 4.527344 7.757812 4.246094 C 7.527344 3.96875 7.378906 3.667969 7.359375 3.320312 C 7.417969 3.285156 7.476562 3.25 7.53125 3.214844 C 8.648438 4.457031 9.742188 5.722656 10.890625 6.933594 C 12.042969 8.140625 13.230469 9.308594 14.441406 10.457031 C 15.667969 11.621094 16.941406 12.738281 18.246094 13.925781 C 18.851562 13.304688 19.367188 12.761719 19.898438 12.234375 C 21.421875 10.714844 22.953125 9.199219 24.484375 7.6875 C 26.277344 5.917969 28.0625 4.148438 29.875 2.402344 C 30.261719 2.027344 30.730469 1.726562 31.179688 1.417969 C 31.332031 1.3125 31.542969 1.289062 31.949219 1.152344 C 31.265625 2.761719 29.929688 3.609375 29.15625 4.800781 C 29.367188 5.019531 29.558594 5.214844 29.789062 5.453125 C 30.3125 5.21875 30.90625 4.917969 31.378906 4.382812 C 31.695312 4.027344 31.796875 4.074219 32.371094 4.476562 C 31.867188 4.890625 31.375 5.269531 30.910156 5.679688 C 30.460938 6.074219 30.039062 6.5 29.703125 7.042969 C 30.222656 6.6875 30.726562 6.308594 31.269531 5.984375 C 31.789062 5.671875 32.34375 5.417969 32.886719 5.136719 C 32.9375 5.195312 32.992188 5.25 33.042969 5.308594 C 32.835938 5.601562 32.628906 5.898438 32.441406 6.167969 C 32.933594 6.160156 33.4375 6.152344 33.984375 6.144531 C 34.121094 6.9375 32.9375 6.945312 33.125 7.695312 C 32.746094 8.15625 32.363281 8.621094 31.96875 9.097656 C 32.101562 9.179688 32.214844 9.253906 32.386719 9.359375 C 29.507812 12.273438 26.644531 15.167969 23.714844 18.128906 C 26.933594 20.457031 29.824219 22.964844 32.773438 25.570312 C 32.375 25.757812 32.121094 25.875 31.9375 25.960938 C 31.0625 25.933594 30.699219 24.707031 29.613281 25.222656 C 29.90625 25.488281 30.164062 25.726562 30.433594 25.960938 C 30.652344 26.148438 30.957031 26.257812 30.835938 26.675781 C 30.800781 26.792969 31.023438 27.019531 31.175781 27.144531 C 31.617188 27.511719 32.085938 27.847656 32.539062 28.203125 C 32.671875 28.308594 32.789062 28.4375 33.023438 28.660156 C 32.308594 28.738281 32.011719 28.199219 31.46875 28.070312 C 30.796875 28.839844 30.183594 28.097656 29.367188 27.773438 C 29.929688 28.527344 30.695312 28.875 31.011719 29.683594 C 30.15625 30.054688 29.433594 30.296875 28.644531 29.578125 C 27.980469 28.972656 27.191406 28.507812 26.457031 27.980469 C 26.417969 28.027344 26.378906 28.074219 26.339844 28.121094 C 27.65625 29.183594 28.976562 30.246094 30.410156 31.402344 C 29.851562 31.539062 29.609375 31.304688 29.351562 31.132812 C 26.136719 29 23.046875 26.695312 20.046875 24.273438 C 19.71875 24.011719 19.371094 23.777344 18.96875 23.484375 C 18.628906 23.847656 18.320312 24.164062 18.023438 24.5 C 16.699219 26 15.363281 27.488281 14.066406 29.011719 C 12.792969 30.507812 11.578125 32.054688 10.300781 33.546875 C 9.753906 34.191406 9.148438 34.792969 8.515625 35.351562 C 8.097656 35.722656 7.5625 35.921875 6.789062 35.921875 C 7.058594 35.433594 7.238281 35.101562 7.449219 34.714844 C 7.273438 34.585938 7.089844 34.453125 6.90625 34.320312 C 7.058594 33.871094 7.210938 33.417969 7.402344 32.839844 C 7.066406 32.925781 6.820312 32.988281 6.582031 33.050781 C 6.167969 32.980469 5.953125 32.578125 5.917969 31.832031 C 6.527344 31.582031 6.582031 31.53125 6.8125 30.886719 C 6.390625 31.191406 6.097656 31.460938 5.9375 31.859375 " fill-opacity="1" fill-rule="nonzero"/></g></svg>