<svg xmlns="http://www.w3.org/2000/svg" xmlns:xlink="http://www.w3.org/1999/xlink" width="200" zoomAndPan="magnify" viewBox="0 0 150 149.999998" height="200" preserveAspectRatio="xMidYMid meet" version="1.0"><defs><clipPath id="9fc9d3a071"><path d="M 26 60 L 52 60 L 52 127.5 L 26 127.5 Z M 26 60 " clip-rule="nonzero"/></clipPath></defs><path fill="#d8b088" d="M 73.359375 85.898438 L 108.765625 111.0625 C 113.15625 114.117188 119.171875 113.066406 122.257812 108.710938 C 125.316406 104.335938 124.261719 98.332031 119.898438 95.253906 L 84.46875 70.085938 C 80.082031 67.035156 74.0625 68.085938 70.980469 72.4375 C 67.917969 76.816406 68.972656 82.84375 73.359375 85.898438 Z M 73.359375 85.898438 " fill-opacity="1" fill-rule="nonzero"/><path fill="#ffffff" d="M 111.574219 109.460938 C 111.425781 109.460938 111.273438 109.386719 111.171875 109.261719 L 109.59375 107.261719 C 109.417969 107.035156 109.367188 106.761719 109.445312 106.484375 C 109.519531 106.210938 109.695312 106.011719 109.96875 105.910156 L 112.203125 105.007812 L 111.476562 102.984375 C 111.398438 102.757812 111.398438 102.53125 111.5 102.308594 C 111.601562 102.109375 111.777344 101.933594 112 101.859375 L 114.660156 100.957031 C 113.679688 97.78125 113.804688 97.628906 114.03125 97.40625 C 114.183594 97.230469 115.160156 96.652344 116.890625 95.679688 C 117.140625 95.554688 117.441406 95.628906 117.566406 95.878906 C 117.691406 96.128906 117.617188 96.429688 117.367188 96.554688 C 116.390625 97.105469 115.285156 97.730469 114.859375 98.003906 C 114.910156 98.332031 115.109375 99.15625 115.613281 100.78125 C 115.761719 101.230469 115.511719 101.707031 115.058594 101.859375 L 112.402344 102.757812 L 113.128906 104.785156 C 113.28125 105.234375 113.078125 105.710938 112.628906 105.886719 L 110.445312 106.761719 L 111.925781 108.636719 C 112.101562 108.863281 112.050781 109.164062 111.851562 109.335938 C 111.800781 109.4375 111.699219 109.460938 111.574219 109.460938 Z M 111.574219 109.460938 " fill-opacity="1" fill-rule="nonzero"/><path fill="#ffffff" d="M 107.8125 108.160156 C 107.636719 108.160156 107.460938 108.0625 107.386719 107.910156 L 105.683594 105.007812 C 105.605469 104.882812 105.582031 104.710938 105.65625 104.558594 C 105.734375 104.410156 105.859375 104.308594 106.007812 104.257812 L 108.640625 103.632812 L 107.890625 101.03125 C 107.8125 100.78125 107.964844 100.507812 108.214844 100.40625 L 111.902344 99.28125 L 110.871094 96.203125 C 110.796875 95.980469 110.871094 95.753906 111.074219 95.628906 L 114.183594 93.652344 C 114.410156 93.503906 114.734375 93.578125 114.886719 93.800781 C 115.035156 94.027344 114.960938 94.351562 114.734375 94.503906 L 111.949219 96.277344 L 113.027344 99.480469 C 113.078125 99.605469 113.054688 99.757812 113.003906 99.855469 C 112.953125 99.980469 112.828125 100.054688 112.703125 100.105469 L 108.992188 101.230469 L 109.746094 103.859375 C 109.792969 103.984375 109.769531 104.132812 109.695312 104.257812 C 109.617188 104.382812 109.519531 104.460938 109.367188 104.484375 L 106.886719 105.058594 L 108.238281 107.386719 C 108.390625 107.636719 108.289062 107.9375 108.0625 108.0625 C 107.988281 108.136719 107.890625 108.160156 107.8125 108.160156 Z M 107.8125 108.160156 " fill-opacity="1" fill-rule="nonzero"/><path fill="#d8b088" d="M 87.878906 33.164062 C 87.878906 33.757812 87.851562 34.351562 87.792969 34.941406 C 87.734375 35.535156 87.644531 36.121094 87.53125 36.707031 C 87.414062 37.289062 87.269531 37.867188 87.09375 38.433594 C 86.921875 39.003906 86.722656 39.5625 86.492188 40.113281 C 86.265625 40.664062 86.011719 41.199219 85.730469 41.722656 C 85.449219 42.25 85.140625 42.757812 84.8125 43.253906 C 84.480469 43.746094 84.125 44.222656 83.746094 44.683594 C 83.367188 45.144531 82.96875 45.585938 82.546875 46.003906 C 82.125 46.425781 81.683594 46.824219 81.222656 47.203125 C 80.761719 47.578125 80.285156 47.933594 79.789062 48.265625 C 79.292969 48.59375 78.78125 48.898438 78.257812 49.179688 C 77.730469 49.460938 77.191406 49.714844 76.640625 49.941406 C 76.089844 50.167969 75.53125 50.371094 74.960938 50.542969 C 74.390625 50.714844 73.8125 50.859375 73.226562 50.976562 C 72.640625 51.089844 72.050781 51.179688 71.460938 51.238281 C 70.867188 51.296875 70.269531 51.324219 69.675781 51.324219 C 69.078125 51.324219 68.484375 51.296875 67.890625 51.238281 C 67.296875 51.179688 66.707031 51.089844 66.125 50.976562 C 65.539062 50.859375 64.960938 50.714844 64.390625 50.542969 C 63.820312 50.371094 63.257812 50.167969 62.707031 49.941406 C 62.15625 49.714844 61.621094 49.460938 61.09375 49.179688 C 60.566406 48.898438 60.058594 48.59375 59.5625 48.265625 C 59.066406 47.933594 58.585938 47.578125 58.125 47.203125 C 57.664062 46.824219 57.222656 46.425781 56.800781 46.003906 C 56.378906 45.585938 55.980469 45.144531 55.601562 44.683594 C 55.222656 44.222656 54.871094 43.746094 54.539062 43.253906 C 54.207031 42.757812 53.902344 42.25 53.621094 41.722656 C 53.339844 41.199219 53.085938 40.664062 52.855469 40.113281 C 52.628906 39.5625 52.425781 39.003906 52.253906 38.433594 C 52.082031 37.867188 51.9375 37.289062 51.820312 36.707031 C 51.703125 36.121094 51.617188 35.535156 51.558594 34.941406 C 51.5 34.351562 51.46875 33.757812 51.46875 33.164062 C 51.46875 32.566406 51.5 31.972656 51.558594 31.382812 C 51.617188 30.789062 51.703125 30.203125 51.820312 29.621094 C 51.9375 29.035156 52.082031 28.460938 52.253906 27.890625 C 52.425781 27.320312 52.628906 26.761719 52.855469 26.210938 C 53.085938 25.664062 53.339844 25.125 53.621094 24.601562 C 53.902344 24.078125 54.207031 23.566406 54.539062 23.074219 C 54.871094 22.578125 55.222656 22.101562 55.601562 21.640625 C 55.980469 21.179688 56.378906 20.742188 56.800781 20.320312 C 57.222656 19.898438 57.664062 19.5 58.125 19.125 C 58.585938 18.746094 59.066406 18.390625 59.5625 18.0625 C 60.058594 17.730469 60.566406 17.425781 61.09375 17.144531 C 61.621094 16.863281 62.15625 16.609375 62.707031 16.382812 C 63.257812 16.15625 63.820312 15.957031 64.390625 15.78125 C 64.960938 15.609375 65.539062 15.464844 66.125 15.351562 C 66.707031 15.234375 67.296875 15.148438 67.890625 15.089844 C 68.484375 15.03125 69.078125 15 69.675781 15 C 70.269531 15 70.867188 15.03125 71.460938 15.089844 C 72.050781 15.148438 72.640625 15.234375 73.226562 15.351562 C 73.8125 15.464844 74.390625 15.609375 74.960938 15.78125 C 75.53125 15.957031 76.089844 16.15625 76.640625 16.382812 C 77.191406 16.609375 77.730469 16.863281 78.257812 17.144531 C 78.78125 17.425781 79.292969 17.730469 79.789062 18.0625 C 80.285156 18.390625 80.761719 18.746094 81.222656 19.125 C 81.683594 19.5 82.125 19.898438 82.546875 20.320312 C 82.96875 20.742188 83.367188 21.179688 83.746094 21.640625 C 84.125 22.101562 84.480469 22.578125 84.8125 23.074219 C 85.140625 23.566406 85.449219 24.078125 85.730469 24.601562 C 86.011719 25.125 86.265625 25.664062 86.492188 26.210938 C 86.722656 26.761719 86.921875 27.320312 87.09375 27.890625 C 87.269531 28.460938 87.414062 29.035156 87.53125 29.621094 C 87.644531 30.203125 87.734375 30.789062 87.792969 31.382812 C 87.851562 31.972656 87.878906 32.566406 87.878906 33.164062 Z M 87.878906 33.164062 " fill-opacity="1" fill-rule="nonzero"/><path fill="#d8b088" d="M 94.324219 86.597656 L 87.226562 57.527344 C 85.699219 48.722656 78.601562 42.570312 71.378906 43.84375 L 69.347656 44.195312 C 62.128906 45.445312 57.539062 53.625 59.066406 62.433594 L 62.203125 91.023438 " fill-opacity="1" fill-rule="nonzero"/><path fill="#ffffff" d="M 58.242188 33.039062 C 57.988281 33.039062 57.765625 32.835938 57.738281 32.5625 C 57.664062 31.613281 58.390625 30.8125 59.320312 30.734375 C 59.769531 30.710938 60.222656 30.859375 60.574219 31.136719 C 60.921875 31.4375 61.125 31.863281 61.148438 32.3125 C 61.175781 32.585938 60.949219 32.835938 60.671875 32.835938 C 60.398438 32.863281 60.144531 32.636719 60.144531 32.363281 C 60.121094 32.160156 60.046875 32.011719 59.894531 31.886719 C 59.746094 31.761719 59.570312 31.710938 59.367188 31.710938 C 58.96875 31.738281 58.691406 32.085938 58.71875 32.460938 C 58.742188 32.738281 58.515625 32.988281 58.242188 32.988281 C 58.265625 33.039062 58.242188 33.039062 58.242188 33.039062 Z M 58.242188 33.039062 " fill-opacity="1" fill-rule="nonzero"/><path fill="#ffffff" d="M 72.835938 31.988281 C 72.582031 31.988281 72.359375 31.785156 72.332031 31.511719 C 72.257812 30.5625 72.984375 29.761719 73.914062 29.683594 C 74.839844 29.609375 75.667969 30.335938 75.742188 31.261719 C 75.769531 31.535156 75.542969 31.785156 75.265625 31.785156 C 74.992188 31.8125 74.738281 31.585938 74.738281 31.3125 C 74.714844 30.910156 74.363281 30.636719 73.988281 30.660156 C 73.585938 30.6875 73.3125 31.035156 73.335938 31.410156 C 73.359375 31.6875 73.136719 31.9375 72.859375 31.9375 C 72.859375 31.988281 72.859375 31.988281 72.835938 31.988281 Z M 72.835938 31.988281 " fill-opacity="1" fill-rule="nonzero"/><path fill="#ffffff" d="M 66.589844 39.941406 C 62.703125 39.941406 61.449219 36.414062 61.425781 36.363281 C 61.324219 36.113281 61.476562 35.8125 61.726562 35.738281 C 61.976562 35.640625 62.277344 35.789062 62.351562 36.039062 C 62.402344 36.164062 63.53125 39.214844 67.066406 38.917969 C 70.578125 38.617188 70.953125 35.589844 70.953125 35.464844 C 70.980469 35.1875 71.230469 34.988281 71.503906 35.015625 C 71.78125 35.039062 71.980469 35.289062 71.957031 35.5625 C 71.957031 35.613281 71.503906 39.542969 67.140625 39.917969 C 66.964844 39.917969 66.765625 39.941406 66.589844 39.941406 Z M 66.589844 39.941406 " fill-opacity="1" fill-rule="nonzero"/><path fill="#d8b088" d="M 91.414062 63.40625 L 105.65625 53.027344 C 109.96875 49.875 110.921875 43.84375 107.761719 39.542969 C 104.605469 35.238281 98.5625 34.289062 94.25 37.441406 L 80.003906 47.820312 C 75.691406 50.972656 74.738281 57.003906 77.898438 61.304688 C 81.035156 65.609375 87.078125 66.558594 91.414062 63.40625 Z M 91.414062 63.40625 " fill-opacity="1" fill-rule="nonzero"/><path fill="#ffffff" d="M 101.996094 51.074219 C 101.820312 51.074219 101.671875 51.023438 101.519531 50.925781 C 101.292969 50.773438 101.144531 50.523438 101.144531 50.25 L 101.019531 47.871094 L 98.863281 47.921875 C 98.636719 47.921875 98.410156 47.847656 98.234375 47.671875 C 98.058594 47.496094 97.984375 47.296875 97.984375 47.046875 L 97.984375 44.246094 C 94.648438 44.144531 94.550781 43.96875 94.421875 43.695312 C 94.324219 43.496094 94.074219 42.394531 93.722656 40.441406 C 93.671875 40.167969 93.847656 39.917969 94.121094 39.867188 C 94.398438 39.816406 94.648438 39.992188 94.699219 40.265625 C 94.898438 41.367188 95.152344 42.617188 95.277344 43.09375 C 95.652344 43.167969 96.605469 43.21875 98.136719 43.269531 C 98.609375 43.292969 98.988281 43.667969 98.988281 44.144531 L 98.988281 46.945312 L 101.144531 46.921875 C 101.144531 46.921875 101.144531 46.921875 101.167969 46.921875 C 101.644531 46.921875 102.019531 47.273438 102.046875 47.746094 L 102.171875 50.097656 L 104.429688 49.296875 C 104.679688 49.199219 104.980469 49.347656 105.082031 49.597656 C 105.179688 49.847656 105.03125 50.148438 104.78125 50.25 L 102.371094 51.097656 C 102.195312 51.050781 102.097656 51.074219 101.996094 51.074219 Z M 98.085938 44.21875 Z M 98.085938 44.21875 " fill-opacity="1" fill-rule="nonzero"/><path fill="#ffffff" d="M 98.785156 54 C 98.660156 54 98.535156 53.953125 98.460938 53.875 C 98.335938 53.777344 98.285156 53.625 98.285156 53.449219 L 98.535156 50.773438 L 95.828125 50.648438 C 95.550781 50.625 95.351562 50.398438 95.351562 50.125 L 95.476562 46.269531 L 92.21875 46.246094 C 91.992188 46.246094 91.789062 46.097656 91.742188 45.871094 L 90.863281 42.292969 C 90.789062 42.019531 90.964844 41.742188 91.238281 41.691406 C 91.515625 41.617188 91.789062 41.792969 91.839844 42.070312 L 92.617188 45.269531 L 96.003906 45.296875 C 96.128906 45.296875 96.277344 45.34375 96.355469 45.445312 C 96.453125 45.546875 96.503906 45.671875 96.503906 45.796875 L 96.378906 49.671875 L 99.113281 49.796875 C 99.238281 49.796875 99.386719 49.875 99.464844 49.972656 C 99.5625 50.074219 99.589844 50.222656 99.589844 50.347656 L 99.339844 52.875 L 101.996094 52.351562 C 102.273438 52.300781 102.523438 52.476562 102.597656 52.75 C 102.648438 53.027344 102.472656 53.277344 102.195312 53.351562 L 98.886719 54 C 98.835938 54 98.8125 54 98.785156 54 Z M 98.785156 54 " fill-opacity="1" fill-rule="nonzero"/><path fill="#d8b088" d="M 57.289062 48.574219 L 37.429688 51.851562 C 32.164062 52.726562 28.578125 57.679688 29.453125 62.957031 C 30.332031 68.210938 35.296875 71.789062 40.589844 70.914062 L 60.449219 67.636719 C 65.714844 66.757812 69.296875 61.804688 68.421875 56.527344 C 67.542969 51.273438 62.578125 47.695312 57.289062 48.574219 Z M 57.289062 48.574219 " fill-opacity="1" fill-rule="nonzero"/><path fill="#ffffff" d="M 41.890625 68.886719 C 41.839844 68.886719 41.792969 68.886719 41.742188 68.859375 C 41.464844 68.785156 41.316406 68.511719 41.390625 68.234375 C 41.714844 67.160156 42.042969 65.933594 42.167969 65.457031 C 41.890625 65.257812 41.164062 64.808594 39.683594 64.007812 C 39.257812 63.78125 39.109375 63.28125 39.308594 62.855469 L 40.5625 60.355469 L 38.632812 59.429688 C 38.207031 59.230469 38.03125 58.730469 38.207031 58.277344 L 39.160156 56.128906 L 36.800781 55.828125 C 36.527344 55.800781 36.324219 55.550781 36.375 55.277344 C 36.402344 55 36.652344 54.800781 36.925781 54.851562 L 39.460938 55.175781 C 39.734375 55.203125 39.960938 55.378906 40.113281 55.601562 C 40.238281 55.851562 40.261719 56.128906 40.160156 56.378906 L 39.183594 58.578125 L 41.113281 59.503906 C 41.339844 59.605469 41.492188 59.78125 41.566406 60.003906 C 41.640625 60.230469 41.617188 60.480469 41.515625 60.679688 L 40.261719 63.183594 C 43.195312 64.757812 43.195312 64.957031 43.195312 65.285156 C 43.195312 65.507812 42.921875 66.609375 42.34375 68.511719 C 42.316406 68.734375 42.117188 68.886719 41.890625 68.886719 Z M 41.890625 68.886719 " fill-opacity="1" fill-rule="nonzero"/><path fill="#ffffff" d="M 45.277344 68.460938 C 45.25 68.460938 45.203125 68.460938 45.152344 68.4375 C 44.875 68.386719 44.726562 68.109375 44.777344 67.835938 L 45.527344 64.632812 L 42.519531 63.082031 C 42.394531 63.03125 42.316406 62.90625 42.269531 62.78125 C 42.21875 62.65625 42.242188 62.507812 42.316406 62.40625 L 44.171875 59.003906 L 41.792969 57.652344 C 41.667969 57.578125 41.589844 57.480469 41.539062 57.328125 C 41.515625 57.203125 41.539062 57.054688 41.589844 56.929688 L 42.945312 54.777344 L 40.335938 54.050781 C 40.0625 53.976562 39.910156 53.699219 39.984375 53.425781 C 40.0625 53.152344 40.335938 53 40.613281 53.074219 L 43.871094 53.976562 C 44.023438 54.027344 44.148438 54.125 44.199219 54.277344 C 44.25 54.425781 44.25 54.601562 44.148438 54.726562 L 42.71875 57.003906 L 45.078125 58.328125 C 45.300781 58.453125 45.402344 58.753906 45.277344 59.003906 L 43.421875 62.382812 L 46.332031 63.859375 C 46.53125 63.957031 46.632812 64.183594 46.582031 64.40625 L 45.753906 67.984375 C 45.726562 68.3125 45.503906 68.460938 45.277344 68.460938 Z M 45.277344 68.460938 " fill-opacity="1" fill-rule="nonzero"/><path fill="#d8b088" d="M 61.925781 81.292969 L 54.832031 111.964844 C 53.652344 117.167969 56.910156 122.347656 62.128906 123.523438 C 67.34375 124.699219 72.535156 121.445312 73.710938 116.242188 L 80.832031 85.546875 C 82.011719 80.34375 78.75 75.164062 73.535156 73.988281 C 68.296875 72.8125 63.105469 76.089844 61.925781 81.292969 Z M 61.925781 81.292969 " fill-opacity="1" fill-rule="nonzero"/><path fill="#ffffff" d="M 66.414062 114.640625 C 66.164062 114.640625 65.9375 114.539062 65.761719 114.339844 L 63.90625 112.238281 L 62.304688 113.664062 C 61.953125 113.992188 61.425781 113.964844 61.097656 113.613281 L 59.46875 111.9375 L 58.289062 114.015625 C 58.164062 114.265625 57.839844 114.339844 57.613281 114.214844 C 57.363281 114.089844 57.289062 113.765625 57.414062 113.539062 L 58.667969 111.3125 C 58.792969 111.0625 59.042969 110.914062 59.320312 110.886719 C 59.59375 110.863281 59.871094 110.9375 60.070312 111.136719 L 61.75 112.863281 L 63.355469 111.414062 C 63.53125 111.261719 63.757812 111.164062 63.984375 111.1875 C 64.207031 111.214844 64.433594 111.3125 64.585938 111.488281 L 66.441406 113.589844 C 68.996094 111.464844 69.199219 111.5625 69.5 111.664062 C 69.726562 111.738281 70.601562 112.414062 72.183594 113.664062 C 72.40625 113.839844 72.433594 114.140625 72.257812 114.367188 C 72.082031 114.589844 71.78125 114.617188 71.554688 114.441406 C 70.679688 113.738281 69.675781 112.964844 69.273438 112.691406 C 68.972656 112.863281 68.296875 113.363281 66.992188 114.441406 C 66.816406 114.566406 66.617188 114.640625 66.414062 114.640625 Z M 66.414062 114.640625 " fill-opacity="1" fill-rule="nonzero"/><path fill="#ffffff" d="M 66.867188 111.613281 C 66.839844 111.613281 66.839844 111.613281 66.816406 111.613281 C 66.691406 111.613281 66.566406 111.539062 66.464844 111.4375 L 64.007812 108.4375 L 61.851562 110.136719 C 61.75 110.214844 61.601562 110.261719 61.476562 110.238281 C 61.351562 110.214844 61.226562 110.136719 61.148438 110.039062 L 59.671875 107.988281 L 58.015625 110.113281 C 57.839844 110.339844 57.539062 110.363281 57.3125 110.214844 C 57.085938 110.039062 57.0625 109.738281 57.210938 109.511719 L 59.269531 106.835938 C 59.367188 106.710938 59.496094 106.636719 59.671875 106.636719 C 59.820312 106.636719 59.972656 106.710938 60.070312 106.835938 L 61.652344 109.011719 L 63.78125 107.335938 C 64.007812 107.160156 64.308594 107.210938 64.484375 107.410156 L 66.941406 110.386719 L 69.425781 108.261719 C 69.601562 108.113281 69.851562 108.113281 70.050781 108.238281 L 73.058594 110.339844 C 73.285156 110.488281 73.335938 110.8125 73.183594 111.039062 C 73.035156 111.261719 72.707031 111.3125 72.484375 111.164062 L 69.800781 109.289062 L 67.242188 111.488281 C 67.117188 111.5625 66.992188 111.613281 66.867188 111.613281 Z M 66.867188 111.613281 " fill-opacity="1" fill-rule="nonzero"/><path fill="#d30000" d="M 71.152344 60.90625 C 71.152344 61.164062 71.105469 61.414062 71.003906 61.652344 C 70.90625 61.890625 70.765625 62.101562 70.582031 62.285156 C 70.398438 62.46875 70.1875 62.609375 69.945312 62.707031 C 69.707031 62.808594 69.457031 62.855469 69.199219 62.855469 C 68.9375 62.855469 68.691406 62.808594 68.449219 62.707031 C 68.210938 62.609375 68 62.46875 67.816406 62.285156 C 67.632812 62.101562 67.492188 61.890625 67.390625 61.652344 C 67.292969 61.414062 67.242188 61.164062 67.242188 60.90625 C 67.242188 60.648438 67.292969 60.398438 67.390625 60.160156 C 67.492188 59.921875 67.632812 59.707031 67.816406 59.527344 C 68 59.34375 68.210938 59.203125 68.449219 59.101562 C 68.691406 59.003906 68.9375 58.953125 69.199219 58.953125 C 69.457031 58.953125 69.707031 59.003906 69.945312 59.101562 C 70.1875 59.203125 70.398438 59.34375 70.582031 59.527344 C 70.765625 59.707031 70.90625 59.921875 71.003906 60.160156 C 71.105469 60.398438 71.152344 60.648438 71.152344 60.90625 Z M 71.152344 60.90625 " fill-opacity="1" fill-rule="nonzero"/><path fill="#d30000" d="M 72.609375 69.3125 C 72.609375 69.570312 72.558594 69.820312 72.460938 70.058594 C 72.359375 70.296875 72.21875 70.507812 72.035156 70.691406 C 71.851562 70.875 71.640625 71.015625 71.402344 71.113281 C 71.160156 71.214844 70.914062 71.261719 70.652344 71.261719 C 70.394531 71.261719 70.144531 71.214844 69.902344 71.113281 C 69.664062 71.015625 69.453125 70.875 69.269531 70.691406 C 69.085938 70.507812 68.945312 70.296875 68.847656 70.058594 C 68.746094 69.820312 68.695312 69.570312 68.695312 69.3125 C 68.695312 69.050781 68.746094 68.804688 68.847656 68.566406 C 68.945312 68.324219 69.085938 68.113281 69.269531 67.929688 C 69.453125 67.75 69.664062 67.609375 69.90625 67.507812 C 70.144531 67.410156 70.394531 67.359375 70.652344 67.359375 C 70.914062 67.359375 71.160156 67.410156 71.402344 67.507812 C 71.640625 67.609375 71.851562 67.75 72.035156 67.929688 C 72.21875 68.113281 72.359375 68.324219 72.460938 68.566406 C 72.558594 68.804688 72.609375 69.050781 72.609375 69.3125 Z M 72.609375 69.3125 " fill-opacity="1" fill-rule="nonzero"/><g clip-path="url(#9fc9d3a071)"><path fill="#ffffff" d="M 43.171875 127.050781 C 44.925781 126.597656 46.003906 124.796875 45.554688 123.046875 L 32.765625 73.164062 C 32.113281 70.585938 33.667969 67.984375 36.226562 67.308594 C 38.78125 66.632812 41.414062 68.210938 42.09375 70.761719 L 45.25 83.046875 C 45.703125 84.796875 47.507812 85.871094 49.265625 85.421875 C 51.019531 84.972656 52.097656 83.171875 51.644531 81.417969 L 48.488281 69.136719 C 46.933594 63.058594 40.6875 59.378906 34.59375 60.929688 C 28.5 62.480469 24.816406 68.710938 26.371094 74.789062 L 39.160156 124.671875 C 39.609375 126.421875 41.414062 127.5 43.171875 127.050781 Z M 43.171875 127.050781 " fill-opacity="1" fill-rule="nonzero"/></g><path fill="#d30000" d="M 37.527344 60.582031 C 39.886719 60.605469 42.144531 61.355469 44 62.683594 C 43.871094 65.757812 42.820312 68.785156 42.042969 70.664062 C 41.515625 68.8125 39.9375 67.511719 38.128906 67.234375 C 38.355469 64.53125 37.929688 62.105469 37.527344 60.582031 Z M 37.527344 60.582031 " fill-opacity="1" fill-rule="nonzero"/><path fill="#d30000" d="M 48.359375 68.734375 C 48.410156 68.859375 48.4375 69.011719 48.488281 69.136719 L 50.542969 77.191406 C 48.359375 79.269531 45.980469 80.71875 44.800781 81.394531 L 43.546875 76.464844 C 46.203125 73.863281 47.683594 70.613281 48.359375 68.734375 Z M 48.359375 68.734375 " fill-opacity="1" fill-rule="nonzero"/><path fill="#d30000" d="M 26.796875 67.835938 C 27.550781 65.882812 28.851562 64.15625 30.53125 62.882812 C 32.113281 63.882812 34.09375 65.507812 35.046875 67.785156 C 33.792969 68.511719 32.914062 69.738281 32.6875 71.136719 C 30.910156 69.636719 28.578125 67.960938 26.796875 67.835938 Z M 26.796875 67.835938 " fill-opacity="1" fill-rule="nonzero"/><path fill="#d30000" d="M 26.371094 74.789062 C 26.320312 74.566406 26.269531 74.339844 26.21875 74.113281 C 27.597656 74.339844 31.308594 75.113281 33.894531 77.542969 L 35.496094 83.796875 C 33.792969 82.871094 30.558594 81.320312 27.949219 80.945312 Z M 26.371094 74.789062 " fill-opacity="1" fill-rule="nonzero"/><path fill="#d30000" d="M 31.761719 95.828125 C 33.515625 96.152344 37.253906 97.128906 39.585938 99.78125 L 41.089844 105.683594 C 39.660156 104.882812 36.300781 103.160156 33.492188 102.632812 Z M 31.761719 95.828125 " fill-opacity="1" fill-rule="nonzero"/><path fill="#d30000" d="M 29.105469 85.445312 C 30.632812 85.546875 33.941406 85.996094 36.527344 87.847656 L 38.03125 93.675781 C 36.023438 92.925781 33.039062 91.976562 30.808594 92.027344 Z M 29.105469 85.445312 " fill-opacity="1" fill-rule="nonzero"/><path fill="#d30000" d="M 43.046875 113.238281 L 44.5 118.894531 C 42.59375 118.144531 39.585938 117.140625 37.226562 117.09375 L 35.546875 110.539062 C 37.277344 110.714844 40.589844 111.261719 43.046875 113.238281 Z M 43.046875 113.238281 " fill-opacity="1" fill-rule="nonzero"/></svg>