<svg xmlns="http://www.w3.org/2000/svg" xmlns:xlink="http://www.w3.org/1999/xlink" width="50" zoomAndPan="magnify" viewBox="0 0 37.5 37.499999" height="50" preserveAspectRatio="xMidYMid meet" version="1.0"><defs><clipPath id="1c1b0f1576"><path d="M 1.851562 5.328125 L 35.15625 5.328125 L 35.15625 31.972656 L 1.851562 31.972656 Z M 1.851562 5.328125 " clip-rule="nonzero"/></clipPath></defs><g clip-path="url(#1c1b0f1576)"><path fill="#000000" d="M 9.484375 11.210938 C 9.867188 11.210938 10.175781 10.898438 10.175781 10.507812 L 10.175781 7.992188 L 18.011719 15.917969 C 18.148438 16.054688 18.324219 16.121094 18.503906 16.121094 C 18.679688 16.121094 18.859375 16.054688 18.996094 15.917969 L 28.015625 6.792969 C 28.285156 6.519531 28.285156 6.074219 28.015625 5.800781 C 27.746094 5.527344 27.304688 5.527344 27.035156 5.800781 L 18.503906 14.429688 L 11.15625 7 L 13.644531 7 C 14.027344 7 14.339844 6.6875 14.339844 6.300781 C 14.339844 5.910156 14.027344 5.597656 13.644531 5.597656 L 9.484375 5.597656 C 9.394531 5.597656 9.300781 5.617188 9.21875 5.652344 C 9.046875 5.722656 8.914062 5.859375 8.84375 6.03125 C 8.808594 6.117188 8.789062 6.207031 8.789062 6.300781 L 8.789062 10.507812 C 8.789062 10.898438 9.101562 11.210938 9.484375 11.210938 Z M 34.554688 24.714844 C 30.199219 20.542969 24.5 18.242188 18.503906 18.242188 C 12.507812 18.242188 6.808594 20.542969 2.4375 24.730469 C 2.058594 25.113281 1.851562 25.628906 1.851562 26.179688 C 1.851562 26.738281 2.070312 27.265625 2.4375 27.617188 L 5.738281 30.953125 C 6.496094 31.71875 7.875 31.699219 8.574219 30.984375 C 9.605469 30.019531 10.742188 29.21875 11.945312 28.613281 C 12.6875 28.25 12.953125 27.359375 12.953125 26.652344 L 12.953125 22.964844 C 14.722656 22.484375 16.734375 22.441406 18.503906 22.441406 C 20.378906 22.441406 22.339844 22.484375 24.054688 22.960938 L 24.054688 26.652344 C 24.054688 27.582031 24.425781 28.320312 25.042969 28.625 C 26.296875 29.257812 27.4375 30.058594 28.425781 30.992188 C 28.804688 31.355469 29.316406 31.5625 29.835938 31.5625 C 30.378906 31.5625 30.890625 31.351562 31.269531 30.96875 L 34.566406 27.628906 C 34.945312 27.246094 35.15625 26.730469 35.15625 26.179688 C 35.15625 25.628906 34.949219 25.113281 34.554688 24.714844 Z M 34.554688 24.714844 " fill-opacity="1" fill-rule="nonzero"/></g></svg>