<svg xmlns="http://www.w3.org/2000/svg" xmlns:xlink="http://www.w3.org/1999/xlink" width="200" zoomAndPan="magnify" viewBox="0 0 150 149.999998" height="200" preserveAspectRatio="xMidYMid meet" version="1.0"><defs><clipPath id="ffa2591a92"><path d="M 4 7.753906 L 146 7.753906 L 146 142 L 4 142 Z M 4 7.753906 " clip-rule="nonzero"/></clipPath></defs><path fill="#000000" d="M 116.449219 107.742188 C 116.328125 108.398438 116.195312 109.167969 116.003906 110.082031 C 115.765625 109.65625 115.632812 109.449219 115.632812 109.449219 C 114.730469 108.058594 114.007812 107.234375 113.941406 105.835938 C 113.914062 105.277344 114.003906 104.84375 114.125 104.476562 C 115.253906 105.371094 115.402344 106.523438 116.449219 107.742188 Z M 121.035156 45.21875 C 120.988281 45.140625 120.949219 45.0625 120.910156 44.984375 C 120.949219 45.027344 120.984375 45.070312 121.019531 45.113281 C 121.023438 45.148438 121.03125 45.183594 121.035156 45.21875 Z M 15.226562 68.253906 C 15.152344 67.492188 16.277344 66.9375 17.507812 66.066406 C 19.324219 64.777344 20.679688 63.816406 21.707031 62.914062 C 20.773438 64.003906 19.46875 65.488281 17.675781 67.832031 C 17.273438 68.359375 16.871094 68.894531 16.476562 69.433594 C 15.523438 68.824219 15.261719 68.601562 15.226562 68.253906 Z M 132.941406 50.511719 C 136.835938 50.371094 139.570312 48.628906 140.542969 47.992188 C 142.210938 46.898438 143.898438 45.796875 144.679688 43.789062 C 146.347656 39.507812 143.035156 33.371094 139.359375 32.6875 C 136.449219 32.148438 135.320312 35.40625 131.929688 35.042969 C 131.613281 35.007812 131.324219 34.949219 131.058594 34.867188 C 130.980469 34.152344 130.832031 33.382812 130.578125 32.605469 C 129.921875 30.601562 128.480469 28.972656 125.59375 25.710938 C 122.976562 22.75 122.011719 22.054688 121.878906 20.414062 C 121.699219 18.144531 122.050781 16.460938 122.050781 16.460938 C 122.15625 15.957031 122.269531 15.582031 122.320312 15.273438 C 122.332031 15.203125 122.335938 15.144531 122.339844 15.082031 L 122.34375 15.074219 C 122.570312 14.660156 122.742188 13.632812 122.964844 12.796875 C 123.25 11.714844 123.246094 11.398438 123.3125 10.800781 C 123.34375 10.523438 123.144531 10.273438 122.867188 10.242188 C 122.585938 10.214844 122.335938 10.414062 122.304688 10.6875 C 122.230469 11.371094 122.261719 11.601562 121.976562 12.5625 C 121.832031 13.050781 121.613281 13.429688 121.585938 13.476562 C 121.496094 13.625 121.441406 13.695312 121.398438 13.753906 C 121.320312 13.722656 121.242188 13.695312 121.164062 13.667969 L 121.164062 13.644531 C 121.144531 13.253906 121.191406 12.621094 121.289062 11.355469 C 121.386719 10.058594 121.320312 9.667969 121.289062 8.957031 C 121.277344 8.679688 121.039062 8.464844 120.757812 8.476562 C 120.480469 8.488281 120.265625 8.722656 120.277344 9.003906 C 120.316406 9.878906 120.328125 10.226562 120.277344 11.3125 C 120.246094 11.964844 120.054688 12.792969 119.953125 13.480469 C 119.933594 13.480469 119.914062 13.480469 119.894531 13.476562 C 119.863281 13.476562 119.832031 13.476562 119.800781 13.476562 C 119.621094 12.023438 119.53125 11.285156 119.511719 10.78125 C 119.472656 9.699219 119.355469 9.335938 119.257812 8.65625 C 119.21875 8.378906 118.960938 8.1875 118.683594 8.226562 C 118.40625 8.269531 118.214844 8.523438 118.253906 8.800781 C 118.363281 9.566406 118.371094 9.996094 118.503906 10.878906 C 118.644531 11.796875 118.492188 12.839844 118.464844 13.621094 C 118.449219 13.625 118.433594 13.628906 118.417969 13.632812 C 118.230469 13.226562 118.019531 12.730469 117.898438 12.066406 C 117.691406 10.929688 117.515625 10.351562 117.308594 9.453125 C 117.242188 9.183594 116.972656 9.011719 116.699219 9.078125 C 116.425781 9.140625 116.257812 9.410156 116.320312 9.683594 C 116.527344 10.574219 116.578125 11.296875 116.910156 12.28125 C 117.152344 13 117.273438 13.714844 117.339844 14.292969 C 117.28125 14.457031 117.351562 14.566406 117.363281 14.992188 C 117.367188 15.269531 117.386719 16.027344 117.066406 16.628906 C 117.039062 16.679688 117.015625 16.722656 116.984375 16.765625 C 116.660156 16.605469 116.144531 16.613281 115.664062 16.128906 C 115.015625 15.476562 114.9375 15.070312 114.472656 14.207031 C 114.339844 13.960938 114.035156 13.867188 113.789062 14 C 113.542969 14.132812 113.449219 14.4375 113.578125 14.683594 C 113.71875 14.945312 113.835938 15.15625 113.96875 15.378906 C 114.238281 15.835938 114.542969 16.269531 114.835938 16.710938 C 115.308594 17.414062 115.753906 18.140625 116 18.453125 C 116.015625 18.488281 116.035156 18.523438 116.054688 18.5625 C 116.59375 19.648438 116.863281 20.195312 116.898438 20.246094 C 117.6875 21.472656 119.140625 22.941406 120.023438 24.113281 C 120.722656 25.042969 120.90625 25.527344 121.878906 27.390625 C 122.164062 27.9375 122.429688 28.433594 122.679688 28.890625 C 118.5625 27.683594 114.824219 29.027344 113.859375 29.410156 C 112.589844 29.914062 110.296875 30.859375 109.042969 33.195312 C 108.363281 34.464844 107.777344 36.664062 108.707031 38.070312 C 108.808594 38.226562 109.003906 38.496094 109.335938 38.695312 C 109.359375 39.007812 109.394531 39.46875 109.296875 40.339844 C 109.125 41.890625 108.824219 42.238281 108.707031 42.359375 C 108.488281 42.582031 108.210938 42.734375 108.199219 43.03125 C 108.1875 43.382812 108.5625 43.660156 108.621094 43.703125 C 109.027344 44 109.328125 43.84375 109.71875 44.039062 C 110.140625 44.246094 110.308594 44.683594 110.480469 45.132812 C 111.035156 46.605469 110.375 47.320312 110.902344 47.90625 C 111.242188 48.285156 111.824219 48.335938 113.011719 48.410156 C 114.769531 48.523438 114.898438 48.195312 115.546875 48.410156 C 116.476562 48.722656 116.570312 49.550781 117.261719 50.71875 C 116.636719 50.652344 115.730469 50.644531 114.871094 51.019531 C 113.621094 51.558594 113.414062 52.464844 112 54.296875 C 110.941406 55.664062 109.941406 56.503906 108.960938 57.324219 C 106.34375 59.511719 104.40625 60.03125 104.316406 60.808594 C 101.023438 62.28125 100.980469 63.683594 97.980469 65.140625 C 96.207031 66.003906 96.265625 65.492188 91.226562 66.738281 C 85.484375 68.160156 85.707031 68.75 83.457031 68.757812 C 80.996094 68.765625 78.546875 68.066406 77.375 68.125 C 77.085938 67.769531 76.765625 67.539062 76.703125 67.496094 C 76.167969 67.128906 75.675781 67.042969 74.84375 66.992188 C 73.558594 66.910156 72.683594 66.855469 71.71875 67.328125 C 71.089844 67.636719 70.710938 68.039062 69.945312 68.84375 C 69.113281 69.71875 69.136719 69.9375 68.425781 70.691406 C 67.824219 71.332031 67.265625 71.738281 66.144531 72.542969 C 65.152344 73.253906 64.566406 73.675781 63.867188 74.039062 C 63.789062 73.914062 63.703125 73.84375 63.574219 73.800781 C 63.371094 73.730469 63.03125 73.835938 62.480469 74.089844 C 62.398438 74.007812 62.300781 73.941406 62.175781 73.886719 C 60.582031 73.183594 59.152344 76.195312 56.6875 75.820312 C 54.75 75.527344 53.558594 73.347656 52.382812 71.195312 C 51.859375 70.238281 50.671875 68.074219 50.355469 65.058594 C 50.167969 63.277344 50.351562 61.839844 49.847656 61.695312 C 49.832031 61.691406 49.820312 61.6875 49.804688 61.6875 C 49.605469 61.367188 49.140625 60.871094 47.652344 59.507812 C 45.425781 57.46875 44.265625 56.417969 43.738281 56.398438 C 43.582031 56.09375 43.339844 55.769531 42.964844 55.597656 C 42.917969 55.578125 42.871094 55.5625 42.824219 55.546875 C 43.15625 54.960938 43.402344 54.496094 44.105469 54.296875 C 44.707031 54.128906 45.796875 54.082031 46.808594 54.042969 C 47.179688 54.03125 47.757812 54.015625 48.074219 53.625 C 48.316406 53.328125 48.328125 52.914062 48.328125 52.867188 C 48.335938 52.515625 48.191406 52.402344 48.160156 52.109375 C 48.113281 51.671875 48.417969 51.375 48.582031 51.019531 C 49.3125 49.414062 48.953125 48.917969 49.511719 48.496094 C 50.085938 48.058594 50.695312 48.40625 51.117188 47.992188 C 51.160156 47.945312 51.285156 47.8125 51.328125 47.613281 C 51.402344 47.238281 51.121094 46.914062 50.902344 46.605469 C 50.601562 46.171875 50.460938 45.648438 50.226562 45.175781 C 49.472656 43.625 50.496094 41.957031 49.894531 40.496094 C 51.226562 39.707031 52.667969 37.582031 52.210938 36.894531 C 51.945312 36.488281 51.046875 36.625 50.945312 36.640625 C 49.949219 36.792969 49.742188 37.546875 49.003906 37.816406 C 47.894531 38.226562 47.191406 36.964844 45.289062 36.386719 C 42.828125 35.644531 40.503906 36.695312 39.882812 36.976562 C 39.140625 37.3125 37.800781 37.917969 36.84375 39.332031 C 36.125 40.390625 36.027344 41.773438 35.832031 44.542969 C 35.648438 47.101562 35.894531 47.886719 36.421875 48.410156 C 36.535156 48.523438 37.007812 49.015625 37.617188 49.082031 C 37.265625 49.378906 36.84375 49.726562 36.324219 50.152344 C 36.144531 50.039062 35.980469 50 35.832031 50.007812 C 35.738281 50.015625 35.515625 50.050781 34.707031 50.871094 C 33.855469 50.578125 32.558594 51.054688 27.300781 50.933594 C 23.832031 50.851562 21.277344 50.574219 20.855469 51.003906 C 18.855469 51.03125 17.140625 54.117188 13.535156 57.742188 C 11.660156 59.636719 11.867188 59.058594 9.820312 61.105469 C 6.578125 64.355469 4.449219 66.542969 4.839844 68.757812 C 4.917969 69.207031 5.0625 69.433594 7.625 72.121094 C 10.859375 75.507812 11.390625 75.941406 11.9375 76.457031 C 11.851562 76.605469 11.765625 76.757812 11.679688 76.914062 C 9.851562 80.230469 9.382812 81.769531 9.230469 82.292969 C 8.683594 84.191406 9.136719 83.679688 8.386719 90.28125 C 8.253906 91.4375 8.175781 92.003906 8.554688 92.46875 C 8.894531 92.886719 9.464844 93.042969 10.226562 93.027344 C 10.492188 94.136719 10.929688 95.195312 11.511719 96.082031 C 12.496094 97.59375 14.550781 98.65625 18.65625 100.773438 C 21.207031 104.453125 22.921875 106.800781 24.769531 108.945312 C 27.644531 112.289062 28.28125 112.605469 28.316406 113.824219 C 28.390625 116.445312 25.542969 118.105469 17.675781 124.5 C 11.828125 129.25 10.15625 130.976562 10.523438 132.21875 C 10.257812 132.648438 10.058594 133.078125 9.90625 133.414062 C 9.582031 134.113281 9.4375 134.722656 9.144531 135.933594 C 9.070312 136.246094 9.003906 136.539062 8.945312 136.816406 C 8.808594 137.46875 8.710938 138.027344 8.640625 138.457031 C 10.386719 138.847656 12.128906 139.242188 13.875 139.632812 L 13.875 139.65625 L 13.898438 139.65625 C 14.339844 139.675781 14.785156 139.699219 15.226562 139.71875 C 15.234375 139.675781 15.246094 139.632812 15.253906 139.589844 C 15.304688 139.359375 15.355469 139.132812 15.40625 138.902344 C 15.417969 138.839844 15.433594 138.777344 15.449219 138.710938 C 15.566406 138.941406 15.773438 139.25 16.113281 139.507812 C 16.484375 139.789062 16.847656 139.878906 17.042969 139.925781 C 18.421875 140.265625 19.898438 140.429688 20.84375 140.601562 C 21.863281 140.789062 21.695312 140.808594 22.445312 140.9375 C 23.917969 141.1875 25.941406 141.511719 27.851562 140.683594 C 28.238281 140.515625 29.328125 140.042969 29.328125 139.382812 C 29.339844 139.222656 29.273438 139.070312 29.15625 138.921875 C 28.894531 138.589844 28.367188 138.292969 27.894531 138.035156 C 25.226562 136.59375 23.707031 136.117188 22.488281 135.515625 C 22.117188 135.328125 21.816406 135.152344 21.558594 134.984375 C 22.984375 134.324219 24.21875 133.066406 25.824219 131.519531 C 31.449219 126.097656 30.957031 127.457031 33.085938 124.960938 C 34.261719 123.585938 35.511719 122.117188 36.59375 120.574219 C 37.023438 122.398438 37.46875 124.015625 37.351562 127.359375 C 37.179688 132.183594 36.023438 135.082031 37.265625 135.765625 L 37.292969 135.78125 C 37.304688 136.179688 37.328125 136.617188 37.351562 137.113281 C 37.386719 137.890625 37.464844 138.59375 37.558594 139.214844 C 37.613281 139.605469 37.679688 139.964844 37.742188 140.28125 C 37.78125 140.472656 37.820312 140.648438 37.855469 140.8125 L 42.964844 140.8125 L 42.960938 140.769531 L 42.964844 140.769531 L 42.964844 140.765625 C 43.417969 140.738281 43.867188 140.710938 44.316406 140.683594 C 44.3125 140.53125 44.308594 140.378906 44.304688 140.226562 C 44.390625 140.269531 44.480469 140.3125 44.574219 140.355469 C 44.882812 140.5 45.21875 140.640625 45.585938 140.769531 C 46.089844 140.945312 46.613281 141.089844 47.773438 141.152344 C 47.84375 141.15625 47.914062 141.160156 47.988281 141.164062 C 48.425781 141.183594 48.945312 141.191406 49.578125 141.1875 C 49.683594 141.1875 49.789062 141.1875 49.902344 141.1875 C 50.125 141.183594 50.363281 141.179688 50.613281 141.175781 C 51.238281 141.160156 51.949219 141.136719 52.761719 141.105469 C 53.210938 141.085938 53.617188 141.070312 53.992188 141.046875 C 54.367188 141.027344 54.707031 141 55.019531 140.972656 C 55.082031 140.964844 55.144531 140.957031 55.207031 140.953125 C 55.273438 140.945312 55.339844 140.9375 55.40625 140.929688 C 55.683594 140.894531 55.9375 140.855469 56.175781 140.808594 C 56.195312 140.804688 56.210938 140.800781 56.226562 140.796875 C 56.3125 140.78125 56.390625 140.761719 56.46875 140.746094 C 56.488281 140.738281 56.507812 140.734375 56.527344 140.730469 C 57.078125 140.589844 57.546875 140.394531 58.019531 140.105469 C 58.039062 140.09375 58.058594 140.082031 58.078125 140.066406 C 58.109375 140.050781 58.136719 140.03125 58.167969 140.011719 C 58.183594 140 58.203125 139.988281 58.222656 139.972656 C 58.578125 139.742188 59.238281 139.292969 59.429688 138.8125 C 59.476562 138.695312 59.496094 138.574219 59.476562 138.457031 C 59.445312 138.273438 59.324219 138.125 59.125 138 C 58.492188 137.597656 57.070312 137.417969 55.253906 136.941406 C 53.683594 136.535156 50.992188 135.832031 48.667969 134.421875 C 47.847656 133.921875 47.246094 133.441406 46.769531 132.996094 C 48.542969 131.070312 46.996094 126.011719 46.046875 119.203125 C 44.371094 107.144531 46.851562 106.019531 44.191406 101.460938 C 42.648438 98.820312 39.585938 96.5625 33.464844 92.046875 C 31.558594 90.640625 30.140625 89.597656 28.800781 88.75 C 28.835938 88.757812 28.871094 88.761719 28.90625 88.769531 C 32.171875 89.261719 34.867188 91.132812 35.238281 90.53125 C 35.460938 90.175781 34.464844 89.542969 34.058594 88.011719 C 33.867188 87.292969 33.808594 86.386719 34.480469 84.058594 C 34.894531 82.628906 35.425781 80.78125 36.507812 78.929688 C 38.386719 75.707031 40.738281 74.507812 43.226562 72.71875 C 43.210938 73.230469 43.285156 73.90625 43.601562 74.8125 C 44.300781 76.8125 45.511719 77.984375 47.484375 79.941406 C 51.214844 83.640625 51.777344 84.308594 52.269531 84.546875 C 52.40625 84.613281 52.523438 84.636719 52.550781 84.648438 C 54.117188 85.171875 55.375 84.945312 59.347656 83.933594 C 63.324219 82.921875 62.738281 82.976562 63.148438 82.925781 C 64.054688 82.8125 64.613281 82.828125 64.90625 82.4375 C 65.03125 82.402344 65.152344 82.339844 65.261719 82.25 C 65.421875 82.117188 65.597656 81.875 65.683594 80.90625 C 65.691406 80.777344 65.710938 80.613281 65.730469 80.421875 C 66 80.175781 66.148438 79.984375 66.1875 79.730469 C 66.242188 79.40625 66.105469 79.191406 65.90625 78.710938 C 67.105469 78.070312 68.527344 76.953125 70.242188 75.609375 C 70.972656 75.039062 71.308594 74.71875 71.675781 74.265625 C 71.929688 73.953125 72.050781 73.75 72.351562 73.507812 C 72.625 73.292969 72.992188 73.089844 73.703125 72.917969 L 73.742188 72.910156 C 75.167969 73.53125 76.636719 73.042969 76.871094 72.960938 C 77.8125 72.632812 77.730469 72.300781 78.730469 71.953125 C 79.636719 71.636719 80.210938 71.730469 81.601562 71.699219 C 82.886719 71.671875 83.054688 71.574219 84.722656 71.449219 C 88.214844 71.183594 89.675781 71.449219 92.070312 71.28125 C 94.070312 71.140625 96.050781 70.570312 100.007812 69.429688 C 100.226562 69.367188 103.308594 68.46875 107.1875 66.738281 C 108.851562 66 109.800781 65.488281 110.363281 64.9375 C 110.929688 65.394531 111.390625 65.640625 111.914062 65.480469 C 112.777344 65.214844 112.945312 64.125 113.519531 64.21875 C 114.132812 64.316406 113.921875 65.550781 114.785156 66.320312 C 115.984375 67.386719 117.425781 66.21875 118.925781 67.160156 C 120.109375 67.902344 120.429688 69.4375 120.910156 71.742188 C 121.007812 72.214844 121.144531 72.882812 121.214844 73.652344 C 121.089844 73.808594 121.035156 74.003906 121.078125 74.179688 C 121.105469 74.285156 121.167969 74.378906 121.253906 74.457031 C 121.253906 74.589844 121.25 74.71875 121.246094 74.851562 C 121.167969 77.042969 120.273438 78.628906 119.21875 80.3125 L 119.214844 80.320312 C 118.980469 80.691406 118.742188 81.066406 118.503906 81.453125 C 118.472656 81.5 118.445312 81.542969 118.417969 81.589844 C 118.316406 81.753906 118.214844 81.917969 118.121094 82.078125 C 118.085938 82.136719 118.054688 82.191406 118.023438 82.246094 C 117.964844 82.339844 117.90625 82.4375 117.851562 82.527344 L 117.851562 82.53125 C 114.636719 88.03125 115.890625 88.71875 113.265625 91.207031 C 111.847656 92.550781 109.5 94.777344 106.089844 95.15625 C 104.40625 95.34375 103.539062 94.960938 103.050781 95.578125 C 102.097656 96.773438 103.558594 100.527344 106.25 102.472656 L 106.25 102.476562 C 106.125 102.800781 106.039062 103.140625 106.003906 103.480469 C 105.875 104.726562 106.421875 105.679688 106.933594 106.589844 C 108.234375 108.898438 109.421875 111.269531 110.734375 113.570312 C 111.167969 114.335938 112.191406 116.171875 113.3125 118.664062 C 113.128906 119.105469 112.945312 119.535156 112.761719 119.960938 C 110.257812 125.742188 107.027344 130.460938 106.257812 131.5625 C 105.726562 132.324219 105.261719 133.136719 104.695312 133.875 C 104.636719 133.953125 104.582031 134.019531 104.53125 134.085938 C 104.515625 134.085938 104.5 134.085938 104.484375 134.085938 C 104.265625 134.082031 104.097656 134.128906 103.996094 134.164062 L 103.976562 134.167969 C 103.5 134.324219 103.027344 134.554688 102.554688 134.816406 C 102 135.121094 101.445312 135.472656 100.878906 135.792969 C 100.109375 136.234375 99.320312 136.625 98.488281 136.773438 C 96.820312 137.082031 96.097656 136.222656 94.265625 136.941406 C 93.84375 137.109375 93.207031 137.367188 93.167969 137.785156 C 93.132812 138.191406 93.679688 138.601562 94.324219 138.941406 C 94.410156 138.988281 94.5 139.03125 94.585938 139.074219 C 94.632812 139.09375 94.675781 139.117188 94.71875 139.136719 C 94.808594 139.175781 94.898438 139.21875 94.984375 139.253906 C 95.03125 139.273438 95.074219 139.292969 95.117188 139.308594 C 95.59375 139.507812 96.019531 139.65625 96.210938 139.71875 C 96.792969 139.914062 97.359375 140.058594 97.898438 140.171875 C 98.4375 140.28125 98.945312 140.355469 99.414062 140.402344 C 99.765625 140.4375 100.09375 140.460938 100.390625 140.472656 C 100.886719 140.492188 101.304688 140.484375 101.613281 140.472656 C 104.109375 140.386719 104.160156 139.839844 106.003906 140.054688 C 106.214844 140.078125 106.414062 140.109375 106.597656 140.140625 C 107.242188 140.257812 107.734375 140.414062 108.144531 140.480469 C 108.558594 140.550781 108.886719 140.53125 109.214844 140.304688 C 109.253906 140.277344 109.292969 140.25 109.328125 140.21875 C 109.394531 140.160156 109.457031 140.09375 109.511719 140.023438 C 109.558594 139.96875 109.601562 139.90625 109.640625 139.84375 C 109.664062 139.804688 109.6875 139.765625 109.710938 139.722656 C 109.773438 139.609375 109.824219 139.488281 109.867188 139.359375 C 110.046875 138.859375 110.101562 138.296875 110.140625 137.867188 C 110.230469 136.984375 110.277344 136.5 109.972656 136.101562 C 109.800781 135.875 109.582031 135.769531 109.332031 135.726562 C 109.597656 135.246094 109.957031 134.554688 110.648438 133.496094 C 111.398438 132.347656 112.046875 131.527344 113.351562 129.882812 C 114.707031 128.167969 115.421875 127.34375 115.796875 126.890625 C 116.050781 126.585938 116.265625 126.328125 116.445312 126.113281 C 116.480469 126.1875 116.519531 126.265625 116.558594 126.347656 C 117.570312 128.441406 118.074219 129.488281 118.292969 130.34375 C 118.335938 130.515625 118.367188 130.664062 118.398438 130.804688 C 118.285156 130.867188 118.179688 130.945312 118.078125 131.058594 C 117.75 131.429688 117.875 131.6875 117.65625 132.65625 C 117.410156 133.757812 116.992188 134.597656 116.484375 135.441406 C 116.320312 135.714844 116.148438 135.988281 115.96875 136.269531 C 115.199219 137.488281 114.820312 138.101562 114.195312 138.371094 C 113.539062 138.660156 112.9375 138.582031 112.675781 139.046875 C 112.664062 139.066406 112.652344 139.089844 112.640625 139.113281 C 112.597656 139.214844 112.574219 139.320312 112.566406 139.429688 C 112.546875 139.707031 112.632812 140.007812 112.761719 140.25 C 112.789062 140.300781 112.816406 140.347656 112.84375 140.390625 L 112.871094 140.429688 C 113.007812 140.625 113.203125 140.78125 113.652344 140.929688 C 113.722656 140.949219 113.796875 140.972656 113.878906 140.996094 C 113.9375 141.011719 114.003906 141.027344 114.074219 141.046875 C 114.152344 141.066406 114.238281 141.082031 114.332031 141.101562 C 114.609375 141.160156 114.9375 141.21875 115.335938 141.277344 C 115.597656 141.316406 115.894531 141.359375 116.222656 141.398438 C 116.375 141.417969 116.519531 141.4375 116.65625 141.453125 C 116.996094 141.492188 117.289062 141.523438 117.542969 141.542969 C 117.59375 141.550781 117.644531 141.554688 117.691406 141.558594 C 118.023438 141.585938 118.28125 141.59375 118.484375 141.597656 C 118.683594 141.597656 118.832031 141.589844 118.941406 141.570312 C 118.972656 141.566406 119.003906 141.5625 119.027344 141.558594 C 119.054688 141.550781 119.078125 141.546875 119.101562 141.542969 L 119.132812 141.53125 C 119.15625 141.527344 119.171875 141.519531 119.191406 141.511719 C 119.214844 141.503906 119.238281 141.492188 119.261719 141.484375 C 120.050781 141.136719 120.226562 140.601562 121.203125 139.382812 C 121.660156 138.808594 122.152344 138.304688 122.933594 137.546875 C 123.195312 137.292969 123.488281 137.011719 123.824219 136.691406 C 124.804688 135.746094 125.503906 135.160156 126.027344 134.664062 C 126.09375 134.597656 126.160156 134.53125 126.226562 134.46875 C 126.289062 134.402344 126.351562 134.339844 126.410156 134.277344 C 126.523438 134.152344 126.628906 134.027344 126.726562 133.898438 C 126.753906 133.867188 126.777344 133.832031 126.800781 133.800781 C 126.988281 133.539062 127.144531 133.253906 127.285156 132.90625 C 127.363281 132.714844 127.445312 132.515625 127.511719 132.308594 C 127.523438 132.265625 127.539062 132.222656 127.550781 132.179688 C 127.609375 131.972656 127.652344 131.757812 127.65625 131.539062 C 127.660156 131.324219 127.628906 131.105469 127.539062 130.890625 C 127.515625 130.835938 127.488281 130.789062 127.460938 130.742188 C 126.976562 129.984375 125.613281 130.308594 124.414062 129.125 C 123.863281 128.582031 123.855469 128.25 123.484375 128.199219 C 123.179688 128.15625 122.960938 128.351562 122.726562 128.640625 C 122.429688 128.039062 121.953125 127.164062 121.375 125.59375 C 121.15625 125.003906 120.21875 122.460938 119.738281 119.738281 C 119.855469 119.382812 119.976562 119.011719 120.105469 118.613281 C 120.992188 115.886719 120.707031 115.914062 121.375 114.074219 C 121.929688 112.539062 122.515625 111.457031 123.023438 110.617188 C 123.824219 110.675781 124.425781 110.644531 124.667969 110.628906 C 127.214844 110.460938 127.933594 109.496094 130.242188 109.871094 C 131.019531 109.996094 131.535156 110.203125 131.953125 110.417969 C 132.238281 110.566406 132.480469 110.714844 132.730469 110.847656 C 133.074219 111.03125 133.433594 111.171875 133.957031 111.214844 C 137.398438 111.496094 140.398438 106.734375 140.964844 105.835938 C 143.378906 102 143.492188 98.246094 143.667969 94.234375 C 143.691406 93.695312 143.714844 93.125 143.734375 92.535156 C 143.742188 92.210938 143.75 91.882812 143.757812 91.546875 C 143.8125 87.925781 143.511719 83.5625 141.339844 79.351562 C 141.191406 79.0625 141.03125 78.777344 140.863281 78.488281 C 140.789062 78.355469 140.707031 78.222656 140.628906 78.089844 C 138.457031 74.558594 136.71875 74.261719 135.253906 71.574219 C 135.3125 71.421875 135.320312 71.269531 135.265625 71.152344 C 135.207031 71.035156 135.078125 70.9375 134.910156 70.890625 C 134.789062 70.621094 134.667969 70.332031 134.546875 70.019531 C 133.921875 68.371094 134.046875 67.882812 132.183594 61.273438 C 131.335938 58.273438 131.363281 58.554688 131.085938 57.40625 C 130.101562 53.332031 130.21875 51.601562 129.734375 50.261719 C 130.757812 50.460938 131.832031 50.554688 132.941406 50.511719 " fill-opacity="1" fill-rule="nonzero"/><g clip-path="url(#ffa2591a92)"><path fill="#000000" d="M 121.664062 47.066406 L 120.683594 45.425781 C 120.636719 45.34375 120.589844 45.257812 120.542969 45.160156 L 119.246094 42.429688 L 121.414062 44.949219 L 121.425781 45.082031 L 121.429688 45.121094 L 121.4375 45.171875 Z M 15.632812 68.214844 C 15.644531 68.355469 15.820312 68.515625 16.375 68.882812 C 16.691406 68.457031 17.019531 68.023438 17.351562 67.585938 C 17.949219 66.808594 18.492188 66.121094 18.984375 65.515625 C 18.597656 65.789062 18.183594 66.082031 17.742188 66.398438 C 17.496094 66.574219 17.253906 66.734375 17.023438 66.886719 C 16.289062 67.378906 15.597656 67.84375 15.632812 68.214844 Z M 16.582031 69.980469 L 16.257812 69.773438 C 15.328125 69.179688 14.878906 68.867188 14.820312 68.292969 C 14.738281 67.441406 15.546875 66.898438 16.570312 66.214844 C 16.796875 66.0625 17.03125 65.90625 17.269531 65.738281 C 19.101562 64.4375 20.425781 63.5 21.4375 62.609375 L 22.015625 63.175781 L 21.691406 63.554688 C 20.804688 64.585938 19.589844 66 18 68.078125 C 17.585938 68.617188 17.1875 69.152344 16.804688 69.671875 Z M 114.363281 105.273438 C 114.34375 105.449219 114.339844 105.628906 114.347656 105.816406 C 114.398438 106.875 114.855469 107.558594 115.546875 108.589844 C 115.632812 108.714844 115.71875 108.84375 115.808594 108.976562 C 115.863281 108.691406 115.910156 108.421875 115.957031 108.167969 C 115.976562 108.0625 115.996094 107.957031 116.015625 107.855469 C 115.605469 107.347656 115.328125 106.847656 115.085938 106.402344 C 114.855469 105.992188 114.648438 105.613281 114.363281 105.273438 Z M 116.183594 111.226562 L 115.652344 110.28125 C 115.421875 109.875 115.289062 109.671875 115.289062 109.667969 C 115.144531 109.445312 115.003906 109.238281 114.871094 109.039062 C 114.160156 107.976562 113.597656 107.136719 113.535156 105.855469 C 113.511719 105.320312 113.574219 104.839844 113.742188 104.347656 L 113.925781 103.796875 L 114.382812 104.160156 C 115.082031 104.71875 115.429688 105.347656 115.796875 106.015625 C 116.058594 106.488281 116.328125 106.972656 116.746094 107.46875 L 116.886719 107.609375 L 116.847656 107.816406 C 116.820312 107.976562 116.789062 108.140625 116.757812 108.3125 C 116.660156 108.851562 116.546875 109.46875 116.40625 110.164062 Z M 13.875 139.632812 Z M 116.535156 125.367188 L 116.925781 126.175781 C 117.949219 128.289062 118.460938 129.351562 118.6875 130.242188 C 118.726562 130.402344 118.761719 130.558594 118.796875 130.722656 L 118.855469 131.015625 L 118.59375 131.160156 C 118.511719 131.203125 118.445312 131.257812 118.386719 131.328125 C 118.261719 131.464844 118.246094 131.554688 118.199219 131.898438 C 118.171875 132.101562 118.136719 132.378906 118.054688 132.742188 C 117.78125 133.964844 117.304688 134.863281 116.832031 135.652344 C 116.675781 135.914062 116.507812 136.175781 116.339844 136.449219 L 116.28125 136.535156 C 115.511719 137.753906 115.089844 138.425781 114.359375 138.742188 C 114.089844 138.863281 113.839844 138.921875 113.617188 138.976562 C 113.257812 139.066406 113.105469 139.113281 113.03125 139.246094 L 113.019531 139.269531 C 112.992188 139.328125 112.976562 139.390625 112.972656 139.457031 C 112.960938 139.636719 113.015625 139.863281 113.121094 140.0625 C 113.140625 140.097656 113.160156 140.132812 113.183594 140.167969 L 113.203125 140.195312 C 113.273438 140.296875 113.382812 140.414062 113.78125 140.542969 C 113.84375 140.5625 113.910156 140.582031 113.984375 140.605469 C 114.042969 140.621094 114.105469 140.636719 114.167969 140.652344 C 114.246094 140.667969 114.328125 140.6875 114.414062 140.707031 C 114.6875 140.761719 115.007812 140.820312 115.394531 140.875 C 115.65625 140.914062 115.949219 140.957031 116.273438 140.996094 C 116.425781 141.015625 116.566406 141.035156 116.703125 141.050781 C 117.027344 141.085938 117.320312 141.117188 117.578125 141.140625 L 117.722656 141.152344 C 118.023438 141.175781 118.28125 141.191406 118.484375 141.191406 C 118.648438 141.191406 118.785156 141.183594 118.886719 141.171875 C 118.910156 141.167969 118.929688 141.164062 118.949219 141.160156 C 118.964844 141.15625 118.980469 141.152344 118.996094 141.148438 L 119.019531 141.144531 L 119.046875 141.132812 C 119.066406 141.125 119.082031 141.117188 119.097656 141.113281 C 119.5625 140.910156 119.761719 140.632812 120.203125 140.03125 C 120.382812 139.785156 120.601562 139.484375 120.886719 139.128906 C 121.367188 138.527344 121.878906 138.003906 122.648438 137.257812 C 122.910156 137.003906 123.203125 136.722656 123.539062 136.398438 C 124.125 135.835938 124.621094 135.390625 125.015625 135.035156 C 125.292969 134.785156 125.535156 134.570312 125.746094 134.371094 C 125.8125 134.304688 125.875 134.242188 125.9375 134.183594 C 125.996094 134.121094 126.054688 134.0625 126.109375 134.003906 C 126.222656 133.882812 126.316406 133.769531 126.402344 133.652344 C 126.425781 133.625 126.445312 133.597656 126.46875 133.566406 C 126.640625 133.324219 126.78125 133.066406 126.90625 132.753906 C 126.984375 132.566406 127.0625 132.375 127.125 132.183594 C 127.136719 132.144531 127.148438 132.109375 127.160156 132.070312 C 127.21875 131.867188 127.246094 131.691406 127.25 131.53125 C 127.253906 131.355469 127.226562 131.195312 127.160156 131.046875 C 127.148438 131.015625 127.132812 130.984375 127.117188 130.957031 C 126.984375 130.75 126.703125 130.660156 126.21875 130.519531 C 125.605469 130.34375 124.847656 130.121094 124.125 129.414062 C 123.878906 129.167969 123.726562 128.957031 123.617188 128.804688 C 123.476562 128.605469 123.464844 128.605469 123.429688 128.601562 C 123.363281 128.59375 123.273438 128.605469 123.042969 128.894531 L 122.640625 129.394531 L 122.359375 128.820312 C 122.3125 128.726562 122.261719 128.625 122.210938 128.519531 C 121.90625 127.910156 121.488281 127.082031 120.992188 125.734375 C 120.027344 123.117188 119.558594 121.066406 119.339844 119.808594 L 119.320312 119.710938 L 119.351562 119.613281 C 119.46875 119.257812 119.589844 118.886719 119.71875 118.488281 C 120.164062 117.117188 120.304688 116.464844 120.429688 115.890625 C 120.550781 115.339844 120.65625 114.863281 120.992188 113.9375 C 121.597656 112.265625 122.242188 111.125 122.675781 110.410156 L 122.804688 110.195312 L 123.054688 110.214844 C 123.746094 110.261719 124.296875 110.246094 124.640625 110.222656 C 125.675781 110.15625 126.382812 109.953125 127.066406 109.757812 C 128.003906 109.492188 128.886719 109.238281 130.304688 109.46875 C 131.199219 109.617188 131.753906 109.859375 132.140625 110.058594 C 132.304688 110.144531 132.453125 110.226562 132.597656 110.308594 C 132.707031 110.371094 132.8125 110.433594 132.921875 110.488281 C 133.238281 110.65625 133.539062 110.773438 133.988281 110.8125 C 136.019531 110.976562 138.4375 109.085938 140.621094 105.621094 C 142.925781 101.957031 143.082031 98.316406 143.25 94.464844 L 143.261719 94.214844 C 143.285156 93.675781 143.308594 93.109375 143.328125 92.519531 C 143.335938 92.203125 143.34375 91.875 143.347656 91.542969 C 143.398438 88.191406 143.175781 83.800781 140.976562 79.539062 C 140.832031 79.257812 140.675781 78.972656 140.511719 78.691406 C 140.4375 78.5625 140.359375 78.429688 140.28125 78.300781 C 139.1875 76.527344 138.234375 75.613281 137.3125 74.730469 C 136.449219 73.90625 135.636719 73.125 134.894531 71.765625 L 134.804688 71.601562 L 134.875 71.425781 C 134.898438 71.367188 134.894531 71.328125 134.894531 71.320312 C 134.894531 71.324219 134.863281 71.296875 134.796875 71.28125 L 134.621094 71.226562 L 134.542969 71.058594 C 134.40625 70.765625 134.28125 70.46875 134.164062 70.160156 C 133.855469 69.34375 133.722656 68.800781 133.460938 67.722656 C 133.179688 66.558594 132.753906 64.796875 131.789062 61.382812 C 131.390625 59.972656 131.1875 59.292969 131.054688 58.839844 C 130.902344 58.332031 130.835938 58.117188 130.6875 57.503906 C 130.148438 55.273438 129.9375 53.722656 129.78125 52.589844 C 129.652344 51.648438 129.558594 50.972656 129.351562 50.402344 L 129.105469 49.730469 L 129.8125 49.863281 C 130.847656 50.0625 131.894531 50.144531 132.925781 50.109375 C 136.78125 49.964844 139.445312 48.222656 140.320312 47.652344 C 141.988281 46.558594 143.566406 45.527344 144.300781 43.640625 C 145.070312 41.660156 144.742188 38.980469 143.433594 36.648438 C 142.34375 34.699219 140.792969 33.367188 139.285156 33.085938 C 138.011719 32.851562 137.121094 33.433594 136.089844 34.109375 C 134.992188 34.828125 133.75 35.644531 131.886719 35.445312 C 131.554688 35.410156 131.234375 35.347656 130.9375 35.253906 L 130.683594 35.171875 L 130.652344 34.910156 C 130.570312 34.148438 130.414062 33.414062 130.191406 32.730469 C 129.5625 30.808594 128.132812 29.195312 125.289062 25.980469 C 124.777344 25.402344 124.332031 24.910156 123.9375 24.480469 C 122.277344 22.660156 121.589844 21.902344 121.472656 20.445312 C 121.289062 18.15625 121.636719 16.453125 121.648438 16.382812 C 121.699219 16.136719 121.753906 15.929688 121.796875 15.742188 C 121.847656 15.535156 121.890625 15.359375 121.917969 15.207031 C 121.925781 15.152344 121.929688 15.105469 121.933594 15.058594 L 121.9375 14.972656 L 121.988281 14.878906 C 122.117188 14.636719 122.242188 14.085938 122.363281 13.550781 C 122.429688 13.265625 122.496094 12.96875 122.570312 12.691406 C 122.800781 11.828125 122.832031 11.484375 122.875 11.050781 C 122.886719 10.957031 122.894531 10.859375 122.90625 10.757812 C 122.910156 10.722656 122.898438 10.699219 122.886719 10.683594 C 122.875 10.667969 122.855469 10.648438 122.820312 10.648438 C 122.765625 10.640625 122.714844 10.679688 122.710938 10.734375 C 122.695312 10.878906 122.683594 11.003906 122.671875 11.117188 C 122.632812 11.546875 122.601562 11.886719 122.367188 12.675781 C 122.21875 13.183594 122 13.574219 121.933594 13.683594 C 121.839844 13.847656 121.773438 13.933594 121.714844 14.003906 L 121.527344 14.242188 L 121.242188 14.128906 C 121.179688 14.101562 121.109375 14.078125 121.042969 14.058594 L 120.769531 13.972656 L 120.753906 13.667969 C 120.738281 13.25 120.785156 12.605469 120.882812 11.324219 C 120.960938 10.3125 120.933594 9.878906 120.902344 9.378906 C 120.894531 9.25 120.886719 9.117188 120.882812 8.976562 C 120.878906 8.921875 120.832031 8.882812 120.777344 8.882812 C 120.722656 8.882812 120.679688 8.929688 120.683594 8.984375 C 120.722656 9.875 120.734375 10.238281 120.683594 11.328125 C 120.660156 11.785156 120.570312 12.308594 120.480469 12.808594 C 120.433594 13.066406 120.390625 13.308594 120.355469 13.539062 L 120.304688 13.902344 L 119.878906 13.882812 C 119.847656 13.882812 119.820312 13.878906 119.792969 13.878906 L 119.441406 13.875 L 119.394531 13.523438 C 119.222656 12.109375 119.125 11.328125 119.105469 10.796875 C 119.078125 10.035156 119.011719 9.640625 118.9375 9.226562 C 118.910156 9.066406 118.882812 8.902344 118.855469 8.714844 C 118.847656 8.660156 118.796875 8.621094 118.742188 8.628906 C 118.6875 8.636719 118.648438 8.6875 118.65625 8.742188 C 118.710938 9.105469 118.738281 9.402344 118.769531 9.6875 C 118.800781 10.015625 118.835938 10.351562 118.90625 10.816406 C 119.015625 11.523438 118.960938 12.277344 118.914062 12.945312 C 118.894531 13.191406 118.878906 13.425781 118.871094 13.636719 L 118.859375 13.957031 L 118.183594 14.097656 L 118.050781 13.804688 C 117.847656 13.371094 117.628906 12.839844 117.5 12.140625 C 117.355469 11.351562 117.226562 10.832031 117.089844 10.285156 C 117.03125 10.050781 116.972656 9.8125 116.910156 9.546875 C 116.902344 9.511719 116.882812 9.492188 116.867188 9.484375 C 116.851562 9.472656 116.824219 9.464844 116.789062 9.472656 C 116.757812 9.480469 116.738281 9.5 116.730469 9.515625 C 116.71875 9.53125 116.707031 9.558594 116.714844 9.589844 C 116.792969 9.914062 116.847656 10.21875 116.902344 10.511719 C 117 11.042969 117.089844 11.542969 117.296875 12.152344 C 117.507812 12.78125 117.65625 13.484375 117.742188 14.25 L 117.753906 14.335938 L 117.722656 14.421875 C 117.722656 14.4375 117.730469 14.496094 117.734375 14.542969 C 117.746094 14.640625 117.765625 14.78125 117.769531 14.980469 C 117.777344 15.292969 117.796875 16.125 117.425781 16.820312 C 117.394531 16.878906 117.363281 16.933594 117.328125 16.988281 L 117.128906 17.292969 L 116.804688 17.128906 C 116.734375 17.097656 116.636719 17.066406 116.523438 17.035156 C 116.210938 16.945312 115.78125 16.824219 115.375 16.414062 C 114.851562 15.886719 114.65625 15.492188 114.414062 14.988281 C 114.328125 14.816406 114.234375 14.621094 114.113281 14.398438 C 114.097656 14.367188 114.074219 14.355469 114.054688 14.347656 C 114.039062 14.34375 114.011719 14.339844 113.980469 14.355469 C 113.929688 14.382812 113.914062 14.441406 113.9375 14.492188 C 114.074219 14.742188 114.191406 14.953125 114.320312 15.171875 C 114.53125 15.53125 114.773438 15.890625 115.007812 16.238281 L 115.175781 16.484375 C 115.351562 16.75 115.523438 17.015625 115.683594 17.261719 C 115.949219 17.667969 116.175781 18.019531 116.316406 18.199219 L 116.347656 18.234375 L 116.433594 18.417969 C 116.898438 19.347656 117.203125 19.960938 117.246094 20.035156 C 117.691406 20.726562 118.378906 21.527344 119.046875 22.300781 C 119.527344 22.855469 119.980469 23.382812 120.347656 23.871094 C 120.914062 24.625 121.160156 25.105469 121.703125 26.160156 C 121.851562 26.453125 122.027344 26.796875 122.242188 27.207031 C 122.511719 27.722656 122.777344 28.222656 123.035156 28.699219 L 123.503906 29.554688 L 122.5625 29.28125 C 118.789062 28.171875 115.324219 29.265625 114.007812 29.785156 C 112.90625 30.222656 110.613281 31.132812 109.402344 33.382812 C 108.691406 34.714844 108.273438 36.679688 109.046875 37.847656 C 109.140625 37.992188 109.296875 38.199219 109.542969 38.34375 L 109.722656 38.453125 L 109.742188 38.660156 C 109.761719 38.929688 109.808594 39.4375 109.703125 40.382812 C 109.535156 41.921875 109.238281 42.398438 108.996094 42.640625 C 108.9375 42.703125 108.875 42.757812 108.8125 42.8125 C 108.71875 42.898438 108.609375 42.996094 108.605469 43.046875 C 108.605469 43.113281 108.695312 43.25 108.863281 43.378906 C 109.003906 43.480469 109.113281 43.492188 109.292969 43.515625 C 109.460938 43.535156 109.667969 43.5625 109.902344 43.675781 C 110.472656 43.960938 110.6875 44.53125 110.863281 44.992188 C 111.179688 45.835938 111.136719 46.46875 111.105469 46.929688 C 111.074219 47.347656 111.078125 47.492188 111.207031 47.636719 C 111.4375 47.894531 111.992188 47.941406 113.039062 48.007812 C 113.898438 48.0625 114.34375 48.007812 114.667969 47.964844 C 115.003906 47.925781 115.273438 47.890625 115.675781 48.027344 C 116.503906 48.304688 116.804688 48.921875 117.152344 49.632812 C 117.28125 49.898438 117.425781 50.195312 117.613281 50.511719 L 118.023438 51.207031 L 117.21875 51.121094 C 116.382812 51.035156 115.648438 51.125 115.035156 51.390625 C 114.285156 51.714844 113.964844 52.191406 113.382812 53.054688 C 113.109375 53.457031 112.773438 53.960938 112.324219 54.542969 C 111.234375 55.949219 110.210938 56.804688 109.222656 57.632812 C 107.953125 58.695312 106.835938 59.375 106.019531 59.867188 C 105.394531 60.25 104.742188 60.644531 104.71875 60.855469 L 104.691406 61.085938 L 104.480469 61.179688 C 102.820312 61.921875 102.035156 62.628906 101.203125 63.378906 C 100.4375 64.070312 99.644531 64.785156 98.160156 65.507812 C 97.160156 65.992188 96.675781 66.070312 95.714844 66.226562 C 94.894531 66.359375 93.652344 66.554688 91.324219 67.132812 C 88.6875 67.785156 87.304688 68.265625 86.386719 68.585938 C 85.289062 68.96875 84.738281 69.160156 83.457031 69.164062 L 83.421875 69.164062 C 82.023438 69.164062 80.625 68.941406 79.496094 68.761719 C 78.621094 68.625 77.867188 68.507812 77.394531 68.53125 L 77.1875 68.542969 L 77.058594 68.378906 C 76.804688 68.070312 76.523438 67.867188 76.46875 67.828125 C 76.019531 67.519531 75.597656 67.445312 74.820312 67.398438 C 73.582031 67.320312 72.769531 67.265625 71.898438 67.691406 C 71.335938 67.96875 70.992188 68.328125 70.242188 69.121094 C 69.824219 69.5625 69.628906 69.828125 69.441406 70.085938 C 69.265625 70.335938 69.078125 70.589844 68.722656 70.96875 C 68.082031 71.652344 67.480469 72.085938 66.382812 72.871094 C 65.386719 73.585938 64.78125 74.019531 64.054688 74.398438 L 63.71875 74.570312 L 63.519531 74.253906 C 63.484375 74.199219 63.472656 74.195312 63.441406 74.183594 C 63.402344 74.179688 63.234375 74.1875 62.652344 74.457031 L 62.390625 74.578125 L 62.191406 74.375 C 62.144531 74.328125 62.085938 74.289062 62.011719 74.257812 C 61.484375 74.023438 60.9375 74.382812 60.089844 74.992188 C 59.1875 75.636719 58.066406 76.4375 56.628906 76.222656 C 54.492188 75.898438 53.238281 73.605469 52.023438 71.390625 C 51.5 70.433594 50.277344 68.195312 49.949219 65.101562 C 49.886719 64.503906 49.863281 63.957031 49.847656 63.472656 C 49.824219 62.933594 49.796875 62.269531 49.699219 62.082031 L 49.566406 62.066406 L 49.457031 61.902344 C 49.261719 61.585938 48.675781 60.996094 47.378906 59.808594 C 45.699219 58.269531 44.113281 56.820312 43.722656 56.804688 L 43.484375 56.796875 L 43.375 56.582031 C 43.222656 56.28125 43.027344 56.074219 42.796875 55.96875 C 42.765625 55.953125 42.730469 55.941406 42.699219 55.929688 L 42.222656 55.777344 L 42.492188 55.304688 C 42.828125 54.710938 43.148438 54.144531 43.996094 53.90625 C 44.652344 53.722656 45.789062 53.679688 46.792969 53.640625 L 46.816406 53.636719 C 47.132812 53.625 47.5625 53.609375 47.757812 53.371094 C 47.882812 53.214844 47.917969 52.96875 47.921875 52.859375 C 47.921875 52.734375 47.898438 52.667969 47.859375 52.558594 C 47.820312 52.457031 47.773438 52.328125 47.753906 52.15625 C 47.707031 51.707031 47.90625 51.375 48.066406 51.109375 C 48.121094 51.019531 48.171875 50.933594 48.210938 50.851562 C 48.546875 50.113281 48.636719 49.628906 48.703125 49.269531 C 48.785156 48.847656 48.855469 48.484375 49.265625 48.171875 C 49.652344 47.878906 50.039062 47.851562 50.351562 47.828125 C 50.597656 47.8125 50.730469 47.796875 50.828125 47.703125 C 50.847656 47.683594 50.910156 47.617188 50.925781 47.53125 C 50.957031 47.378906 50.8125 47.175781 50.660156 46.960938 C 50.628906 46.917969 50.597656 46.875 50.570312 46.835938 C 50.351562 46.519531 50.210938 46.175781 50.078125 45.847656 C 50.003906 45.671875 49.9375 45.507812 49.863281 45.351562 C 49.414062 44.433594 49.519531 43.480469 49.609375 42.640625 C 49.691406 41.925781 49.765625 41.246094 49.515625 40.648438 L 49.382812 40.324219 L 49.6875 40.144531 C 50.699219 39.546875 51.6875 38.191406 51.867188 37.425781 C 51.910156 37.238281 51.890625 37.140625 51.871094 37.117188 C 51.820312 37.039062 51.484375 36.96875 51.007812 37.042969 C 50.558594 37.109375 50.3125 37.335938 50.03125 37.59375 C 49.796875 37.808594 49.535156 38.054688 49.144531 38.199219 C 48.324219 38.5 47.671875 38.09375 46.980469 37.664062 C 46.488281 37.355469 45.929688 37.007812 45.171875 36.777344 C 43.636719 36.3125 41.914062 36.503906 40.054688 37.347656 C 39.3125 37.679688 38.074219 38.242188 37.179688 39.558594 C 36.523438 40.527344 36.425781 41.878906 36.238281 44.574219 C 36.066406 46.976562 36.28125 47.695312 36.710938 48.125 L 36.722656 48.136719 C 37.046875 48.464844 37.363281 48.644531 37.660156 48.679688 L 38.601562 48.777344 L 37.878906 49.390625 C 37.539062 49.679688 37.132812 50.015625 36.585938 50.464844 L 36.355469 50.652344 L 36.105469 50.496094 C 36.011719 50.4375 35.929688 50.410156 35.859375 50.414062 C 35.851562 50.417969 35.652344 50.492188 35 51.15625 L 34.820312 51.339844 L 34.578125 51.257812 C 34.253906 51.144531 33.769531 51.175781 32.886719 51.230469 C 31.78125 51.300781 30.109375 51.40625 27.292969 51.339844 C 26.324219 51.316406 25.429688 51.277344 24.636719 51.246094 C 23.050781 51.175781 21.414062 51.109375 21.136719 51.296875 L 21.019531 51.417969 L 20.859375 51.410156 C 19.695312 51.425781 18.5 52.808594 16.839844 54.722656 C 15.984375 55.714844 15.011719 56.835938 13.828125 58.027344 C 12.886719 58.976562 12.445312 59.328125 12.015625 59.667969 C 11.582031 60.011719 11.132812 60.367188 10.109375 61.390625 C 6.769531 64.742188 4.898438 66.730469 5.242188 68.6875 C 5.296875 69.007812 5.433594 69.234375 7.921875 71.839844 C 10.753906 74.808594 11.507812 75.507812 12.007812 75.96875 C 12.082031 76.035156 12.148438 76.097656 12.214844 76.160156 L 12.445312 76.375 L 12.273438 76.683594 C 12.195312 76.824219 12.113281 76.964844 12.035156 77.109375 C 10.804688 79.34375 9.992188 81.125 9.621094 82.40625 C 9.355469 83.332031 9.339844 83.628906 9.289062 84.609375 C 9.238281 85.539062 9.160156 87.089844 8.789062 90.328125 L 8.78125 90.421875 C 8.65625 91.515625 8.625 91.910156 8.871094 92.210938 C 9.109375 92.503906 9.546875 92.636719 10.214844 92.621094 L 10.542969 92.617188 L 10.621094 92.933594 C 10.882812 94.015625 11.308594 95.027344 11.851562 95.863281 C 12.78125 97.285156 14.808594 98.332031 18.84375 100.414062 L 18.933594 100.460938 L 18.988281 100.542969 C 21.410156 104.027344 23.179688 106.476562 25.078125 108.683594 C 25.792969 109.511719 26.367188 110.15625 26.832031 110.671875 C 28.261719 112.269531 28.691406 112.75 28.722656 113.8125 C 28.789062 116.15625 26.878906 117.671875 21.777344 121.730469 C 20.652344 122.625 19.378906 123.636719 17.933594 124.8125 C 12.921875 128.886719 10.59375 131.015625 10.914062 132.105469 L 10.964844 132.277344 L 10.871094 132.433594 C 10.613281 132.84375 10.417969 133.269531 10.277344 133.582031 C 9.96875 134.25 9.828125 134.84375 9.542969 136.027344 C 9.476562 136.304688 9.410156 136.589844 9.34375 136.902344 C 9.257812 137.3125 9.179688 137.722656 9.105469 138.144531 L 13.949219 139.234375 L 14.140625 139.261719 L 14.902344 139.296875 L 15.289062 137.535156 L 15.808594 138.523438 C 15.949219 138.792969 16.132812 139.015625 16.359375 139.183594 C 16.671875 139.421875 16.976562 139.496094 17.136719 139.535156 C 18.054688 139.757812 19.003906 139.902344 19.839844 140.027344 C 20.230469 140.089844 20.601562 140.144531 20.914062 140.203125 C 21.457031 140.300781 21.671875 140.355469 21.863281 140.402344 C 22.027344 140.441406 22.167969 140.476562 22.515625 140.535156 C 23.84375 140.765625 25.851562 141.109375 27.6875 140.3125 C 28.761719 139.847656 28.921875 139.527344 28.921875 139.378906 L 28.921875 139.355469 C 28.925781 139.296875 28.878906 139.226562 28.839844 139.175781 C 28.609375 138.886719 28.039062 138.578125 27.699219 138.390625 C 25.972656 137.457031 24.734375 136.933594 23.738281 136.511719 C 23.203125 136.285156 22.738281 136.089844 22.308594 135.875 C 21.941406 135.695312 21.621094 135.511719 21.332031 135.320312 L 20.734375 134.917969 L 21.390625 134.617188 C 22.636719 134.039062 23.75 132.964844 25.15625 131.601562 L 25.542969 131.230469 C 28.550781 128.328125 29.828125 127.347656 30.675781 126.699219 C 31.40625 126.140625 31.808594 125.835938 32.777344 124.699219 C 33.960938 123.308594 35.191406 121.875 36.261719 120.34375 L 36.785156 119.597656 L 37.074219 120.839844 C 37.484375 122.566406 37.871094 124.195312 37.757812 127.375 C 37.695312 129.171875 37.492188 130.714844 37.332031 131.953125 C 37.09375 133.789062 36.921875 135.113281 37.464844 135.410156 L 37.679688 135.519531 L 37.699219 135.765625 C 37.710938 136.15625 37.734375 136.578125 37.757812 137.09375 C 37.792969 137.777344 37.859375 138.472656 37.960938 139.152344 C 38.011719 139.5 38.074219 139.855469 38.144531 140.203125 C 38.15625 140.273438 38.171875 140.339844 38.183594 140.40625 L 42.523438 140.40625 L 42.519531 140.390625 L 42.554688 140.386719 L 42.550781 140.363281 L 42.941406 140.359375 L 43.898438 140.304688 L 43.878906 139.558594 L 44.488281 139.863281 C 44.570312 139.90625 44.65625 139.945312 44.746094 139.988281 C 45.066406 140.136719 45.394531 140.273438 45.71875 140.386719 C 46.160156 140.542969 46.652344 140.6875 47.796875 140.75 C 47.863281 140.753906 47.933594 140.753906 48.003906 140.757812 C 48.453125 140.777344 48.964844 140.785156 49.574219 140.78125 C 49.679688 140.78125 49.785156 140.78125 49.898438 140.78125 C 50.121094 140.777344 50.355469 140.773438 50.601562 140.769531 C 51.230469 140.753906 51.953125 140.730469 52.746094 140.699219 C 53.191406 140.679688 53.59375 140.664062 53.96875 140.640625 C 54.359375 140.621094 54.691406 140.59375 54.980469 140.566406 C 55.042969 140.5625 55.105469 140.554688 55.164062 140.550781 C 55.230469 140.542969 55.292969 140.535156 55.355469 140.527344 C 55.628906 140.496094 55.871094 140.457031 56.097656 140.410156 L 56.144531 140.402344 C 56.222656 140.386719 56.296875 140.367188 56.371094 140.351562 L 56.425781 140.335938 C 56.933594 140.207031 57.371094 140.023438 57.804688 139.761719 L 57.859375 139.726562 C 57.890625 139.707031 57.917969 139.691406 57.945312 139.671875 L 58 139.636719 C 58.222656 139.492188 58.898438 139.046875 59.050781 138.660156 C 59.074219 138.609375 59.078125 138.5625 59.074219 138.523438 C 59.070312 138.503906 59.058594 138.4375 58.90625 138.339844 C 58.550781 138.113281 57.808594 137.949219 56.871094 137.742188 C 56.359375 137.628906 55.777344 137.5 55.148438 137.335938 C 53.535156 136.914062 50.828125 136.210938 48.453125 134.765625 C 47.710938 134.3125 47.066406 133.832031 46.492188 133.289062 L 46.199219 133.015625 L 46.472656 132.71875 C 47.675781 131.410156 47.109375 128.109375 46.390625 123.925781 C 46.148438 122.519531 45.878906 120.929688 45.644531 119.257812 C 44.863281 113.632812 44.976562 110.394531 45.0625 108.035156 C 45.160156 105.355469 45.207031 104.007812 43.839844 101.667969 C 42.335938 99.097656 39.292969 96.847656 33.222656 92.371094 C 31.195312 90.875 29.867188 89.90625 28.582031 89.09375 L 26.984375 88.085938 L 28.96875 88.367188 C 30.683594 88.628906 32.246094 89.257812 33.386719 89.714844 C 33.851562 89.902344 34.402344 90.125 34.734375 90.210938 C 34.695312 90.152344 34.65625 90.09375 34.617188 90.035156 C 34.332031 89.628906 33.902344 89.011719 33.664062 88.113281 C 33.433594 87.246094 33.421875 86.246094 34.089844 83.949219 C 34.496094 82.542969 35.050781 80.621094 36.152344 78.726562 C 37.753906 75.984375 39.679688 74.667969 41.71875 73.273438 C 42.132812 72.988281 42.5625 72.695312 42.988281 72.390625 L 43.660156 71.910156 L 43.636719 72.730469 C 43.617188 73.316406 43.730469 73.953125 43.984375 74.679688 C 44.636719 76.546875 45.765625 77.664062 47.632812 79.515625 L 47.769531 79.652344 C 48.863281 80.738281 49.6875 81.5625 50.3125 82.191406 C 51.734375 83.613281 52.160156 84.042969 52.445312 84.179688 C 52.527344 84.21875 52.59375 84.238281 52.636719 84.25 C 52.65625 84.253906 52.671875 84.261719 52.679688 84.265625 C 54.132812 84.75 55.292969 84.546875 59.246094 83.539062 C 61.726562 82.910156 62.429688 82.691406 62.695312 82.613281 C 62.875 82.554688 62.914062 82.546875 63.097656 82.523438 C 63.261719 82.5 63.414062 82.484375 63.558594 82.46875 C 64.140625 82.40625 64.453125 82.367188 64.582031 82.195312 L 64.660156 82.089844 L 64.789062 82.050781 C 64.871094 82.027344 64.941406 81.988281 64.996094 81.941406 C 65.046875 81.902344 65.195312 81.773438 65.277344 80.871094 C 65.28125 80.8125 65.289062 80.746094 65.296875 80.671875 C 65.304688 80.585938 65.316406 80.488281 65.324219 80.386719 L 65.335938 80.230469 L 65.453125 80.121094 C 65.707031 79.890625 65.769531 79.777344 65.785156 79.664062 C 65.808594 79.523438 65.765625 79.414062 65.628906 79.09375 C 65.597656 79.027344 65.5625 78.949219 65.53125 78.867188 L 65.386719 78.527344 L 65.710938 78.355469 C 66.882812 77.726562 68.320312 76.597656 69.992188 75.292969 C 70.691406 74.742188 71.007812 74.445312 71.359375 74.011719 C 71.417969 73.9375 71.472656 73.871094 71.519531 73.808594 C 71.679688 73.601562 71.832031 73.40625 72.097656 73.191406 C 72.484375 72.882812 72.9375 72.683594 73.609375 72.523438 L 73.773438 72.488281 L 73.902344 72.539062 C 75.152344 73.082031 76.480469 72.667969 76.738281 72.578125 C 77.140625 72.4375 77.316406 72.304688 77.523438 72.148438 C 77.757812 71.96875 78.027344 71.769531 78.59375 71.570312 C 79.355469 71.304688 79.90625 71.304688 80.742188 71.304688 C 80.988281 71.300781 81.269531 71.300781 81.589844 71.296875 C 82.324219 71.277344 82.6875 71.238281 83.1875 71.183594 C 83.546875 71.144531 83.992188 71.097656 84.695312 71.042969 C 86.648438 70.894531 87.988281 70.914062 89.171875 70.925781 C 90.109375 70.9375 90.992188 70.949219 92.042969 70.875 C 94 70.738281 95.96875 70.171875 99.894531 69.042969 C 100.027344 69.003906 103.132812 68.101562 107.019531 66.371094 C 108.734375 65.605469 109.59375 65.125 110.078125 64.648438 L 110.335938 64.394531 L 110.617188 64.621094 C 111.171875 65.066406 111.480469 65.1875 111.796875 65.089844 C 112.101562 64.996094 112.304688 64.726562 112.503906 64.464844 C 112.75 64.136719 113.058594 63.730469 113.585938 63.816406 C 114.132812 63.90625 114.296875 64.421875 114.441406 64.875 C 114.5625 65.261719 114.703125 65.699219 115.058594 66.015625 C 115.546875 66.453125 116.085938 66.417969 116.773438 66.378906 C 117.488281 66.335938 118.300781 66.289062 119.140625 66.816406 C 120.472656 67.652344 120.804688 69.246094 121.308594 71.660156 C 121.402344 72.121094 121.550781 72.820312 121.617188 73.617188 L 121.632812 73.777344 L 121.53125 73.90625 C 121.476562 73.972656 121.464844 74.042969 121.472656 74.082031 C 121.476562 74.09375 121.484375 74.121094 121.527344 74.160156 L 121.65625 74.28125 L 121.660156 74.457031 C 121.660156 74.589844 121.660156 74.730469 121.652344 74.867188 C 121.570312 77.148438 120.660156 78.78125 119.566406 80.527344 C 119.460938 80.691406 119.363281 80.847656 119.265625 81.003906 C 119.128906 81.222656 118.988281 81.441406 118.847656 81.667969 C 118.820312 81.714844 118.792969 81.757812 118.765625 81.800781 C 118.683594 81.933594 118.605469 82.0625 118.53125 82.1875 L 118.335938 82.515625 C 118.300781 82.570312 118.269531 82.625 118.238281 82.675781 L 118.203125 82.734375 C 116.742188 85.238281 116.210938 86.75 115.820312 87.851562 C 115.347656 89.199219 115.035156 90.089844 113.546875 91.5 C 112.097656 92.871094 109.679688 95.164062 106.132812 95.5625 C 105.484375 95.632812 104.949219 95.625 104.523438 95.617188 C 103.804688 95.605469 103.535156 95.617188 103.367188 95.828125 C 103.183594 96.0625 103.121094 96.496094 103.195312 97.046875 C 103.402344 98.546875 104.601562 100.777344 106.488281 102.148438 L 106.738281 102.328125 L 106.628906 102.617188 C 106.515625 102.921875 106.441406 103.226562 106.410156 103.523438 C 106.292969 104.628906 106.769531 105.476562 107.273438 106.371094 L 107.289062 106.394531 C 107.914062 107.503906 108.523438 108.644531 109.109375 109.746094 C 109.75 110.941406 110.40625 112.175781 111.085938 113.371094 C 111.992188 114.960938 112.890625 116.734375 113.6875 118.5 L 113.757812 118.660156 L 113.691406 118.820312 C 113.503906 119.261719 113.320312 119.695312 113.132812 120.121094 C 110.773438 125.574219 107.773438 130.101562 106.59375 131.792969 C 106.382812 132.09375 106.179688 132.410156 105.980469 132.714844 C 105.679688 133.179688 105.367188 133.664062 105.019531 134.121094 C 104.960938 134.199219 104.90625 134.269531 104.851562 134.335938 L 104.722656 134.5 L 104.476562 134.492188 C 104.332031 134.492188 104.214844 134.519531 104.117188 134.550781 L 104.09375 134.558594 C 103.707031 134.683594 103.277344 134.878906 102.753906 135.167969 C 102.441406 135.339844 102.121094 135.53125 101.8125 135.71875 C 101.570312 135.863281 101.328125 136.007812 101.082031 136.144531 C 100.359375 136.558594 99.492188 137.003906 98.5625 137.171875 C 97.78125 137.316406 97.175781 137.226562 96.644531 137.144531 C 95.957031 137.039062 95.363281 136.949219 94.417969 137.320312 C 93.714844 137.597656 93.585938 137.75 93.574219 137.816406 L 93.574219 137.820312 C 93.570312 137.886719 93.726562 138.171875 94.515625 138.582031 C 94.597656 138.625 94.679688 138.667969 94.765625 138.707031 C 94.804688 138.730469 94.847656 138.75 94.890625 138.769531 C 94.976562 138.808594 95.0625 138.847656 95.148438 138.882812 C 95.191406 138.902344 95.234375 138.917969 95.273438 138.9375 C 95.601562 139.074219 95.957031 139.207031 96.339844 139.332031 C 96.867188 139.511719 97.417969 139.660156 97.980469 139.773438 C 98.460938 139.871094 98.957031 139.949219 99.457031 140 C 99.769531 140.03125 100.089844 140.054688 100.40625 140.066406 C 100.804688 140.082031 101.195312 140.082031 101.597656 140.070312 C 102.71875 140.03125 103.316406 139.898438 103.839844 139.78125 C 104.460938 139.644531 104.992188 139.527344 106.050781 139.652344 C 106.257812 139.675781 106.460938 139.707031 106.671875 139.742188 C 107.023438 139.808594 107.332031 139.882812 107.601562 139.949219 C 107.835938 140.003906 108.035156 140.050781 108.214844 140.082031 C 108.574219 140.140625 108.78125 140.113281 108.980469 139.972656 C 109.007812 139.953125 109.035156 139.933594 109.0625 139.910156 C 109.105469 139.871094 109.152344 139.824219 109.195312 139.769531 C 109.230469 139.730469 109.261719 139.683594 109.292969 139.628906 C 109.3125 139.597656 109.332031 139.566406 109.351562 139.535156 C 109.402344 139.4375 109.445312 139.335938 109.484375 139.226562 C 109.644531 138.773438 109.695312 138.253906 109.734375 137.835938 C 109.820312 136.96875 109.847656 136.609375 109.648438 136.347656 C 109.554688 136.222656 109.4375 136.15625 109.257812 136.125 L 108.699219 136.023438 L 108.976562 135.527344 C 109.019531 135.445312 109.070312 135.359375 109.121094 135.265625 C 109.375 134.800781 109.726562 134.167969 110.308594 133.277344 C 111.066406 132.113281 111.722656 131.28125 113.03125 129.628906 C 114.109375 128.269531 114.792969 127.453125 115.203125 126.96875 C 115.3125 126.839844 115.40625 126.726562 115.480469 126.632812 C 115.738281 126.328125 115.949219 126.070312 116.132812 125.851562 Z M 118.511719 142 L 118.480469 142 C 118.253906 142 117.984375 141.988281 117.65625 141.960938 L 117.507812 141.949219 C 117.242188 141.925781 116.941406 141.894531 116.605469 141.855469 C 116.46875 141.839844 116.324219 141.820312 116.171875 141.800781 C 115.839844 141.757812 115.542969 141.71875 115.273438 141.679688 C 114.871094 141.617188 114.535156 141.558594 114.246094 141.5 C 114.152344 141.480469 114.0625 141.460938 113.976562 141.441406 C 113.902344 141.421875 113.835938 141.402344 113.769531 141.386719 C 113.683594 141.363281 113.601562 141.335938 113.527344 141.3125 C 113.046875 141.15625 112.75 140.960938 112.539062 140.664062 C 112.527344 140.648438 112.515625 140.628906 112.503906 140.613281 C 112.46875 140.558594 112.433594 140.5 112.402344 140.441406 C 112.222656 140.105469 112.136719 139.738281 112.160156 139.40625 C 112.171875 139.242188 112.207031 139.089844 112.269531 138.949219 C 112.28125 138.921875 112.300781 138.886719 112.320312 138.847656 C 112.574219 138.398438 113.027344 138.289062 113.421875 138.191406 C 113.621094 138.140625 113.828125 138.089844 114.03125 138 C 114.53125 137.78125 114.886719 137.222656 115.59375 136.105469 L 115.648438 136.015625 C 115.816406 135.75 115.976562 135.492188 116.132812 135.234375 C 116.574219 134.503906 117.011719 133.675781 117.261719 132.566406 C 117.335938 132.238281 117.367188 131.992188 117.390625 131.796875 C 117.445312 131.402344 117.480469 131.121094 117.773438 130.789062 C 117.828125 130.730469 117.882812 130.675781 117.941406 130.628906 C 117.929688 130.566406 117.914062 130.507812 117.894531 130.441406 C 117.703125 129.671875 117.242188 128.707031 116.351562 126.859375 C 116.277344 126.949219 116.195312 127.046875 116.109375 127.152344 C 116.03125 127.246094 115.9375 127.355469 115.828125 127.488281 C 115.421875 127.972656 114.742188 128.78125 113.671875 130.132812 C 112.378906 131.765625 111.730469 132.585938 110.992188 133.71875 C 110.484375 134.492188 110.15625 135.074219 109.914062 135.511719 C 110.0625 135.597656 110.1875 135.714844 110.296875 135.855469 C 110.699219 136.382812 110.636719 136.988281 110.546875 137.90625 C 110.503906 138.351562 110.445312 138.949219 110.253906 139.496094 C 110.199219 139.640625 110.140625 139.78125 110.070312 139.914062 C 110.042969 139.960938 110.015625 140.011719 109.988281 140.058594 C 109.933594 140.140625 109.882812 140.210938 109.828125 140.277344 C 109.753906 140.371094 109.675781 140.453125 109.59375 140.523438 C 109.546875 140.5625 109.5 140.601562 109.445312 140.636719 C 108.964844 140.972656 108.484375 140.949219 108.078125 140.882812 C 107.871094 140.847656 107.648438 140.792969 107.410156 140.734375 C 107.148438 140.671875 106.855469 140.601562 106.523438 140.539062 C 106.332031 140.507812 106.148438 140.480469 105.957031 140.457031 C 105.035156 140.351562 104.609375 140.445312 104.015625 140.574219 C 103.484375 140.691406 102.820312 140.835938 101.628906 140.878906 C 101.203125 140.894531 100.792969 140.894531 100.375 140.875 C 100.039062 140.863281 99.703125 140.839844 99.371094 140.804688 C 98.847656 140.75 98.324219 140.671875 97.816406 140.566406 C 97.222656 140.445312 96.640625 140.289062 96.078125 140.101562 C 95.679688 139.96875 95.304688 139.828125 94.960938 139.683594 C 94.914062 139.664062 94.871094 139.644531 94.824219 139.625 C 94.734375 139.585938 94.640625 139.546875 94.550781 139.503906 C 94.503906 139.480469 94.457031 139.460938 94.410156 139.4375 C 94.316406 139.394531 94.226562 139.347656 94.132812 139.300781 C 93.523438 138.976562 92.714844 138.472656 92.761719 137.773438 L 92.761719 137.746094 C 92.824219 137.074219 93.632812 136.757812 94.117188 136.566406 C 95.265625 136.113281 96.03125 136.230469 96.765625 136.34375 C 97.28125 136.421875 97.769531 136.496094 98.414062 136.375 C 99.226562 136.226562 100.011719 135.820312 100.675781 135.441406 C 100.917969 135.304688 101.15625 135.164062 101.390625 135.023438 C 101.707031 134.832031 102.035156 134.636719 102.355469 134.460938 C 102.929688 134.144531 103.40625 133.929688 103.851562 133.785156 L 103.878906 133.773438 C 103.988281 133.742188 104.140625 133.699219 104.328125 133.683594 C 104.34375 133.667969 104.355469 133.648438 104.371094 133.628906 C 104.699219 133.199219 105.003906 132.730469 105.296875 132.273438 C 105.5 131.964844 105.707031 131.644531 105.921875 131.332031 C 107.089844 129.660156 110.054688 125.1875 112.386719 119.800781 C 112.546875 119.429688 112.707031 119.054688 112.871094 118.667969 C 112.101562 116.980469 111.242188 115.289062 110.378906 113.769531 C 109.695312 112.566406 109.03125 111.324219 108.390625 110.125 C 107.804688 109.027344 107.199219 107.890625 106.578125 106.789062 L 106.566406 106.765625 C 106.046875 105.847656 105.457031 104.800781 105.597656 103.441406 C 105.628906 103.167969 105.683594 102.894531 105.769531 102.621094 C 103.835938 101.105469 102.609375 98.761719 102.390625 97.15625 C 102.28125 96.375 102.398438 95.742188 102.730469 95.328125 C 103.164062 94.78125 103.769531 94.792969 104.539062 94.804688 C 104.964844 94.8125 105.445312 94.820312 106.042969 94.753906 C 109.316406 94.390625 111.613281 92.214844 112.984375 90.914062 C 114.332031 89.636719 114.585938 88.910156 115.054688 87.582031 C 115.445312 86.464844 115.984375 84.933594 117.445312 82.421875 L 117.5 82.324219 C 117.542969 82.25 117.589844 82.171875 117.636719 82.097656 L 117.773438 81.867188 C 117.867188 81.710938 117.96875 81.546875 118.070312 81.378906 C 118.097656 81.332031 118.128906 81.285156 118.15625 81.238281 C 118.296875 81.015625 118.4375 80.792969 118.574219 80.574219 C 118.671875 80.417969 118.769531 80.261719 118.867188 80.109375 C 119.90625 78.453125 120.761719 76.921875 120.839844 74.839844 C 120.84375 74.761719 120.84375 74.6875 120.84375 74.613281 C 120.765625 74.511719 120.710938 74.394531 120.683594 74.277344 C 120.625 74.039062 120.664062 73.777344 120.792969 73.550781 C 120.722656 72.855469 120.597656 72.242188 120.511719 71.824219 C 120.050781 69.613281 119.746094 68.15625 118.707031 67.503906 C 118.085938 67.113281 117.472656 67.152344 116.820312 67.1875 C 116.085938 67.230469 115.257812 67.28125 114.515625 66.621094 C 113.992188 66.15625 113.800781 65.554688 113.664062 65.117188 C 113.605469 64.9375 113.519531 64.660156 113.453125 64.617188 C 113.390625 64.636719 113.242188 64.832031 113.15625 64.953125 C 112.917969 65.265625 112.59375 65.691406 112.035156 65.867188 C 111.390625 66.066406 110.847656 65.800781 110.382812 65.464844 C 109.804688 65.933594 108.925781 66.410156 107.351562 67.109375 C 103.417969 68.863281 100.253906 69.78125 100.121094 69.820312 C 96.140625 70.964844 94.144531 71.542969 92.101562 71.683594 C 91.015625 71.761719 90.117188 71.75 89.160156 71.738281 C 87.996094 71.722656 86.675781 71.707031 84.753906 71.851562 C 84.070312 71.902344 83.648438 71.949219 83.277344 71.988281 C 82.753906 72.046875 82.378906 72.089844 81.609375 72.105469 C 81.28125 72.113281 80.996094 72.113281 80.742188 72.113281 C 79.9375 72.113281 79.492188 72.113281 78.863281 72.335938 C 78.417969 72.492188 78.230469 72.632812 78.015625 72.792969 C 77.789062 72.964844 77.53125 73.160156 77.003906 73.34375 C 76.589844 73.488281 75.152344 73.90625 73.707031 73.335938 C 73.082031 73.496094 72.800781 73.671875 72.605469 73.824219 C 72.414062 73.976562 72.316406 74.105469 72.164062 74.300781 C 72.113281 74.371094 72.058594 74.441406 71.996094 74.519531 C 71.605469 75 71.238281 75.34375 70.492188 75.929688 C 68.941406 77.144531 67.585938 78.207031 66.421875 78.886719 C 66.554688 79.191406 66.644531 79.453125 66.589844 79.792969 C 66.535156 80.125 66.367188 80.367188 66.121094 80.609375 C 66.117188 80.660156 66.109375 80.710938 66.105469 80.753906 C 66.097656 80.824219 66.09375 80.886719 66.085938 80.941406 C 65.996094 81.96875 65.796875 82.332031 65.523438 82.5625 C 65.414062 82.65625 65.285156 82.730469 65.148438 82.785156 C 64.796875 83.152344 64.28125 83.207031 63.644531 83.277344 C 63.507812 83.292969 63.359375 83.308594 63.199219 83.328125 C 63.082031 83.339844 63.082031 83.339844 62.9375 83.386719 C 62.667969 83.46875 61.949219 83.691406 59.449219 84.324219 C 55.527344 85.324219 54.117188 85.601562 52.421875 85.03125 C 52.355469 85.015625 52.234375 84.980469 52.09375 84.910156 C 51.679688 84.714844 51.308594 84.339844 49.734375 82.761719 C 49.109375 82.132812 48.289062 81.308594 47.195312 80.226562 L 47.058594 80.089844 C 45.175781 78.222656 43.929688 76.988281 43.214844 74.945312 C 43.03125 74.421875 42.914062 73.9375 42.859375 73.476562 C 42.628906 73.632812 42.402344 73.789062 42.179688 73.941406 C 40.21875 75.28125 38.367188 76.546875 36.859375 79.132812 C 35.804688 80.941406 35.285156 82.734375 34.871094 84.171875 C 34.191406 86.519531 34.296875 87.332031 34.449219 87.90625 C 34.652344 88.667969 35.019531 89.191406 35.285156 89.574219 C 35.566406 89.976562 35.828125 90.355469 35.585938 90.746094 C 35.222656 91.328125 34.417969 91.003906 33.082031 90.46875 C 32.453125 90.214844 31.695312 89.910156 30.855469 89.644531 C 31.667969 90.21875 32.582031 90.890625 33.707031 91.722656 C 39.867188 96.265625 42.957031 98.542969 44.542969 101.257812 C 46.027344 103.804688 45.976562 105.316406 45.875 108.0625 C 45.792969 110.394531 45.679688 113.589844 46.453125 119.148438 C 46.683594 120.804688 46.953125 122.390625 47.195312 123.789062 C 47.929688 128.078125 48.472656 131.246094 47.324219 132.949219 C 47.789062 133.351562 48.300781 133.722656 48.878906 134.074219 C 51.152344 135.457031 53.78125 136.140625 55.355469 136.550781 C 55.96875 136.710938 56.542969 136.835938 57.046875 136.949219 C 58.105469 137.183594 58.867188 137.355469 59.34375 137.65625 C 59.648438 137.851562 59.828125 138.097656 59.875 138.390625 C 59.910156 138.574219 59.886719 138.765625 59.808594 138.960938 C 59.585938 139.515625 58.964844 139.972656 58.449219 140.3125 L 58.390625 140.351562 C 58.359375 140.371094 58.328125 140.390625 58.292969 140.410156 L 58.230469 140.449219 C 57.726562 140.757812 57.21875 140.972656 56.625 141.121094 L 56.566406 141.136719 C 56.484375 141.160156 56.398438 141.175781 56.3125 141.195312 L 56.257812 141.207031 C 56.011719 141.253906 55.75 141.296875 55.453125 141.332031 C 55.386719 141.339844 55.320312 141.347656 55.25 141.355469 C 55.1875 141.363281 55.125 141.367188 55.058594 141.375 C 54.757812 141.402344 54.417969 141.429688 54.015625 141.453125 C 53.636719 141.472656 53.226562 141.492188 52.777344 141.511719 C 51.980469 141.542969 51.253906 141.566406 50.621094 141.578125 C 50.367188 141.585938 50.132812 141.589844 49.90625 141.589844 C 49.792969 141.59375 49.683594 141.59375 49.578125 141.59375 C 48.957031 141.597656 48.429688 141.589844 47.96875 141.570312 C 47.894531 141.566406 47.824219 141.5625 47.753906 141.558594 C 46.617188 141.496094 46.046875 141.363281 45.449219 141.152344 C 45.207031 141.066406 44.96875 140.972656 44.730469 140.871094 L 44.734375 141.066406 L 43.371094 141.144531 L 43.371094 141.214844 L 37.53125 141.214844 L 37.460938 140.898438 C 37.421875 140.734375 37.382812 140.554688 37.34375 140.359375 C 37.273438 140 37.207031 139.632812 37.152344 139.273438 C 37.050781 138.5625 36.980469 137.84375 36.945312 137.132812 C 36.921875 136.707031 36.90625 136.34375 36.894531 136.007812 C 36.066406 135.382812 36.242188 134.019531 36.523438 131.847656 C 36.683594 130.625 36.882812 129.105469 36.945312 127.34375 C 37.042969 124.589844 36.75 123.035156 36.402344 121.535156 C 35.445312 122.824219 34.40625 124.042969 33.394531 125.226562 C 32.371094 126.425781 31.921875 126.769531 31.171875 127.34375 C 30.339844 127.980469 29.082031 128.941406 26.105469 131.8125 L 25.722656 132.179688 C 24.496094 133.367188 23.488281 134.347656 22.386719 135.003906 C 22.476562 135.054688 22.570312 135.101562 22.667969 135.152344 C 23.082031 135.355469 23.53125 135.546875 24.054688 135.765625 C 25.066406 136.195312 26.328125 136.726562 28.085938 137.679688 C 28.644531 137.984375 29.171875 138.285156 29.476562 138.671875 C 29.660156 138.902344 29.75 139.144531 29.734375 139.394531 C 29.722656 140.316406 28.480469 140.851562 28.011719 141.054688 C 25.953125 141.949219 23.800781 141.582031 22.378906 141.335938 C 22 141.273438 21.839844 141.230469 21.667969 141.1875 C 21.488281 141.144531 21.285156 141.09375 20.769531 141 C 20.46875 140.945312 20.101562 140.886719 19.714844 140.828125 C 18.902344 140.707031 17.894531 140.554688 16.945312 140.320312 C 16.753906 140.277344 16.3125 140.167969 15.867188 139.832031 C 15.792969 139.773438 15.722656 139.714844 15.65625 139.652344 L 15.652344 139.675781 C 15.644531 139.714844 15.636719 139.75 15.628906 139.78125 L 15.550781 140.136719 L 13.839844 140.058594 L 13.433594 140.023438 L 13.441406 139.949219 L 8.175781 138.769531 L 8.238281 138.390625 C 8.332031 137.820312 8.433594 137.277344 8.546875 136.734375 C 8.617188 136.414062 8.679688 136.125 8.75 135.839844 C 9.046875 134.605469 9.195312 133.984375 9.535156 133.242188 C 9.671875 132.949219 9.851562 132.554688 10.089844 132.152344 C 9.835938 130.75 11.398438 129.078125 17.417969 124.1875 C 18.867188 123.007812 20.144531 121.992188 21.269531 121.097656 C 26.140625 117.222656 27.964844 115.773438 27.910156 113.832031 C 27.886719 113.09375 27.621094 112.773438 26.222656 111.210938 C 25.757812 110.691406 25.179688 110.046875 24.460938 109.210938 C 22.554688 106.996094 20.78125 104.550781 18.378906 101.085938 C 14.277344 98.96875 12.210938 97.894531 11.167969 96.304688 C 10.628906 95.472656 10.195312 94.484375 9.90625 93.429688 C 9.144531 93.394531 8.59375 93.160156 8.238281 92.722656 C 7.761719 92.140625 7.835938 91.496094 7.972656 90.328125 L 7.980469 90.234375 C 8.347656 87.023438 8.425781 85.488281 8.476562 84.570312 C 8.527344 83.570312 8.546875 83.199219 8.839844 82.183594 C 9.226562 80.84375 10.0625 79.003906 11.324219 76.71875 C 11.355469 76.65625 11.390625 76.597656 11.425781 76.535156 C 10.914062 76.0625 10.125 75.324219 7.332031 72.398438 C 4.726562 69.671875 4.539062 69.410156 4.4375 68.828125 C 4.003906 66.363281 6.324219 64.039062 9.53125 60.820312 C 10.585938 59.765625 11.054688 59.390625 11.507812 59.03125 C 11.9375 58.691406 12.339844 58.371094 13.246094 57.457031 C 14.410156 56.285156 15.375 55.175781 16.222656 54.195312 C 17.96875 52.179688 19.242188 50.707031 20.714844 50.605469 C 21.214844 50.304688 22.324219 50.335938 24.667969 50.433594 C 25.457031 50.46875 26.351562 50.507812 27.3125 50.527344 C 30.09375 50.59375 31.746094 50.488281 32.835938 50.421875 C 33.652344 50.371094 34.164062 50.339844 34.585938 50.421875 C 35.320312 49.695312 35.589844 49.617188 35.804688 49.605469 C 35.957031 49.59375 36.113281 49.617188 36.269531 49.675781 C 36.46875 49.511719 36.644531 49.363281 36.808594 49.226562 C 36.582031 49.101562 36.359375 48.925781 36.144531 48.707031 C 35.433594 47.996094 35.253906 46.941406 35.425781 44.515625 C 35.625 41.679688 35.726562 40.253906 36.507812 39.105469 C 37.53125 37.597656 38.953125 36.953125 39.714844 36.609375 C 41.761719 35.679688 43.675781 35.476562 45.40625 36 C 46.273438 36.261719 46.902344 36.65625 47.414062 36.976562 C 48.089844 37.398438 48.433594 37.597656 48.863281 37.4375 C 49.097656 37.351562 49.273438 37.1875 49.480469 37 C 49.792969 36.710938 50.1875 36.347656 50.882812 36.238281 C 51.351562 36.167969 52.195312 36.128906 52.554688 36.667969 C 52.710938 36.910156 52.746094 37.226562 52.660156 37.605469 C 52.433594 38.582031 51.410156 39.9375 50.382812 40.660156 C 50.570312 41.347656 50.496094 42.050781 50.421875 42.726562 C 50.332031 43.53125 50.25 44.289062 50.59375 44.996094 C 50.683594 45.179688 50.757812 45.363281 50.832031 45.542969 C 50.953125 45.84375 51.070312 46.132812 51.238281 46.375 C 51.265625 46.410156 51.292969 46.449219 51.320312 46.488281 C 51.546875 46.800781 51.828125 47.191406 51.726562 47.691406 C 51.667969 47.984375 51.496094 48.183594 51.402344 48.28125 C 51.085938 48.589844 50.710938 48.617188 50.40625 48.636719 C 50.152344 48.65625 49.953125 48.667969 49.757812 48.816406 C 49.601562 48.9375 49.578125 49.039062 49.503906 49.421875 C 49.433594 49.792969 49.328125 50.359375 48.953125 51.183594 C 48.894531 51.3125 48.828125 51.421875 48.765625 51.527344 C 48.625 51.761719 48.546875 51.898438 48.566406 52.066406 C 48.574219 52.140625 48.59375 52.199219 48.625 52.28125 C 48.675781 52.421875 48.742188 52.597656 48.734375 52.875 C 48.734375 53.015625 48.699219 53.496094 48.390625 53.878906 C 47.964844 54.40625 47.265625 54.433594 46.847656 54.449219 L 46.824219 54.449219 C 45.914062 54.484375 44.78125 54.527344 44.21875 54.6875 C 43.808594 54.800781 43.605469 55.027344 43.390625 55.375 C 43.628906 55.535156 43.832031 55.757812 44.003906 56.039062 C 44.65625 56.238281 45.648438 57.125 47.929688 59.210938 C 49.324219 60.488281 49.816406 61.003906 50.0625 61.339844 C 50.585938 61.574219 50.617188 62.328125 50.660156 63.4375 C 50.679688 63.910156 50.699219 64.445312 50.761719 65.015625 C 51.070312 67.949219 52.238281 70.089844 52.738281 71.003906 C 53.855469 73.042969 55.011719 75.15625 56.75 75.417969 C 57.863281 75.589844 58.753906 74.949219 59.617188 74.332031 C 60.472656 73.71875 61.359375 73.082031 62.34375 73.515625 C 62.414062 73.546875 62.476562 73.582031 62.539062 73.621094 C 63.039062 73.40625 63.402344 73.3125 63.710938 73.417969 C 63.796875 73.449219 63.871094 73.488281 63.941406 73.535156 C 64.515625 73.210938 65.066406 72.816406 65.910156 72.210938 C 67.039062 71.398438 67.566406 71.015625 68.128906 70.414062 C 68.449219 70.074219 68.609375 69.851562 68.78125 69.613281 C 68.984375 69.332031 69.195312 69.042969 69.652344 68.5625 C 70.421875 67.75 70.84375 67.304688 71.539062 66.964844 C 72.601562 66.445312 73.554688 66.503906 74.871094 66.585938 C 75.765625 66.644531 76.332031 66.75 76.933594 67.164062 C 77.019531 67.222656 77.285156 67.417969 77.558594 67.71875 C 78.101562 67.722656 78.8125 67.835938 79.621094 67.960938 C 80.730469 68.136719 82.109375 68.355469 83.457031 68.351562 C 84.597656 68.347656 85.042969 68.195312 86.117188 67.820312 C 87.050781 67.496094 88.453125 67.007812 91.128906 66.347656 C 93.492188 65.761719 94.75 65.558594 95.585938 65.425781 C 96.519531 65.273438 96.910156 65.210938 97.804688 64.777344 C 99.183594 64.105469 99.898438 63.460938 100.65625 62.777344 C 101.46875 62.046875 102.308594 61.289062 103.972656 60.519531 C 104.160156 60.050781 104.730469 59.703125 105.597656 59.175781 C 106.390625 58.695312 107.476562 58.035156 108.699219 57.011719 C 109.65625 56.210938 110.644531 55.386719 111.675781 54.050781 C 112.113281 53.484375 112.425781 53.019531 112.707031 52.605469 C 113.328125 51.679688 113.738281 51.066406 114.707031 50.644531 C 115.257812 50.40625 115.878906 50.285156 116.5625 50.277344 C 116.511719 50.175781 116.464844 50.078125 116.417969 49.988281 C 116.074219 49.277344 115.902344 48.957031 115.417969 48.796875 C 115.1875 48.71875 115.066406 48.734375 114.769531 48.769531 C 114.433594 48.8125 113.921875 48.875 112.988281 48.816406 C 111.789062 48.742188 111.0625 48.695312 110.597656 48.175781 C 110.230469 47.765625 110.261719 47.3125 110.292969 46.871094 C 110.320312 46.441406 110.355469 45.957031 110.097656 45.273438 C 109.933594 44.832031 109.804688 44.535156 109.539062 44.402344 C 109.429688 44.347656 109.328125 44.335938 109.195312 44.320312 C 108.972656 44.292969 108.695312 44.261719 108.378906 44.03125 C 108.199219 43.894531 107.773438 43.527344 107.792969 43.015625 C 107.808594 42.621094 108.074219 42.382812 108.269531 42.207031 C 108.320312 42.164062 108.367188 42.121094 108.414062 42.074219 C 108.621094 41.867188 108.789062 41.234375 108.894531 40.296875 C 108.96875 39.609375 108.960938 39.191406 108.945312 38.917969 C 108.621094 38.679688 108.433594 38.394531 108.367188 38.292969 C 107.269531 36.632812 108.050781 34.1875 108.683594 33.003906 C 110.035156 30.488281 112.515625 29.507812 113.707031 29.035156 C 114.996094 28.523438 118.230469 27.496094 121.882812 28.273438 C 121.761719 28.042969 121.640625 27.8125 121.519531 27.578125 C 121.304688 27.167969 121.128906 26.824219 120.976562 26.527344 C 120.441406 25.484375 120.222656 25.054688 119.695312 24.355469 C 119.34375 23.886719 118.898438 23.375 118.429688 22.828125 C 117.746094 22.035156 117.035156 21.214844 116.554688 20.464844 C 116.511719 20.398438 116.398438 20.171875 115.703125 18.777344 L 115.6875 18.746094 C 115.675781 18.71875 115.664062 18.691406 115.648438 18.667969 C 115.484375 18.453125 115.257812 18.101562 115 17.703125 C 114.84375 17.457031 114.671875 17.195312 114.496094 16.9375 L 114.332031 16.691406 C 114.09375 16.332031 113.84375 15.964844 113.617188 15.585938 C 113.480469 15.351562 113.359375 15.132812 113.222656 14.875 C 113.105469 14.660156 113.082031 14.414062 113.152344 14.179688 C 113.222656 13.949219 113.378906 13.757812 113.597656 13.644531 C 113.808594 13.527344 114.058594 13.503906 114.292969 13.574219 C 114.527344 13.644531 114.71875 13.800781 114.832031 14.015625 C 114.960938 14.253906 115.058594 14.457031 115.144531 14.636719 C 115.382812 15.121094 115.523438 15.414062 115.953125 15.84375 C 116.210938 16.101562 116.472656 16.175781 116.746094 16.253906 L 116.785156 16.265625 C 116.972656 15.789062 116.960938 15.226562 116.953125 15 C 116.953125 14.839844 116.9375 14.726562 116.925781 14.640625 C 116.914062 14.515625 116.898438 14.402344 116.925781 14.265625 C 116.84375 13.585938 116.710938 12.964844 116.523438 12.410156 C 116.300781 11.746094 116.199219 11.191406 116.101562 10.65625 C 116.046875 10.371094 115.996094 10.078125 115.921875 9.773438 C 115.867188 9.539062 115.910156 9.292969 116.039062 9.085938 C 116.167969 8.882812 116.367188 8.738281 116.605469 8.683594 C 116.84375 8.628906 117.089844 8.667969 117.296875 8.796875 C 117.503906 8.925781 117.648438 9.125 117.703125 9.363281 C 117.765625 9.625 117.824219 9.859375 117.878906 10.089844 C 117.960938 10.425781 118.042969 10.746094 118.125 11.125 C 118.121094 11.0625 118.109375 11 118.101562 10.9375 C 118.027344 10.453125 117.992188 10.105469 117.957031 9.765625 C 117.929688 9.476562 117.902344 9.203125 117.851562 8.855469 C 117.78125 8.359375 118.128906 7.898438 118.625 7.828125 C 119.125 7.757812 119.589844 8.101562 119.660156 8.597656 C 119.6875 8.777344 119.714844 8.933594 119.738281 9.085938 C 119.800781 9.4375 119.863281 9.800781 119.902344 10.378906 C 119.90625 9.925781 119.894531 9.589844 119.871094 9.019531 C 119.847656 8.519531 120.238281 8.09375 120.742188 8.070312 C 121.242188 8.046875 121.671875 8.4375 121.695312 8.941406 C 121.703125 9.078125 121.707031 9.207031 121.714844 9.328125 C 121.746094 9.839844 121.777344 10.320312 121.695312 11.386719 C 121.667969 11.746094 121.644531 12.054688 121.625 12.320312 C 121.800781 11.699219 121.824219 11.433594 121.859375 11.046875 C 121.871094 10.925781 121.882812 10.796875 121.902344 10.644531 C 121.957031 10.144531 122.410156 9.785156 122.910156 9.839844 C 123.152344 9.867188 123.371094 9.988281 123.523438 10.179688 C 123.675781 10.367188 123.742188 10.605469 123.714844 10.847656 C 123.707031 10.949219 123.695312 11.042969 123.6875 11.132812 C 123.640625 11.582031 123.601562 11.972656 123.359375 12.898438 C 123.289062 13.164062 123.222656 13.453125 123.15625 13.730469 C 123.019531 14.332031 122.898438 14.859375 122.738281 15.195312 C 122.734375 15.242188 122.730469 15.289062 122.722656 15.335938 C 122.691406 15.519531 122.644531 15.710938 122.589844 15.933594 C 122.542969 16.113281 122.496094 16.316406 122.449219 16.546875 C 122.445312 16.5625 122.109375 18.207031 122.285156 20.382812 C 122.378906 21.5625 122.96875 22.210938 124.542969 23.933594 C 124.9375 24.367188 125.386719 24.859375 125.902344 25.441406 C 128.820312 28.742188 130.28125 30.398438 130.964844 32.480469 C 131.179688 33.132812 131.335938 33.828125 131.429688 34.546875 C 131.601562 34.589844 131.78125 34.621094 131.972656 34.640625 C 133.546875 34.808594 134.566406 34.140625 135.644531 33.433594 C 136.722656 32.726562 137.839844 31.996094 139.433594 32.289062 C 141.179688 32.613281 142.9375 34.09375 144.148438 36.253906 C 145.589844 38.828125 145.929688 41.699219 145.058594 43.933594 C 144.230469 46.0625 142.46875 47.214844 140.765625 48.328125 C 139.84375 48.933594 137.039062 50.769531 132.957031 50.917969 C 132.078125 50.949219 131.191406 50.902344 130.304688 50.769531 C 130.417969 51.257812 130.496094 51.804688 130.585938 52.480469 C 130.742188 53.59375 130.953125 55.121094 131.480469 57.3125 C 131.625 57.910156 131.6875 58.113281 131.835938 58.609375 C 131.96875 59.0625 132.175781 59.746094 132.574219 61.164062 C 133.539062 64.59375 133.96875 66.363281 134.253906 67.53125 C 134.515625 68.613281 134.636719 69.105469 134.925781 69.875 C 135.019531 70.113281 135.113281 70.34375 135.214844 70.574219 C 135.402344 70.667969 135.550781 70.808594 135.632812 70.980469 C 135.710938 71.140625 135.730469 71.328125 135.691406 71.523438 C 136.347656 72.683594 137.058594 73.363281 137.875 74.144531 C 138.792969 75.023438 139.828125 76.015625 140.972656 77.878906 C 141.058594 78.015625 141.140625 78.148438 141.21875 78.285156 C 141.386719 78.578125 141.550781 78.875 141.703125 79.167969 C 143.984375 83.589844 144.214844 88.109375 144.164062 91.554688 C 144.15625 91.890625 144.148438 92.222656 144.140625 92.546875 C 144.121094 93.140625 144.097656 93.710938 144.074219 94.25 L 144.0625 94.5 C 143.890625 98.460938 143.730469 102.207031 141.308594 106.050781 C 139.976562 108.167969 137.324219 111.632812 134.253906 111.632812 C 134.140625 111.632812 134.03125 111.628906 133.921875 111.621094 C 133.300781 111.570312 132.875 111.382812 132.539062 111.207031 C 132.421875 111.144531 132.308594 111.082031 132.191406 111.011719 C 132.058594 110.9375 131.917969 110.855469 131.765625 110.78125 C 131.433594 110.609375 130.957031 110.398438 130.175781 110.269531 C 128.933594 110.070312 128.210938 110.277344 127.292969 110.539062 C 126.601562 110.734375 125.816406 110.957031 124.691406 111.03125 C 124.371094 111.054688 123.871094 111.070312 123.246094 111.039062 C 122.839844 111.730469 122.28125 112.765625 121.757812 114.210938 C 121.4375 115.085938 121.34375 115.515625 121.226562 116.058594 C 121.105469 116.625 120.953125 117.328125 120.496094 118.738281 C 120.375 119.101562 120.265625 119.441406 120.160156 119.769531 C 120.378906 121 120.835938 122.960938 121.753906 125.453125 C 122.1875 126.621094 122.558594 127.390625 122.84375 127.964844 C 123.023438 127.84375 123.257812 127.757812 123.539062 127.796875 C 123.933594 127.851562 124.109375 128.097656 124.28125 128.335938 C 124.382812 128.476562 124.5 128.640625 124.699219 128.835938 C 125.273438 129.402344 125.894531 129.582031 126.445312 129.742188 C 126.988281 129.898438 127.5 130.046875 127.804688 130.523438 C 127.847656 130.589844 127.882812 130.65625 127.914062 130.730469 C 128.019531 130.984375 128.070312 131.261719 128.0625 131.546875 C 128.058594 131.78125 128.019531 132.023438 127.941406 132.292969 C 127.929688 132.339844 127.914062 132.386719 127.898438 132.433594 C 127.828125 132.652344 127.742188 132.859375 127.664062 133.058594 C 127.511719 133.429688 127.34375 133.742188 127.132812 134.035156 C 127.105469 134.070312 127.078125 134.105469 127.054688 134.144531 C 126.949219 134.277344 126.839844 134.410156 126.707031 134.550781 C 126.644531 134.617188 126.582031 134.683594 126.515625 134.753906 C 126.449219 134.820312 126.378906 134.886719 126.308594 134.957031 C 126.089844 135.164062 125.84375 135.382812 125.5625 135.636719 C 125.148438 136.007812 124.679688 136.429688 124.105469 136.984375 C 123.769531 137.304688 123.476562 137.585938 123.21875 137.835938 C 122.46875 138.5625 121.980469 139.0625 121.523438 139.632812 C 121.25 139.972656 121.042969 140.257812 120.863281 140.507812 C 120.398438 141.144531 120.089844 141.5625 119.425781 141.855469 C 119.394531 141.867188 119.367188 141.878906 119.332031 141.894531 C 119.308594 141.902344 119.28125 141.910156 119.253906 141.917969 L 119.207031 141.933594 C 119.179688 141.941406 119.144531 141.949219 119.109375 141.953125 C 119.074219 141.960938 119.039062 141.96875 119 141.972656 C 118.863281 141.992188 118.703125 142 118.511719 142 " fill-opacity="1" fill-rule="nonzero"/></g></svg>