<svg xmlns="http://www.w3.org/2000/svg" xmlns:xlink="http://www.w3.org/1999/xlink" width="200" zoomAndPan="magnify" viewBox="0 0 150 149.999998" height="200" preserveAspectRatio="xMidYMid meet" version="1.0"><defs><clipPath id="98637cad98"><path d="M 4 7.753906 L 146 7.753906 L 146 142.003906 L 4 142.003906 Z M 4 7.753906 " clip-rule="nonzero"/></clipPath></defs><path fill="#4d4d4d" d="M 116.152344 107.917969 C 116.03125 108.574219 115.898438 109.347656 115.710938 110.261719 C 115.46875 109.835938 115.335938 109.628906 115.335938 109.628906 C 114.4375 108.230469 113.71875 107.40625 113.652344 106.007812 C 113.625 105.445312 113.714844 105.011719 113.835938 104.644531 C 114.960938 105.542969 115.109375 106.695312 116.152344 107.917969 Z M 120.726562 45.285156 C 120.679688 45.207031 120.640625 45.128906 120.601562 45.050781 C 120.640625 45.09375 120.675781 45.136719 120.710938 45.179688 C 120.714844 45.214844 120.722656 45.25 120.726562 45.285156 Z M 15.195312 68.359375 C 15.121094 67.597656 16.242188 67.042969 17.46875 66.167969 C 19.285156 64.878906 20.636719 63.914062 21.660156 63.007812 C 20.726562 64.101562 19.429688 65.589844 17.640625 67.9375 C 17.238281 68.464844 16.839844 69 16.445312 69.542969 C 15.496094 68.933594 15.230469 68.710938 15.195312 68.359375 Z M 132.601562 50.585938 C 136.484375 50.445312 139.210938 48.699219 140.183594 48.0625 C 141.847656 46.96875 143.53125 45.863281 144.308594 43.851562 C 145.972656 39.5625 142.667969 33.414062 139.003906 32.734375 C 136.101562 32.191406 134.972656 35.453125 131.59375 35.089844 C 131.277344 35.058594 130.988281 34.996094 130.722656 34.914062 C 130.648438 34.195312 130.5 33.429688 130.246094 32.648438 C 129.589844 30.644531 128.152344 29.007812 125.273438 25.742188 C 122.664062 22.777344 121.703125 22.082031 121.570312 20.4375 C 121.386719 18.160156 121.738281 16.476562 121.738281 16.476562 C 121.84375 15.96875 121.957031 15.597656 122.007812 15.285156 C 122.019531 15.21875 122.023438 15.15625 122.027344 15.097656 L 122.03125 15.089844 C 122.257812 14.671875 122.429688 13.644531 122.652344 12.804688 C 122.9375 11.722656 122.929688 11.40625 122.996094 10.808594 C 123.03125 10.53125 122.832031 10.28125 122.550781 10.246094 C 122.273438 10.21875 122.023438 10.417969 121.992188 10.695312 C 121.917969 11.375 121.949219 11.609375 121.667969 12.570312 C 121.523438 13.0625 121.304688 13.4375 121.273438 13.488281 C 121.1875 13.632812 121.132812 13.703125 121.089844 13.761719 C 121.011719 13.730469 120.933594 13.703125 120.855469 13.679688 L 120.855469 13.65625 C 120.835938 13.265625 120.882812 12.628906 120.980469 11.363281 C 121.078125 10.0625 121.011719 9.671875 120.980469 8.960938 C 120.96875 8.679688 120.730469 8.464844 120.453125 8.476562 C 120.171875 8.488281 119.957031 8.726562 119.96875 9.003906 C 120.007812 9.882812 120.019531 10.230469 119.96875 11.316406 C 119.9375 11.972656 119.746094 12.800781 119.648438 13.492188 C 119.628906 13.488281 119.609375 13.488281 119.589844 13.488281 C 119.558594 13.488281 119.527344 13.484375 119.496094 13.484375 C 119.316406 12.03125 119.226562 11.292969 119.210938 10.785156 C 119.167969 9.703125 119.050781 9.335938 118.953125 8.65625 C 118.914062 8.382812 118.65625 8.191406 118.382812 8.230469 C 118.105469 8.269531 117.914062 8.523438 117.953125 8.800781 C 118.0625 9.570312 118.070312 10 118.203125 10.882812 C 118.339844 11.804688 118.1875 12.847656 118.164062 13.632812 C 118.148438 13.636719 118.132812 13.640625 118.117188 13.644531 C 117.929688 13.238281 117.722656 12.738281 117.597656 12.074219 C 117.390625 10.933594 117.21875 10.355469 117.007812 9.457031 C 116.945312 9.183594 116.671875 9.015625 116.402344 9.078125 C 116.128906 9.144531 115.960938 9.414062 116.023438 9.6875 C 116.230469 10.578125 116.28125 11.300781 116.613281 12.289062 C 116.855469 13.011719 116.976562 13.726562 117.039062 14.304688 C 116.984375 14.46875 117.054688 14.578125 117.0625 15.003906 C 117.070312 15.28125 117.085938 16.042969 116.769531 16.644531 C 116.742188 16.695312 116.714844 16.738281 116.6875 16.78125 C 116.363281 16.621094 115.851562 16.628906 115.371094 16.144531 C 114.722656 15.488281 114.644531 15.082031 114.183594 14.21875 C 114.050781 13.972656 113.746094 13.878906 113.5 14.011719 C 113.253906 14.144531 113.160156 14.449219 113.292969 14.695312 C 113.433594 14.957031 113.546875 15.167969 113.679688 15.390625 C 113.949219 15.847656 114.25 16.285156 114.546875 16.726562 C 115.015625 17.433594 115.457031 18.160156 115.703125 18.472656 C 115.71875 18.503906 115.738281 18.542969 115.757812 18.582031 C 116.296875 19.671875 116.566406 20.214844 116.601562 20.269531 C 117.386719 21.496094 118.839844 22.96875 119.714844 24.140625 C 120.414062 25.074219 120.597656 25.558594 121.570312 27.425781 C 121.851562 27.972656 122.117188 28.46875 122.367188 28.925781 C 118.261719 27.71875 114.53125 29.066406 113.570312 29.449219 C 112.304688 29.949219 110.015625 30.898438 108.769531 33.238281 C 108.085938 34.511719 107.503906 36.714844 108.429688 38.125 C 108.53125 38.277344 108.726562 38.550781 109.058594 38.746094 C 109.082031 39.0625 109.117188 39.523438 109.019531 40.398438 C 108.851562 41.953125 108.550781 42.296875 108.429688 42.417969 C 108.210938 42.640625 107.9375 42.796875 107.925781 43.09375 C 107.914062 43.445312 108.289062 43.722656 108.347656 43.765625 C 108.75 44.0625 109.050781 43.90625 109.441406 44.101562 C 109.859375 44.3125 110.03125 44.746094 110.199219 45.199219 C 110.753906 46.675781 110.09375 47.386719 110.621094 47.976562 C 110.960938 48.359375 111.539062 48.40625 112.726562 48.484375 C 114.476562 48.59375 114.605469 48.265625 115.253906 48.484375 C 116.183594 48.792969 116.273438 49.621094 116.964844 50.792969 C 116.339844 50.726562 115.4375 50.71875 114.578125 51.09375 C 113.332031 51.636719 113.128906 52.542969 111.714844 54.378906 C 110.660156 55.75 109.660156 56.589844 108.683594 57.410156 C 106.074219 59.601562 104.140625 60.121094 104.050781 60.902344 C 100.769531 62.378906 100.726562 63.78125 97.734375 65.242188 C 95.964844 66.105469 96.023438 65.59375 90.996094 66.84375 C 85.269531 68.265625 85.492188 68.859375 83.25 68.863281 C 80.792969 68.871094 78.347656 68.171875 77.179688 68.230469 C 76.894531 67.875 76.574219 67.644531 76.511719 67.601562 C 75.980469 67.234375 75.484375 67.148438 74.65625 67.09375 C 73.375 67.015625 72.503906 66.957031 71.542969 67.433594 C 70.914062 67.742188 70.535156 68.144531 69.773438 68.949219 C 68.941406 69.828125 68.964844 70.042969 68.257812 70.800781 C 67.65625 71.441406 67.101562 71.847656 65.984375 72.65625 C 64.988281 73.371094 64.40625 73.789062 63.707031 74.15625 C 63.628906 74.03125 63.546875 73.960938 63.417969 73.917969 C 63.214844 73.84375 62.875 73.949219 62.324219 74.207031 C 62.246094 74.125 62.144531 74.054688 62.023438 74.003906 C 60.433594 73.296875 59.007812 76.3125 56.550781 75.9375 C 54.617188 75.644531 53.429688 73.464844 52.253906 71.304688 C 51.730469 70.347656 50.550781 68.179688 50.234375 65.160156 C 50.046875 63.371094 50.226562 61.933594 49.726562 61.789062 C 49.714844 61.785156 49.699219 61.78125 49.683594 61.78125 C 49.484375 61.460938 49.023438 60.964844 47.539062 59.597656 C 45.316406 57.554688 44.160156 56.503906 43.632812 56.484375 C 43.476562 56.175781 43.238281 55.855469 42.863281 55.683594 C 42.816406 55.664062 42.769531 55.644531 42.71875 55.628906 C 43.050781 55.042969 43.300781 54.578125 44 54.378906 C 44.597656 54.207031 45.683594 54.164062 46.695312 54.125 C 47.066406 54.109375 47.640625 54.097656 47.960938 53.703125 C 48.199219 53.40625 48.210938 52.992188 48.210938 52.945312 C 48.21875 52.59375 48.074219 52.480469 48.042969 52.1875 C 47.996094 51.746094 48.300781 51.449219 48.464844 51.09375 C 49.191406 49.484375 48.835938 48.992188 49.390625 48.566406 C 49.964844 48.128906 50.570312 48.476562 50.992188 48.0625 C 51.039062 48.015625 51.160156 47.882812 51.203125 47.683594 C 51.277344 47.304688 50.996094 46.984375 50.78125 46.671875 C 50.480469 46.238281 50.335938 45.714844 50.105469 45.238281 C 49.351562 43.6875 50.375 42.015625 49.773438 40.550781 C 51.101562 39.761719 52.542969 37.632812 52.085938 36.945312 C 51.816406 36.535156 50.921875 36.675781 50.824219 36.691406 C 49.828125 36.84375 49.621094 37.597656 48.886719 37.871094 C 47.777344 38.28125 47.078125 37.015625 45.179688 36.4375 C 42.726562 35.691406 40.410156 36.746094 39.789062 37.027344 C 39.050781 37.363281 37.714844 37.972656 36.757812 39.386719 C 36.039062 40.449219 35.941406 41.835938 35.746094 44.609375 C 35.566406 47.171875 35.8125 47.957031 36.335938 48.484375 C 36.449219 48.59375 36.921875 49.089844 37.527344 49.152344 C 37.175781 49.453125 36.753906 49.800781 36.238281 50.226562 C 36.0625 50.113281 35.894531 50.074219 35.746094 50.082031 C 35.652344 50.089844 35.433594 50.125 34.628906 50.949219 C 33.773438 50.65625 32.484375 51.132812 27.242188 51.007812 C 23.777344 50.929688 21.230469 50.648438 20.8125 51.078125 C 18.816406 51.105469 17.105469 54.195312 13.511719 57.832031 C 11.640625 59.726562 11.84375 59.148438 9.804688 61.199219 C 6.574219 64.457031 4.449219 66.648438 4.835938 68.863281 C 4.917969 69.316406 5.058594 69.542969 7.617188 72.234375 C 10.839844 75.625 11.371094 76.0625 11.914062 76.574219 C 11.828125 76.726562 11.742188 76.878906 11.660156 77.035156 C 9.835938 80.355469 9.367188 81.898438 9.214844 82.425781 C 8.667969 84.324219 9.125 83.8125 8.375 90.425781 C 8.242188 91.585938 8.167969 92.152344 8.542969 92.613281 C 8.882812 93.035156 9.449219 93.191406 10.207031 93.175781 C 10.476562 94.289062 10.910156 95.347656 11.492188 96.238281 C 12.476562 97.75 14.523438 98.8125 18.617188 100.9375 C 21.160156 104.621094 22.875 106.976562 24.714844 109.121094 C 27.582031 112.46875 28.214844 112.789062 28.25 114.007812 C 28.328125 116.636719 25.488281 118.296875 17.640625 124.703125 C 11.808594 129.464844 10.140625 131.191406 10.503906 132.4375 C 10.242188 132.863281 10.042969 133.296875 9.890625 133.632812 C 9.570312 134.335938 9.421875 134.941406 9.132812 136.160156 C 9.058594 136.46875 8.992188 136.765625 8.933594 137.042969 C 8.792969 137.695312 8.695312 138.253906 8.628906 138.683594 C 10.367188 139.078125 12.109375 139.46875 13.847656 139.863281 L 13.851562 139.863281 L 13.847656 139.886719 L 13.871094 139.886719 C 14.3125 139.90625 14.753906 139.929688 15.195312 139.949219 C 15.207031 139.90625 15.214844 139.863281 15.226562 139.820312 C 15.273438 139.589844 15.324219 139.363281 15.375 139.132812 C 15.390625 139.070312 15.402344 139.003906 15.417969 138.941406 C 15.539062 139.167969 15.742188 139.480469 16.082031 139.738281 C 16.449219 140.019531 16.816406 140.113281 17.007812 140.160156 C 18.386719 140.496094 19.855469 140.660156 20.796875 140.832031 C 21.816406 141.019531 21.648438 141.039062 22.398438 141.167969 C 23.863281 141.421875 25.882812 141.746094 27.789062 140.917969 C 28.175781 140.746094 29.261719 140.273438 29.261719 139.613281 C 29.273438 139.449219 29.207031 139.296875 29.089844 139.152344 C 28.828125 138.816406 28.300781 138.519531 27.828125 138.265625 C 25.171875 136.820312 23.652344 136.339844 22.441406 135.738281 C 22.070312 135.550781 21.769531 135.375 21.515625 135.207031 C 22.933594 134.546875 24.167969 133.285156 25.765625 131.734375 C 31.378906 126.304688 30.886719 127.664062 33.007812 125.167969 C 34.183594 123.785156 35.429688 122.320312 36.507812 120.773438 C 36.933594 122.597656 37.382812 124.21875 37.261719 127.566406 C 37.089844 132.402344 35.9375 135.304688 37.179688 135.988281 L 37.207031 136.003906 C 37.21875 136.402344 37.238281 136.84375 37.261719 137.335938 C 37.300781 138.117188 37.378906 138.824219 37.46875 139.441406 C 37.527344 139.835938 37.589844 140.195312 37.65625 140.511719 C 37.691406 140.703125 37.730469 140.882812 37.769531 141.042969 L 42.859375 141.042969 L 42.859375 141 L 42.863281 141 L 42.863281 140.996094 C 43.3125 140.96875 43.761719 140.941406 44.210938 140.917969 C 44.207031 140.761719 44.203125 140.609375 44.199219 140.457031 C 44.285156 140.5 44.375 140.542969 44.46875 140.585938 C 44.773438 140.730469 45.109375 140.871094 45.472656 141 C 45.976562 141.179688 46.5 141.324219 47.660156 141.386719 C 47.726562 141.390625 47.796875 141.394531 47.871094 141.398438 C 48.308594 141.417969 48.828125 141.425781 49.457031 141.421875 C 49.5625 141.421875 49.671875 141.417969 49.78125 141.417969 C 50.003906 141.417969 50.238281 141.414062 50.488281 141.40625 C 51.113281 141.394531 51.820312 141.371094 52.632812 141.339844 C 53.078125 141.320312 53.484375 141.300781 53.859375 141.28125 C 54.234375 141.257812 54.574219 141.234375 54.886719 141.203125 C 54.949219 141.199219 55.011719 141.191406 55.070312 141.183594 C 55.140625 141.175781 55.203125 141.171875 55.269531 141.164062 C 55.546875 141.128906 55.800781 141.089844 56.039062 141.042969 C 56.054688 141.039062 56.074219 141.035156 56.089844 141.03125 C 56.171875 141.015625 56.253906 140.996094 56.332031 140.976562 C 56.351562 140.972656 56.367188 140.96875 56.386719 140.960938 C 56.9375 140.820312 57.40625 140.625 57.875 140.335938 C 57.894531 140.324219 57.914062 140.3125 57.933594 140.300781 C 57.964844 140.28125 57.996094 140.261719 58.023438 140.242188 C 58.042969 140.230469 58.0625 140.21875 58.082031 140.207031 C 58.433594 139.972656 59.089844 139.523438 59.285156 139.039062 C 59.332031 138.921875 59.347656 138.804688 59.328125 138.683594 C 59.296875 138.5 59.175781 138.351562 58.980469 138.226562 C 58.351562 137.824219 56.929688 137.644531 55.117188 137.167969 C 53.554688 136.757812 50.867188 136.058594 48.546875 134.640625 C 47.730469 134.144531 47.132812 133.660156 46.660156 133.210938 C 48.421875 131.285156 46.882812 126.21875 45.9375 119.398438 C 44.261719 107.316406 46.738281 106.1875 44.085938 101.625 C 42.542969 98.980469 39.492188 96.71875 33.386719 92.195312 C 31.488281 90.785156 30.070312 89.742188 28.734375 88.894531 C 28.769531 88.898438 28.804688 88.902344 28.839844 88.910156 C 32.097656 89.40625 34.785156 91.277344 35.15625 90.675781 C 35.378906 90.316406 34.386719 89.6875 33.976562 88.152344 C 33.789062 87.433594 33.726562 86.523438 34.398438 84.191406 C 34.8125 82.761719 35.34375 80.90625 36.421875 79.054688 C 38.296875 75.824219 40.640625 74.621094 43.125 72.832031 C 43.109375 73.347656 43.179688 74.023438 43.496094 74.929688 C 44.191406 76.933594 45.402344 78.109375 47.371094 80.066406 C 51.089844 83.773438 51.652344 84.445312 52.140625 84.679688 C 52.28125 84.746094 52.394531 84.773438 52.421875 84.78125 C 53.984375 85.308594 55.238281 85.082031 59.203125 84.066406 C 63.167969 83.050781 62.585938 83.105469 62.992188 83.054688 C 63.894531 82.941406 64.453125 82.960938 64.746094 82.570312 C 64.871094 82.53125 64.992188 82.472656 65.097656 82.382812 C 65.261719 82.246094 65.433594 82.003906 65.519531 81.035156 C 65.53125 80.90625 65.550781 80.738281 65.566406 80.546875 C 65.835938 80.300781 65.984375 80.109375 66.023438 79.855469 C 66.078125 79.53125 65.941406 79.316406 65.742188 78.835938 C 66.9375 78.191406 68.359375 77.074219 70.066406 75.730469 C 70.792969 75.15625 71.132812 74.835938 71.5 74.382812 C 71.75 74.070312 71.871094 73.863281 72.171875 73.621094 C 72.445312 73.40625 72.808594 73.203125 73.519531 73.03125 L 73.558594 73.023438 C 74.980469 73.644531 76.445312 73.15625 76.679688 73.074219 C 77.621094 72.746094 77.535156 72.414062 78.53125 72.066406 C 79.4375 71.746094 80.011719 71.84375 81.394531 71.8125 C 82.679688 71.78125 82.847656 71.683594 84.511719 71.558594 C 87.992188 71.296875 89.449219 71.558594 91.839844 71.390625 C 93.835938 71.25 95.808594 70.679688 99.757812 69.539062 C 99.972656 69.476562 103.046875 68.574219 106.914062 66.84375 C 108.574219 66.101562 109.523438 65.589844 110.082031 65.039062 C 110.648438 65.496094 111.105469 65.742188 111.632812 65.578125 C 112.492188 65.3125 112.65625 64.222656 113.230469 64.316406 C 113.84375 64.417969 113.632812 65.652344 114.496094 66.421875 C 115.691406 67.488281 117.128906 66.324219 118.621094 67.265625 C 119.804688 68.007812 120.121094 69.546875 120.601562 71.855469 C 120.699219 72.328125 120.835938 72.996094 120.90625 73.769531 C 120.78125 73.925781 120.726562 74.121094 120.769531 74.296875 C 120.796875 74.402344 120.859375 74.496094 120.941406 74.574219 C 120.945312 74.707031 120.941406 74.835938 120.9375 74.96875 C 120.859375 77.164062 119.96875 78.75 118.914062 80.441406 L 118.910156 80.449219 C 118.679688 80.820312 118.441406 81.195312 118.199219 81.582031 C 118.171875 81.628906 118.144531 81.671875 118.117188 81.71875 C 118.015625 81.886719 117.914062 82.046875 117.820312 82.207031 C 117.789062 82.265625 117.753906 82.320312 117.722656 82.375 C 117.664062 82.472656 117.605469 82.566406 117.554688 82.660156 C 114.34375 88.171875 115.597656 88.859375 112.980469 91.351562 C 111.5625 92.699219 109.222656 94.929688 105.820312 95.308594 C 104.140625 95.5 103.273438 95.113281 102.789062 95.730469 C 101.839844 96.929688 103.296875 100.6875 105.980469 102.640625 C 105.855469 102.96875 105.769531 103.308594 105.734375 103.648438 C 105.605469 104.894531 106.152344 105.851562 106.664062 106.765625 C 107.957031 109.078125 109.144531 111.449219 110.453125 113.753906 C 110.886719 114.519531 111.90625 116.363281 113.027344 118.859375 C 112.839844 119.300781 112.65625 119.730469 112.472656 120.15625 C 109.976562 125.949219 106.753906 130.675781 105.988281 131.777344 C 105.457031 132.542969 104.992188 133.355469 104.429688 134.09375 C 104.371094 134.171875 104.316406 134.242188 104.265625 134.308594 C 104.25 134.308594 104.234375 134.304688 104.21875 134.304688 C 104.003906 134.304688 103.835938 134.351562 103.734375 134.382812 L 103.714844 134.390625 C 103.238281 134.542969 102.765625 134.773438 102.296875 135.035156 C 101.742188 135.34375 101.1875 135.695312 100.625 136.019531 C 99.855469 136.460938 99.066406 136.847656 98.238281 137 C 96.574219 137.304688 95.855469 136.449219 94.027344 137.167969 C 93.609375 137.335938 92.972656 137.59375 92.933594 138.011719 L 92.933594 138.015625 C 92.898438 138.421875 93.441406 138.832031 94.085938 139.171875 C 94.171875 139.214844 94.261719 139.261719 94.347656 139.300781 C 94.390625 139.324219 94.4375 139.34375 94.480469 139.367188 C 94.570312 139.40625 94.660156 139.445312 94.746094 139.484375 C 94.789062 139.503906 94.835938 139.523438 94.878906 139.539062 C 95.351562 139.738281 95.777344 139.886719 95.964844 139.949219 C 96.546875 140.144531 97.113281 140.292969 97.652344 140.402344 C 98.1875 140.511719 98.695312 140.585938 99.164062 140.632812 C 99.511719 140.667969 99.839844 140.691406 100.136719 140.703125 C 100.632812 140.722656 101.046875 140.71875 101.355469 140.707031 C 103.84375 140.617188 103.898438 140.070312 105.734375 140.285156 C 105.945312 140.308594 106.144531 140.339844 106.328125 140.375 C 106.972656 140.492188 107.460938 140.644531 107.871094 140.714844 C 108.28125 140.78125 108.613281 140.765625 108.9375 140.539062 C 108.976562 140.511719 109.015625 140.480469 109.050781 140.449219 C 109.117188 140.390625 109.179688 140.324219 109.234375 140.253906 C 109.28125 140.199219 109.324219 140.136719 109.363281 140.074219 C 109.386719 140.035156 109.410156 139.996094 109.429688 139.953125 C 109.492188 139.839844 109.546875 139.71875 109.589844 139.589844 C 109.765625 139.089844 109.820312 138.523438 109.863281 138.09375 C 109.949219 137.210938 109.996094 136.726562 109.695312 136.328125 C 109.523438 136.101562 109.304688 135.992188 109.054688 135.949219 C 109.320312 135.46875 109.679688 134.777344 110.367188 133.714844 C 111.113281 132.566406 111.765625 131.742188 113.0625 130.09375 C 114.414062 128.378906 115.128906 127.554688 115.503906 127.101562 C 115.757812 126.792969 115.96875 126.535156 116.148438 126.320312 C 116.1875 126.394531 116.222656 126.472656 116.261719 126.554688 C 117.269531 128.652344 117.773438 129.703125 117.988281 130.558594 C 118.035156 130.726562 118.066406 130.878906 118.097656 131.019531 C 117.984375 131.082031 117.878906 131.160156 117.78125 131.273438 C 117.449219 131.644531 117.574219 131.902344 117.359375 132.875 C 117.113281 133.976562 116.691406 134.820312 116.1875 135.664062 C 116.023438 135.9375 115.851562 136.210938 115.675781 136.496094 C 114.90625 137.714844 114.527344 138.328125 113.90625 138.601562 C 113.25 138.890625 112.652344 138.8125 112.390625 139.273438 C 112.375 139.296875 112.363281 139.320312 112.355469 139.34375 C 112.3125 139.441406 112.289062 139.550781 112.28125 139.660156 C 112.261719 139.9375 112.347656 140.238281 112.476562 140.484375 C 112.5 140.53125 112.527344 140.578125 112.558594 140.621094 L 112.585938 140.660156 C 112.722656 140.855469 112.914062 141.011719 113.363281 141.160156 C 113.433594 141.183594 113.507812 141.207031 113.589844 141.226562 C 113.648438 141.246094 113.714844 141.261719 113.785156 141.277344 C 113.863281 141.296875 113.949219 141.316406 114.039062 141.335938 C 114.316406 141.394531 114.644531 141.449219 115.042969 141.511719 C 115.304688 141.550781 115.597656 141.589844 115.925781 141.632812 C 116.078125 141.652344 116.222656 141.667969 116.359375 141.6875 C 116.699219 141.726562 116.992188 141.757812 117.246094 141.777344 C 117.296875 141.78125 117.34375 141.785156 117.390625 141.789062 C 117.722656 141.816406 117.980469 141.828125 118.179688 141.828125 C 118.382812 141.832031 118.527344 141.820312 118.640625 141.804688 C 118.671875 141.800781 118.699219 141.796875 118.726562 141.792969 C 118.753906 141.785156 118.777344 141.78125 118.796875 141.773438 L 118.832031 141.765625 C 118.851562 141.757812 118.871094 141.753906 118.886719 141.746094 C 118.914062 141.738281 118.9375 141.726562 118.960938 141.71875 C 119.746094 141.371094 119.921875 140.835938 120.894531 139.613281 C 121.351562 139.039062 121.839844 138.535156 122.621094 137.773438 C 122.878906 137.519531 123.171875 137.238281 123.507812 136.914062 C 124.488281 135.96875 125.183594 135.382812 125.703125 134.886719 C 125.773438 134.816406 125.839844 134.753906 125.902344 134.6875 C 125.96875 134.625 126.027344 134.5625 126.085938 134.5 C 126.203125 134.371094 126.308594 134.246094 126.40625 134.117188 C 126.429688 134.085938 126.453125 134.054688 126.476562 134.019531 C 126.664062 133.757812 126.820312 133.472656 126.960938 133.125 C 127.039062 132.933594 127.121094 132.734375 127.1875 132.523438 C 127.199219 132.484375 127.210938 132.441406 127.222656 132.398438 C 127.285156 132.1875 127.328125 131.972656 127.332031 131.757812 C 127.335938 131.539062 127.300781 131.320312 127.210938 131.105469 C 127.191406 131.050781 127.164062 131.003906 127.136719 130.957031 C 126.652344 130.199219 125.292969 130.523438 124.097656 129.335938 C 123.546875 128.792969 123.539062 128.460938 123.167969 128.410156 C 122.867188 128.367188 122.648438 128.558594 122.414062 128.855469 C 122.117188 128.25 121.644531 127.375 121.066406 125.800781 C 120.847656 125.207031 119.910156 122.660156 119.433594 119.933594 C 119.550781 119.578125 119.671875 119.207031 119.800781 118.808594 C 120.683594 116.074219 120.398438 116.101562 121.066406 114.261719 C 121.621094 112.722656 122.207031 111.636719 122.710938 110.796875 C 123.511719 110.855469 124.109375 110.824219 124.347656 110.808594 C 126.890625 110.640625 127.605469 109.671875 129.90625 110.050781 C 130.683594 110.175781 131.199219 110.382812 131.617188 110.597656 C 131.902344 110.746094 132.140625 110.894531 132.390625 111.027344 C 132.734375 111.210938 133.09375 111.355469 133.613281 111.398438 C 137.050781 111.679688 140.039062 106.90625 140.605469 106.007812 C 143.011719 102.164062 143.125 98.402344 143.300781 94.382812 C 143.324219 93.84375 143.347656 93.273438 143.367188 92.683594 C 143.375 92.359375 143.382812 92.03125 143.386719 91.695312 C 143.441406 88.066406 143.144531 83.695312 140.976562 79.476562 C 140.828125 79.1875 140.671875 78.898438 140.503906 78.613281 C 140.429688 78.480469 140.347656 78.347656 140.265625 78.210938 C 138.105469 74.675781 136.371094 74.378906 134.90625 71.683594 C 134.96875 71.53125 134.972656 71.378906 134.917969 71.265625 C 134.863281 71.144531 134.730469 71.046875 134.566406 71 C 134.445312 70.730469 134.324219 70.441406 134.203125 70.128906 C 133.578125 68.476562 133.703125 67.988281 131.84375 61.367188 C 131 58.363281 131.027344 58.640625 130.75 57.492188 C 129.769531 53.414062 129.886719 51.675781 129.402344 50.335938 C 130.421875 50.535156 131.496094 50.628906 132.601562 50.585938 " fill-opacity="1" fill-rule="nonzero"/><g clip-path="url(#98637cad98)"><path fill="#4d4d4d" d="M 121.351562 47.132812 L 120.375 45.492188 C 120.328125 45.410156 120.28125 45.324219 120.234375 45.222656 L 118.941406 42.492188 L 121.105469 45.015625 L 121.117188 45.144531 L 121.121094 45.183594 L 121.128906 45.234375 Z M 15.601562 68.320312 C 15.613281 68.460938 15.789062 68.625 16.34375 68.992188 C 16.65625 68.5625 16.984375 68.128906 17.316406 67.691406 C 17.910156 66.910156 18.453125 66.222656 18.945312 65.613281 C 18.558594 65.890625 18.148438 66.183594 17.707031 66.5 C 17.460938 66.675781 17.21875 66.835938 16.992188 66.992188 C 16.257812 67.484375 15.566406 67.949219 15.601562 68.320312 Z M 16.546875 70.089844 L 16.226562 69.882812 C 15.296875 69.289062 14.847656 68.976562 14.792969 68.398438 C 14.710938 67.546875 15.515625 67.003906 16.539062 66.316406 C 16.761719 66.164062 16.996094 66.007812 17.234375 65.839844 C 19.0625 64.535156 20.382812 63.597656 21.390625 62.703125 L 21.96875 63.273438 L 21.644531 63.648438 C 20.757812 64.6875 19.546875 66.101562 17.960938 68.183594 C 17.550781 68.722656 17.152344 69.257812 16.773438 69.78125 Z M 114.074219 105.445312 C 114.054688 105.617188 114.050781 105.796875 114.058594 105.988281 C 114.109375 107.046875 114.566406 107.730469 115.253906 108.765625 C 115.339844 108.890625 115.425781 109.019531 115.511719 109.15625 C 115.566406 108.867188 115.617188 108.597656 115.664062 108.34375 C 115.683594 108.238281 115.699219 108.132812 115.71875 108.03125 C 115.308594 107.519531 115.035156 107.023438 114.792969 106.578125 C 114.5625 106.160156 114.355469 105.785156 114.074219 105.445312 Z M 115.890625 111.40625 L 115.359375 110.460938 C 115.128906 110.050781 114.996094 109.847656 114.996094 109.847656 C 114.851562 109.625 114.710938 109.414062 114.578125 109.214844 C 113.871094 108.152344 113.308594 107.3125 113.246094 106.027344 C 113.222656 105.492188 113.285156 105.011719 113.453125 104.515625 L 113.636719 103.964844 L 114.089844 104.328125 C 114.789062 104.886719 115.136719 105.519531 115.503906 106.1875 C 115.761719 106.660156 116.03125 107.148438 116.449219 107.640625 L 116.589844 107.78125 L 116.550781 107.992188 C 116.523438 108.148438 116.492188 108.316406 116.460938 108.488281 C 116.363281 109.03125 116.253906 109.644531 116.109375 110.34375 Z M 13.847656 139.863281 L 13.851562 139.863281 Z M 116.238281 125.574219 L 116.628906 126.378906 C 117.648438 128.5 118.160156 129.5625 118.382812 130.457031 C 118.425781 130.617188 118.460938 130.773438 118.492188 130.9375 L 118.554688 131.234375 L 118.289062 131.375 C 118.210938 131.417969 118.144531 131.472656 118.085938 131.542969 C 117.960938 131.683594 117.945312 131.769531 117.898438 132.117188 C 117.871094 132.320312 117.835938 132.59375 117.753906 132.960938 C 117.484375 134.1875 117.007812 135.085938 116.535156 135.875 C 116.378906 136.136719 116.210938 136.398438 116.042969 136.671875 L 115.984375 136.761719 C 115.21875 137.980469 114.796875 138.652344 114.070312 138.972656 C 113.800781 139.089844 113.550781 139.152344 113.328125 139.207031 C 112.96875 139.292969 112.816406 139.34375 112.742188 139.472656 L 112.730469 139.5 C 112.703125 139.558594 112.691406 139.621094 112.683594 139.6875 C 112.675781 139.867188 112.730469 140.09375 112.835938 140.292969 C 112.855469 140.328125 112.875 140.363281 112.898438 140.398438 L 112.914062 140.425781 C 112.988281 140.527344 113.097656 140.644531 113.492188 140.773438 C 113.554688 140.796875 113.621094 140.816406 113.695312 140.835938 C 113.753906 140.851562 113.8125 140.867188 113.878906 140.882812 C 113.953125 140.902344 114.035156 140.917969 114.125 140.9375 C 114.394531 140.996094 114.714844 141.050781 115.101562 141.109375 C 115.363281 141.148438 115.652344 141.1875 115.976562 141.230469 C 116.128906 141.25 116.269531 141.265625 116.40625 141.28125 C 116.730469 141.320312 117.023438 141.351562 117.28125 141.375 L 117.425781 141.386719 C 117.722656 141.410156 117.980469 141.421875 118.183594 141.421875 C 118.347656 141.425781 118.480469 141.417969 118.582031 141.402344 C 118.605469 141.398438 118.628906 141.394531 118.648438 141.394531 C 118.664062 141.390625 118.679688 141.386719 118.691406 141.382812 L 118.714844 141.375 L 118.746094 141.367188 C 118.765625 141.359375 118.78125 141.351562 118.796875 141.34375 C 119.257812 141.140625 119.457031 140.867188 119.898438 140.261719 C 120.074219 140.015625 120.296875 139.714844 120.578125 139.359375 C 121.058594 138.753906 121.566406 138.234375 122.335938 137.484375 C 122.597656 137.226562 122.890625 136.945312 123.226562 136.625 C 123.808594 136.058594 124.300781 135.613281 124.699219 135.257812 C 124.976562 135.007812 125.214844 134.792969 125.421875 134.589844 C 125.492188 134.527344 125.554688 134.464844 125.617188 134.402344 C 125.675781 134.34375 125.734375 134.28125 125.789062 134.222656 C 125.898438 134.101562 125.996094 133.988281 126.082031 133.875 C 126.101562 133.84375 126.125 133.816406 126.144531 133.785156 C 126.316406 133.542969 126.457031 133.285156 126.582031 132.972656 C 126.660156 132.785156 126.738281 132.59375 126.800781 132.398438 C 126.8125 132.363281 126.824219 132.324219 126.835938 132.285156 C 126.894531 132.085938 126.921875 131.910156 126.925781 131.746094 C 126.929688 131.570312 126.898438 131.410156 126.835938 131.261719 C 126.824219 131.230469 126.808594 131.199219 126.792969 131.171875 C 126.660156 130.964844 126.378906 130.875 125.894531 130.734375 C 125.285156 130.558594 124.527344 130.335938 123.808594 129.625 C 123.5625 129.378906 123.414062 129.171875 123.304688 129.019531 C 123.160156 128.816406 123.148438 128.816406 123.113281 128.8125 C 123.050781 128.804688 122.960938 128.816406 122.730469 129.105469 L 122.328125 129.609375 L 122.046875 129.03125 C 122.003906 128.9375 121.953125 128.835938 121.898438 128.730469 C 121.59375 128.121094 121.179688 127.289062 120.683594 125.9375 C 119.71875 123.316406 119.253906 121.265625 119.035156 120.003906 L 119.015625 119.90625 L 119.046875 119.808594 C 119.164062 119.453125 119.285156 119.082031 119.414062 118.683594 C 119.859375 117.304688 120 116.652344 120.125 116.078125 C 120.242188 115.527344 120.347656 115.046875 120.683594 114.121094 C 121.289062 112.449219 121.929688 111.304688 122.363281 110.589844 L 122.492188 110.375 L 122.738281 110.390625 C 123.429688 110.441406 123.980469 110.425781 124.320312 110.402344 C 125.355469 110.332031 126.0625 110.132812 126.742188 109.9375 C 127.675781 109.667969 128.558594 109.417969 129.972656 109.648438 C 130.863281 109.792969 131.417969 110.039062 131.800781 110.238281 C 131.96875 110.324219 132.117188 110.40625 132.257812 110.488281 C 132.367188 110.550781 132.472656 110.613281 132.582031 110.667969 C 132.898438 110.835938 133.199219 110.953125 133.648438 110.992188 C 135.671875 111.15625 138.082031 109.261719 140.257812 105.789062 C 142.5625 102.121094 142.71875 98.476562 142.882812 94.617188 L 142.894531 94.367188 C 142.917969 93.828125 142.941406 93.261719 142.960938 92.667969 C 142.96875 92.351562 142.976562 92.023438 142.984375 91.6875 C 143.03125 88.332031 142.808594 83.933594 140.617188 79.664062 C 140.472656 79.382812 140.316406 79.097656 140.152344 78.816406 C 140.078125 78.683594 140 78.554688 139.921875 78.425781 C 138.832031 76.648438 137.882812 75.730469 136.960938 74.847656 C 136.101562 74.019531 135.289062 73.238281 134.550781 71.878906 L 134.460938 71.710938 L 134.53125 71.535156 C 134.550781 71.480469 134.550781 71.441406 134.550781 71.429688 C 134.550781 71.433594 134.519531 71.410156 134.453125 71.390625 L 134.277344 71.339844 L 134.199219 71.167969 C 134.0625 70.875 133.941406 70.578125 133.824219 70.269531 C 133.511719 69.453125 133.382812 68.910156 133.121094 67.828125 C 132.839844 66.660156 132.414062 64.898438 131.453125 61.476562 C 131.058594 60.066406 130.855469 59.382812 130.71875 58.929688 C 130.566406 58.417969 130.503906 58.207031 130.355469 57.589844 C 129.816406 55.355469 129.605469 53.800781 129.449219 52.667969 C 129.320312 51.726562 129.226562 51.046875 129.019531 50.476562 L 128.777344 49.800781 L 129.480469 49.9375 C 130.511719 50.136719 131.558594 50.21875 132.585938 50.183594 C 136.433594 50.039062 139.085938 48.296875 139.960938 47.722656 C 141.625 46.628906 143.199219 45.59375 143.929688 43.703125 C 144.699219 41.71875 144.371094 39.035156 143.066406 36.699219 C 141.980469 34.746094 140.433594 33.414062 138.929688 33.132812 C 137.660156 32.894531 136.769531 33.480469 135.742188 34.15625 C 134.648438 34.875 133.40625 35.695312 131.550781 35.496094 C 131.21875 35.460938 130.898438 35.394531 130.601562 35.300781 L 130.347656 35.222656 L 130.320312 34.957031 C 130.238281 34.195312 130.082031 33.460938 129.859375 32.773438 C 129.230469 30.847656 127.808594 29.230469 124.972656 26.011719 C 124.460938 25.433594 124.015625 24.941406 123.625 24.507812 C 121.96875 22.683594 121.28125 21.929688 121.164062 20.46875 C 120.980469 18.175781 121.324219 16.46875 121.339844 16.394531 C 121.390625 16.152344 121.441406 15.941406 121.488281 15.757812 C 121.539062 15.550781 121.582031 15.371094 121.605469 15.21875 C 121.617188 15.167969 121.621094 15.117188 121.621094 15.070312 L 121.628906 14.984375 L 121.675781 14.890625 C 121.804688 14.648438 121.929688 14.09375 122.050781 13.558594 C 122.117188 13.273438 122.183594 12.976562 122.257812 12.699219 C 122.488281 11.835938 122.519531 11.492188 122.5625 11.054688 C 122.574219 10.964844 122.582031 10.867188 122.59375 10.761719 C 122.597656 10.726562 122.585938 10.703125 122.574219 10.6875 C 122.5625 10.671875 122.542969 10.65625 122.507812 10.652344 C 122.453125 10.648438 122.402344 10.683594 122.398438 10.738281 C 122.382812 10.882812 122.371094 11.007812 122.359375 11.125 C 122.320312 11.554688 122.289062 11.894531 122.058594 12.6875 C 121.90625 13.195312 121.6875 13.585938 121.625 13.695312 C 121.527344 13.859375 121.464844 13.941406 121.40625 14.015625 L 121.214844 14.253906 L 120.933594 14.140625 C 120.871094 14.113281 120.800781 14.089844 120.734375 14.070312 L 120.460938 13.984375 L 120.449219 13.679688 C 120.429688 13.257812 120.476562 12.613281 120.574219 11.332031 C 120.652344 10.316406 120.625 9.882812 120.59375 9.378906 C 120.589844 9.25 120.582031 9.121094 120.574219 8.976562 C 120.570312 8.921875 120.523438 8.882812 120.46875 8.882812 C 120.414062 8.886719 120.375 8.933594 120.375 8.988281 C 120.414062 9.878906 120.425781 10.246094 120.375 11.335938 C 120.355469 11.792969 120.261719 12.316406 120.171875 12.820312 C 120.125 13.074219 120.082031 13.320312 120.050781 13.546875 L 119.996094 13.914062 L 119.574219 13.894531 C 119.542969 13.890625 119.515625 13.890625 119.488281 13.890625 L 119.136719 13.882812 L 119.09375 13.535156 C 118.917969 12.117188 118.824219 11.335938 118.804688 10.800781 C 118.773438 10.039062 118.707031 9.644531 118.636719 9.230469 C 118.605469 9.066406 118.578125 8.902344 118.550781 8.714844 C 118.542969 8.660156 118.492188 8.621094 118.4375 8.632812 C 118.386719 8.640625 118.347656 8.6875 118.355469 8.742188 C 118.40625 9.109375 118.4375 9.402344 118.464844 9.6875 C 118.5 10.019531 118.535156 10.359375 118.605469 10.824219 C 118.710938 11.53125 118.65625 12.285156 118.609375 12.953125 C 118.59375 13.203125 118.574219 13.433594 118.570312 13.648438 L 118.558594 13.96875 L 117.886719 14.109375 L 117.75 13.8125 C 117.550781 13.382812 117.328125 12.847656 117.199219 12.148438 C 117.054688 11.355469 116.925781 10.839844 116.792969 10.289062 C 116.734375 10.054688 116.675781 9.816406 116.613281 9.546875 C 116.605469 9.515625 116.585938 9.496094 116.570312 9.488281 C 116.554688 9.476562 116.527344 9.46875 116.492188 9.472656 C 116.460938 9.480469 116.441406 9.503906 116.433594 9.519531 C 116.421875 9.535156 116.410156 9.5625 116.417969 9.59375 C 116.496094 9.917969 116.550781 10.222656 116.605469 10.515625 C 116.699219 11.046875 116.792969 11.550781 116.996094 12.160156 C 117.207031 12.789062 117.359375 13.496094 117.441406 14.261719 L 117.453125 14.347656 L 117.425781 14.433594 C 117.421875 14.449219 117.429688 14.507812 117.4375 14.554688 C 117.449219 14.652344 117.464844 14.792969 117.46875 14.996094 C 117.476562 15.308594 117.496094 16.140625 117.128906 16.835938 C 117.097656 16.894531 117.0625 16.949219 117.03125 17.003906 L 116.832031 17.308594 L 116.507812 17.144531 C 116.4375 17.113281 116.339844 17.082031 116.226562 17.050781 C 115.914062 16.960938 115.488281 16.839844 115.082031 16.429688 C 114.558594 15.902344 114.367188 15.503906 114.121094 15 C 114.039062 14.828125 113.945312 14.632812 113.824219 14.410156 C 113.808594 14.378906 113.785156 14.367188 113.765625 14.359375 C 113.746094 14.355469 113.71875 14.351562 113.691406 14.367188 C 113.640625 14.394531 113.625 14.453125 113.648438 14.503906 C 113.785156 14.753906 113.898438 14.964844 114.027344 15.183594 C 114.242188 15.546875 114.484375 15.90625 114.714844 16.253906 L 114.882812 16.5 C 115.058594 16.765625 115.230469 17.03125 115.390625 17.277344 C 115.652344 17.6875 115.878906 18.039062 116.023438 18.21875 L 116.050781 18.253906 L 116.136719 18.4375 C 116.601562 19.367188 116.90625 19.980469 116.949219 20.058594 C 117.390625 20.75 118.078125 21.550781 118.742188 22.324219 C 119.222656 22.882812 119.675781 23.410156 120.042969 23.898438 C 120.609375 24.652344 120.851562 25.136719 121.390625 26.191406 C 121.542969 26.488281 121.714844 26.828125 121.929688 27.238281 C 122.199219 27.757812 122.464844 28.257812 122.722656 28.734375 L 123.1875 29.59375 L 122.25 29.316406 C 118.488281 28.207031 115.03125 29.304688 113.71875 29.824219 C 112.617188 30.261719 110.332031 31.171875 109.125 33.429688 C 108.414062 34.761719 108 36.730469 108.769531 37.898438 C 108.863281 38.042969 109.019531 38.25 109.265625 38.398438 L 109.445312 38.503906 L 109.460938 38.714844 C 109.484375 38.984375 109.527344 39.492188 109.425781 40.441406 C 109.253906 41.980469 108.960938 42.457031 108.722656 42.703125 C 108.660156 42.761719 108.597656 42.820312 108.535156 42.875 C 108.441406 42.960938 108.332031 43.054688 108.332031 43.105469 C 108.328125 43.175781 108.417969 43.3125 108.585938 43.4375 C 108.730469 43.542969 108.835938 43.554688 109.015625 43.578125 C 109.183594 43.597656 109.390625 43.625 109.621094 43.738281 C 110.191406 44.023438 110.40625 44.59375 110.582031 45.054688 C 110.898438 45.902344 110.855469 46.535156 110.824219 46.996094 C 110.792969 47.414062 110.796875 47.5625 110.921875 47.707031 C 111.15625 47.964844 111.707031 48.011719 112.753906 48.078125 C 113.609375 48.132812 114.054688 48.078125 114.375 48.035156 C 114.710938 47.996094 114.980469 47.960938 115.382812 48.097656 C 116.210938 48.375 116.507812 48.992188 116.855469 49.707031 C 116.984375 49.96875 117.128906 50.269531 117.316406 50.585938 L 117.726562 51.285156 L 116.921875 51.199219 C 116.085938 51.109375 115.351562 51.199219 114.742188 51.464844 C 113.992188 51.789062 113.675781 52.269531 113.09375 53.136719 C 112.824219 53.539062 112.488281 54.039062 112.039062 54.625 C 110.953125 56.035156 109.933594 56.890625 108.945312 57.71875 C 107.679688 58.785156 106.566406 59.464844 105.75 59.960938 C 105.125 60.34375 104.476562 60.738281 104.453125 60.949219 L 104.425781 61.175781 L 104.21875 61.273438 C 102.558594 62.015625 101.777344 62.726562 100.949219 63.476562 C 100.183594 64.167969 99.390625 64.886719 97.914062 65.605469 C 96.914062 66.097656 96.433594 66.171875 95.472656 66.328125 C 94.65625 66.460938 93.417969 66.660156 91.09375 67.238281 C 88.464844 67.890625 87.082031 68.375 86.171875 68.691406 C 85.074219 69.074219 84.523438 69.265625 83.25 69.269531 L 83.210938 69.269531 C 81.820312 69.269531 80.421875 69.046875 79.296875 68.871094 C 78.425781 68.730469 77.675781 68.613281 77.203125 68.636719 L 76.996094 68.648438 L 76.863281 68.484375 C 76.613281 68.175781 76.332031 67.972656 76.277344 67.933594 C 75.832031 67.625 75.410156 67.550781 74.632812 67.5 C 73.398438 67.421875 72.585938 67.371094 71.71875 67.796875 C 71.160156 68.074219 70.816406 68.433594 70.066406 69.226562 C 69.648438 69.667969 69.457031 69.9375 69.269531 70.195312 C 69.09375 70.445312 68.90625 70.699219 68.554688 71.078125 C 67.914062 71.761719 67.3125 72.195312 66.21875 72.984375 C 65.222656 73.703125 64.621094 74.136719 63.894531 74.515625 L 63.5625 74.6875 L 63.363281 74.371094 C 63.328125 74.316406 63.316406 74.3125 63.285156 74.300781 C 63.246094 74.292969 63.078125 74.304688 62.496094 74.574219 L 62.238281 74.695312 L 62.039062 74.492188 C 61.988281 74.441406 61.933594 74.40625 61.859375 74.375 C 61.332031 74.140625 60.789062 74.5 59.941406 75.109375 C 59.042969 75.753906 57.925781 76.558594 56.488281 76.339844 C 54.355469 76.015625 53.105469 73.71875 51.898438 71.5 C 51.375 70.542969 50.15625 68.300781 49.828125 65.199219 C 49.765625 64.605469 49.746094 64.054688 49.726562 63.570312 C 49.703125 63.03125 49.675781 62.367188 49.578125 62.175781 L 49.449219 62.160156 L 49.335938 61.996094 C 49.140625 61.679688 48.558594 61.089844 47.261719 59.898438 C 45.589844 58.359375 44.007812 56.90625 43.617188 56.890625 L 43.378906 56.882812 L 43.273438 56.667969 C 43.117188 56.363281 42.921875 56.15625 42.695312 56.054688 C 42.664062 56.039062 42.628906 56.027344 42.597656 56.015625 L 42.121094 55.863281 L 42.390625 55.390625 C 42.726562 54.792969 43.042969 54.226562 43.890625 53.988281 C 44.542969 53.800781 45.679688 53.757812 46.679688 53.71875 L 46.707031 53.71875 C 47.019531 53.707031 47.449219 53.691406 47.644531 53.449219 C 47.765625 53.296875 47.804688 53.046875 47.804688 52.9375 C 47.808594 52.8125 47.785156 52.746094 47.742188 52.636719 C 47.707031 52.535156 47.660156 52.40625 47.640625 52.230469 C 47.589844 51.785156 47.789062 51.453125 47.949219 51.1875 C 48.003906 51.09375 48.058594 51.007812 48.09375 50.925781 C 48.425781 50.1875 48.519531 49.699219 48.585938 49.34375 C 48.667969 48.921875 48.734375 48.554688 49.144531 48.242188 C 49.53125 47.949219 49.917969 47.921875 50.226562 47.898438 C 50.476562 47.882812 50.609375 47.867188 50.707031 47.773438 C 50.726562 47.753906 50.785156 47.6875 50.804688 47.601562 C 50.835938 47.445312 50.6875 47.242188 50.535156 47.027344 C 50.503906 46.984375 50.476562 46.945312 50.445312 46.902344 C 50.226562 46.585938 50.089844 46.246094 49.957031 45.914062 C 49.882812 45.738281 49.816406 45.574219 49.742188 45.417969 C 49.292969 44.496094 49.398438 43.542969 49.492188 42.703125 C 49.570312 41.984375 49.644531 41.304688 49.398438 40.707031 L 49.265625 40.378906 L 49.566406 40.203125 C 50.574219 39.601562 51.5625 38.246094 51.738281 37.476562 C 51.78125 37.289062 51.761719 37.191406 51.746094 37.167969 C 51.695312 37.089844 51.359375 37.019531 50.886719 37.09375 C 50.433594 37.164062 50.191406 37.386719 49.910156 37.648438 C 49.675781 37.863281 49.414062 38.109375 49.027344 38.25 C 48.207031 38.554688 47.554688 38.148438 46.867188 37.714844 C 46.375 37.40625 45.820312 37.058594 45.0625 36.828125 C 43.53125 36.363281 41.8125 36.554688 39.957031 37.398438 C 39.21875 37.734375 37.984375 38.292969 37.09375 39.613281 C 36.4375 40.585938 36.339844 41.9375 36.152344 44.636719 C 35.980469 47.046875 36.195312 47.765625 36.625 48.195312 L 36.636719 48.207031 C 36.960938 48.535156 37.273438 48.71875 37.570312 48.75 L 38.511719 48.847656 L 37.789062 49.460938 C 37.453125 49.75 37.042969 50.089844 36.5 50.539062 L 36.269531 50.730469 L 36.023438 50.570312 C 35.929688 50.511719 35.84375 50.484375 35.773438 50.488281 C 35.765625 50.492188 35.566406 50.566406 34.917969 51.230469 L 34.738281 51.414062 L 34.496094 51.332031 C 34.175781 51.222656 33.691406 51.253906 32.8125 51.308594 C 31.707031 51.375 30.042969 51.480469 27.230469 51.414062 C 26.265625 51.390625 25.371094 51.355469 24.582031 51.320312 C 23 51.253906 21.371094 51.183594 21.089844 51.371094 L 20.972656 51.492188 L 20.816406 51.484375 C 19.65625 51.5 18.460938 52.886719 16.808594 54.804688 C 15.949219 55.796875 14.980469 56.921875 13.800781 58.117188 C 12.863281 59.066406 12.421875 59.417969 11.996094 59.757812 C 11.5625 60.101562 11.113281 60.460938 10.09375 61.484375 C 6.761719 64.839844 4.894531 66.835938 5.238281 68.792969 C 5.292969 69.117188 5.429688 69.34375 7.910156 71.953125 C 10.734375 74.925781 11.488281 75.625 11.988281 76.085938 C 12.058594 76.15625 12.125 76.214844 12.191406 76.28125 L 12.421875 76.496094 L 12.25 76.804688 C 12.171875 76.945312 12.09375 77.085938 12.015625 77.230469 C 10.785156 79.46875 9.976562 81.253906 9.605469 82.535156 C 9.339844 83.464844 9.324219 83.761719 9.273438 84.746094 C 9.226562 85.671875 9.144531 87.230469 8.777344 90.472656 L 8.765625 90.566406 C 8.640625 91.660156 8.613281 92.054688 8.859375 92.359375 C 9.09375 92.648438 9.535156 92.785156 10.199219 92.769531 L 10.527344 92.765625 L 10.601562 93.082031 C 10.863281 94.167969 11.289062 95.179688 11.832031 96.015625 C 12.761719 97.441406 14.78125 98.488281 18.804688 100.574219 L 18.894531 100.621094 L 18.949219 100.707031 C 21.363281 104.195312 23.128906 106.648438 25.023438 108.859375 C 25.734375 109.6875 26.308594 110.335938 26.769531 110.851562 C 28.195312 112.449219 28.625 112.933594 28.65625 113.996094 C 28.722656 116.34375 26.820312 117.863281 21.730469 121.929688 C 20.609375 122.824219 19.339844 123.839844 17.894531 125.019531 C 12.898438 129.097656 10.574219 131.230469 10.894531 132.324219 L 10.945312 132.496094 L 10.851562 132.648438 C 10.597656 133.0625 10.402344 133.488281 10.261719 133.800781 C 9.953125 134.46875 9.8125 135.066406 9.527344 136.253906 C 9.460938 136.53125 9.394531 136.816406 9.332031 137.128906 C 9.242188 137.539062 9.164062 137.949219 9.089844 138.371094 L 13.921875 139.464844 L 14.113281 139.492188 L 14.875 139.527344 L 15.261719 137.761719 L 15.777344 138.75 C 15.917969 139.019531 16.101562 139.242188 16.328125 139.414062 C 16.636719 139.648438 16.941406 139.722656 17.105469 139.765625 C 18.015625 139.988281 18.960938 140.132812 19.796875 140.257812 C 20.1875 140.320312 20.558594 140.375 20.871094 140.433594 C 21.410156 140.53125 21.625 140.585938 21.816406 140.632812 C 21.980469 140.675781 22.121094 140.710938 22.464844 140.769531 C 23.792969 140.996094 25.792969 141.34375 27.625 140.542969 C 28.695312 140.078125 28.855469 139.757812 28.855469 139.609375 L 28.855469 139.582031 C 28.859375 139.527344 28.8125 139.457031 28.773438 139.40625 C 28.546875 139.117188 27.976562 138.804688 27.636719 138.621094 C 25.914062 137.683594 24.679688 137.160156 23.683594 136.738281 C 23.152344 136.511719 22.691406 136.316406 22.257812 136.101562 C 21.890625 135.917969 21.574219 135.734375 21.289062 135.542969 L 20.691406 135.140625 L 21.34375 134.835938 C 22.585938 134.261719 23.695312 133.183594 25.101562 131.816406 L 25.484375 131.445312 C 28.484375 128.539062 29.761719 127.558594 30.605469 126.910156 C 31.332031 126.347656 31.734375 126.039062 32.699219 124.902344 C 33.882812 123.511719 35.109375 122.074219 36.175781 120.539062 L 36.699219 119.792969 L 36.988281 121.039062 C 37.394531 122.765625 37.78125 124.398438 37.667969 127.582031 C 37.605469 129.382812 37.40625 130.929688 37.246094 132.167969 C 37.007812 134.007812 36.835938 135.335938 37.375 135.632812 L 37.589844 135.742188 L 37.613281 135.988281 C 37.625 136.378906 37.644531 136.804688 37.667969 137.316406 C 37.703125 138.003906 37.769531 138.699219 37.871094 139.382812 C 37.921875 139.730469 37.984375 140.085938 38.054688 140.433594 C 38.066406 140.503906 38.082031 140.570312 38.09375 140.636719 L 42.421875 140.636719 L 42.417969 140.621094 L 42.453125 140.617188 L 42.449219 140.59375 L 42.839844 140.589844 L 43.792969 140.535156 L 43.773438 139.789062 L 44.378906 140.09375 C 44.464844 140.136719 44.550781 140.175781 44.640625 140.21875 C 44.957031 140.367188 45.285156 140.503906 45.609375 140.617188 C 46.046875 140.773438 46.539062 140.917969 47.683594 140.980469 C 47.75 140.984375 47.816406 140.988281 47.886719 140.992188 C 48.335938 141.011719 48.847656 141.019531 49.453125 141.015625 C 49.558594 141.015625 49.667969 141.015625 49.777344 141.011719 C 50 141.011719 50.230469 141.007812 50.480469 141 C 51.105469 140.988281 51.824219 140.964844 52.617188 140.933594 C 53.058594 140.914062 53.464844 140.894531 53.835938 140.875 C 54.226562 140.851562 54.558594 140.828125 54.847656 140.800781 C 54.910156 140.792969 54.96875 140.789062 55.027344 140.78125 C 55.09375 140.773438 55.15625 140.765625 55.222656 140.757812 C 55.496094 140.726562 55.734375 140.6875 55.960938 140.644531 L 56.007812 140.632812 C 56.085938 140.617188 56.160156 140.601562 56.234375 140.582031 L 56.285156 140.566406 C 56.792969 140.441406 57.230469 140.253906 57.664062 139.992188 L 57.71875 139.957031 C 57.746094 139.9375 57.773438 139.921875 57.800781 139.902344 L 57.855469 139.867188 C 58.078125 139.71875 58.753906 139.277344 58.90625 138.890625 C 58.925781 138.835938 58.933594 138.789062 58.929688 138.753906 C 58.925781 138.730469 58.914062 138.667969 58.761719 138.566406 C 58.40625 138.34375 57.667969 138.175781 56.730469 137.96875 C 56.21875 137.855469 55.640625 137.726562 55.015625 137.5625 C 53.402344 137.140625 50.707031 136.433594 48.335938 134.988281 C 47.59375 134.535156 46.953125 134.050781 46.378906 133.507812 L 46.089844 133.234375 L 46.359375 132.9375 C 47.558594 131.628906 46.996094 128.316406 46.28125 124.128906 C 46.039062 122.722656 45.765625 121.125 45.535156 119.453125 C 44.753906 113.816406 44.871094 110.574219 44.953125 108.210938 C 45.050781 105.523438 45.097656 104.175781 43.734375 101.832031 C 42.234375 99.253906 39.199219 97.003906 33.148438 92.519531 C 31.121094 91.019531 29.800781 90.050781 28.515625 89.238281 L 26.921875 88.226562 L 28.902344 88.507812 C 30.613281 88.769531 32.171875 89.398438 33.308594 89.859375 C 33.773438 90.046875 34.320312 90.269531 34.652344 90.355469 C 34.613281 90.296875 34.574219 90.234375 34.535156 90.179688 C 34.253906 89.773438 33.824219 89.152344 33.585938 88.253906 C 33.355469 87.386719 33.34375 86.382812 34.007812 84.082031 C 34.414062 82.671875 34.96875 80.746094 36.070312 78.851562 C 37.664062 76.101562 39.585938 74.785156 41.617188 73.386719 C 42.03125 73.105469 42.460938 72.808594 42.886719 72.503906 L 43.554688 72.019531 L 43.53125 72.84375 C 43.511719 73.429688 43.625 74.070312 43.878906 74.792969 C 44.527344 76.664062 45.65625 77.785156 47.519531 79.640625 L 47.65625 79.777344 C 48.746094 80.863281 49.566406 81.691406 50.191406 82.320312 C 51.605469 83.746094 52.035156 84.175781 52.320312 84.316406 C 52.398438 84.351562 52.464844 84.371094 52.507812 84.382812 C 52.527344 84.390625 52.542969 84.394531 52.554688 84.398438 C 54 84.886719 55.160156 84.683594 59.101562 83.671875 C 61.574219 83.039062 62.277344 82.824219 62.542969 82.742188 C 62.722656 82.6875 62.761719 82.675781 62.941406 82.652344 C 63.105469 82.632812 63.257812 82.617188 63.398438 82.601562 C 63.984375 82.539062 64.292969 82.496094 64.421875 82.324219 L 64.5 82.21875 L 64.628906 82.179688 C 64.710938 82.15625 64.78125 82.121094 64.835938 82.070312 C 64.886719 82.03125 65.035156 81.902344 65.113281 81 C 65.121094 80.941406 65.125 80.875 65.132812 80.800781 C 65.144531 80.714844 65.152344 80.617188 65.164062 80.511719 L 65.175781 80.355469 L 65.292969 80.25 C 65.542969 80.019531 65.605469 79.902344 65.625 79.789062 C 65.648438 79.648438 65.605469 79.539062 65.464844 79.21875 C 65.433594 79.148438 65.402344 79.074219 65.367188 78.992188 L 65.226562 78.652344 L 65.550781 78.476562 C 66.714844 77.851562 68.152344 76.71875 69.816406 75.410156 C 70.515625 74.859375 70.832031 74.558594 71.183594 74.125 C 71.242188 74.054688 71.292969 73.984375 71.339844 73.921875 C 71.5 73.714844 71.652344 73.519531 71.921875 73.304688 C 72.304688 72.996094 72.757812 72.796875 73.425781 72.636719 L 73.589844 72.601562 L 73.71875 72.652344 C 74.964844 73.195312 76.292969 72.78125 76.546875 72.691406 C 76.949219 72.550781 77.125 72.417969 77.328125 72.261719 C 77.566406 72.082031 77.832031 71.878906 78.398438 71.679688 C 79.15625 71.414062 79.707031 71.414062 80.539062 71.414062 C 80.785156 71.414062 81.066406 71.414062 81.386719 71.40625 C 82.117188 71.390625 82.480469 71.351562 82.980469 71.296875 C 83.335938 71.253906 83.78125 71.207031 84.480469 71.152344 C 86.429688 71.007812 87.765625 71.023438 88.949219 71.039062 C 89.882812 71.046875 90.765625 71.058594 91.8125 70.984375 C 93.761719 70.847656 95.726562 70.28125 99.640625 69.148438 C 99.773438 69.109375 102.875 68.207031 106.75 66.472656 C 108.460938 65.707031 109.316406 65.222656 109.796875 64.746094 L 110.054688 64.492188 L 110.339844 64.722656 C 110.890625 65.167969 111.195312 65.289062 111.511719 65.191406 C 111.816406 65.097656 112.019531 64.824219 112.21875 64.5625 C 112.464844 64.238281 112.769531 63.828125 113.296875 63.914062 C 113.84375 64.003906 114.007812 64.519531 114.148438 64.972656 C 114.273438 65.363281 114.410156 65.800781 114.765625 66.117188 C 115.253906 66.554688 115.792969 66.523438 116.476562 66.480469 C 117.1875 66.441406 118 66.390625 118.839844 66.921875 C 120.164062 67.757812 120.496094 69.355469 121 71.773438 C 121.09375 72.234375 121.238281 72.933594 121.308594 73.734375 L 121.324219 73.894531 L 121.222656 74.019531 C 121.167969 74.089844 121.152344 74.160156 121.164062 74.199219 C 121.164062 74.207031 121.175781 74.238281 121.21875 74.277344 L 121.347656 74.398438 L 121.347656 74.574219 C 121.351562 74.707031 121.347656 74.847656 121.34375 74.984375 C 121.261719 77.269531 120.351562 78.90625 119.261719 80.65625 C 119.15625 80.820312 119.058594 80.976562 118.960938 81.132812 C 118.824219 81.351562 118.683594 81.570312 118.546875 81.796875 C 118.515625 81.84375 118.488281 81.886719 118.460938 81.929688 C 118.382812 82.0625 118.304688 82.191406 118.226562 82.316406 L 118.226562 82.320312 L 118.035156 82.644531 C 118 82.699219 117.96875 82.753906 117.9375 82.808594 L 117.902344 82.863281 C 116.445312 85.371094 115.914062 86.886719 115.527344 87.992188 C 115.054688 89.34375 114.742188 90.234375 113.257812 91.644531 C 111.816406 93.019531 109.402344 95.316406 105.863281 95.714844 C 105.214844 95.785156 104.683594 95.777344 104.257812 95.769531 C 103.539062 95.757812 103.273438 95.773438 103.105469 95.984375 C 102.921875 96.21875 102.859375 96.652344 102.933594 97.203125 C 103.140625 98.703125 104.335938 100.941406 106.21875 102.3125 L 106.46875 102.492188 L 106.359375 102.785156 C 106.246094 103.085938 106.171875 103.390625 106.140625 103.691406 C 106.027344 104.796875 106.5 105.644531 107.003906 106.542969 L 107.015625 106.566406 C 107.640625 107.675781 108.246094 108.820312 108.832031 109.925781 C 109.46875 111.121094 110.128906 112.359375 110.804688 113.554688 C 111.707031 115.148438 112.605469 116.925781 113.398438 118.691406 L 113.46875 118.851562 L 113.402344 119.015625 C 113.214844 119.457031 113.03125 119.890625 112.847656 120.316406 C 110.492188 125.78125 107.5 130.316406 106.320312 132.011719 C 106.113281 132.308594 105.910156 132.625 105.714844 132.933594 C 105.410156 133.398438 105.101562 133.882812 104.753906 134.339844 C 104.695312 134.417969 104.640625 134.488281 104.585938 134.558594 L 104.457031 134.722656 L 104.210938 134.710938 C 104.066406 134.714844 103.949219 134.742188 103.855469 134.769531 L 103.828125 134.777344 C 103.445312 134.902344 103.015625 135.101562 102.492188 135.390625 C 102.183594 135.5625 101.863281 135.753906 101.554688 135.941406 C 101.3125 136.085938 101.070312 136.230469 100.828125 136.371094 C 100.105469 136.785156 99.242188 137.230469 98.3125 137.398438 C 97.535156 137.542969 96.929688 137.449219 96.398438 137.371094 C 95.714844 137.265625 95.121094 137.175781 94.179688 137.546875 C 93.476562 137.824219 93.351562 137.976562 93.339844 138.042969 L 93.339844 138.050781 C 93.332031 138.117188 93.492188 138.398438 94.277344 138.8125 C 94.359375 138.855469 94.441406 138.894531 94.523438 138.9375 C 94.566406 138.957031 94.609375 138.976562 94.652344 138.996094 C 94.738281 139.035156 94.824219 139.074219 94.90625 139.113281 C 94.949219 139.128906 94.992188 139.148438 95.035156 139.164062 C 95.359375 139.300781 95.714844 139.4375 96.09375 139.5625 C 96.621094 139.742188 97.171875 139.890625 97.734375 140.003906 C 98.214844 140.101562 98.707031 140.179688 99.203125 140.230469 C 99.519531 140.261719 99.835938 140.285156 100.152344 140.296875 C 100.550781 140.3125 100.941406 140.316406 101.34375 140.300781 C 102.457031 140.261719 103.054688 140.128906 103.578125 140.011719 C 104.195312 139.875 104.726562 139.757812 105.78125 139.882812 C 105.988281 139.90625 106.191406 139.9375 106.402344 139.972656 C 106.753906 140.039062 107.058594 140.113281 107.328125 140.179688 C 107.5625 140.234375 107.761719 140.28125 107.9375 140.3125 C 108.296875 140.371094 108.503906 140.34375 108.703125 140.203125 C 108.730469 140.183594 108.757812 140.164062 108.785156 140.140625 C 108.828125 140.101562 108.875 140.054688 108.917969 140 C 108.953125 139.960938 108.984375 139.914062 109.015625 139.859375 C 109.035156 139.828125 109.054688 139.796875 109.074219 139.765625 C 109.125 139.667969 109.167969 139.566406 109.207031 139.457031 C 109.363281 139.003906 109.417969 138.484375 109.457031 138.066406 C 109.542969 137.195312 109.570312 136.835938 109.371094 136.570312 C 109.277344 136.445312 109.160156 136.378906 108.980469 136.347656 L 108.421875 136.246094 L 108.699219 135.75 C 108.746094 135.667969 108.792969 135.582031 108.84375 135.488281 C 109.097656 135.023438 109.449219 134.386719 110.027344 133.496094 C 110.785156 132.328125 111.4375 131.496094 112.746094 129.84375 C 113.820312 128.480469 114.503906 127.664062 114.910156 127.175781 C 115.019531 127.046875 115.109375 126.9375 115.1875 126.84375 C 115.441406 126.535156 115.65625 126.277344 115.835938 126.058594 Z M 118.207031 142.234375 L 118.179688 142.234375 C 117.953125 142.234375 117.683594 142.222656 117.359375 142.195312 L 117.210938 142.183594 C 116.945312 142.160156 116.640625 142.128906 116.3125 142.089844 C 116.171875 142.074219 116.027344 142.054688 115.875 142.035156 C 115.542969 141.992188 115.246094 141.953125 114.980469 141.914062 C 114.578125 141.851562 114.246094 141.792969 113.957031 141.734375 C 113.863281 141.714844 113.773438 141.691406 113.6875 141.671875 C 113.613281 141.65625 113.546875 141.636719 113.480469 141.617188 C 113.394531 141.59375 113.3125 141.570312 113.238281 141.546875 C 112.757812 141.390625 112.464844 141.195312 112.253906 140.894531 C 112.242188 140.878906 112.230469 140.863281 112.21875 140.84375 C 112.183594 140.792969 112.148438 140.734375 112.117188 140.671875 C 111.9375 140.335938 111.855469 139.96875 111.875 139.632812 C 111.886719 139.472656 111.921875 139.316406 111.984375 139.179688 C 111.996094 139.148438 112.015625 139.113281 112.035156 139.078125 C 112.289062 138.625 112.738281 138.515625 113.132812 138.417969 C 113.332031 138.367188 113.539062 138.316406 113.742188 138.230469 C 114.242188 138.011719 114.59375 137.449219 115.300781 136.328125 L 115.355469 136.238281 C 115.523438 135.972656 115.683594 135.714844 115.839844 135.457031 C 116.277344 134.726562 116.714844 133.898438 116.960938 132.785156 C 117.035156 132.453125 117.066406 132.210938 117.09375 132.011719 C 117.144531 131.617188 117.183594 131.335938 117.476562 131.003906 C 117.527344 130.945312 117.582031 130.890625 117.640625 130.839844 C 117.628906 130.78125 117.613281 130.722656 117.597656 130.65625 C 117.402344 129.886719 116.945312 128.917969 116.058594 127.066406 C 115.980469 127.15625 115.902344 127.253906 115.816406 127.359375 C 115.738281 127.453125 115.644531 127.566406 115.535156 127.699219 C 115.128906 128.179688 114.449219 128.992188 113.382812 130.34375 C 112.09375 131.980469 111.445312 132.800781 110.707031 133.9375 C 110.203125 134.714844 109.878906 135.296875 109.636719 135.734375 C 109.78125 135.820312 109.910156 135.9375 110.019531 136.082031 C 110.417969 136.609375 110.355469 137.214844 110.265625 138.136719 C 110.222656 138.582031 110.164062 139.179688 109.972656 139.722656 C 109.921875 139.871094 109.859375 140.011719 109.789062 140.144531 C 109.765625 140.191406 109.734375 140.242188 109.707031 140.289062 C 109.65625 140.371094 109.605469 140.441406 109.550781 140.511719 C 109.476562 140.601562 109.398438 140.683594 109.316406 140.753906 C 109.269531 140.796875 109.21875 140.835938 109.167969 140.871094 C 108.6875 141.207031 108.210938 141.179688 107.804688 141.113281 C 107.597656 141.078125 107.375 141.023438 107.136719 140.96875 C 106.878906 140.902344 106.585938 140.832031 106.253906 140.773438 C 106.0625 140.738281 105.878906 140.710938 105.6875 140.6875 C 104.769531 140.582031 104.34375 140.675781 103.753906 140.804688 C 103.222656 140.921875 102.558594 141.070312 101.371094 141.113281 C 100.949219 141.128906 100.539062 141.125 100.121094 141.109375 C 99.789062 141.09375 99.453125 141.070312 99.121094 141.039062 C 98.597656 140.984375 98.074219 140.902344 97.570312 140.800781 C 96.976562 140.675781 96.394531 140.519531 95.835938 140.332031 C 95.4375 140.199219 95.0625 140.058594 94.71875 139.914062 C 94.675781 139.894531 94.628906 139.875 94.585938 139.855469 C 94.492188 139.816406 94.402344 139.777344 94.3125 139.734375 C 94.265625 139.710938 94.21875 139.691406 94.171875 139.667969 C 94.078125 139.625 93.988281 139.578125 93.898438 139.53125 C 93.285156 139.207031 92.484375 138.699219 92.527344 138 L 92.53125 137.972656 C 92.589844 137.300781 93.398438 136.980469 93.878906 136.789062 C 95.027344 136.339844 95.789062 136.453125 96.523438 136.566406 C 97.035156 136.644531 97.519531 136.71875 98.167969 136.601562 C 98.976562 136.453125 99.761719 136.046875 100.421875 135.664062 C 100.660156 135.527344 100.898438 135.386719 101.136719 135.242188 C 101.449219 135.054688 101.777344 134.859375 102.097656 134.679688 C 102.667969 134.363281 103.144531 134.148438 103.589844 134.003906 L 103.617188 133.996094 C 103.722656 133.960938 103.875 133.917969 104.0625 133.90625 C 104.078125 133.886719 104.09375 133.867188 104.105469 133.847656 C 104.433594 133.417969 104.738281 132.949219 105.03125 132.492188 C 105.230469 132.179688 105.4375 131.859375 105.65625 131.546875 C 106.820312 129.871094 109.777344 125.390625 112.101562 119.996094 C 112.261719 119.625 112.421875 119.246094 112.582031 118.863281 C 111.820312 117.171875 110.960938 115.476562 110.097656 113.953125 C 109.414062 112.75 108.753906 111.507812 108.117188 110.304688 C 107.53125 109.203125 106.925781 108.066406 106.308594 106.960938 L 106.296875 106.941406 C 105.777344 106.015625 105.191406 104.972656 105.332031 103.605469 C 105.359375 103.335938 105.417969 103.058594 105.5 102.785156 C 103.570312 101.269531 102.351562 98.917969 102.128906 97.3125 C 102.023438 96.527344 102.140625 95.894531 102.46875 95.480469 C 102.902344 94.933594 103.507812 94.945312 104.273438 94.957031 C 104.699219 94.964844 105.179688 94.972656 105.773438 94.90625 C 109.039062 94.542969 111.328125 92.359375 112.699219 91.058594 C 114.039062 89.78125 114.296875 89.050781 114.761719 87.722656 C 115.152344 86.601562 115.691406 85.070312 117.148438 82.550781 L 117.203125 82.457031 C 117.246094 82.378906 117.292969 82.304688 117.339844 82.226562 L 117.472656 81.996094 C 117.566406 81.839844 117.667969 81.675781 117.769531 81.507812 C 117.796875 81.460938 117.828125 81.414062 117.855469 81.363281 C 117.996094 81.140625 118.136719 80.917969 118.273438 80.699219 C 118.371094 80.542969 118.46875 80.386719 118.566406 80.234375 C 119.597656 78.574219 120.457031 77.039062 120.53125 74.957031 C 120.535156 74.878906 120.535156 74.804688 120.539062 74.730469 C 120.460938 74.625 120.40625 74.511719 120.375 74.394531 C 120.316406 74.15625 120.359375 73.890625 120.488281 73.664062 C 120.417969 72.96875 120.289062 72.351562 120.203125 71.9375 C 119.746094 69.722656 119.441406 68.261719 118.40625 67.609375 C 117.789062 67.21875 117.171875 67.253906 116.523438 67.292969 C 115.792969 67.335938 114.964844 67.382812 114.222656 66.726562 C 113.703125 66.257812 113.511719 65.65625 113.375 65.21875 C 113.316406 65.035156 113.230469 64.757812 113.167969 64.714844 C 113.105469 64.734375 112.957031 64.933594 112.867188 65.050781 C 112.632812 65.367188 112.308594 65.792969 111.75 65.96875 C 111.105469 66.167969 110.566406 65.902344 110.101562 65.566406 C 109.527344 66.035156 108.648438 66.511719 107.082031 67.214844 C 103.15625 68.96875 100 69.890625 99.867188 69.929688 C 95.898438 71.078125 93.90625 71.652344 91.867188 71.796875 C 90.789062 71.871094 89.890625 71.859375 88.9375 71.847656 C 87.773438 71.835938 86.457031 71.820312 84.542969 71.964844 C 83.859375 72.015625 83.4375 72.0625 83.070312 72.101562 C 82.546875 72.160156 82.171875 72.199219 81.402344 72.21875 C 81.078125 72.226562 80.792969 72.226562 80.539062 72.226562 C 79.738281 72.226562 79.292969 72.226562 78.667969 72.449219 C 78.222656 72.605469 78.035156 72.746094 77.820312 72.90625 C 77.59375 73.082031 77.335938 73.273438 76.8125 73.457031 C 76.398438 73.605469 74.964844 74.019531 73.523438 73.449219 C 72.898438 73.609375 72.617188 73.785156 72.425781 73.941406 C 72.234375 74.09375 72.136719 74.222656 71.984375 74.417969 C 71.933594 74.484375 71.878906 74.558594 71.816406 74.636719 C 71.425781 75.117188 71.0625 75.460938 70.320312 76.046875 C 68.773438 77.265625 67.417969 78.332031 66.257812 79.011719 C 66.390625 79.316406 66.480469 79.578125 66.425781 79.917969 C 66.371094 80.25 66.203125 80.496094 65.957031 80.738281 C 65.953125 80.789062 65.945312 80.835938 65.941406 80.882812 C 65.9375 80.953125 65.929688 81.015625 65.925781 81.070312 C 65.832031 82.097656 65.632812 82.460938 65.359375 82.691406 C 65.25 82.785156 65.125 82.859375 64.984375 82.914062 C 64.636719 83.285156 64.125 83.339844 63.488281 83.410156 C 63.347656 83.421875 63.203125 83.4375 63.042969 83.457031 C 62.925781 83.472656 62.925781 83.472656 62.78125 83.519531 C 62.511719 83.601562 61.796875 83.820312 59.304688 84.460938 C 55.390625 85.460938 53.984375 85.738281 52.292969 85.167969 C 52.226562 85.148438 52.109375 85.117188 51.964844 85.046875 C 51.554688 84.847656 51.183594 84.472656 49.617188 82.894531 C 48.992188 82.261719 48.171875 81.4375 47.082031 80.355469 L 46.945312 80.21875 C 45.066406 78.34375 43.824219 77.109375 43.113281 75.0625 C 42.929688 74.539062 42.8125 74.050781 42.753906 73.589844 C 42.527344 73.75 42.300781 73.90625 42.078125 74.058594 C 40.121094 75.398438 38.277344 76.667969 36.773438 79.257812 C 35.722656 81.070312 35.203125 82.863281 34.789062 84.304688 C 34.113281 86.660156 34.21875 87.46875 34.371094 88.046875 C 34.574219 88.808594 34.9375 89.335938 35.203125 89.71875 C 35.480469 90.121094 35.746094 90.5 35.503906 90.890625 C 35.140625 91.476562 34.335938 91.148438 33.007812 90.613281 C 32.378906 90.359375 31.621094 90.050781 30.785156 89.789062 C 31.59375 90.363281 32.503906 91.035156 33.628906 91.867188 C 39.769531 96.417969 42.855469 98.703125 44.4375 101.421875 C 45.917969 103.972656 45.863281 105.484375 45.765625 108.238281 C 45.683594 110.574219 45.570312 113.773438 46.339844 119.34375 C 46.570312 121 46.839844 122.589844 47.082031 123.992188 C 47.8125 128.285156 48.355469 131.464844 47.210938 133.164062 C 47.671875 133.570312 48.183594 133.941406 48.761719 134.296875 C 51.027344 135.679688 53.652344 136.363281 55.21875 136.777344 C 55.832031 136.9375 56.402344 137.0625 56.910156 137.175781 C 57.960938 137.410156 58.722656 137.582031 59.199219 137.882812 C 59.503906 138.078125 59.679688 138.324219 59.730469 138.617188 C 59.761719 138.804688 59.738281 138.996094 59.660156 139.191406 C 59.441406 139.742188 58.820312 140.203125 58.304688 140.542969 L 58.246094 140.582031 C 58.214844 140.601562 58.183594 140.621094 58.152344 140.644531 L 58.089844 140.683594 C 57.585938 140.992188 57.078125 141.207031 56.488281 141.355469 L 56.425781 141.371094 C 56.34375 141.390625 56.261719 141.410156 56.175781 141.429688 L 56.121094 141.4375 C 55.875 141.488281 55.613281 141.53125 55.320312 141.566406 C 55.253906 141.574219 55.183594 141.582031 55.113281 141.589844 C 55.054688 141.59375 54.988281 141.601562 54.925781 141.609375 C 54.625 141.636719 54.285156 141.664062 53.882812 141.683594 C 53.507812 141.707031 53.097656 141.726562 52.648438 141.742188 C 51.851562 141.777344 51.128906 141.800781 50.5 141.8125 C 50.246094 141.820312 50.011719 141.820312 49.785156 141.824219 C 49.675781 141.824219 49.566406 141.828125 49.460938 141.828125 C 48.835938 141.832031 48.3125 141.824219 47.851562 141.800781 C 47.777344 141.800781 47.707031 141.796875 47.636719 141.792969 C 46.503906 141.730469 45.9375 141.59375 45.339844 141.382812 C 45.101562 141.300781 44.859375 141.207031 44.621094 141.101562 L 44.628906 141.296875 L 43.269531 141.378906 L 43.269531 141.449219 L 37.445312 141.449219 L 37.371094 141.132812 C 37.335938 140.96875 37.296875 140.789062 37.257812 140.59375 C 37.183594 140.230469 37.121094 139.863281 37.066406 139.503906 C 36.960938 138.792969 36.890625 138.070312 36.855469 137.355469 C 36.835938 136.933594 36.820312 136.566406 36.808594 136.230469 C 35.980469 135.605469 36.15625 134.238281 36.4375 132.0625 C 36.597656 130.839844 36.792969 129.316406 36.855469 127.554688 C 36.953125 124.792969 36.664062 123.238281 36.316406 121.734375 C 35.363281 123.027344 34.328125 124.246094 33.320312 125.429688 C 32.296875 126.632812 31.847656 126.980469 31.101562 127.554688 C 30.269531 128.191406 29.015625 129.15625 26.050781 132.027344 L 25.667969 132.398438 C 24.445312 133.585938 23.4375 134.566406 22.335938 135.226562 C 22.425781 135.277344 22.523438 135.324219 22.621094 135.375 C 23.03125 135.578125 23.480469 135.769531 24.003906 135.988281 C 25.011719 136.417969 26.269531 136.953125 28.023438 137.90625 C 28.582031 138.210938 29.105469 138.515625 29.410156 138.902344 C 29.59375 139.132812 29.679688 139.375 29.667969 139.625 C 29.652344 140.546875 28.417969 141.085938 27.949219 141.289062 C 25.894531 142.183594 23.75 141.816406 22.328125 141.570312 C 21.953125 141.503906 21.792969 141.464844 21.621094 141.421875 C 21.441406 141.375 21.238281 141.328125 20.722656 141.230469 C 20.425781 141.175781 20.058594 141.121094 19.671875 141.0625 C 18.863281 140.9375 17.859375 140.785156 16.910156 140.554688 C 16.722656 140.507812 16.28125 140.398438 15.835938 140.0625 C 15.761719 140.003906 15.691406 139.945312 15.625 139.882812 L 15.621094 139.90625 C 15.613281 139.945312 15.605469 139.980469 15.597656 140.011719 L 15.519531 140.367188 L 13.816406 140.289062 L 13.40625 140.257812 L 13.414062 140.183594 L 8.164062 138.996094 L 8.226562 138.621094 C 8.320312 138.046875 8.421875 137.503906 8.535156 136.960938 C 8.601562 136.640625 8.667969 136.347656 8.738281 136.0625 C 9.035156 134.824219 9.183594 134.203125 9.519531 133.460938 C 9.65625 133.167969 9.835938 132.773438 10.074219 132.367188 C 9.820312 130.964844 11.378906 129.289062 17.382812 124.390625 C 18.828125 123.207031 20.101562 122.191406 21.222656 121.296875 C 26.082031 117.414062 27.902344 115.960938 27.84375 114.019531 C 27.824219 113.277344 27.558594 112.957031 26.164062 111.390625 C 25.699219 110.871094 25.125 110.222656 24.40625 109.386719 C 22.503906 107.167969 20.738281 104.71875 18.339844 101.25 C 14.25 99.128906 12.1875 98.054688 11.148438 96.457031 C 10.609375 95.628906 10.179688 94.636719 9.890625 93.578125 C 9.128906 93.542969 8.582031 93.308594 8.226562 92.871094 C 7.753906 92.289062 7.828125 91.644531 7.960938 90.472656 L 7.972656 90.378906 C 8.335938 87.164062 8.414062 85.621094 8.460938 84.703125 C 8.515625 83.703125 8.535156 83.328125 8.828125 82.3125 C 9.210938 80.96875 10.046875 79.128906 11.304688 76.839844 C 11.335938 76.777344 11.371094 76.714844 11.40625 76.65625 C 10.898438 76.183594 10.105469 75.441406 7.320312 72.511719 C 4.726562 69.78125 4.539062 69.515625 4.4375 68.933594 C 4.003906 66.464844 6.316406 64.136719 9.519531 60.914062 C 10.570312 59.855469 11.039062 59.484375 11.488281 59.121094 C 11.914062 58.78125 12.316406 58.460938 13.222656 57.546875 C 14.382812 56.371094 15.34375 55.257812 16.191406 54.273438 C 17.929688 52.257812 19.199219 50.785156 20.667969 50.679688 C 21.171875 50.378906 22.277344 50.410156 24.613281 50.507812 C 25.402344 50.542969 26.292969 50.582031 27.25 50.601562 C 30.027344 50.667969 31.671875 50.5625 32.761719 50.496094 C 33.574219 50.445312 34.085938 50.414062 34.503906 50.496094 C 35.238281 49.769531 35.507812 49.691406 35.71875 49.675781 C 35.875 49.667969 36.03125 49.691406 36.183594 49.746094 C 36.382812 49.585938 36.558594 49.4375 36.722656 49.300781 C 36.496094 49.171875 36.277344 49 36.058594 48.777344 C 35.347656 48.066406 35.171875 47.007812 35.339844 44.578125 C 35.542969 41.738281 35.640625 40.3125 36.421875 39.160156 C 37.441406 37.648438 38.859375 37.003906 39.621094 36.660156 C 41.664062 35.730469 43.570312 35.527344 45.296875 36.050781 C 46.160156 36.3125 46.792969 36.707031 47.296875 37.027344 C 47.972656 37.449219 48.316406 37.648438 48.746094 37.488281 C 48.980469 37.402344 49.15625 37.238281 49.359375 37.050781 C 49.671875 36.761719 50.066406 36.398438 50.761719 36.289062 C 51.226562 36.21875 52.066406 36.175781 52.425781 36.71875 C 52.582031 36.960938 52.621094 37.277344 52.53125 37.660156 C 52.304688 38.636719 51.285156 39.992188 50.257812 40.71875 C 50.449219 41.40625 50.371094 42.109375 50.296875 42.789062 C 50.210938 43.59375 50.128906 44.351562 50.472656 45.0625 C 50.558594 45.242188 50.636719 45.429688 50.707031 45.609375 C 50.832031 45.910156 50.949219 46.199219 51.113281 46.441406 C 51.140625 46.480469 51.167969 46.515625 51.195312 46.554688 C 51.421875 46.871094 51.703125 47.261719 51.601562 47.761719 C 51.539062 48.054688 51.371094 48.257812 51.277344 48.351562 C 50.960938 48.660156 50.585938 48.6875 50.285156 48.707031 C 50.03125 48.726562 49.832031 48.742188 49.636719 48.890625 C 49.480469 49.007812 49.457031 49.113281 49.386719 49.492188 C 49.316406 49.867188 49.207031 50.433594 48.835938 51.261719 C 48.777344 51.386719 48.710938 51.496094 48.644531 51.605469 C 48.507812 51.835938 48.429688 51.976562 48.449219 52.144531 C 48.453125 52.21875 48.476562 52.277344 48.503906 52.359375 C 48.558594 52.5 48.621094 52.675781 48.617188 52.953125 C 48.617188 53.09375 48.582031 53.578125 48.273438 53.960938 C 47.847656 54.488281 47.152344 54.515625 46.738281 54.53125 L 46.710938 54.53125 C 45.800781 54.566406 44.671875 54.609375 44.109375 54.769531 C 43.703125 54.882812 43.5 55.109375 43.289062 55.457031 C 43.523438 55.617188 43.730469 55.839844 43.898438 56.121094 C 44.550781 56.320312 45.539062 57.210938 47.8125 59.300781 C 49.207031 60.582031 49.695312 61.09375 49.941406 61.433594 C 50.460938 61.667969 50.492188 62.421875 50.535156 63.535156 C 50.554688 64.007812 50.578125 64.546875 50.636719 65.117188 C 50.945312 68.054688 52.113281 70.199219 52.609375 71.113281 C 53.726562 73.15625 54.878906 75.273438 56.609375 75.539062 C 57.71875 75.707031 58.609375 75.066406 59.46875 74.449219 C 60.324219 73.832031 61.210938 73.195312 62.1875 73.628906 C 62.257812 73.660156 62.324219 73.695312 62.382812 73.734375 C 62.882812 73.519531 63.246094 73.425781 63.550781 73.53125 C 63.636719 73.5625 63.714844 73.601562 63.785156 73.652344 C 64.355469 73.324219 64.90625 72.929688 65.746094 72.324219 C 66.875 71.511719 67.398438 71.125 67.960938 70.523438 C 68.277344 70.183594 68.441406 69.957031 68.613281 69.722656 C 68.8125 69.441406 69.023438 69.152344 69.476562 68.667969 C 70.246094 67.855469 70.667969 67.410156 71.363281 67.066406 C 72.421875 66.546875 73.371094 66.605469 74.683594 66.691406 C 75.578125 66.746094 76.140625 66.851562 76.742188 67.265625 C 76.824219 67.324219 77.09375 67.519531 77.367188 67.820312 C 77.90625 67.828125 78.617188 67.941406 79.421875 68.066406 C 80.53125 68.242188 81.902344 68.460938 83.246094 68.457031 C 84.386719 68.453125 84.828125 68.300781 85.902344 67.925781 C 86.832031 67.601562 88.230469 67.113281 90.898438 66.449219 C 93.253906 65.863281 94.511719 65.660156 95.34375 65.527344 C 96.277344 65.375 96.664062 65.3125 97.554688 64.878906 C 98.933594 64.207031 99.644531 63.558594 100.402344 62.875 C 101.214844 62.140625 102.050781 61.382812 103.707031 60.613281 C 103.894531 60.140625 104.464844 59.792969 105.328125 59.265625 C 106.121094 58.785156 107.203125 58.125 108.421875 57.097656 C 109.378906 56.296875 110.363281 55.46875 111.394531 54.128906 C 111.828125 53.566406 112.140625 53.097656 112.417969 52.683594 C 113.039062 51.753906 113.449219 51.140625 114.417969 50.722656 C 114.964844 50.480469 115.585938 50.359375 116.265625 50.351562 C 116.214844 50.25 116.167969 50.152344 116.125 50.058594 C 115.78125 49.351562 115.605469 49.03125 115.125 48.867188 C 114.894531 48.789062 114.773438 48.804688 114.476562 48.84375 C 114.140625 48.882812 113.632812 48.945312 112.699219 48.886719 C 111.503906 48.8125 110.78125 48.765625 110.316406 48.246094 C 109.949219 47.835938 109.980469 47.382812 110.011719 46.941406 C 110.042969 46.511719 110.074219 46.023438 109.820312 45.339844 C 109.652344 44.898438 109.523438 44.597656 109.261719 44.464844 C 109.152344 44.414062 109.050781 44.398438 108.917969 44.382812 C 108.695312 44.355469 108.417969 44.324219 108.105469 44.09375 C 107.921875 43.957031 107.5 43.589844 107.519531 43.078125 C 107.535156 42.679688 107.800781 42.441406 107.996094 42.269531 C 108.042969 42.226562 108.09375 42.183594 108.140625 42.132812 C 108.34375 41.925781 108.511719 41.292969 108.617188 40.351562 C 108.691406 39.664062 108.683594 39.25 108.667969 38.972656 C 108.347656 38.730469 108.160156 38.449219 108.09375 38.347656 C 106.996094 36.683594 107.777344 34.234375 108.410156 33.046875 C 109.753906 30.527344 112.230469 29.542969 113.417969 29.070312 C 114.703125 28.558594 117.929688 27.53125 121.574219 28.308594 C 121.453125 28.082031 121.332031 27.847656 121.210938 27.613281 C 120.996094 27.203125 120.820312 26.855469 120.667969 26.558594 C 120.136719 25.515625 119.914062 25.085938 119.390625 24.386719 C 119.039062 23.917969 118.597656 23.402344 118.128906 22.855469 C 117.445312 22.058594 116.738281 21.238281 116.257812 20.488281 C 116.214844 20.421875 116.101562 20.191406 115.410156 18.796875 L 115.394531 18.761719 C 115.382812 18.734375 115.367188 18.710938 115.355469 18.6875 C 115.191406 18.472656 114.964844 18.121094 114.707031 17.71875 C 114.550781 17.476562 114.382812 17.210938 114.207031 16.953125 L 114.042969 16.703125 C 113.800781 16.347656 113.554688 15.980469 113.328125 15.597656 C 113.191406 15.367188 113.070312 15.144531 112.933594 14.886719 C 112.816406 14.671875 112.792969 14.425781 112.863281 14.191406 C 112.933594 13.960938 113.09375 13.769531 113.308594 13.652344 C 113.519531 13.539062 113.769531 13.511719 114 13.582031 C 114.234375 13.65625 114.425781 13.8125 114.539062 14.027344 C 114.667969 14.261719 114.765625 14.46875 114.855469 14.648438 C 115.089844 15.132812 115.230469 15.425781 115.660156 15.859375 C 115.914062 16.117188 116.175781 16.191406 116.449219 16.269531 L 116.488281 16.28125 C 116.675781 15.800781 116.664062 15.238281 116.65625 15.011719 C 116.652344 14.851562 116.640625 14.742188 116.628906 14.652344 C 116.613281 14.527344 116.601562 14.414062 116.628906 14.277344 C 116.546875 13.597656 116.414062 12.972656 116.226562 12.421875 C 116.003906 11.753906 115.902344 11.199219 115.804688 10.660156 C 115.753906 10.375 115.699219 10.082031 115.628906 9.777344 C 115.574219 9.542969 115.613281 9.296875 115.742188 9.089844 C 115.871094 8.882812 116.074219 8.738281 116.308594 8.683594 C 116.546875 8.628906 116.789062 8.667969 116.996094 8.796875 C 117.203125 8.925781 117.347656 9.128906 117.402344 9.363281 C 117.464844 9.628906 117.523438 9.863281 117.582031 10.09375 C 117.664062 10.429688 117.742188 10.75 117.824219 11.128906 C 117.820312 11.066406 117.8125 11.003906 117.800781 10.945312 C 117.730469 10.460938 117.691406 10.109375 117.660156 9.769531 C 117.628906 9.480469 117.601562 9.207031 117.550781 8.859375 C 117.480469 8.359375 117.828125 7.898438 118.324219 7.828125 C 118.820312 7.757812 119.285156 8.101562 119.355469 8.601562 C 119.382812 8.777344 119.410156 8.9375 119.433594 9.089844 C 119.496094 9.441406 119.558594 9.804688 119.59375 10.382812 C 119.601562 9.929688 119.589844 9.589844 119.5625 9.023438 C 119.542969 8.519531 119.933594 8.09375 120.433594 8.070312 C 120.933594 8.046875 121.363281 8.441406 121.386719 8.941406 C 121.390625 9.082031 121.398438 9.207031 121.40625 9.332031 C 121.4375 9.84375 121.464844 10.324219 121.382812 11.394531 C 121.355469 11.753906 121.335938 12.0625 121.316406 12.328125 C 121.492188 11.707031 121.515625 11.441406 121.550781 11.050781 C 121.5625 10.929688 121.574219 10.800781 121.589844 10.648438 C 121.644531 10.148438 122.097656 9.789062 122.597656 9.84375 C 122.839844 9.871094 123.058594 9.992188 123.207031 10.183594 C 123.359375 10.371094 123.429688 10.609375 123.402344 10.851562 C 123.390625 10.953125 123.382812 11.046875 123.371094 11.136719 C 123.328125 11.589844 123.289062 11.980469 123.042969 12.90625 C 122.972656 13.171875 122.90625 13.460938 122.84375 13.742188 C 122.707031 14.34375 122.585938 14.875 122.425781 15.207031 C 122.421875 15.257812 122.417969 15.304688 122.410156 15.351562 C 122.378906 15.535156 122.332031 15.726562 122.277344 15.949219 C 122.234375 16.128906 122.183594 16.332031 122.136719 16.558594 C 122.132812 16.578125 121.800781 18.222656 121.972656 20.402344 C 122.070312 21.585938 122.65625 22.234375 124.222656 23.960938 C 124.617188 24.398438 125.066406 24.890625 125.582031 25.472656 C 128.492188 28.777344 129.949219 30.4375 130.628906 32.523438 C 130.84375 33.179688 131 33.875 131.09375 34.59375 C 131.265625 34.636719 131.445312 34.667969 131.636719 34.6875 C 133.203125 34.855469 134.222656 34.1875 135.296875 33.476562 C 136.375 32.769531 137.484375 32.035156 139.078125 32.332031 C 140.816406 32.65625 142.574219 34.140625 143.777344 36.300781 C 145.214844 38.882812 145.554688 41.761719 144.6875 43.996094 C 143.859375 46.128906 142.105469 47.285156 140.40625 48.402344 C 139.488281 49.003906 136.6875 50.84375 132.617188 50.992188 C 131.742188 51.027344 130.855469 50.976562 129.972656 50.847656 C 130.085938 51.332031 130.164062 51.882812 130.253906 52.558594 C 130.40625 53.675781 130.617188 55.207031 131.144531 57.398438 C 131.289062 57.996094 131.351562 58.203125 131.496094 58.699219 C 131.632812 59.152344 131.835938 59.839844 132.234375 61.257812 C 133.199219 64.691406 133.628906 66.464844 133.910156 67.636719 C 134.171875 68.71875 134.292969 69.210938 134.582031 69.984375 C 134.675781 70.222656 134.769531 70.453125 134.871094 70.683594 C 135.058594 70.777344 135.203125 70.917969 135.285156 71.089844 C 135.363281 71.253906 135.382812 71.441406 135.34375 71.632812 C 136 72.796875 136.707031 73.476562 137.523438 74.261719 C 138.4375 75.140625 139.472656 76.132812 140.613281 78 C 140.695312 78.136719 140.777344 78.273438 140.855469 78.410156 C 141.027344 78.703125 141.1875 79 141.339844 79.292969 C 143.613281 83.722656 143.847656 88.25 143.792969 91.699219 C 143.789062 92.039062 143.78125 92.371094 143.773438 92.695312 C 143.753906 93.289062 143.730469 93.859375 143.703125 94.402344 L 143.695312 94.652344 C 143.523438 98.621094 143.363281 102.371094 140.949219 106.222656 C 139.617188 108.34375 136.972656 111.816406 133.910156 111.816406 C 133.800781 111.816406 133.691406 111.8125 133.582031 111.800781 C 132.957031 111.75 132.535156 111.5625 132.199219 111.386719 C 132.085938 111.324219 131.972656 111.261719 131.855469 111.195312 C 131.71875 111.117188 131.578125 111.035156 131.429688 110.960938 C 131.097656 110.789062 130.621094 110.578125 129.84375 110.449219 C 128.605469 110.246094 127.882812 110.453125 126.96875 110.714844 C 126.277344 110.914062 125.496094 111.136719 124.375 111.210938 C 124.054688 111.234375 123.554688 111.25 122.933594 111.21875 C 122.527344 111.910156 121.96875 112.949219 121.445312 114.398438 C 121.128906 115.273438 121.035156 115.703125 120.917969 116.25 C 120.796875 116.8125 120.644531 117.519531 120.1875 118.933594 C 120.070312 119.296875 119.960938 119.636719 119.851562 119.964844 C 120.074219 121.199219 120.527344 123.164062 121.445312 125.660156 C 121.875 126.832031 122.246094 127.601562 122.527344 128.175781 C 122.710938 128.050781 122.941406 127.96875 123.226562 128.007812 C 123.617188 128.0625 123.792969 128.308594 123.964844 128.542969 C 124.066406 128.6875 124.183594 128.851562 124.382812 129.046875 C 124.953125 129.613281 125.574219 129.792969 126.121094 129.953125 C 126.664062 130.109375 127.171875 130.257812 127.476562 130.738281 C 127.519531 130.804688 127.554688 130.871094 127.585938 130.945312 C 127.691406 131.199219 127.742188 131.476562 127.738281 131.761719 C 127.734375 131.996094 127.691406 132.242188 127.617188 132.511719 C 127.601562 132.558594 127.585938 132.601562 127.574219 132.648438 C 127.5 132.871094 127.417969 133.078125 127.335938 133.277344 C 127.183594 133.648438 127.019531 133.960938 126.808594 134.257812 C 126.78125 134.292969 126.753906 134.328125 126.730469 134.363281 C 126.628906 134.5 126.515625 134.632812 126.382812 134.773438 C 126.324219 134.839844 126.257812 134.90625 126.191406 134.976562 C 126.125 135.039062 126.058594 135.109375 125.984375 135.179688 C 125.769531 135.386719 125.523438 135.605469 125.242188 135.859375 C 124.832031 136.234375 124.363281 136.652344 123.789062 137.207031 C 123.457031 137.53125 123.164062 137.8125 122.902344 138.0625 C 122.15625 138.792969 121.667969 139.292969 121.214844 139.863281 C 120.941406 140.207031 120.734375 140.488281 120.554688 140.738281 C 120.089844 141.375 119.785156 141.796875 119.121094 142.089844 C 119.09375 142.101562 119.0625 142.113281 119.027344 142.125 C 119.003906 142.136719 118.976562 142.144531 118.949219 142.152344 L 118.902344 142.167969 C 118.875 142.175781 118.84375 142.183594 118.804688 142.1875 C 118.773438 142.195312 118.734375 142.203125 118.695312 142.207031 C 118.5625 142.226562 118.402344 142.234375 118.207031 142.234375 " fill-opacity="1" fill-rule="nonzero"/></g></svg>