<svg xmlns="http://www.w3.org/2000/svg" xmlns:xlink="http://www.w3.org/1999/xlink" width="200" zoomAndPan="magnify" viewBox="0 0 150 149.999998" height="200" preserveAspectRatio="xMidYMid meet" version="1.0"><defs><clipPath id="cff00db45a"><path d="M 7.363281 2 L 142.363281 2 L 142.363281 148.679688 L 7.363281 148.679688 Z M 7.363281 2 " clip-rule="nonzero"/></clipPath></defs><g clip-path="url(#cff00db45a)"><path fill="#000000" d="M 50.136719 133.375 C 50.164062 134.074219 50.230469 134.679688 50.34375 135.082031 C 50.34375 135.082031 50.265625 134.394531 50.136719 133.375 Z M 44.839844 130.5625 C 44.839844 130.753906 44.847656 130.925781 44.871094 131.066406 C 44.871094 131.066406 44.859375 130.878906 44.839844 130.5625 Z M 53.53125 136.875 C 53.785156 137.519531 54.0625 138.121094 54.359375 138.65625 C 54.359375 138.65625 54.015625 137.949219 53.53125 136.875 Z M 53.910156 129.882812 C 54.183594 131.742188 54.582031 133.5 55.164062 134.789062 C 55.164062 134.789062 54.550781 132.492188 53.910156 129.882812 Z M 141.445312 9.808594 C 141.554688 9.695312 141.632812 9.589844 141.675781 9.5 C 142.070312 8.648438 142.636719 5.40625 142.363281 5.066406 C 142.085938 4.726562 141.367188 3.105469 141.121094 2.65625 C 140.875 2.203125 139.652344 1.722656 139.519531 2.28125 C 139.390625 2.839844 139.683594 3.925781 139.683594 3.925781 C 139.183594 3.378906 138.414062 3.316406 138.308594 3.289062 C 138.199219 3.265625 137.945312 3.480469 137.945312 3.480469 C 137.949219 3.546875 137.980469 3.640625 138.03125 3.761719 C 137.953125 3.714844 137.890625 3.703125 137.890625 3.703125 C 137.890625 3.703125 137.65625 4.039062 136.980469 4.746094 C 136.304688 5.453125 135.421875 6.695312 135.179688 7.738281 C 135.0625 8.234375 134.980469 8.925781 134.921875 9.519531 C 134.433594 9.503906 134.121094 9.550781 134.125 9.734375 C 134.125 9.734375 132.894531 11.378906 132.226562 12.019531 C 132.199219 12.046875 132.160156 12.074219 132.117188 12.105469 C 132.109375 12.113281 132.097656 12.121094 132.085938 12.128906 C 132.042969 12.160156 131.992188 12.1875 131.933594 12.222656 C 131.933594 12.222656 131.933594 12.222656 131.929688 12.222656 C 131.871094 12.257812 131.804688 12.292969 131.734375 12.328125 C 131.714844 12.339844 131.695312 12.347656 131.675781 12.355469 C 131.605469 12.394531 131.53125 12.429688 131.445312 12.46875 C 131.445312 12.46875 131.441406 12.46875 131.441406 12.46875 C 131.355469 12.507812 131.261719 12.550781 131.167969 12.589844 C 131.144531 12.601562 131.121094 12.609375 131.097656 12.621094 C 131 12.660156 130.898438 12.703125 130.792969 12.746094 C 130.683594 12.789062 130.570312 12.835938 130.453125 12.882812 C 130.429688 12.890625 130.40625 12.898438 130.382812 12.90625 C 130.265625 12.953125 130.144531 13 130.019531 13.046875 C 128.179688 13.730469 125.660156 14.511719 124.167969 14.894531 C 121.785156 15.503906 114.390625 21.445312 112.164062 23.109375 C 109.9375 24.773438 98.125 25.742188 98.125 25.742188 C 97.382812 25.480469 96.65625 25.199219 95.992188 24.910156 C 95.699219 24.785156 95.421875 24.65625 95.160156 24.527344 C 95.144531 24.519531 95.128906 24.511719 95.113281 24.503906 C 95.007812 24.449219 94.902344 24.398438 94.796875 24.34375 C 94.777344 24.332031 94.753906 24.320312 94.730469 24.308594 C 94.625 24.25 94.519531 24.191406 94.421875 24.136719 C 94.414062 24.128906 94.40625 24.125 94.394531 24.121094 C 94.289062 24.058594 94.1875 23.996094 94.089844 23.929688 C 94.074219 23.921875 94.058594 23.910156 94.039062 23.898438 C 93.964844 23.847656 93.894531 23.796875 93.824219 23.75 C 93.800781 23.730469 93.777344 23.710938 93.75 23.691406 C 93.695312 23.648438 93.640625 23.605469 93.585938 23.5625 C 93.566406 23.542969 93.542969 23.523438 93.523438 23.507812 C 93.453125 23.445312 93.390625 23.386719 93.335938 23.324219 C 91.578125 21.414062 91.578125 21.414062 91.578125 21.414062 C 91.578125 21.414062 90.84375 20.878906 90.621094 19.75 C 90.605469 19.667969 90.59375 19.585938 90.582031 19.503906 C 90.566406 19.363281 90.539062 19.183594 90.503906 18.976562 C 90.691406 18.976562 90.8125 18.96875 90.8125 18.96875 C 90.125 17.515625 91.3125 16.214844 91.238281 14.6875 C 91.167969 13.15625 92.441406 7.675781 91.371094 5.992188 C 90.300781 4.308594 84.058594 2.027344 82.757812 2.027344 C 81.457031 2.027344 78.714844 2.742188 75.519531 3.851562 C 71.105469 5.382812 71.503906 9.074219 71.503906 10.296875 C 71.503906 11.085938 71.695312 11.457031 72.195312 11.257812 C 72.265625 11.230469 72.394531 11.164062 72.554688 11.066406 C 72.558594 11.082031 72.5625 11.09375 72.5625 11.109375 C 72.566406 11.113281 72.566406 11.121094 72.566406 11.125 C 72.929688 12.917969 73.726562 15.507812 73.800781 15.828125 C 73.898438 16.25 73.621094 19.867188 73.828125 20.585938 C 73.828125 20.585938 74.28125 20.804688 74.847656 20.636719 C 75.414062 20.464844 75.445312 20.894531 75.46875 20.996094 C 75.492188 21.097656 76.941406 23.953125 77.105469 24.84375 C 77.269531 25.738281 78.167969 25.152344 78.742188 25.019531 C 79.316406 24.886719 80.953125 23.964844 81.300781 24.308594 C 81.417969 24.417969 82.199219 25.144531 82.328125 25.3125 C 82.328125 25.3125 82.292969 25.410156 82.230469 25.570312 C 81.9375 26.308594 80.976562 28.402344 79.347656 28.90625 C 77.867188 29.359375 76.429688 30.195312 75.792969 30.59375 C 76.34375 30.246094 77.460938 29.578125 78.34375 29.269531 C 77.332031 29.316406 76.085938 29.320312 75.648438 29.519531 C 74.992188 29.820312 72.832031 31.296875 72.0625 32.335938 C 71.296875 33.378906 70.449219 33.925781 69.65625 34.527344 C 69.507812 34.640625 69.296875 34.753906 69.054688 34.875 L 68.074219 35.304688 C 68.058594 35.308594 68.046875 35.316406 68.03125 35.320312 C 67.097656 35.707031 66.0625 36.121094 65.523438 36.582031 C 64.59375 37.375 63.96875 37.277344 63.996094 36.59375 C 64 36.539062 63.980469 36.398438 63.964844 36.265625 C 63.972656 36.234375 63.980469 36.210938 63.980469 36.199219 C 63.980469 36.195312 63.976562 36.191406 63.976562 36.191406 C 63.976562 36.167969 63.972656 36.148438 63.972656 36.128906 C 63.96875 36.101562 63.964844 36.070312 63.960938 36.042969 C 63.957031 36.011719 63.953125 35.980469 63.949219 35.949219 L 63.949219 35.941406 C 63.941406 35.859375 63.9375 35.777344 63.933594 35.695312 C 63.9375 35.695312 63.9375 35.695312 63.9375 35.691406 C 63.929688 35.5 63.925781 35.308594 63.9375 35.128906 C 63.992188 33.964844 64.101562 32.929688 63.980469 32.574219 C 63.863281 32.21875 63.980469 31.246094 64.367188 31.191406 C 64.753906 31.136719 66.214844 30.984375 66.980469 30.925781 C 67.742188 30.859375 68.773438 30.296875 68.773438 29.917969 C 68.765625 27.425781 66.933594 25.355469 67.191406 24.917969 C 67.449219 24.476562 67.804688 23.898438 67.699219 23.734375 C 67.59375 23.570312 67.5 23.492188 66.4375 22.960938 C 65.375 22.429688 64.746094 21.394531 63.773438 19.976562 C 63.589844 19.703125 63.34375 19.429688 63.058594 19.164062 C 63.730469 18.476562 62.097656 16.945312 59.878906 17.011719 C 57.546875 17.085938 53.636719 18.214844 52.433594 19.769531 C 51.230469 21.320312 49.714844 24.308594 51.886719 29.25 C 51.886719 29.25 48.960938 29.679688 49.457031 32.976562 C 49.957031 36.277344 51.371094 37.445312 53.25 38.019531 C 54.417969 38.375 55.777344 37.203125 56.476562 35.875 C 56.636719 36.210938 56.78125 36.546875 56.882812 36.867188 C 57.003906 37.257812 57.0625 37.625 57 37.949219 C 56.988281 38.011719 56.964844 38.074219 56.945312 38.132812 C 56.933594 38.160156 56.925781 38.183594 56.914062 38.210938 C 56.894531 38.257812 56.867188 38.304688 56.84375 38.351562 C 56.820312 38.398438 56.792969 38.449219 56.765625 38.492188 C 56.742188 38.523438 56.714844 38.554688 56.691406 38.582031 C 56.652344 38.628906 56.617188 38.675781 56.570312 38.71875 C 56.507812 38.777344 56.4375 38.832031 56.355469 38.878906 C 56.222656 38.953125 56.070312 39 55.902344 39.035156 C 55.902344 39.039062 55.902344 39.039062 55.898438 39.039062 C 54.886719 39.253906 53.257812 38.867188 51.425781 38.960938 C 49.292969 39.070312 46.335938 40.714844 43.324219 40.714844 C 40.316406 40.714844 35.71875 40.382812 33.035156 40.21875 C 30.351562 40.054688 24.347656 39.769531 22.488281 39.28125 C 20.628906 38.792969 18.796875 39.421875 17.902344 39.988281 C 17.007812 40.554688 16.746094 40.675781 14.988281 40.558594 C 13.234375 40.441406 11.292969 40.105469 10.125 39.789062 C 8.957031 39.476562 8.316406 39.328125 8.34375 39.59375 C 8.371094 39.859375 9.386719 40.625 10.238281 40.847656 C 11.085938 41.066406 12.550781 41.394531 12.550781 41.394531 C 12.550781 41.394531 11.933594 41.953125 11.402344 42.457031 C 10.871094 42.957031 9.957031 43.539062 10.050781 44.074219 C 10.050781 44.074219 8.640625 44.832031 8.003906 45.628906 C 7.367188 46.425781 8.441406 46.296875 8.925781 46.066406 C 9.410156 45.832031 10.175781 45.152344 10.6875 44.886719 C 11.195312 44.625 11.507812 45.066406 11.507812 45.066406 C 11.507812 45.066406 11.433594 46.128906 11.59375 46.710938 C 11.75 47.292969 12.507812 48.054688 13.6875 48.3125 C 14.863281 48.574219 15.339844 48.597656 15.339844 48.597656 C 15.339844 48.597656 15.519531 48 14.984375 47.761719 C 14.453125 47.519531 13.429688 46.917969 13.378906 46.667969 C 13.328125 46.417969 13.429688 45.621094 13.515625 45.230469 C 13.601562 44.835938 13.863281 44.511719 14.738281 44.382812 C 15.609375 44.257812 15.957031 44.613281 15.957031 44.613281 C 15.957031 44.613281 15.414062 47.09375 15.457031 47.601562 C 15.5 48.109375 15.460938 48.34375 15.460938 48.34375 C 15.460938 48.34375 16.289062 48.6875 16.425781 48.101562 C 16.566406 47.515625 16.695312 46.222656 16.957031 45.898438 C 17.214844 45.574219 18.082031 45.167969 18.691406 44.753906 C 19.300781 44.339844 19.214844 44.195312 20.917969 43.65625 C 22.621094 43.117188 24.75 44.671875 26.410156 44.855469 C 28.070312 45.039062 34.8125 46.324219 37.222656 46.324219 C 39.632812 46.324219 42.722656 46.378906 45.296875 46.269531 C 47.871094 46.160156 50.386719 45.886719 52.167969 47.035156 C 53.9375 48.179688 56.21875 52.4375 57.25 57.007812 C 57.253906 57.035156 57.261719 57.054688 57.265625 57.078125 C 57.289062 57.179688 57.308594 57.285156 57.328125 57.386719 C 58.242188 61.960938 57.234375 68.199219 55.878906 69.339844 C 55.449219 69.703125 54.398438 70.292969 53.152344 71.105469 C 49.949219 71.90625 46.171875 75.503906 46.121094 79.527344 C 46.046875 85.367188 43.8125 91.84375 43.523438 95.128906 C 43.261719 98.046875 41.367188 104.347656 41.367188 106.445312 C 41.171875 106.828125 40.972656 107.1875 40.773438 107.511719 C 38.945312 110.433594 35.949219 116.5625 35.625 125.832031 C 35.328125 134.183594 34.828125 135.839844 34.0625 136.886719 C 33.976562 137 33.890625 137.109375 33.800781 137.21875 C 33.636719 137 31.335938 138.75 31.007812 139.734375 C 30.730469 140.574219 31.359375 142.042969 31.859375 142.832031 C 32.21875 144.882812 32.015625 147.613281 32.078125 147.675781 C 32.15625 147.753906 32.597656 148.273438 32.597656 148.273438 L 33.691406 148.273438 C 33.691406 148.273438 33.582031 147.890625 33.691406 147.070312 C 33.792969 146.300781 34.132812 145.917969 34.175781 145.875 C 34.148438 145.910156 34.113281 146.066406 35.058594 146.355469 C 36.15625 146.6875 38.289062 146.898438 39.21875 146.355469 C 40.152344 145.8125 40.863281 144.550781 39.714844 143.292969 C 39.714844 143.292969 39.710938 143.289062 39.707031 143.289062 C 39.707031 143.285156 39.703125 143.285156 39.699219 143.28125 C 39.695312 143.277344 39.691406 143.273438 39.6875 143.269531 C 39.683594 143.261719 39.675781 143.257812 39.667969 143.25 C 39.664062 143.246094 39.65625 143.238281 39.652344 143.234375 C 39.628906 143.210938 39.601562 143.183594 39.566406 143.148438 C 39.558594 143.140625 39.550781 143.132812 39.539062 143.121094 C 39.457031 143.039062 39.339844 142.914062 39.164062 142.738281 C 38.699219 142.253906 38.5625 140.335938 38.644531 139.324219 C 38.726562 138.3125 39 133.6875 39.328125 132.125 C 39.519531 131.234375 40.582031 128.199219 41.90625 124.945312 C 42.109375 124.453125 42.3125 123.957031 42.523438 123.460938 C 42.582031 124.238281 42.636719 124.902344 42.683594 125.375 C 42.910156 127.695312 43.355469 130.101562 43.542969 131.0625 C 42.964844 127.695312 44.433594 122.746094 44.433594 122.746094 C 44.433594 124.203125 44.738281 129 44.839844 130.5625 C 44.832031 128.980469 45.527344 125.957031 45.527344 125.957031 C 45.527344 128.367188 46.625 130.992188 46.625 130.992188 C 46.183594 128.730469 47.351562 124.351562 47.351562 124.351562 C 47.351562 125.664062 47.792969 131.066406 47.792969 131.066406 C 48.230469 129.753906 48.15625 123.402344 48.738281 124.863281 C 48.777344 124.957031 48.816406 125.082031 48.859375 125.234375 C 49.273438 126.769531 49.835938 130.988281 50.136719 133.375 C 50.042969 131.023438 50.34375 127.636719 50.34375 127.636719 C 50.5 129.882812 52.402344 134.375 53.53125 136.875 C 51.730469 132.3125 51.003906 125.59375 51.003906 125.59375 C 51.386719 127.324219 53.417969 131.492188 54.757812 134.136719 C 53.253906 130.359375 52.671875 125.109375 52.511719 123.347656 C 52.6875 124.726562 53.3125 127.4375 53.910156 129.882812 C 53.226562 125.207031 53.335938 119.898438 53.335938 119.898438 C 53.484375 121.359375 54.433594 130.917969 54.433594 130.917969 C 54.617188 127.074219 54.035156 119.441406 53.855469 117.230469 C 54.132812 119.351562 55.453125 123.328125 55.453125 123.328125 C 54.652344 117.78125 53.804688 110.410156 53.804688 110.410156 C 54.488281 111.871094 55.453125 118.21875 55.453125 118.21875 C 55.453125 113.769531 53.484375 105.886719 53.847656 104.316406 C 54.214844 102.746094 55.308594 104.355469 55.308594 106.105469 C 55.308594 107.855469 56.621094 110.046875 57.058594 112.015625 C 57.34375 113.296875 58.925781 117.019531 59.996094 119.464844 C 58.761719 116.226562 57.898438 112.179688 57.441406 109.714844 C 58.101562 112.148438 59.476562 115.078125 60.332031 116.789062 C 58.503906 112.351562 57.402344 102.820312 57.789062 105.082031 C 58.085938 106.816406 59.558594 111.167969 60.476562 113.789062 C 59.382812 109.960938 58.59375 103.988281 58.59375 103.988281 C 58.882812 105.605469 59.953125 108.972656 60.820312 111.574219 C 59.875 107.894531 59.105469 103.039062 59.105469 103.039062 C 59.660156 106.421875 61.363281 111.125 62.367188 113.710938 C 62.21875 114.09375 62.074219 114.472656 61.9375 114.835938 C 61.757812 114.328125 61.324219 113.082031 60.820312 111.574219 C 61.171875 112.945312 61.550781 114.152344 61.917969 114.882812 C 61.535156 115.894531 61.183594 116.847656 60.871094 117.839844 C 60.742188 117.589844 60.554688 117.234375 60.332031 116.789062 C 60.503906 117.199219 60.675781 117.570312 60.859375 117.882812 C 60.640625 118.578125 60.4375 119.292969 60.261719 120.0625 C 60.175781 119.875 60.089844 119.675781 59.996094 119.464844 C 60.082031 119.679688 60.164062 119.894531 60.25 120.105469 C 60.132812 120.613281 60.027344 121.144531 59.929688 121.710938 C 59.164062 126.144531 57.636719 131.1875 56.566406 133.710938 C 56.277344 134.394531 56.003906 135.214844 55.75 136.054688 C 55.535156 135.648438 55.183594 134.96875 54.757812 134.136719 C 55.046875 134.859375 55.371094 135.53125 55.734375 136.109375 C 55.050781 138.367188 54.484375 140.753906 54.042969 140.972656 C 53.429688 141.28125 51.824219 141.96875 50.527344 143.191406 C 49.226562 144.414062 50.527344 144.71875 50.527344 144.71875 C 54.347656 146.019531 58.707031 144.566406 59.699219 143.648438 C 60.691406 142.734375 61.992188 142.195312 62.605469 143.113281 C 63.214844 144.03125 64.898438 144.566406 64.898438 144.566406 C 64.898438 144.566406 65.175781 144.734375 65.203125 144.566406 C 65.316406 143.882812 66.503906 143.191406 67.421875 143.039062 C 68.335938 142.886719 68.875 141.96875 68.875 141.96875 C 68.566406 140.054688 69.5625 132.105469 71.546875 128.285156 C 72.621094 126.222656 73.890625 120.179688 74.910156 114.484375 C 74.847656 114.101562 74.804688 113.730469 74.773438 113.371094 C 74.574219 111.089844 74.90625 109.378906 75.035156 108.867188 C 75.253906 107.988281 74.671875 107.40625 74.671875 107.40625 C 74.671875 107.40625 72.480469 105.214844 70.074219 103.464844 C 69.121094 102.773438 67.859375 101.648438 66.488281 100.347656 C 65.652344 103.910156 64.605469 107.300781 63.75 109.859375 C 63.277344 111.28125 62.828125 112.488281 62.410156 113.589844 C 61.078125 109.074219 59.792969 100.789062 59.980469 98.808594 C 60.0625 97.917969 60.113281 95.640625 60.144531 93.15625 C 60.265625 93.28125 60.382812 93.402344 60.515625 93.535156 C 62.355469 95.441406 64.605469 97.753906 66.640625 99.699219 C 68.109375 101.109375 69.464844 102.324219 70.476562 103.058594 C 72.882812 104.8125 75.074219 107 75.074219 107 C 75.074219 107 75.65625 107.585938 75.441406 108.460938 C 75.3125 108.972656 74.976562 110.6875 75.175781 112.96875 C 75.316406 114.585938 75.722656 116.488281 76.664062 118.457031 C 78.941406 123.203125 81.203125 129.042969 81.421875 129.554688 C 81.605469 129.976562 81.8125 130.605469 81.703125 131.65625 C 81.695312 131.75 81.683594 131.847656 81.667969 131.949219 C 81.648438 132.082031 81.625 132.21875 81.59375 132.367188 C 80.40625 133.386719 80.109375 134.808594 80.328125 136.230469 C 80.546875 137.65625 80.328125 139.734375 80.328125 139.734375 L 81.035156 140.414062 C 81.105469 140.539062 81.171875 140.621094 81.210938 140.582031 C 81.332031 140.460938 81.957031 139.433594 81.957031 139.433594 C 81.957031 139.433594 81.800781 138.085938 81.945312 137.230469 C 82.183594 137.1875 82.441406 137.414062 82.699219 137.917969 C 82.804688 138.191406 82.964844 138.65625 83.171875 139.210938 C 83.242188 139.453125 83.308594 139.714844 83.375 140.007812 C 83.542969 140.746094 83.699219 141.640625 83.832031 142.691406 C 84.378906 146.960938 89.527344 147.070312 89.527344 147.070312 C 90.328125 145.390625 89.710938 141.121094 89.707031 140.792969 C 89.703125 140.414062 89.628906 140.132812 89.628906 140.132812 C 89.628906 140.136719 89.628906 140.140625 89.628906 140.140625 C 89.628906 140.132812 89.625 140.121094 89.625 140.109375 C 89.582031 139.613281 89.488281 139.0625 89.304688 138.457031 C 88.796875 136.765625 88.722656 134.445312 88.140625 132.839844 C 87.554688 131.234375 85.136719 126.925781 84.8125 124.152344 C 84.488281 121.378906 83.25 114.300781 83.539062 111.601562 C 83.832031 108.898438 84.472656 105.105469 83.496094 103.28125 C 82.988281 102.328125 80.855469 99.140625 78.601562 95.945312 C 76.53125 93.007812 74.359375 90.0625 73.25 88.828125 C 71.695312 87.101562 69.734375 85.101562 68.414062 83.484375 C 68.207031 83.234375 68.019531 82.996094 67.851562 82.765625 C 67.855469 82.769531 67.855469 82.769531 67.859375 82.773438 C 67.757812 82.632812 67.652344 82.496094 67.566406 82.363281 C 67.566406 82.367188 67.566406 82.367188 67.566406 82.367188 C 67.476562 82.234375 67.394531 82.105469 67.320312 81.980469 C 67.292969 81.9375 67.265625 81.890625 67.238281 81.84375 C 67.214844 81.804688 67.195312 81.765625 67.175781 81.726562 C 67.125 81.632812 67.082031 81.542969 67.046875 81.457031 C 66.71875 80.65625 67.410156 78.90625 68.265625 76.691406 C 69 74.792969 69.851562 72.554688 70.289062 70.277344 C 70.292969 70.273438 70.292969 70.269531 70.292969 70.265625 C 70.3125 70.15625 70.332031 70.042969 70.351562 69.933594 C 70.398438 69.664062 70.441406 69.394531 70.476562 69.121094 C 70.695312 67.347656 71.070312 65.535156 71.503906 63.824219 C 72.375 60.394531 73.492188 57.371094 74.125 55.914062 C 74.167969 55.808594 74.210938 55.699219 74.253906 55.585938 C 74.261719 55.566406 74.269531 55.542969 74.277344 55.523438 C 74.316406 55.410156 74.355469 55.292969 74.390625 55.167969 C 74.398438 55.148438 74.402344 55.128906 74.410156 55.105469 C 74.484375 54.84375 74.550781 54.5625 74.605469 54.261719 C 74.609375 54.242188 74.613281 54.226562 74.617188 54.207031 C 74.640625 54.054688 74.664062 53.898438 74.6875 53.738281 C 74.6875 53.730469 74.6875 53.71875 74.691406 53.707031 C 74.730469 53.375 74.753906 53.027344 74.757812 52.667969 C 74.757812 52.664062 74.761719 52.65625 74.761719 52.648438 C 74.773438 51.320312 74.511719 49.875 73.757812 48.609375 C 73.574219 48.296875 73.363281 47.996094 73.117188 47.710938 C 73.113281 47.707031 73.113281 47.707031 73.113281 47.707031 C 72.808594 47.355469 72.457031 47.023438 72.046875 46.722656 C 71.828125 46.566406 71.601562 46.417969 71.351562 46.277344 C 67.191406 43.941406 67.628906 41.972656 69.675781 40.878906 C 70.765625 40.292969 71.726562 39.6875 72.605469 38.933594 C 72.269531 40.917969 72.039062 43.285156 72.042969 46.082031 C 72.683594 46.667969 73.402344 47.332031 73.519531 47.464844 C 73.519531 47.46875 73.519531 47.46875 73.519531 47.46875 C 74.769531 48.917969 75.179688 50.753906 75.164062 52.40625 C 75.164062 52.414062 75.164062 52.421875 75.164062 52.425781 C 75.160156 52.785156 75.132812 53.132812 75.09375 53.464844 C 75.09375 53.476562 75.089844 53.484375 75.089844 53.496094 C 75.070312 53.65625 75.046875 53.8125 75.019531 53.964844 C 75.015625 53.980469 75.011719 54 75.007812 54.019531 C 74.953125 54.320312 74.886719 54.601562 74.8125 54.867188 C 74.804688 54.886719 74.800781 54.90625 74.792969 54.925781 C 74.757812 55.050781 74.71875 55.167969 74.679688 55.28125 C 74.671875 55.300781 74.664062 55.324219 74.65625 55.34375 C 74.617188 55.457031 74.574219 55.566406 74.527344 55.671875 C 73.929688 57.054688 72.890625 59.847656 72.042969 63.0625 C 72.613281 62.203125 73.105469 61.230469 73.351562 60.09375 C 74.042969 56.960938 75.21875 56.65625 75.21875 56.65625 C 75.21875 56.65625 75.523438 58.421875 75.753906 58.878906 C 75.890625 59.152344 75.972656 59.648438 76.019531 60.003906 L 75.753906 61.851562 C 75.753906 61.851562 72.695312 67.585938 71.242188 70.109375 C 70.273438 71.789062 69.171875 77.203125 68.519531 82.550781 C 68.566406 82.605469 68.609375 82.660156 68.65625 82.71875 C 69.976562 84.332031 71.9375 86.335938 73.492188 88.0625 C 74.601562 89.292969 76.769531 92.234375 78.835938 95.167969 C 80.4375 89.953125 82.402344 84.21875 82.863281 83.257812 C 83.628906 81.652344 84.695312 82.417969 84.695312 82.417969 C 86.683594 83.5625 91.578125 94.878906 93.105469 98.394531 C 94.636719 101.910156 97.84375 109.019531 100.828125 113.222656 C 103.808594 117.429688 107.628906 130.652344 109.617188 133.941406 C 111.425781 136.933594 110.894531 139.679688 110.785156 140.152344 C 110.863281 140.171875 110.953125 140.199219 111.070312 140.230469 C 112.21875 140.558594 113.746094 140.230469 113.746094 140.230469 L 114.816406 141.96875 C 118.257812 142.351562 120.472656 140.285156 120.472656 140.285156 C 120.472656 140.285156 120.320312 139.597656 122.15625 143.113281 C 123.992188 146.632812 130.390625 146.421875 130.488281 146.097656 C 131.558594 142.425781 125.75 138.070312 124.523438 135.699219 C 123.300781 133.328125 121.773438 131.953125 120.933594 129.277344 C 120.089844 126.601562 118.484375 122.550781 117.261719 119.417969 C 116.039062 116.28125 112.675781 108.789062 110.535156 106.191406 C 108.394531 103.59375 106.714844 100.6875 106.714844 99.3125 C 106.714844 97.933594 105.03125 91.4375 103.273438 87.308594 C 101.515625 83.179688 98.914062 74.160156 98.914062 74.160156 C 99.816406 70.898438 98.261719 64.800781 97.453125 63.933594 C 97.453125 63.9375 97.453125 63.9375 97.453125 63.9375 L 97.308594 61.851562 C 97.308594 61.851562 99.070312 60.171875 98.535156 57.191406 C 98 54.210938 98.457031 52.601562 99.605469 50.15625 C 100.238281 48.800781 100.875 46.925781 101.316406 45.523438 C 101.496094 44.695312 101.652344 43.878906 101.796875 43.070312 C 102.511719 42.613281 103.226562 42.046875 103.75 41.726562 C 104.726562 41.132812 106.046875 39.679688 106.785156 38.660156 C 107.519531 37.636719 109.734375 36.214844 111.222656 35.574219 C 112.714844 34.933594 116.117188 32.175781 116.683594 30.757812 C 117.25 29.335938 120.941406 27.515625 123.609375 26.195312 C 126.277344 24.871094 128.246094 22.613281 130.445312 21.019531 C 132.644531 19.429688 133.421875 17.269531 134.503906 17.457031 C 135.402344 17.609375 135.828125 17.511719 136.359375 16.554688 C 136.371094 16.539062 136.378906 16.519531 136.386719 16.503906 C 136.425781 16.429688 136.46875 16.351562 136.507812 16.269531 C 136.519531 16.246094 136.53125 16.222656 136.546875 16.195312 C 136.597656 16.089844 136.648438 15.984375 136.703125 15.863281 C 137.425781 14.257812 138.203125 13.335938 139.441406 12.921875 C 140.425781 12.59375 141.449219 10.816406 141.820312 10.109375 C 141.820312 10.109375 141.945312 9.851562 141.445312 9.808594 Z M 88.996094 18.695312 Z M 139.410156 7.277344 C 138.832031 7.890625 137.511719 8.089844 137.511719 8.089844 C 137.511719 8.089844 137.769531 6.226562 138.207031 5.035156 C 138.308594 4.753906 138.34375 4.535156 138.34375 4.359375 C 138.90625 5.367188 139.820312 6.839844 139.410156 7.277344 Z M 43.542969 131.0625 C 43.597656 131.339844 43.628906 131.503906 43.628906 131.503906 C 43.597656 131.359375 43.566406 131.214844 43.542969 131.0625 Z M 60.476562 113.789062 C 60.710938 114.613281 60.960938 115.339844 61.21875 115.886719 C 61.21875 115.886719 60.910156 115.03125 60.476562 113.789062 " fill-opacity="1" fill-rule="nonzero"/></g></svg>