<svg xmlns="http://www.w3.org/2000/svg" xmlns:xlink="http://www.w3.org/1999/xlink" width="200" zoomAndPan="magnify" viewBox="0 0 150 149.999998" height="200" preserveAspectRatio="xMidYMid meet" version="1.0"><defs><clipPath id="64442877f0"><path d="M 7.5 17.203125 L 142.5 17.203125 L 142.5 132.703125 L 7.5 132.703125 Z M 7.5 17.203125 " clip-rule="nonzero"/></clipPath><clipPath id="4ea823ca64"><path d="M 67 17.203125 L 70 17.203125 L 70 26 L 67 26 Z M 67 17.203125 " clip-rule="nonzero"/></clipPath></defs><g clip-path="url(#64442877f0)"><path fill="#000000" d="M 142.367188 80.09375 C 142.21875 79.179688 141.972656 78.296875 141.628906 77.441406 C 141.285156 76.605469 140.878906 75.796875 140.417969 75.019531 C 139.507812 73.46875 138.4375 72.039062 137.417969 70.617188 C 136.890625 69.875 136.304688 69.179688 135.660156 68.53125 C 135.003906 67.859375 134.261719 67.300781 133.4375 66.855469 C 133 66.617188 132.539062 66.453125 132.050781 66.363281 C 131.519531 66.253906 131 66.289062 130.488281 66.46875 C 130 66.660156 129.578125 66.945312 129.210938 67.316406 C 128.875 67.652344 128.574219 68.019531 128.3125 68.417969 C 127.792969 69.175781 127.378906 69.941406 126.863281 70.574219 C 126.617188 70.886719 126.335938 71.167969 126.015625 71.40625 C 125.6875 71.648438 125.339844 71.851562 124.96875 72.023438 C 123.472656 72.714844 121.746094 72.957031 120.042969 72.972656 C 119.183594 72.976562 118.328125 72.929688 117.476562 72.824219 C 116.621094 72.707031 115.773438 72.546875 114.933594 72.34375 C 113.238281 71.945312 111.558594 71.441406 109.875 70.933594 C 108.1875 70.425781 106.5 69.90625 104.769531 69.476562 C 103.035156 69.078125 101.28125 68.769531 99.511719 68.554688 C 96.003906 68.105469 92.492188 67.800781 88.996094 67.40625 C 87.257812 67.25 85.539062 66.976562 83.839844 66.582031 C 83.425781 66.476562 83.019531 66.347656 82.617188 66.199219 C 82.234375 66.058594 81.875 65.867188 81.546875 65.628906 C 81.285156 65.453125 81.125 65.210938 81.066406 64.902344 C 81.070312 64.902344 81.074219 64.90625 81.078125 64.90625 C 82.210938 65.089844 83.339844 65.3125 84.515625 65.417969 C 84.8125 65.445312 85.113281 65.457031 85.410156 65.453125 C 85.726562 65.449219 86.035156 65.410156 86.335938 65.332031 C 86.976562 65.171875 87.511719 64.847656 87.949219 64.355469 C 88.382812 63.855469 88.628906 63.277344 88.691406 62.617188 C 88.753906 62.019531 88.75 61.425781 88.679688 60.828125 C 88.589844 60.023438 88.386719 59.25 88.070312 58.503906 C 88.449219 58.222656 88.828125 57.933594 89.195312 57.628906 L 89.417969 57.445312 L 89.640625 57.238281 C 89.785156 57.09375 89.921875 56.945312 90.050781 56.785156 C 90.296875 56.46875 90.511719 56.132812 90.6875 55.773438 C 90.703125 55.746094 90.71875 55.71875 90.730469 55.691406 C 90.730469 55.6875 90.730469 55.683594 90.730469 55.683594 C 90.828125 55.484375 90.917969 55.28125 90.996094 55.074219 C 91.1875 54.582031 91.347656 54.074219 91.46875 53.558594 C 91.558594 53.183594 91.628906 52.804688 91.699219 52.425781 C 91.765625 52.042969 91.816406 51.6875 91.910156 51.332031 C 91.976562 51.050781 92.070312 50.777344 92.1875 50.511719 C 92.257812 50.339844 92.335938 50.175781 92.425781 50.007812 C 92.539062 49.785156 92.671875 49.566406 92.808594 49.347656 C 92.945312 49.125 93.082031 48.90625 93.214844 48.683594 C 94.167969 48.898438 95.132812 49.023438 96.113281 49.054688 C 96.621094 49.070312 97.125 49.011719 97.621094 48.882812 C 98.105469 48.765625 98.578125 48.597656 99.03125 48.386719 C 99.46875 48.160156 99.886719 47.898438 100.285156 47.601562 C 100.664062 47.332031 101.0625 47.09375 101.480469 46.890625 C 101.6875 46.785156 101.894531 46.707031 102.117188 46.613281 C 102.355469 46.515625 102.585938 46.394531 102.796875 46.25 C 103.214844 45.972656 103.582031 45.636719 103.902344 45.25 C 104.261719 44.824219 104.542969 44.355469 104.757812 43.84375 C 104.890625 43.839844 105.027344 43.824219 105.160156 43.800781 C 105.632812 43.730469 106.058594 43.550781 106.4375 43.261719 C 106.824219 42.949219 107.09375 42.554688 107.25 42.082031 C 107.390625 41.632812 107.453125 41.167969 107.433594 40.695312 C 107.378906 39.90625 107.199219 39.148438 106.894531 38.421875 C 106.890625 38.148438 106.855469 37.878906 106.785156 37.617188 C 106.640625 37.078125 106.398438 36.59375 106.054688 36.15625 C 105.730469 35.710938 105.34375 35.332031 104.898438 35.011719 C 104.449219 34.699219 103.964844 34.457031 103.445312 34.285156 C 102.921875 34.121094 102.386719 34.042969 101.839844 34.050781 C 101.398438 34.058594 100.96875 34.132812 100.550781 34.273438 C 100.265625 34.203125 99.976562 34.152344 99.683594 34.121094 C 98.929688 34.03125 98.1875 34.089844 97.457031 34.296875 L 96.925781 34.492188 C 96.753906 34.574219 96.582031 34.660156 96.414062 34.75 C 96.25 34.851562 96.101562 34.96875 95.945312 35.078125 C 95.796875 35.199219 95.660156 35.328125 95.53125 35.464844 C 95.34375 35.664062 95.179688 35.882812 95.039062 36.117188 C 94.964844 36.125 94.890625 36.136719 94.820312 36.152344 C 94.65625 36.195312 94.5 36.253906 94.347656 36.328125 C 94.242188 36.378906 94.140625 36.433594 94.042969 36.496094 L 93.933594 36.433594 C 93.464844 36.199219 92.96875 36.050781 92.449219 35.988281 C 91.910156 35.917969 91.382812 35.960938 90.863281 36.117188 C 90.335938 36.296875 89.878906 36.585938 89.488281 36.984375 C 89.308594 37.1875 89.148438 37.402344 89.011719 37.636719 C 88.871094 37.871094 88.757812 38.117188 88.671875 38.375 C 88.589844 38.652344 88.542969 38.9375 88.539062 39.226562 C 88.328125 39.582031 88.199219 39.964844 88.148438 40.371094 C 88.136719 40.453125 88.128906 40.535156 88.128906 40.617188 L 88.128906 40.625 C 88.121094 40.773438 88.121094 40.925781 88.136719 41.074219 C 88.144531 41.191406 88.164062 41.304688 88.1875 41.417969 L 88.179688 41.421875 C 88.136719 41.445312 88.097656 41.46875 88.054688 41.492188 C 87.929688 41.34375 87.808594 41.191406 87.683594 41.042969 C 87.597656 40.9375 87.515625 40.835938 87.425781 40.734375 C 87.300781 40.582031 87.175781 40.4375 87.054688 40.296875 L 87.054688 40.292969 C 86.980469 40.210938 86.914062 40.128906 86.847656 40.042969 C 86.660156 39.8125 86.492188 39.574219 86.308594 39.320312 C 86.117188 39.058594 85.902344 38.8125 85.671875 38.585938 C 85.4375 38.363281 85.191406 38.15625 84.933594 37.964844 C 84.421875 37.589844 83.882812 37.261719 83.316406 36.976562 C 83.035156 36.839844 82.742188 36.710938 82.449219 36.597656 C 82.300781 36.542969 82.152344 36.488281 82.003906 36.4375 L 81.773438 36.371094 L 81.660156 36.339844 L 81.570312 36.308594 C 81.03125 36.089844 80.550781 35.78125 80.128906 35.378906 C 80.003906 35.273438 79.878906 35.164062 79.761719 35.050781 L 79.757812 35.050781 C 79.664062 34.859375 79.585938 34.660156 79.523438 34.460938 C 79.425781 34.132812 79.347656 33.792969 79.265625 33.449219 C 79.179688 33.097656 79.121094 32.765625 79 32.382812 C 78.726562 31.679688 78.363281 31.03125 77.898438 30.4375 C 77.453125 29.851562 76.960938 29.3125 76.425781 28.8125 C 76.289062 28.6875 76.148438 28.566406 76.007812 28.445312 L 75.589844 28.113281 C 75.328125 27.898438 75.082031 27.660156 74.839844 27.417969 C 74.359375 26.914062 73.914062 26.382812 73.503906 25.820312 C 73.300781 25.539062 73.101562 25.246094 72.90625 24.957031 C 72.871094 24.90625 72.835938 24.851562 72.800781 24.800781 C 72.871094 24.785156 72.9375 24.753906 72.992188 24.703125 C 73.054688 24.652344 73.105469 24.589844 73.144531 24.519531 C 73.246094 24.308594 73.300781 24.089844 73.3125 23.859375 C 73.332031 23.671875 73.375 23.480469 73.394531 23.273438 C 73.421875 23.066406 73.425781 22.855469 73.402344 22.648438 C 73.40625 22.644531 73.40625 22.644531 73.402344 22.640625 C 73.535156 22.4375 73.652344 22.226562 73.75 22.003906 C 73.878906 21.738281 73.957031 21.460938 73.988281 21.171875 C 74.003906 21.035156 73.996094 20.902344 73.96875 20.769531 C 74.042969 20.574219 74.09375 20.371094 74.121094 20.164062 C 74.164062 19.851562 74.160156 19.539062 74.109375 19.222656 C 74.066406 19.042969 73.972656 18.890625 73.824219 18.773438 C 73.691406 18.671875 73.542969 18.601562 73.378906 18.566406 C 73.242188 18.535156 73.109375 18.519531 72.972656 18.511719 C 72.957031 18.460938 72.9375 18.414062 72.917969 18.363281 C 72.867188 18.21875 72.804688 18.078125 72.734375 17.941406 C 72.695312 17.855469 72.644531 17.777344 72.582031 17.707031 C 72.503906 17.621094 72.40625 17.566406 72.292969 17.539062 C 72.132812 17.511719 71.972656 17.523438 71.816406 17.574219 C 71.800781 17.539062 71.78125 17.5 71.757812 17.460938 C 71.695312 17.367188 71.613281 17.296875 71.503906 17.261719 C 71.339844 17.207031 71.175781 17.207031 71.007812 17.261719 C 70.949219 17.277344 70.890625 17.296875 70.835938 17.320312 C 70.800781 17.289062 70.761719 17.261719 70.71875 17.242188 C 70.617188 17.207031 70.515625 17.199219 70.410156 17.21875 C 70.332031 17.234375 70.257812 17.257812 70.183594 17.285156 C 70.050781 17.335938 69.925781 17.398438 69.804688 17.46875 C 69.691406 17.53125 69.582031 17.597656 69.472656 17.664062 L 69.46875 17.664062 C 69.300781 17.65625 69.132812 17.664062 68.957031 17.671875 C 68.558594 17.691406 68.1875 17.808594 67.847656 18.015625 C 67.664062 18.136719 67.519531 18.300781 67.417969 18.5 C 67.332031 18.660156 67.253906 18.824219 67.179688 18.988281 L 66.738281 19.960938 C 66.476562 20.601562 66.132812 21.191406 65.707031 21.734375 C 65.605469 21.835938 65.496094 21.933594 65.382812 22.019531 C 65.3125 21.988281 65.238281 21.972656 65.164062 21.96875 C 65.121094 21.96875 65.078125 21.964844 65.039062 21.964844 L 64.933594 21.980469 C 64.867188 21.988281 64.800781 22.003906 64.738281 22.023438 C 64.675781 22.039062 64.613281 22.0625 64.554688 22.085938 C 64.355469 22.164062 64.160156 22.253906 63.96875 22.355469 C 63.761719 22.347656 63.558594 22.375 63.363281 22.4375 C 62.488281 22.691406 61.621094 22.964844 60.753906 23.261719 C 59.890625 23.550781 59.03125 23.863281 58.1875 24.207031 C 58.035156 24.265625 57.886719 24.332031 57.738281 24.394531 C 57.679688 24.039062 57.5625 23.707031 57.390625 23.394531 C 57.25 23.148438 57.078125 22.925781 56.871094 22.730469 C 56.671875 22.527344 56.441406 22.359375 56.179688 22.230469 C 55.652344 21.996094 55.097656 21.910156 54.519531 21.96875 C 53.996094 22.011719 53.472656 22.085938 52.953125 22.195312 C 52.449219 22.292969 51.9375 22.386719 51.425781 22.507812 C 50.898438 22.625 50.390625 22.792969 49.894531 23.007812 C 49.398438 23.230469 48.929688 23.503906 48.492188 23.824219 C 47.550781 24.480469 46.890625 25.347656 46.511719 26.429688 C 46.320312 26.96875 46.246094 27.523438 46.285156 28.09375 C 46.320312 28.625 46.386719 29.148438 46.488281 29.671875 C 46.589844 30.195312 46.734375 30.707031 46.917969 31.207031 C 47.113281 31.699219 47.335938 32.175781 47.589844 32.640625 C 47.816406 33.0625 48.066406 33.46875 48.335938 33.867188 C 48.316406 33.945312 48.3125 34.023438 48.3125 34.105469 C 48.320312 34.210938 48.332031 34.3125 48.355469 34.417969 C 48.382812 34.511719 48.414062 34.609375 48.449219 34.703125 C 48.464844 34.734375 48.476562 34.769531 48.496094 34.800781 L 48.496094 34.804688 C 48.527344 35.175781 48.597656 35.542969 48.707031 35.898438 C 48.746094 36.011719 48.789062 36.121094 48.84375 36.226562 L 48.925781 36.386719 L 49 36.523438 C 49.09375 36.707031 49.1875 36.894531 49.277344 37.085938 C 49.605469 37.78125 49.910156 38.5 50.210938 39.214844 C 50.160156 39.59375 50.140625 39.972656 50.152344 40.355469 C 50.167969 40.953125 50.203125 41.539062 50.25 42.125 C 50.378906 43.265625 50.390625 44.40625 50.285156 45.550781 C 50.257812 45.832031 50.214844 46.109375 50.164062 46.386719 C 50.136719 46.519531 50.109375 46.675781 50.085938 46.832031 C 50.058594 46.988281 50.042969 47.148438 50.039062 47.304688 C 50.007812 47.929688 50.066406 48.546875 50.214844 49.152344 C 50.359375 49.738281 50.546875 50.308594 50.765625 50.867188 C 50.992188 51.382812 51.160156 51.914062 51.28125 52.464844 C 51.433594 53.539062 51.285156 54.75 51.449219 55.949219 C 51.488281 56.25 51.554688 56.550781 51.644531 56.84375 C 51.734375 57.132812 51.851562 57.417969 51.988281 57.691406 C 52.242188 58.226562 52.535156 58.742188 52.867188 59.238281 C 52.980469 59.40625 53.105469 59.574219 53.234375 59.734375 L 53.234375 59.738281 C 53.238281 60.085938 53.269531 60.421875 53.300781 60.757812 C 53.375 61.40625 53.492188 62.050781 53.558594 62.675781 C 53.574219 62.828125 53.585938 62.984375 53.585938 63.125 C 53.585938 63.25 53.566406 63.367188 53.523438 63.484375 C 53.414062 63.757812 53.277344 64.011719 53.105469 64.246094 C 52.753906 64.757812 52.332031 65.265625 51.976562 65.84375 C 51.605469 66.433594 51.332031 67.0625 51.164062 67.738281 C 51.085938 68.085938 51.046875 68.4375 51.050781 68.792969 C 51.054688 69.140625 51.082031 69.476562 51.113281 69.800781 C 51.140625 70.054688 51.164062 70.316406 51.183594 70.5625 C 50.597656 71.160156 50.085938 71.8125 49.648438 72.523438 C 49.175781 73.25 48.761719 74.007812 48.351562 74.746094 C 48.140625 75.109375 47.9375 75.476562 47.710938 75.8125 C 47.601562 75.976562 47.488281 76.136719 47.359375 76.285156 L 47.148438 76.542969 C 47.070312 76.636719 47.003906 76.742188 46.933594 76.839844 C 46.699219 77.25 46.53125 77.6875 46.425781 78.148438 C 46.328125 78.53125 46.191406 78.898438 46.011719 79.253906 C 45.828125 79.601562 45.613281 79.933594 45.367188 80.242188 C 45.117188 80.550781 44.839844 80.863281 44.558594 81.183594 C 43.996094 81.808594 43.417969 82.433594 42.835938 83.046875 L 39.335938 86.757812 C 38.160156 87.988281 36.996094 89.230469 35.839844 90.480469 C 35.257812 91.105469 34.679688 91.730469 34.113281 92.371094 C 33.523438 93.011719 32.976562 93.683594 32.472656 94.386719 C 31.984375 95.105469 31.550781 95.859375 31.179688 96.644531 C 31.039062 96.929688 30.902344 97.214844 30.765625 97.5 C 30.703125 97.527344 30.640625 97.558594 30.574219 97.589844 C 29.761719 98 28.964844 98.445312 28.183594 98.898438 C 26.617188 99.808594 25.082031 100.757812 23.519531 101.628906 C 21.941406 102.476562 20.332031 103.332031 18.769531 104.246094 C 17.984375 104.703125 17.207031 105.171875 16.441406 105.664062 L 16.15625 105.851562 L 16.015625 105.945312 L 15.886719 106.023438 C 15.710938 106.132812 15.523438 106.222656 15.304688 106.34375 C 15.039062 106.480469 14.816406 106.664062 14.632812 106.902344 C 14.460938 107.164062 14.367188 107.449219 14.34375 107.761719 C 14.34375 107.78125 14.339844 107.796875 14.339844 107.816406 C 14.039062 107.890625 13.742188 107.980469 13.445312 108.074219 C 12.503906 108.382812 11.597656 108.789062 10.738281 109.285156 C 10.285156 109.523438 9.867188 109.808594 9.480469 110.140625 C 9.273438 110.328125 9.105469 110.546875 8.980469 110.792969 C 8.855469 111.046875 8.78125 111.316406 8.761719 111.597656 C 8.742188 111.855469 8.742188 112.109375 8.757812 112.363281 C 8.761719 112.621094 8.789062 112.878906 8.832031 113.136719 C 8.859375 113.300781 8.925781 113.449219 9.027344 113.585938 C 9.160156 113.734375 9.324219 113.8125 9.523438 113.824219 C 9.542969 113.824219 9.558594 113.828125 9.578125 113.824219 C 9.492188 114.296875 9.304688 114.722656 9.007812 115.101562 C 8.972656 115.148438 8.933594 115.1875 8.890625 115.230469 L 8.765625 115.363281 C 8.667969 115.457031 8.582031 115.558594 8.496094 115.667969 C 8.324219 115.878906 8.171875 116.109375 8.046875 116.351562 C 7.800781 116.84375 7.640625 117.363281 7.574219 117.910156 C 7.527344 118.183594 7.503906 118.457031 7.5 118.730469 C 7.5 119.027344 7.546875 119.320312 7.632812 119.601562 C 7.8125 120.175781 8.128906 120.667969 8.574219 121.070312 C 8.792969 121.273438 9.035156 121.441406 9.296875 121.582031 C 9.554688 121.710938 9.820312 121.8125 10.09375 121.890625 C 10.65625 122.050781 11.222656 122.097656 11.804688 122.035156 C 12.402344 121.96875 12.953125 121.761719 13.449219 121.417969 C 13.570312 121.332031 13.6875 121.242188 13.796875 121.144531 C 13.898438 121.042969 14.019531 120.929688 14.101562 120.835938 C 14.277344 120.644531 14.449219 120.4375 14.617188 120.226562 C 14.964844 119.792969 15.25 119.324219 15.46875 118.8125 C 15.679688 118.296875 15.808594 117.757812 15.855469 117.199219 C 15.867188 117.0625 15.878906 116.925781 15.878906 116.792969 C 15.878906 116.726562 15.878906 116.644531 15.882812 116.59375 L 15.894531 116.4375 C 15.910156 116.210938 15.945312 115.988281 16.003906 115.773438 C 16.097656 115.433594 16.226562 115.105469 16.382812 114.789062 C 16.921875 115.9375 17.554688 117.03125 18.273438 118.074219 C 18.539062 118.457031 18.820312 118.828125 19.121094 119.191406 C 19.273438 119.371094 19.4375 119.542969 19.59375 119.71875 C 19.769531 119.886719 19.925781 120.0625 20.121094 120.21875 C 20.515625 120.589844 20.972656 120.851562 21.488281 121.003906 C 21.640625 121.035156 21.789062 121.054688 21.941406 121.066406 C 22.09375 121.066406 22.246094 121.050781 22.394531 121.019531 L 22.613281 120.964844 C 22.683594 120.945312 22.746094 120.914062 22.8125 120.886719 C 22.878906 120.859375 22.945312 120.832031 23.003906 120.800781 L 23.175781 120.699219 C 23.589844 120.433594 23.972656 120.128906 24.320312 119.78125 C 24.65625 119.460938 24.976562 119.140625 25.292969 118.820312 C 25.929688 118.175781 26.554688 117.546875 27.207031 116.929688 C 28.519531 115.695312 29.832031 114.476562 31.214844 113.351562 C 32.605469 112.230469 34.058594 111.195312 35.574219 110.25 C 36.359375 109.753906 37.101562 109.203125 37.804688 108.597656 C 38.503906 107.988281 39.15625 107.339844 39.769531 106.648438 C 40.382812 105.972656 40.957031 105.285156 41.574219 104.664062 C 41.878906 104.359375 42.203125 104.070312 42.542969 103.800781 C 42.882812 103.535156 43.246094 103.277344 43.617188 103.03125 C 45.09375 102.042969 46.648438 101.121094 48.195312 100.191406 C 48.464844 100.03125 48.738281 99.871094 49.007812 99.707031 C 48.992188 100.78125 48.960938 101.855469 48.863281 102.914062 C 48.753906 104.480469 48.214844 106.011719 47.710938 107.5625 C 47.605469 107.890625 47.492188 108.214844 47.386719 108.542969 C 46.996094 108.804688 46.597656 109.058594 46.203125 109.296875 C 45.4375 109.742188 44.644531 110.136719 43.832031 110.484375 C 42.179688 111.175781 40.476562 111.71875 38.730469 112.117188 C 37.867188 112.324219 36.992188 112.480469 36.113281 112.582031 C 35.945312 112.59375 35.785156 112.636719 35.632812 112.703125 C 35.414062 112.800781 35.261719 112.957031 35.167969 113.175781 C 35.09375 113.378906 35.082031 113.582031 35.140625 113.789062 C 35.179688 113.941406 35.242188 114.085938 35.324219 114.222656 C 35.613281 114.664062 35.988281 115.023438 36.441406 115.300781 C 37.289062 115.824219 38.207031 116.125 39.199219 116.203125 C 39.4375 116.226562 39.675781 116.234375 39.917969 116.230469 C 40.039062 116.226562 40.160156 116.222656 40.28125 116.214844 C 40.394531 116.210938 40.480469 116.203125 40.582031 116.207031 C 40.988281 116.21875 41.378906 116.3125 41.746094 116.484375 C 42.523438 116.886719 43.226562 117.390625 43.851562 118.003906 C 44.527344 118.65625 45.265625 119.226562 46.066406 119.710938 C 46.507812 119.957031 46.980469 120.105469 47.480469 120.15625 C 47.988281 120.199219 48.480469 120.125 48.957031 119.9375 C 49.402344 119.757812 49.820312 119.523438 50.203125 119.234375 L 50.761719 118.828125 L 51.304688 118.398438 C 52.023438 117.8125 52.667969 117.152344 53.242188 116.425781 C 53.695312 116.507812 54.152344 116.613281 54.605469 116.71875 C 56.15625 117.097656 57.753906 117.492188 59.398438 117.578125 C 60.226562 117.613281 61.023438 117.589844 61.835938 117.566406 C 62.65625 117.554688 63.46875 117.484375 64.28125 117.359375 C 64.703125 117.292969 65.117188 117.1875 65.523438 117.050781 C 65.558594 117.828125 65.574219 118.605469 65.558594 119.378906 C 65.550781 119.792969 65.519531 120.207031 65.460938 120.617188 C 65.414062 121.027344 65.324219 121.425781 65.191406 121.816406 C 65.058594 122.207031 64.894531 122.582031 64.695312 122.941406 C 64.492188 123.304688 64.246094 123.652344 64.011719 124.015625 C 63.933594 124.136719 63.855469 124.261719 63.777344 124.390625 C 63.617188 124.390625 63.460938 124.402344 63.304688 124.414062 C 62.910156 124.453125 62.519531 124.519531 62.136719 124.617188 C 61.746094 124.707031 61.367188 124.832031 61 124.996094 C 60.800781 125.082031 60.617188 125.1875 60.441406 125.308594 C 60.339844 125.382812 60.246094 125.46875 60.164062 125.5625 C 60.117188 125.632812 60.078125 125.703125 60.042969 125.78125 L 59.992188 125.925781 C 59.910156 126.160156 59.878906 126.398438 59.902344 126.644531 C 59.945312 126.9375 60.085938 127.175781 60.316406 127.355469 C 60.683594 127.621094 61.09375 127.789062 61.539062 127.855469 C 62.328125 127.992188 63.117188 128.058594 63.914062 128.050781 C 64.710938 128.046875 65.5 127.972656 66.277344 127.824219 C 66.683594 127.746094 67.078125 127.628906 67.457031 127.464844 C 67.839844 127.28125 68.179688 127.042969 68.480469 126.742188 C 69.023438 126.222656 69.445312 125.652344 69.960938 125.191406 C 70.125 125.242188 70.277344 125.3125 70.421875 125.402344 C 70.601562 125.515625 70.746094 125.664062 70.851562 125.847656 C 70.957031 126.03125 71.023438 126.226562 71.058594 126.4375 C 71.089844 126.65625 71.101562 126.878906 71.09375 127.101562 L 71.070312 127.832031 C 71.050781 128.316406 71.046875 128.800781 71.035156 129.285156 L 71.035156 129.441406 L 71.148438 129.542969 C 71.203125 129.597656 71.265625 129.640625 71.332031 129.675781 C 71.390625 129.710938 71.453125 129.738281 71.519531 129.757812 C 71.644531 129.804688 71.773438 129.824219 71.910156 129.824219 C 72.039062 129.820312 72.164062 129.796875 72.289062 129.757812 C 72.402344 129.71875 72.511719 129.667969 72.613281 129.605469 L 72.816406 129.488281 L 72.78125 129.222656 C 72.730469 128.75 72.738281 128.277344 72.8125 127.804688 C 72.859375 127.464844 72.945312 127.136719 73.066406 126.8125 C 73.132812 126.929688 73.210938 127.042969 73.292969 127.148438 C 73.339844 127.199219 73.390625 127.246094 73.445312 127.289062 C 73.496094 127.324219 73.546875 127.355469 73.601562 127.378906 C 73.703125 127.429688 73.785156 127.464844 73.878906 127.503906 C 74.054688 127.570312 74.230469 127.636719 74.410156 127.691406 C 74.765625 127.804688 75.128906 127.90625 75.488281 127.988281 C 76.21875 128.167969 76.953125 128.285156 77.703125 128.339844 C 78.085938 128.367188 78.464844 128.367188 78.847656 128.339844 C 79.042969 128.324219 79.234375 128.296875 79.429688 128.265625 C 79.632812 128.226562 79.828125 128.171875 80.019531 128.101562 C 80.464844 127.96875 80.816406 127.707031 81.070312 127.320312 C 81.304688 126.917969 81.382812 126.488281 81.300781 126.03125 C 81.242188 125.636719 81.125 125.261719 80.949219 124.902344 C 80.832031 124.644531 80.699219 124.398438 80.554688 124.15625 C 80.96875 124.160156 81.375 124.113281 81.777344 124.019531 C 82.113281 123.949219 82.382812 123.78125 82.59375 123.515625 C 82.710938 123.339844 82.761719 123.144531 82.746094 122.933594 L 82.726562 122.796875 L 82.714844 122.710938 L 82.683594 122.550781 C 82.625 122.09375 82.59375 121.636719 82.582031 121.179688 C 82.542969 120.246094 82.558594 119.300781 82.574219 118.355469 L 82.59375 117.238281 C 83.191406 117.246094 83.78125 117.207031 84.375 117.128906 C 85.207031 117.03125 86.019531 116.84375 86.8125 116.566406 C 88.410156 115.992188 89.816406 115.113281 91.023438 113.917969 C 92.230469 112.796875 93.28125 111.554688 94.34375 110.367188 C 94.441406 110.261719 94.535156 110.152344 94.628906 110.050781 C 94.71875 109.957031 94.804688 109.859375 94.894531 109.765625 C 95.09375 109.554688 95.292969 109.34375 95.5 109.140625 C 95.539062 109.195312 95.582031 109.25 95.625 109.300781 C 96.015625 109.789062 96.429688 110.261719 96.855469 110.726562 C 97.070312 110.957031 97.296875 111.179688 97.515625 111.402344 C 97.730469 111.621094 97.949219 111.832031 98.160156 112.054688 C 99.859375 113.824219 101.445312 115.722656 102.972656 117.660156 C 103.734375 118.628906 104.484375 119.605469 105.179688 120.617188 C 105.53125 121.113281 105.832031 121.632812 106.089844 122.183594 C 106.347656 122.738281 106.570312 123.304688 106.761719 123.882812 C 107.148438 125.042969 107.457031 126.25 107.785156 127.4375 C 107.875 127.785156 107.957031 128.128906 108.046875 128.480469 C 107.777344 128.800781 107.558594 129.148438 107.386719 129.527344 C 107.207031 129.90625 107.054688 130.292969 106.925781 130.691406 C 106.859375 130.886719 106.796875 131.089844 106.746094 131.308594 C 106.671875 131.566406 106.664062 131.824219 106.726562 132.085938 C 106.777344 132.261719 106.875 132.40625 107.019531 132.515625 C 107.085938 132.566406 107.15625 132.605469 107.230469 132.640625 C 107.296875 132.671875 107.363281 132.6875 107.425781 132.710938 C 107.660156 132.765625 107.894531 132.785156 108.132812 132.777344 C 108.550781 132.773438 108.96875 132.742188 109.382812 132.691406 C 110.246094 132.601562 111.0625 132.351562 111.828125 131.941406 C 112.214844 131.730469 112.566406 131.472656 112.886719 131.171875 C 113.214844 130.855469 113.472656 130.496094 113.667969 130.082031 C 114.011719 129.269531 114.132812 128.425781 114.03125 127.546875 C 114.007812 127.136719 113.941406 126.714844 113.886719 126.328125 C 113.832031 125.933594 113.800781 125.539062 113.789062 125.140625 C 113.78125 124.878906 113.796875 124.617188 113.832031 124.355469 C 114.023438 124.589844 114.214844 124.824219 114.398438 125.066406 C 114.808594 125.585938 115.203125 126.121094 115.59375 126.652344 L 115.664062 126.75 L 115.792969 126.761719 C 115.921875 126.773438 116.050781 126.765625 116.179688 126.742188 C 116.316406 126.714844 116.441406 126.65625 116.554688 126.570312 C 116.667969 126.488281 116.757812 126.386719 116.832031 126.269531 C 116.902344 126.152344 116.953125 126.027344 116.984375 125.890625 L 117.027344 125.707031 L 116.847656 125.5625 C 116.507812 125.277344 116.214844 124.953125 115.964844 124.585938 C 115.835938 124.402344 115.714844 124.210938 115.601562 124.019531 C 115.546875 123.925781 115.492188 123.820312 115.449219 123.730469 C 115.410156 123.644531 115.382812 123.558594 115.363281 123.46875 C 115.273438 123.066406 115.253906 122.574219 115.191406 122.097656 C 115.136719 121.605469 115.046875 121.117188 114.917969 120.636719 C 114.78125 120.125 114.554688 119.660156 114.242188 119.238281 C 114.082031 119.023438 113.898438 118.832031 113.691406 118.664062 C 113.585938 118.578125 113.484375 118.511719 113.378906 118.441406 C 113.277344 118.367188 113.167969 118.300781 113.058594 118.238281 C 112.613281 117.949219 112.121094 117.789062 111.589844 117.753906 C 111.339844 117.746094 111.101562 117.792969 110.875 117.898438 C 110.761719 117.839844 110.644531 117.777344 110.53125 117.710938 C 110.242188 117.554688 109.96875 117.371094 109.71875 117.160156 C 109.21875 116.722656 108.792969 116.222656 108.4375 115.660156 C 108.066406 115.097656 107.726562 114.519531 107.417969 113.917969 C 106.195312 111.503906 105.144531 108.972656 103.984375 106.5 C 103.921875 106.355469 103.851562 106.214844 103.785156 106.070312 C 103.789062 106.066406 103.792969 106.066406 103.796875 106.066406 C 103.929688 106.058594 104.066406 106.050781 104.203125 106.039062 C 104.609375 106.011719 105.019531 105.984375 105.433594 105.949219 C 105.476562 105.949219 105.523438 105.945312 105.5625 105.941406 C 105.933594 105.90625 106.304688 105.867188 106.679688 105.816406 C 106.816406 105.800781 106.957031 105.78125 107.09375 105.757812 C 107.925781 105.640625 108.738281 105.4375 109.53125 105.152344 C 110.335938 104.847656 111.082031 104.433594 111.765625 103.914062 C 113.078125 102.894531 114.203125 101.703125 115.359375 100.636719 C 115.914062 100.101562 116.519531 99.632812 117.175781 99.230469 C 117.789062 98.84375 118.460938 98.660156 119.1875 98.679688 L 119.449219 98.691406 C 119.53125 98.699219 119.621094 98.726562 119.707031 98.742188 L 120.277344 98.867188 C 120.496094 98.925781 120.714844 98.960938 120.9375 98.976562 C 121.160156 99.007812 121.386719 99.011719 121.609375 98.996094 C 122.511719 98.941406 123.34375 98.675781 124.113281 98.199219 C 124.820312 97.757812 125.484375 97.25 126.097656 96.683594 C 126.402344 96.414062 126.699219 96.144531 126.996094 95.898438 C 127.144531 95.765625 127.292969 95.660156 127.441406 95.546875 C 127.589844 95.4375 127.742188 95.34375 127.898438 95.257812 C 128.558594 94.914062 129.257812 94.722656 130.003906 94.683594 C 130.746094 94.648438 131.460938 94.765625 132.152344 95.042969 C 132.492188 95.175781 132.804688 95.347656 133.097656 95.566406 L 133.207031 95.648438 L 133.351562 95.75 C 133.464844 95.832031 133.589844 95.898438 133.722656 95.949219 C 133.976562 96.035156 134.238281 96.070312 134.503906 96.054688 C 134.976562 96.015625 135.417969 95.886719 135.835938 95.667969 C 136.226562 95.46875 136.589844 95.234375 136.925781 94.960938 C 138.25 93.871094 139.246094 92.535156 139.921875 90.960938 C 140.019531 90.742188 140.105469 90.519531 140.1875 90.292969 C 140.214844 90.226562 140.238281 90.152344 140.261719 90.082031 C 140.285156 90.015625 140.308594 89.949219 140.328125 89.878906 C 140.335938 89.863281 140.34375 89.84375 140.347656 89.824219 C 140.351562 89.808594 140.355469 89.796875 140.359375 89.78125 C 140.417969 89.597656 140.46875 89.410156 140.519531 89.222656 C 140.574219 89.003906 140.621094 88.785156 140.664062 88.566406 C 140.738281 88.152344 140.789062 87.734375 140.816406 87.316406 C 140.820312 87.238281 140.824219 87.15625 140.828125 87.078125 C 140.90625 86.980469 140.980469 86.882812 141.046875 86.777344 L 141.242188 86.464844 L 141.394531 86.144531 C 141.503906 85.929688 141.570312 85.710938 141.660156 85.492188 C 141.941406 84.632812 142.15625 83.753906 142.304688 82.859375 C 142.46875 81.941406 142.488281 81.019531 142.367188 80.09375 Z M 65.898438 27.101562 C 65.949219 27.019531 65.988281 26.933594 66.015625 26.839844 C 66.046875 26.828125 66.082031 26.816406 66.113281 26.804688 C 66.328125 26.726562 66.535156 26.660156 66.769531 26.5625 C 66.910156 26.507812 67.035156 26.429688 67.140625 26.324219 C 67.257812 26.1875 67.320312 26.03125 67.328125 25.851562 C 67.332031 25.824219 67.332031 25.796875 67.332031 25.773438 C 67.457031 25.730469 67.582031 25.6875 67.707031 25.648438 C 68.09375 25.523438 68.492188 25.472656 68.898438 25.492188 C 69.101562 25.496094 69.289062 25.519531 69.519531 25.511719 C 69.570312 25.648438 69.617188 25.789062 69.660156 25.929688 C 69.976562 26.867188 70.253906 27.820312 70.539062 28.773438 C 70.808594 29.734375 71.125 30.675781 71.332031 31.628906 C 71.382812 31.863281 71.433594 32.101562 71.476562 32.339844 C 71.523438 32.578125 71.550781 32.8125 71.613281 33.097656 C 71.746094 33.636719 71.984375 34.128906 72.320312 34.574219 C 72.640625 34.996094 72.976562 35.355469 73.242188 35.734375 C 73.527344 36.15625 73.839844 36.558594 74.167969 36.941406 C 74.820312 37.675781 75.402344 38.457031 75.917969 39.289062 C 76.441406 40.125 76.910156 40.992188 77.320312 41.886719 C 77.335938 41.925781 77.355469 41.964844 77.371094 42.007812 C 77.417969 42.125 77.460938 42.242188 77.5 42.359375 C 77.425781 42.445312 77.347656 42.53125 77.269531 42.609375 C 77.199219 42.679688 77.128906 42.75 77.054688 42.816406 C 76.847656 43.015625 76.628906 43.195312 76.398438 43.367188 C 76.085938 43.589844 75.757812 43.792969 75.417969 43.972656 C 75.25 44.0625 75.074219 44.140625 74.898438 44.222656 L 74.347656 44.476562 C 73.980469 44.660156 73.625 44.867188 73.285156 45.101562 C 72.585938 45.566406 71.980469 46.128906 71.460938 46.789062 C 70.933594 47.453125 70.539062 48.1875 70.273438 48.992188 C 70.035156 49.789062 69.90625 50.605469 69.886719 51.4375 C 69.867188 51.886719 69.867188 52.335938 69.886719 52.78125 C 69.773438 51.988281 69.617188 51.207031 69.421875 50.429688 C 69.242188 49.6875 69.015625 48.964844 68.773438 48.234375 C 68.511719 47.507812 68.203125 46.800781 67.847656 46.113281 C 67.484375 45.433594 67.070312 44.78125 66.613281 44.160156 C 66.152344 43.542969 65.679688 42.957031 65.230469 42.367188 C 64.78125 41.734375 64.265625 41.160156 63.679688 40.652344 C 63.371094 40.398438 63.042969 40.171875 62.691406 39.976562 C 62.664062 39.777344 62.621094 39.582031 62.566406 39.386719 C 62.453125 38.976562 62.257812 38.609375 61.976562 38.289062 C 62.023438 38.199219 62.0625 38.109375 62.09375 38.011719 C 62.144531 37.863281 62.179688 37.710938 62.195312 37.554688 C 62.207031 37.472656 62.210938 37.390625 62.207031 37.308594 L 62.199219 37.097656 C 62.175781 36.546875 62.136719 36 62.09375 35.453125 C 62.050781 34.90625 62.003906 34.363281 61.9375 33.816406 C 61.902344 33.542969 61.871094 33.273438 61.832031 32.996094 C 61.785156 32.707031 61.710938 32.421875 61.609375 32.148438 C 61.402344 31.625 61.160156 31.121094 60.886719 30.636719 C 60.738281 30.363281 60.601562 30.089844 60.476562 29.816406 C 60.613281 29.726562 60.761719 29.644531 60.90625 29.566406 C 61.703125 29.152344 62.519531 28.78125 63.355469 28.457031 L 64.621094 27.960938 C 65.03125 27.792969 65.554688 27.628906 65.898438 27.101562 Z M 65.898438 27.101562 " fill-opacity="1" fill-rule="nonzero"/></g><path fill="#e6e6e6" d="M 48.613281 34.945312 C 48.875 35.46875 49.238281 35.90625 49.703125 36.257812 C 50.167969 36.613281 50.683594 36.847656 51.257812 36.960938 C 51.523438 37.101562 51.324219 37.71875 51.40625 38.027344 C 51.390625 38 51.371094 37.96875 51.359375 37.9375 C 51.445312 38.355469 51.4375 38.773438 51.335938 39.1875 C 51.035156 38.714844 50.964844 38.214844 51.128906 37.679688 C 50.910156 38.390625 50.800781 39.117188 50.796875 39.859375 C 50.722656 39.691406 50.640625 39.527344 50.542969 39.371094 C 50.660156 40.210938 50.855469 41.035156 51.128906 41.835938 C 51.1875 41.445312 51.164062 41.058594 51.0625 40.675781 C 51.082031 40.695312 51.105469 40.71875 51.128906 40.738281 C 50.984375 40.230469 51.113281 39.714844 51.183594 39.214844 C 53.21875 42.042969 57.390625 41.917969 60.191406 43.734375 C 63.460938 45.5625 67.488281 47.304688 68.886719 51.046875 C 68.164062 49.042969 67.167969 47.179688 65.898438 45.460938 C 64.566406 43.714844 62.5 42.296875 62.417969 39.9375 C 61.949219 43.035156 65.117188 44.867188 66.523438 47.238281 C 63.953125 44.996094 60.882812 43.328125 57.71875 42.082031 C 56.078125 41.121094 51.105469 41.046875 51.710938 38.636719 C 54.039062 41.332031 58.007812 39.386719 60.859375 40.277344 C 60.796875 39.679688 61.382812 38.878906 61.652344 38.273438 C 60.941406 39.410156 59.476562 39.429688 58.300781 39.261719 C 56.246094 39.214844 53.957031 38.902344 52.835938 36.953125 C 53.863281 39.960938 58.179688 40.292969 60.734375 39.378906 C 60.679688 39.59375 60.609375 39.808594 60.5625 40.03125 C 57.84375 39.050781 51.605469 41.355469 51.695312 37.015625 C 51.8125 37.015625 51.921875 36.992188 52.027344 36.941406 C 52.132812 36.890625 52.222656 36.824219 52.296875 36.734375 C 52.371094 36.644531 52.421875 36.542969 52.453125 36.429688 C 52.480469 36.316406 52.480469 36.203125 52.457031 36.085938 C 52.414062 36.496094 51.964844 36.925781 51.628906 36.660156 L 51.886719 36.65625 C 51.726562 36.664062 51.570312 36.660156 51.414062 36.644531 C 51.421875 36.640625 51.429688 36.640625 51.441406 36.644531 C 49.675781 36.386719 47.070312 32.472656 50.582031 33.605469 C 50.5625 33.585938 50.539062 33.566406 50.515625 33.550781 C 51.644531 33.882812 51.992188 33.003906 51.941406 32.035156 C 51.957031 30.53125 49.972656 28.734375 51.402344 27.425781 C 53.054688 26.34375 56.492188 26.832031 56.878906 24.363281 C 56.019531 27.128906 51.5 25.3125 50.460938 27.902344 C 49.902344 30.019531 52.328125 31.417969 51.363281 33.273438 C 50.550781 33.78125 49.761719 32.824219 48.910156 33.183594 C 48.203125 33.46875 48.253906 34.410156 48.613281 34.945312 Z M 48.613281 34.945312 " fill-opacity="1" fill-rule="nonzero"/><path fill="#e6e6e6" d="M 91.664062 43.296875 C 91.792969 42.613281 91.992188 41.949219 92.257812 41.308594 C 90.609375 43.152344 89.371094 48.292969 93.097656 48.347656 C 90.695312 47.707031 91.265625 45.1875 91.664062 43.296875 Z M 91.664062 43.296875 " fill-opacity="1" fill-rule="nonzero"/><path fill="#e6e6e6" d="M 103.175781 42.15625 C 104.648438 41.902344 106 40.339844 105.621094 38.804688 C 105.410156 40.3125 104.425781 41.367188 103.175781 42.15625 Z M 103.175781 42.15625 " fill-opacity="1" fill-rule="nonzero"/><path fill="#e6e6e6" d="M 103.367188 41.308594 C 104.210938 40.808594 104.875 39.675781 104.601562 38.6875 C 104.480469 39.671875 103.957031 40.515625 103.367188 41.308594 Z M 103.367188 41.308594 " fill-opacity="1" fill-rule="nonzero"/><path fill="#e6e6e6" d="M 103.554688 39.6875 C 103.757812 39.363281 103.851562 39.011719 103.832031 38.632812 C 103.507812 39.292969 103.140625 39.824219 102.8125 40.480469 C 103.125 40.277344 103.371094 40.011719 103.554688 39.6875 Z M 103.554688 39.6875 " fill-opacity="1" fill-rule="nonzero"/><path fill="#e6e6e6" d="M 102.070312 39.191406 C 102.8125 38.140625 103.417969 37.105469 104.207031 36.089844 C 103.078125 36.707031 102.328125 37.949219 102.070312 39.191406 Z M 102.070312 39.191406 " fill-opacity="1" fill-rule="nonzero"/><path fill="#e6e6e6" d="M 102 37.046875 C 101.691406 37.441406 101.570312 37.886719 101.636719 38.382812 C 101.929688 37.820312 102.078125 37.308594 102.367188 36.746094 C 102.21875 36.816406 102.097656 36.917969 102 37.046875 Z M 102 37.046875 " fill-opacity="1" fill-rule="nonzero"/><path fill="#e6e6e6" d="M 105.109375 41.558594 C 104.699219 41.800781 104.277344 41.996094 103.832031 42.15625 C 104.761719 42.226562 106.078125 41.582031 105.890625 40.480469 C 105.777344 40.949219 105.519531 41.308594 105.109375 41.558594 Z M 105.109375 41.558594 " fill-opacity="1" fill-rule="nonzero"/><path fill="#e6e6e6" d="M 98.574219 37.507812 C 99.613281 37.667969 100.839844 36.777344 100.902344 35.707031 C 100.667969 36.164062 100.34375 36.546875 99.9375 36.863281 C 99.53125 37.179688 99.074219 37.390625 98.574219 37.507812 Z M 98.574219 37.507812 " fill-opacity="1" fill-rule="nonzero"/><path fill="#e6e6e6" d="M 100.566406 37.039062 C 100.46875 37.160156 100.367188 37.277344 100.269531 37.417969 C 100.628906 37.296875 100.910156 37.074219 101.109375 36.75 C 100.929688 37.105469 100.859375 37.484375 100.90625 37.878906 C 101.164062 36.976562 101.652344 36.21875 102.367188 35.609375 C 101.859375 35.761719 101.476562 36.070312 101.226562 36.539062 C 101.335938 36.332031 101.367188 36.113281 101.328125 35.882812 C 101.121094 36.300781 100.867188 36.683594 100.566406 37.039062 Z M 100.566406 37.039062 " fill-opacity="1" fill-rule="nonzero"/><path fill="#e6e6e6" d="M 103.996094 37.507812 C 103.277344 37.917969 102.550781 38.664062 102.675781 39.554688 C 103.0625 38.804688 103.644531 38.292969 103.996094 37.507812 Z M 103.996094 37.507812 " fill-opacity="1" fill-rule="nonzero"/><path fill="#e6e6e6" d="M 105.320312 42.496094 C 104.953125 42.667969 104.578125 42.769531 104.207031 42.960938 C 104.996094 43.148438 106.238281 42.769531 106.21875 41.808594 C 105.988281 42.125 105.6875 42.355469 105.320312 42.496094 Z M 105.320312 42.496094 " fill-opacity="1" fill-rule="nonzero"/><path fill="#e6e6e6" d="M 87.542969 41.765625 C 86.042969 41.363281 84.421875 41.753906 83 42.484375 C 81.441406 43.339844 78.796875 43.691406 78.367188 45.722656 C 80.457031 51.597656 88.886719 45.359375 92.121094 49.972656 C 89.074219 45.429688 82.28125 50.375 79.027344 46.367188 C 77.722656 44.476562 84.171875 42.328125 85.488281 42.703125 C 88.125 42.597656 90.324219 40.78125 92.425781 39.351562 C 92.40625 39.691406 92.585938 40.285156 93.03125 40.113281 C 91.214844 39.058594 96.296875 34.167969 95.707031 37.9375 C 95.714844 37.921875 95.722656 37.90625 95.730469 37.890625 C 97.097656 38.890625 98.628906 36.96875 99.90625 36.53125 C 98.507812 36.246094 97.058594 38.265625 95.855469 37.550781 C 96.335938 34.4375 92.335938 37.195312 92.457031 38.910156 C 91.417969 39.640625 89.300781 40.773438 88.179688 41.421875 C 87.6875 41.675781 87.265625 40.679688 86.757812 40.472656 C 87.039062 40.902344 87.351562 41.308594 87.691406 41.695312 C 87.644531 41.71875 87.59375 41.742188 87.542969 41.765625 Z M 85.460938 42.316406 C 85.207031 42.34375 84.953125 42.363281 84.695312 42.375 C 85.304688 42.136719 85.933594 42.050781 86.585938 42.105469 C 86.21875 42.203125 85.84375 42.273438 85.460938 42.316406 Z M 85.460938 42.316406 " fill-opacity="1" fill-rule="nonzero"/><path fill="#e6e6e6" d="M 86.066406 59.441406 C 81.410156 63.484375 75.027344 62.484375 69.425781 61.527344 C 68.0625 61.277344 66.6875 61.058594 65.3125 61.273438 C 62.601562 61.265625 60.09375 59.640625 57.714844 58.496094 C 58.925781 58.347656 60.148438 58.757812 61.324219 59.039062 C 60.550781 58.644531 59.679688 58.453125 58.878906 58.160156 C 56.683594 56.535156 58.144531 57.097656 59.722656 57.382812 C 59.582031 57.304688 59.445312 57.222656 59.304688 57.144531 C 65.777344 58.808594 69.230469 58.257812 75.53125 56.933594 C 76.917969 56.46875 79.21875 57.667969 79.703125 56.113281 C 80.640625 54.746094 82.875 54.464844 83.414062 52.808594 C 83.007812 53.539062 82.140625 53.765625 81.464844 54.175781 C 83.027344 49.53125 89.324219 50.539062 90.730469 54.910156 C 89.933594 51.035156 85.269531 49.101562 82.273438 51.972656 C 80.238281 54.03125 82.207031 53.464844 79.273438 55.832031 C 78.949219 57.40625 76.960938 56.054688 75.6875 56.410156 C 73.539062 55.339844 71.183594 54.359375 69.050781 53.367188 C 67.144531 51.820312 65.515625 49.875 63.351562 48.628906 C 60.359375 46.371094 58.273438 42.683594 53.933594 43.367188 C 58.15625 42.996094 60.132812 46.820312 63.019531 49.082031 C 64.824219 50.300781 66.457031 51.714844 67.917969 53.328125 C 69.886719 54.859375 72.367188 55.238281 74.460938 56.492188 C 71.960938 56.785156 69.628906 57.878906 67.09375 58.070312 C 65.984375 58.082031 53.960938 54.769531 57.949219 58.085938 C 54.945312 58.46875 63.3125 61.757812 63.976562 61.667969 C 65.171875 61.832031 66.394531 61.332031 67.574219 61.691406 C 66.5625 64 67.582031 66.5 66.441406 68.710938 C 65.925781 74.824219 65.851562 80.949219 64.175781 86.925781 C 61.175781 82.917969 59.195312 78.261719 57.40625 73.613281 C 58.820312 78.566406 60.808594 83.484375 64.019531 87.566406 C 62.855469 91.859375 62.085938 96.65625 58.609375 99.738281 C 57.457031 92.140625 55.898438 84.007812 54.394531 76.460938 C 55.507812 84.222656 56.984375 92.445312 58.15625 100.191406 C 54.878906 103.359375 51.390625 106.28125 47.699219 108.957031 C 53.4375 104.742188 60.792969 100.75 63.070312 93.59375 C 65.03125 87.59375 66.425781 81.375 66.851562 75.070312 C 66.925781 73.015625 66.707031 70.875 67.125 68.863281 C 67.273438 67.960938 67.902344 67.285156 67.707031 66.347656 C 67.746094 64.917969 67.121094 61.15625 69.34375 62.023438 L 71.253906 62.382812 C 71.710938 62.496094 72.636719 62.59375 73.09375 62.6875 C 75.488281 63.917969 78.027344 64.742188 80.746094 64.558594 C 78.753906 64.164062 76.777344 63.804688 74.953125 62.835938 C 79.847656 63.625 84.21875 61.734375 87.710938 58.375 C 87.160156 58.722656 86.613281 59.078125 86.066406 59.441406 Z M 86.066406 59.441406 " fill-opacity="1" fill-rule="nonzero"/><path fill="#e6e6e6" d="M 51.621094 70.453125 C 51.195312 79.945312 48.894531 89.414062 49.515625 98.957031 C 49.988281 89.445312 52.289062 79.988281 51.621094 70.453125 Z M 51.621094 70.453125 " fill-opacity="1" fill-rule="nonzero"/><path fill="#e6e6e6" d="M 111.855469 118.597656 C 111.796875 118.363281 111.664062 118.183594 111.453125 118.058594 C 111.53125 118.125 111.59375 118.207031 111.640625 118.296875 C 111.390625 118.238281 111.140625 118.179688 110.882812 118.113281 C 112.445312 118.566406 111.457031 120.167969 111.386719 121.367188 C 111.207031 122.550781 111.320312 123.71875 111.363281 124.871094 C 111.898438 127.121094 110.734375 129.777344 108.019531 128.960938 C 110.863281 130.277344 112.457031 127.355469 111.894531 124.839844 C 111.570312 122.785156 112.074219 120.625 111.855469 118.597656 Z M 111.855469 118.597656 " fill-opacity="1" fill-rule="nonzero"/><path fill="#e6e6e6" d="M 114.226562 122.285156 C 113.898438 122.855469 113.738281 123.472656 113.75 124.132812 C 114.070312 123.347656 114.136719 122.507812 114.6875 121.835938 C 114.496094 121.949219 114.34375 122.097656 114.226562 122.285156 Z M 114.226562 122.285156 " fill-opacity="1" fill-rule="nonzero"/><path fill="#e6e6e6" d="M 15.714844 110.855469 C 15.425781 109.855469 15.046875 108.921875 14.804688 107.898438 C 14.457031 109.984375 15.320312 112.179688 16.503906 113.871094 C 16.296875 112.851562 16.035156 111.847656 15.714844 110.855469 Z M 15.714844 110.855469 " fill-opacity="1" fill-rule="nonzero"/><path fill="#e6e6e6" d="M 73.222656 62.097656 L 73.347656 62.125 C 73.308594 62.101562 73.265625 62.09375 73.222656 62.097656 Z M 73.222656 62.097656 " fill-opacity="1" fill-rule="nonzero"/><path fill="#e6e6e6" d="M 64.691406 23.277344 C 65.089844 24.378906 65.628906 25.585938 65.695312 26.765625 C 65.925781 25.582031 65.421875 22.425781 63.75 22.691406 C 64.1875 22.691406 64.5 22.886719 64.691406 23.277344 Z M 64.691406 23.277344 " fill-opacity="1" fill-rule="nonzero"/><path fill="#e6e6e6" d="M 65.304688 22.289062 C 66.363281 23.148438 66.644531 24.527344 67.058594 25.761719 C 67.105469 24.464844 66.648438 22.777344 65.308594 22.285156 L 65.296875 22.28125 Z M 65.304688 22.289062 " fill-opacity="1" fill-rule="nonzero"/><g clip-path="url(#4ea823ca64)"><path fill="#e6e6e6" d="M 67.941406 23.285156 C 68.652344 23.839844 69.210938 24.519531 69.628906 25.320312 C 69.546875 24.347656 68.84375 23.726562 68.269531 23.035156 C 67.414062 21.316406 68.0625 18.867188 69.691406 17.808594 C 67.53125 18.441406 66.710938 21.519531 67.941406 23.285156 Z M 67.941406 23.285156 " fill-opacity="1" fill-rule="nonzero"/></g><path fill="#e6e6e6" d="M 71.933594 23.425781 C 72.621094 24.046875 73.167969 22.945312 73.273438 22.367188 C 72.945312 22.597656 72.742188 23.09375 72.339844 23.128906 L 72.347656 23.136719 C 72.230469 22.726562 72.535156 22 72.59375 21.492188 C 73.160156 21.828125 73.765625 21.191406 73.785156 20.683594 C 72.261719 22.304688 72.691406 20.046875 73.105469 19.148438 C 73.101562 19.15625 73.09375 19.164062 73.085938 19.171875 C 73.027344 18.949219 72.925781 18.753906 72.777344 18.582031 C 72.996094 19.539062 72.621094 19.597656 72.328125 20.410156 C 72.503906 21.457031 71.46875 22.382812 71.933594 23.425781 Z M 71.933594 23.425781 " fill-opacity="1" fill-rule="nonzero"/><path fill="#e6e6e6" d="M 73.714844 114.535156 C 68.871094 112.1875 69.285156 113.515625 65.886719 116.515625 C 67.308594 116.417969 69.808594 112.230469 70.511719 114.71875 C 70.644531 116.589844 72.734375 118.65625 72.667969 120.039062 C 71.167969 120.929688 69.511719 121.574219 68.144531 122.675781 C 67.085938 123.625 65.863281 124.621094 64.46875 125.003906 C 64.039062 125.136719 63.519531 125.496094 63.09375 125.207031 C 63.457031 125.609375 64.097656 125.324219 64.550781 125.25 C 66.652344 124.980469 67.996094 123.300781 69.65625 122.242188 C 70.5 122.015625 73.347656 119.25 73.453125 120.011719 C 74.953125 122.011719 73.917969 124.066406 72.964844 126.042969 C 75.085938 121.957031 76.1875 124.664062 80.042969 123.820312 C 78.355469 123.355469 76.214844 123.542969 74.71875 123.105469 C 74.949219 122.289062 74.867188 121.5 74.480469 120.742188 C 74.125 120.0625 73.792969 118.949219 72.828125 118.988281 C 72.023438 117.511719 71.460938 115.949219 71.140625 114.296875 C 74.59375 115.90625 78.398438 117.125 82.253906 116.789062 C 79.3125 116.402344 76.464844 115.652344 73.714844 114.535156 Z M 73.183594 119.636719 C 73.226562 119.722656 73.128906 119.652344 73.121094 119.59375 C 73.140625 119.605469 73.160156 119.621094 73.183594 119.636719 Z M 73.183594 119.636719 " fill-opacity="1" fill-rule="nonzero"/><path fill="#e6e6e6" d="M 101 105.5 C 98.824219 105.550781 96.640625 106.613281 95.460938 108.480469 C 97.777344 106.800781 100.417969 106.265625 103.136719 105.601562 C 102.429688 105.492188 101.714844 105.460938 101 105.5 Z M 101 105.5 " fill-opacity="1" fill-rule="nonzero"/><path fill="#e6e6e6" d="M 46.921875 89.1875 C 44.636719 92.285156 42.660156 95.570312 40.992188 99.042969 C 43.921875 94.957031 46.621094 90.441406 49.386719 86.242188 C 48.492188 87.164062 47.671875 88.144531 46.921875 89.1875 Z M 46.921875 89.1875 " fill-opacity="1" fill-rule="nonzero"/><path fill="#e6e6e6" d="M 77.96875 42.03125 C 77.960938 42.03125 77.957031 42.035156 77.949219 42.035156 C 77.953125 42.035156 77.976562 42.027344 77.980469 42.023438 C 77.980469 42.023438 77.976562 42.027344 77.972656 42.027344 C 80.570312 40.035156 83.628906 39.128906 86.761719 40.472656 C 86.757812 40.472656 86.757812 40.46875 86.753906 40.46875 C 83.84375 38.382812 80.152344 39.394531 77.921875 41.949219 C 77.914062 41.953125 77.636719 42.191406 77.628906 42.195312 C 77.636719 42.191406 77.957031 42.03125 77.96875 42.03125 Z M 77.917969 41.949219 C 77.925781 41.945312 77.933594 41.945312 77.941406 41.945312 Z M 77.917969 41.949219 " fill-opacity="1" fill-rule="nonzero"/><path fill="#e6e6e6" d="M 76.488281 88.890625 C 77.449219 90.019531 78.75 91.03125 80.265625 91.167969 C 74.644531 88.90625 73.507812 81.648438 71.84375 76.460938 C 72.402344 80.855469 73.664062 85.386719 76.488281 88.890625 Z M 76.488281 88.890625 " fill-opacity="1" fill-rule="nonzero"/><path fill="#e6e6e6" d="M 93.382812 84.390625 C 90.257812 82.050781 87.6875 79.09375 84.808594 76.460938 C 89.769531 82.359375 95.695312 88.523438 103.753906 89.472656 C 99.925781 88.535156 96.46875 86.839844 93.382812 84.390625 Z M 93.382812 84.390625 " fill-opacity="1" fill-rule="nonzero"/><path fill="#e6e6e6" d="M 125.039062 78.402344 C 114.59375 76.292969 102.835938 74.816406 92.742188 71.53125 C 106.445312 76.910156 121.386719 78.402344 135.863281 80.515625 C 132.265625 79.75 128.652344 79.070312 125.039062 78.402344 Z M 125.039062 78.402344 " fill-opacity="1" fill-rule="nonzero"/><path fill="#e6e6e6" d="M 114.988281 86.113281 C 110.386719 82.886719 104.890625 80.988281 99.648438 79.035156 C 96.199219 77.753906 92.140625 77.386719 89.429688 74.691406 C 93.941406 79.085938 101.035156 79.273438 106.460938 82.230469 C 109.617188 83.808594 113.976562 84.628906 116.152344 87.59375 C 115.847656 87.035156 115.460938 86.539062 114.988281 86.113281 Z M 114.988281 86.113281 " fill-opacity="1" fill-rule="nonzero"/></svg>