<svg xmlns="http://www.w3.org/2000/svg" xmlns:xlink="http://www.w3.org/1999/xlink" width="200" zoomAndPan="magnify" viewBox="0 0 150 149.999998" height="200" preserveAspectRatio="xMidYMid meet" version="1.0"><defs><clipPath id="1530e98632"><path d="M 18 10 L 131.921875 10 L 131.921875 140 L 18 140 Z M 18 10 " clip-rule="nonzero"/></clipPath></defs><g clip-path="url(#1530e98632)"><path fill="#a67154" d="M 52.933594 93.808594 C 53.09375 94.34375 52.828125 94.964844 52.132812 95.585938 L 51.367188 96.371094 L 47.652344 92.652344 L 48.433594 91.890625 C 48.710938 91.582031 49.039062 91.339844 49.414062 91.160156 C 49.773438 91.03125 50.136719 91.03125 50.496094 91.160156 C 51.03125 91.355469 51.488281 91.664062 51.867188 92.085938 C 52.394531 92.554688 52.75 93.128906 52.933594 93.808594 Z M 76.847656 93.808594 C 76.640625 93.699219 76.417969 93.660156 76.183594 93.699219 C 75.953125 93.734375 75.75 93.835938 75.585938 94.003906 C 75.421875 94.171875 75.320312 94.371094 75.28125 94.605469 C 75.246094 94.835938 75.28125 95.058594 75.390625 95.269531 C 75.902344 96.171875 76.546875 96.96875 77.328125 97.652344 C 78.007812 98.425781 78.796875 99.066406 79.695312 99.570312 C 79.902344 99.6875 80.125 99.730469 80.359375 99.699219 C 80.597656 99.667969 80.800781 99.570312 80.972656 99.402344 C 81.144531 99.238281 81.25 99.039062 81.289062 98.800781 C 81.328125 98.566406 81.296875 98.34375 81.1875 98.128906 C 80.671875 97.253906 80.03125 96.476562 79.265625 95.800781 C 78.574219 95.019531 77.769531 94.378906 76.847656 93.882812 Z M 58.464844 116.355469 C 57.949219 115.796875 57.359375 115.339844 56.683594 114.988281 C 56.296875 114.769531 55.882812 114.683594 55.441406 114.738281 C 55.035156 114.847656 54.691406 115.0625 54.410156 115.378906 L 54.144531 115.644531 L 59.476562 120.980469 L 59.761719 120.695312 C 60.089844 120.402344 60.296875 120.039062 60.382812 119.609375 C 60.417969 119.132812 60.304688 118.695312 60.046875 118.292969 C 59.617188 117.566406 59.089844 116.921875 58.464844 116.355469 Z M 79.640625 62 L 83.660156 68.207031 L 85.898438 65.964844 Z M 130.832031 22.703125 C 129.816406 29.640625 123.078125 37.710938 117.15625 43.632812 C 116.199219 44.609375 115.253906 45.5 114.367188 46.335938 C 115.535156 47.921875 116.125 49.699219 116.144531 51.667969 L 117.070312 77.949219 C 117.066406 79.355469 116.929688 80.746094 116.652344 82.125 C 116.378906 83.5 115.976562 84.839844 115.441406 86.136719 C 114.90625 87.4375 114.25 88.671875 113.472656 89.84375 C 112.695312 91.015625 111.816406 92.097656 110.828125 93.097656 L 67.230469 136.644531 C 66.792969 137.078125 66.316406 137.464844 65.804688 137.804688 C 65.289062 138.148438 64.75 138.433594 64.179688 138.671875 C 63.609375 138.90625 63.023438 139.082031 62.417969 139.203125 C 61.816406 139.320312 61.203125 139.382812 60.589844 139.382812 C 59.972656 139.382812 59.363281 139.320312 58.757812 139.203125 C 58.152344 139.082031 57.566406 138.90625 56.996094 138.671875 C 56.425781 138.433594 55.886719 138.148438 55.371094 137.804688 C 54.859375 137.464844 54.382812 137.078125 53.945312 136.644531 L 21.550781 104.246094 C 21.117188 103.808594 20.730469 103.335938 20.386719 102.820312 C 20.046875 102.308594 19.757812 101.765625 19.523438 101.199219 C 19.289062 100.628906 19.113281 100.042969 18.992188 99.4375 C 18.871094 98.832031 18.8125 98.222656 18.8125 97.605469 C 18.8125 96.988281 18.871094 96.378906 18.992188 95.773438 C 19.113281 95.171875 19.289062 94.582031 19.523438 94.015625 C 19.757812 93.445312 20.046875 92.902344 20.386719 92.390625 C 20.730469 91.878906 21.117188 91.402344 21.550781 90.964844 L 65.042969 47.507812 C 66.058594 46.5 67.167969 45.597656 68.363281 44.808594 C 69.5625 44.019531 70.824219 43.359375 72.15625 42.824219 C 73.484375 42.289062 74.855469 41.886719 76.265625 41.625 C 77.675781 41.363281 79.09375 41.246094 80.527344 41.269531 L 106.507812 42.671875 C 107.375 39.261719 108.910156 36.1875 111.113281 33.445312 C 112.878906 31.210938 114.171875 28.730469 114.992188 26.003906 C 115.8125 23.273438 116.101562 20.492188 115.859375 17.65625 C 115.804688 17.058594 115.824219 16.464844 115.921875 15.875 C 116.015625 15.285156 116.1875 14.71875 116.429688 14.171875 C 116.671875 13.625 116.980469 13.117188 117.355469 12.652344 C 117.726562 12.183594 118.152344 11.769531 118.632812 11.414062 C 119.554688 10.714844 120.589844 10.277344 121.734375 10.097656 C 122.878906 9.921875 123.996094 10.027344 125.085938 10.417969 C 127.738281 11.433594 132.003906 14.382812 130.832031 22.703125 Z M 107.714844 50.316406 C 108.125 50.496094 108.5 49.695312 108.570312 49.625 L 107.714844 49.125 C 107.714844 49.234375 107.324219 50.15625 107.714844 50.316406 Z M 75.960938 60.363281 L 85.046875 76.367188 L 87.339844 74.019531 L 85.3125 70.835938 L 88.511719 67.636719 L 91.714844 69.644531 L 94.273438 67.085938 L 78.539062 57.839844 Z M 69.308594 67.015625 L 81.757812 79.460938 L 84.246094 76.953125 L 71.800781 64.507812 Z M 62.199219 77.167969 C 62.859375 79.460938 64.078125 81.40625 65.859375 83 C 67.449219 84.742188 69.382812 85.925781 71.65625 86.554688 C 72.550781 86.773438 73.4375 86.75 74.320312 86.484375 C 75.199219 86.222656 75.953125 85.753906 76.582031 85.078125 C 77.117188 84.566406 77.511719 83.964844 77.773438 83.273438 C 78.035156 82.582031 78.136719 81.867188 78.074219 81.132812 C 77.851562 79.402344 77.140625 77.902344 75.941406 76.632812 L 73.46875 78.804688 C 74.964844 80.605469 75.265625 81.972656 74.378906 82.910156 C 74.097656 83.195312 73.765625 83.375 73.375 83.449219 C 72.984375 83.523438 72.605469 83.480469 72.242188 83.320312 C 70.878906 82.640625 69.691406 81.726562 68.6875 80.582031 C 67.417969 79.46875 66.417969 78.152344 65.683594 76.632812 C 65.519531 76.273438 65.464844 75.898438 65.527344 75.507812 C 65.589844 75.117188 65.753906 74.773438 66.019531 74.480469 C 67.015625 73.488281 68.472656 73.894531 70.394531 75.691406 L 72.492188 73.21875 C 69.03125 70.195312 66.109375 69.871094 63.726562 72.242188 C 63.046875 72.867188 62.574219 73.617188 62.300781 74.5 C 62.027344 75.378906 61.992188 76.269531 62.199219 77.167969 Z M 51.867188 84.476562 L 64.3125 96.921875 L 71.265625 90.023438 L 69.042969 87.800781 L 64.617188 92.210938 L 61.484375 89.152344 L 65.042969 85.71875 L 62.910156 83.585938 L 59.476562 87.015625 L 56.507812 84.121094 L 60.917969 79.691406 L 58.765625 77.574219 Z M 43.136719 93.1875 L 55.582031 105.632812 L 58.070312 103.125 L 53.449219 98.503906 L 54.339844 97.632812 C 55.230469 96.835938 55.914062 95.886719 56.382812 94.789062 C 56.675781 93.941406 56.675781 93.09375 56.382812 92.246094 C 56.003906 91.199219 55.410156 90.292969 54.605469 89.523438 C 53.78125 88.664062 52.796875 88.074219 51.652344 87.746094 C 50.761719 87.449219 49.890625 87.496094 49.039062 87.890625 C 48.074219 88.429688 47.214844 89.105469 46.460938 89.914062 Z M 50.25 111.449219 C 50.535156 111.199219 50.789062 110.921875 51.015625 110.617188 C 51.242188 110.3125 51.433594 109.984375 51.589844 109.640625 C 51.746094 109.292969 51.863281 108.933594 51.945312 108.566406 C 52.023438 108.195312 52.066406 107.816406 52.066406 107.4375 C 52.066406 107.058594 52.023438 106.683594 51.945312 106.3125 C 51.863281 105.941406 51.746094 105.582031 51.589844 105.238281 C 51.433594 104.890625 51.242188 104.566406 51.015625 104.261719 C 50.789062 103.957031 50.535156 103.679688 50.25 103.429688 C 49.648438 102.796875 48.9375 102.34375 48.113281 102.058594 C 47.394531 101.8125 46.660156 101.753906 45.910156 101.882812 C 45 102.066406 44.121094 102.347656 43.277344 102.734375 C 42.503906 103.089844 41.699219 103.339844 40.859375 103.484375 C 40.371094 103.539062 39.964844 103.382812 39.632812 103.019531 C 39.316406 102.714844 39.164062 102.339844 39.171875 101.898438 C 39.160156 101.417969 39.332031 101.015625 39.6875 100.691406 C 40.46875 99.910156 41.464844 99.871094 42.851562 100.691406 L 44.042969 97.757812 C 43.542969 97.398438 42.996094 97.140625 42.402344 96.984375 C 41.804688 96.832031 41.203125 96.789062 40.59375 96.863281 C 39.980469 96.933594 39.40625 97.117188 38.863281 97.40625 C 38.320312 97.695312 37.847656 98.074219 37.445312 98.539062 C 36.933594 99.011719 36.542969 99.570312 36.273438 100.210938 C 36.003906 100.855469 35.878906 101.523438 35.898438 102.21875 C 35.941406 102.9375 36.117188 103.621094 36.421875 104.269531 C 36.730469 104.917969 37.148438 105.484375 37.675781 105.972656 C 38.289062 106.601562 39.011719 107.050781 39.847656 107.324219 C 40.589844 107.5625 41.339844 107.601562 42.105469 107.449219 C 43.097656 107.203125 44.058594 106.863281 44.984375 106.433594 C 45.628906 106.09375 46.316406 105.914062 47.046875 105.902344 C 47.480469 105.945312 47.847656 106.121094 48.152344 106.433594 C 48.550781 106.804688 48.738281 107.261719 48.71875 107.804688 C 48.683594 108.371094 48.457031 108.851562 48.042969 109.242188 C 47.082031 110.1875 45.855469 110.167969 44.328125 109.242188 L 42.835938 112.105469 C 45.726562 113.742188 48.199219 113.523438 50.25 111.449219 Z M 62.554688 118.917969 C 62.46875 118.207031 62.25 117.542969 61.894531 116.925781 C 61.453125 116.113281 60.902344 115.386719 60.242188 114.738281 C 59.4375 113.871094 58.488281 113.207031 57.398438 112.746094 C 56.625 112.441406 55.84375 112.414062 55.050781 112.65625 C 54.214844 112.996094 53.492188 113.492188 52.878906 114.152344 L 51.101562 115.929688 L 59.121094 123.949219 L 61.113281 122.027344 C 61.5625 121.589844 61.941406 121.097656 62.25 120.550781 C 62.519531 120.039062 62.617188 119.492188 62.554688 118.917969 Z M 66.945312 116.140625 L 58.925781 108.105469 L 57.324219 109.722656 L 65.34375 117.742188 Z M 71.640625 110.257812 C 71.625 109.242188 71.246094 108.386719 70.5 107.695312 C 70.113281 107.300781 69.65625 107.007812 69.132812 106.824219 C 68.667969 106.664062 68.191406 106.628906 67.710938 106.71875 C 67.125 106.828125 66.5625 107.007812 66.019531 107.253906 C 65.527344 107.484375 65.011719 107.644531 64.472656 107.730469 C 64.160156 107.765625 63.898438 107.667969 63.691406 107.429688 C 63.589844 107.332031 63.511719 107.21875 63.453125 107.089844 C 63.398438 106.960938 63.371094 106.824219 63.371094 106.683594 C 63.371094 106.542969 63.398438 106.40625 63.453125 106.277344 C 63.511719 106.148438 63.589844 106.035156 63.691406 105.9375 C 64.1875 105.4375 64.863281 105.4375 65.71875 105.9375 L 66.484375 104.050781 C 66.160156 103.820312 65.808594 103.65625 65.421875 103.558594 C 65.039062 103.460938 64.652344 103.433594 64.257812 103.480469 C 63.863281 103.53125 63.492188 103.648438 63.144531 103.835938 C 62.792969 104.023438 62.492188 104.265625 62.234375 104.566406 C 61.546875 105.207031 61.21875 105.996094 61.253906 106.933594 C 61.308594 107.890625 61.6875 108.699219 62.394531 109.351562 C 62.785156 109.75 63.246094 110.035156 63.78125 110.203125 C 64.265625 110.328125 64.75 110.328125 65.238281 110.203125 C 65.851562 110.039062 66.445312 109.820312 67.015625 109.546875 C 67.425781 109.324219 67.867188 109.210938 68.332031 109.207031 C 68.609375 109.234375 68.847656 109.347656 69.042969 109.546875 C 69.308594 109.78125 69.433594 110.078125 69.417969 110.433594 C 69.394531 110.800781 69.246094 111.101562 68.972656 111.339844 C 68.367188 111.964844 67.566406 111.945312 66.589844 111.339844 L 65.628906 113.121094 C 66.191406 113.519531 66.816406 113.75 67.503906 113.804688 C 68.191406 113.859375 68.84375 113.730469 69.460938 113.425781 C 70.078125 113.117188 70.574219 112.675781 70.945312 112.09375 C 71.316406 111.511719 71.511719 110.875 71.53125 110.1875 Z M 77.488281 104.246094 C 77.34375 103.136719 76.886719 102.179688 76.121094 101.367188 L 74.539062 102.753906 C 75.496094 103.925781 75.691406 104.796875 75.105469 105.386719 C 74.929688 105.574219 74.714844 105.691406 74.464844 105.738281 C 74.210938 105.789062 73.96875 105.757812 73.738281 105.652344 C 72.84375 105.21875 72.070312 104.628906 71.425781 103.875 C 70.601562 103.164062 69.953125 102.316406 69.488281 101.332031 C 69.382812 101.101562 69.351562 100.859375 69.394531 100.609375 C 69.4375 100.363281 69.542969 100.144531 69.71875 99.960938 C 70.339844 99.320312 71.285156 99.589844 72.511719 100.726562 L 73.933594 99.089844 C 71.726562 97.148438 69.859375 96.945312 68.332031 98.484375 C 67.890625 98.886719 67.582031 99.375 67.40625 99.945312 C 67.230469 100.515625 67.214844 101.089844 67.355469 101.667969 C 67.777344 103.136719 68.5625 104.382812 69.699219 105.402344 C 70.699219 106.566406 71.929688 107.367188 73.398438 107.804688 C 73.976562 107.945312 74.546875 107.929688 75.113281 107.757812 C 75.679688 107.585938 76.164062 107.28125 76.5625 106.84375 C 76.910156 106.503906 77.164062 106.109375 77.328125 105.652344 C 77.488281 105.195312 77.542969 104.726562 77.488281 104.246094 Z M 80.902344 94.183594 C 79.878906 93.011719 78.625 92.207031 77.132812 91.765625 C 76.582031 91.640625 76.035156 91.660156 75.496094 91.828125 C 74.953125 91.996094 74.492188 92.289062 74.109375 92.707031 C 72.378906 94.472656 72.914062 96.707031 75.710938 99.410156 C 76.726562 100.582031 77.976562 101.386719 79.460938 101.828125 C 80.015625 101.964844 80.566406 101.949219 81.109375 101.785156 C 81.65625 101.617188 82.117188 101.324219 82.503906 100.90625 C 84.191406 99.144531 83.695312 96.867188 80.9375 94.113281 Z M 89.792969 92.636719 C 89.859375 91.992188 89.714844 91.402344 89.367188 90.859375 C 88.816406 90.074219 88.195312 89.347656 87.5 88.6875 L 82.984375 84.171875 L 81.632812 85.523438 L 86.253906 90.023438 C 86.71875 90.449219 87.144531 90.910156 87.535156 91.410156 C 87.742188 91.664062 87.835938 91.953125 87.820312 92.28125 C 87.804688 92.625 87.667969 92.90625 87.410156 93.132812 C 87.183594 93.367188 86.910156 93.507812 86.59375 93.5625 C 86.253906 93.585938 85.945312 93.503906 85.667969 93.3125 C 85.152344 92.929688 84.679688 92.503906 84.246094 92.03125 L 79.65625 87.445312 L 78.039062 89.0625 L 82.628906 93.578125 C 83.34375 94.375 84.167969 95.039062 85.097656 95.570312 C 85.667969 95.847656 86.257812 95.917969 86.878906 95.785156 C 87.574219 95.558594 88.167969 95.171875 88.65625 94.628906 C 89.289062 94.078125 89.679688 93.390625 89.828125 92.566406 Z M 97.226562 85.898438 L 89.207031 77.859375 L 87.960938 79.105469 L 92.941406 84.082031 L 86.078125 80.988281 L 84.296875 82.769531 L 92.335938 90.785156 L 93.5625 89.558594 L 87.800781 83.675781 L 95.839844 87.230469 Z M 100.78125 82.339844 L 94.308594 75.796875 L 95.804688 74.304688 L 94.292969 72.792969 L 89.738281 77.34375 L 91.25 78.855469 L 92.691406 77.398438 L 99.21875 83.921875 Z M 101.296875 60.0625 L 99.003906 57.625 L 95.269531 61.289062 L 85.132812 51.152344 L 82.628906 53.644531 L 95.074219 66.089844 Z M 109.136719 50.90625 C 108.621094 51.3125 108.019531 52.078125 107.359375 51.863281 C 107.054688 51.757812 106.800781 51.578125 106.59375 51.328125 C 106.386719 51.082031 106.257812 50.796875 106.203125 50.476562 C 106.203125 50.300781 106.097656 49.445312 106.082031 49.234375 C 105.851562 49.320312 105.648438 49.453125 105.476562 49.625 C 105.277344 49.824219 105.121094 50.054688 105.011719 50.316406 C 104.90625 50.578125 104.851562 50.851562 104.851562 51.136719 C 104.851562 51.417969 104.90625 51.691406 105.015625 51.953125 C 105.125 52.214844 105.277344 52.445312 105.476562 52.644531 C 105.679688 52.84375 105.910156 53 106.171875 53.109375 C 106.433594 53.21875 106.703125 53.269531 106.988281 53.269531 C 107.269531 53.273438 107.542969 53.21875 107.804688 53.109375 C 108.066406 53 108.296875 52.847656 108.5 52.648438 C 108.976562 52.164062 109.191406 51.582031 109.136719 50.90625 Z M 124.464844 12.070312 C 123.660156 11.792969 122.839844 11.71875 122 11.851562 C 121.15625 11.984375 120.398438 12.304688 119.71875 12.820312 C 118.988281 13.371094 118.4375 14.0625 118.066406 14.894531 C 117.691406 15.730469 117.542969 16.601562 117.621094 17.511719 C 117.738281 19.027344 117.71875 20.539062 117.558594 22.050781 C 117.398438 23.5625 117.097656 25.042969 116.664062 26.5 C 116.226562 27.953125 115.660156 29.355469 114.960938 30.707031 C 114.265625 32.054688 113.449219 33.332031 112.515625 34.527344 C 110.535156 36.996094 109.132812 39.757812 108.304688 42.816406 C 110.105469 43.074219 111.6875 43.808594 113.050781 45.019531 C 119.292969 39.242188 127.878906 30.011719 129.054688 22.457031 C 129.816406 17.121094 128.234375 13.566406 124.464844 12.070312 Z M 124.464844 12.070312 " fill-opacity="1" fill-rule="nonzero"/></g></svg>